%TF.GenerationSoftware,KiCad,Pcbnew,9.0.1*%
%TF.CreationDate,2025-09-05T17:52:38+02:00*%
%TF.ProjectId,sensorBoard,73656e73-6f72-4426-9f61-72642e6b6963,rev?*%
%TF.SameCoordinates,Original*%
%TF.FileFunction,Copper,L1,Top*%
%TF.FilePolarity,Positive*%
%FSLAX46Y46*%
G04 Gerber Fmt 4.6, Leading zero omitted, Abs format (unit mm)*
G04 Created by KiCad (PCBNEW 9.0.1) date 2025-09-05 17:52:38*
%MOMM*%
%LPD*%
G01*
G04 APERTURE LIST*
G04 Aperture macros list*
%AMRoundRect*
0 Rectangle with rounded corners*
0 $1 Rounding radius*
0 $2 $3 $4 $5 $6 $7 $8 $9 X,Y pos of 4 corners*
0 Add a 4 corners polygon primitive as box body*
4,1,4,$2,$3,$4,$5,$6,$7,$8,$9,$2,$3,0*
0 Add four circle primitives for the rounded corners*
1,1,$1+$1,$2,$3*
1,1,$1+$1,$4,$5*
1,1,$1+$1,$6,$7*
1,1,$1+$1,$8,$9*
0 Add four rect primitives between the rounded corners*
20,1,$1+$1,$2,$3,$4,$5,0*
20,1,$1+$1,$4,$5,$6,$7,0*
20,1,$1+$1,$6,$7,$8,$9,0*
20,1,$1+$1,$8,$9,$2,$3,0*%
G04 Aperture macros list end*
%TA.AperFunction,SMDPad,CuDef*%
%ADD10RoundRect,0.114000X-0.266000X0.521000X-0.266000X-0.521000X0.266000X-0.521000X0.266000X0.521000X0*%
%TD*%
%TA.AperFunction,SMDPad,CuDef*%
%ADD11RoundRect,0.075000X0.075000X-0.700000X0.075000X0.700000X-0.075000X0.700000X-0.075000X-0.700000X0*%
%TD*%
%TA.AperFunction,SMDPad,CuDef*%
%ADD12RoundRect,0.075000X0.700000X-0.075000X0.700000X0.075000X-0.700000X0.075000X-0.700000X-0.075000X0*%
%TD*%
%TA.AperFunction,SMDPad,CuDef*%
%ADD13R,2.920000X1.270000*%
%TD*%
%TA.AperFunction,SMDPad,CuDef*%
%ADD14R,1.650000X3.430000*%
%TD*%
%TA.AperFunction,SMDPad,CuDef*%
%ADD15RoundRect,0.250000X0.262500X0.450000X-0.262500X0.450000X-0.262500X-0.450000X0.262500X-0.450000X0*%
%TD*%
%TA.AperFunction,SMDPad,CuDef*%
%ADD16RoundRect,0.225000X0.225000X0.250000X-0.225000X0.250000X-0.225000X-0.250000X0.225000X-0.250000X0*%
%TD*%
%TA.AperFunction,SMDPad,CuDef*%
%ADD17RoundRect,0.150000X-0.587500X-0.150000X0.587500X-0.150000X0.587500X0.150000X-0.587500X0.150000X0*%
%TD*%
%TA.AperFunction,SMDPad,CuDef*%
%ADD18RoundRect,0.225000X0.250000X-0.225000X0.250000X0.225000X-0.250000X0.225000X-0.250000X-0.225000X0*%
%TD*%
%TA.AperFunction,SMDPad,CuDef*%
%ADD19R,2.000000X1.700000*%
%TD*%
%TA.AperFunction,SMDPad,CuDef*%
%ADD20RoundRect,0.250000X0.450000X-0.262500X0.450000X0.262500X-0.450000X0.262500X-0.450000X-0.262500X0*%
%TD*%
%TA.AperFunction,SMDPad,CuDef*%
%ADD21RoundRect,0.250000X-0.262500X-0.450000X0.262500X-0.450000X0.262500X0.450000X-0.262500X0.450000X0*%
%TD*%
%TA.AperFunction,ComponentPad*%
%ADD22R,1.700000X1.700000*%
%TD*%
%TA.AperFunction,ComponentPad*%
%ADD23C,1.700000*%
%TD*%
%TA.AperFunction,SMDPad,CuDef*%
%ADD24RoundRect,0.150000X0.150000X-0.825000X0.150000X0.825000X-0.150000X0.825000X-0.150000X-0.825000X0*%
%TD*%
%TA.AperFunction,SMDPad,CuDef*%
%ADD25RoundRect,0.112500X0.112500X-0.187500X0.112500X0.187500X-0.112500X0.187500X-0.112500X-0.187500X0*%
%TD*%
%TA.AperFunction,ComponentPad*%
%ADD26C,0.800000*%
%TD*%
%TA.AperFunction,ComponentPad*%
%ADD27C,5.000000*%
%TD*%
%TA.AperFunction,ComponentPad*%
%ADD28R,1.500000X1.500000*%
%TD*%
%TA.AperFunction,ComponentPad*%
%ADD29C,1.500000*%
%TD*%
%TA.AperFunction,ComponentPad*%
%ADD30C,2.300000*%
%TD*%
%TA.AperFunction,SMDPad,CuDef*%
%ADD31RoundRect,0.250000X-0.475000X0.250000X-0.475000X-0.250000X0.475000X-0.250000X0.475000X0.250000X0*%
%TD*%
%TA.AperFunction,SMDPad,CuDef*%
%ADD32RoundRect,0.250000X-0.450000X0.262500X-0.450000X-0.262500X0.450000X-0.262500X0.450000X0.262500X0*%
%TD*%
%TA.AperFunction,SMDPad,CuDef*%
%ADD33RoundRect,0.250000X0.250000X0.475000X-0.250000X0.475000X-0.250000X-0.475000X0.250000X-0.475000X0*%
%TD*%
%TA.AperFunction,SMDPad,CuDef*%
%ADD34RoundRect,0.140000X-0.140000X-0.170000X0.140000X-0.170000X0.140000X0.170000X-0.140000X0.170000X0*%
%TD*%
%TA.AperFunction,SMDPad,CuDef*%
%ADD35RoundRect,0.243750X-0.456250X0.243750X-0.456250X-0.243750X0.456250X-0.243750X0.456250X0.243750X0*%
%TD*%
%TA.AperFunction,ComponentPad*%
%ADD36C,4.000000*%
%TD*%
%TA.AperFunction,ComponentPad*%
%ADD37C,2.000000*%
%TD*%
%TA.AperFunction,SMDPad,CuDef*%
%ADD38RoundRect,0.150000X0.150000X-0.587500X0.150000X0.587500X-0.150000X0.587500X-0.150000X-0.587500X0*%
%TD*%
%TA.AperFunction,SMDPad,CuDef*%
%ADD39RoundRect,0.150000X0.512500X0.150000X-0.512500X0.150000X-0.512500X-0.150000X0.512500X-0.150000X0*%
%TD*%
%TA.AperFunction,SMDPad,CuDef*%
%ADD40RoundRect,0.250000X1.500000X0.550000X-1.500000X0.550000X-1.500000X-0.550000X1.500000X-0.550000X0*%
%TD*%
%TA.AperFunction,SMDPad,CuDef*%
%ADD41RoundRect,0.250000X0.375000X0.625000X-0.375000X0.625000X-0.375000X-0.625000X0.375000X-0.625000X0*%
%TD*%
%TA.AperFunction,SMDPad,CuDef*%
%ADD42R,1.700000X2.000000*%
%TD*%
%TA.AperFunction,SMDPad,CuDef*%
%ADD43RoundRect,0.250000X0.475000X-0.250000X0.475000X0.250000X-0.475000X0.250000X-0.475000X-0.250000X0*%
%TD*%
%TA.AperFunction,SMDPad,CuDef*%
%ADD44R,1.400000X1.200000*%
%TD*%
%TA.AperFunction,ViaPad*%
%ADD45C,0.600000*%
%TD*%
%TA.AperFunction,ViaPad*%
%ADD46C,0.500000*%
%TD*%
%TA.AperFunction,Conductor*%
%ADD47C,0.200000*%
%TD*%
%TA.AperFunction,Conductor*%
%ADD48C,0.500000*%
%TD*%
%TA.AperFunction,Conductor*%
%ADD49C,1.000000*%
%TD*%
%TA.AperFunction,Conductor*%
%ADD50C,2.000000*%
%TD*%
%TA.AperFunction,Conductor*%
%ADD51C,1.200000*%
%TD*%
%TA.AperFunction,Conductor*%
%ADD52C,0.700000*%
%TD*%
G04 APERTURE END LIST*
D10*
%TO.P,SW1,1*%
%TO.N,Net-(R34-Pad1)*%
X144200000Y-72490000D03*
%TO.P,SW1,2*%
%TO.N,/Platine1/CAN_L*%
X144200000Y-80110000D03*
%TD*%
D11*
%TO.P,U23,1,VBAT*%
%TO.N,unconnected-(U23-VBAT-Pad1)*%
X144850000Y-112575000D03*
%TO.P,U23,2,PC13*%
%TO.N,unconnected-(U23-PC13-Pad2)*%
X145350000Y-112575000D03*
%TO.P,U23,3,PC14*%
%TO.N,unconnected-(U23-PC14-Pad3)*%
X145850000Y-112575000D03*
%TO.P,U23,4,PC15*%
%TO.N,unconnected-(U23-PC15-Pad4)*%
X146350000Y-112575000D03*
%TO.P,U23,5,PH0*%
%TO.N,Net-(U23-PH0)*%
X146850000Y-112575000D03*
%TO.P,U23,6,PH1*%
%TO.N,Net-(U23-PH1)*%
X147350000Y-112575000D03*
%TO.P,U23,7,NRST*%
%TO.N,/Platine1/microcontroller1/RST*%
X147850000Y-112575000D03*
%TO.P,U23,8,PC0*%
%TO.N,unconnected-(U23-PC0-Pad8)*%
X148350000Y-112575000D03*
%TO.P,U23,9,PC1*%
%TO.N,unconnected-(U23-PC1-Pad9)*%
X148850000Y-112575000D03*
%TO.P,U23,10,PC2*%
%TO.N,unconnected-(U23-PC2-Pad10)*%
X149350000Y-112575000D03*
%TO.P,U23,11,PC3*%
%TO.N,unconnected-(U23-PC3-Pad11)*%
X149850000Y-112575000D03*
%TO.P,U23,12,VSSA*%
%TO.N,GND*%
X150350000Y-112575000D03*
%TO.P,U23,13,VDDA*%
%TO.N,+3.3V*%
X150850000Y-112575000D03*
%TO.P,U23,14,PA0*%
%TO.N,unconnected-(U23-PA0-Pad14)*%
X151350000Y-112575000D03*
%TO.P,U23,15,PA1*%
%TO.N,unconnected-(U23-PA1-Pad15)*%
X151850000Y-112575000D03*
%TO.P,U23,16,PA2*%
%TO.N,/Platine1/microcontroller1/UART_TX*%
X152350000Y-112575000D03*
D12*
%TO.P,U23,17,PA3*%
%TO.N,/Platine1/microcontroller1/UART_RX*%
X154275000Y-110650000D03*
%TO.P,U23,18,VSS*%
%TO.N,GND*%
X154275000Y-110150000D03*
%TO.P,U23,19,VDD*%
%TO.N,+3.3V*%
X154275000Y-109650000D03*
%TO.P,U23,20,PA4*%
%TO.N,unconnected-(U23-PA4-Pad20)*%
X154275000Y-109150000D03*
%TO.P,U23,21,PA5*%
%TO.N,/Platine1/Commutation1-1/IN8*%
X154275000Y-108650000D03*
%TO.P,U23,22,PA6*%
%TO.N,/Platine1/Commutation1-1/IN10*%
X154275000Y-108150000D03*
%TO.P,U23,23,PA7*%
%TO.N,/Platine1/Commutation1-1/IN9*%
X154275000Y-107650000D03*
%TO.P,U23,24,PC4*%
%TO.N,/Platine1/Commutation1-1/IN7*%
X154275000Y-107150000D03*
%TO.P,U23,25,PC5*%
%TO.N,/Platine1/Commutation1-1/IN6*%
X154275000Y-106650000D03*
%TO.P,U23,26,PB0*%
%TO.N,/Platine1/Commutation1-1/IN5*%
X154275000Y-106150000D03*
%TO.P,U23,27,PB1*%
%TO.N,/Platine1/Commutation1-1/IN4*%
X154275000Y-105650000D03*
%TO.P,U23,28,PB2*%
%TO.N,/Platine1/Commutation1-1/IN3*%
X154275000Y-105150000D03*
%TO.P,U23,29,PB10*%
%TO.N,/Platine1/Commutation1-1/IN2*%
X154275000Y-104650000D03*
%TO.P,U23,30,PB11*%
%TO.N,/Platine1/Commutation1-1/IN1*%
X154275000Y-104150000D03*
%TO.P,U23,31,VSS*%
%TO.N,GND*%
X154275000Y-103650000D03*
%TO.P,U23,32,VDD*%
%TO.N,+3.3V*%
X154275000Y-103150000D03*
D11*
%TO.P,U23,33,PB12*%
%TO.N,/Platine1/microcontroller1/CAN_EN*%
X152350000Y-101225000D03*
%TO.P,U23,34,PB13*%
%TO.N,unconnected-(U23-PB13-Pad34)*%
X151850000Y-101225000D03*
%TO.P,U23,35,PB14*%
%TO.N,unconnected-(U23-PB14-Pad35)*%
X151350000Y-101225000D03*
%TO.P,U23,36,PB15*%
%TO.N,unconnected-(U23-PB15-Pad36)*%
X150850000Y-101225000D03*
%TO.P,U23,37,PC6*%
%TO.N,unconnected-(U23-PC6-Pad37)*%
X150350000Y-101225000D03*
%TO.P,U23,38,PC7*%
%TO.N,unconnected-(U23-PC7-Pad38)*%
X149850000Y-101225000D03*
%TO.P,U23,39,PC8*%
%TO.N,unconnected-(U23-PC8-Pad39)*%
X149350000Y-101225000D03*
%TO.P,U23,40,PC9*%
%TO.N,unconnected-(U23-PC9-Pad40)*%
X148850000Y-101225000D03*
%TO.P,U23,41,PA8*%
%TO.N,unconnected-(U23-PA8-Pad41)*%
X148350000Y-101225000D03*
%TO.P,U23,42,PA9*%
%TO.N,unconnected-(U23-PA9-Pad42)*%
X147850000Y-101225000D03*
%TO.P,U23,43,PA10*%
%TO.N,unconnected-(U23-PA10-Pad43)*%
X147350000Y-101225000D03*
%TO.P,U23,44,PA11*%
%TO.N,/Platine1/CanTransceiver1/CAN_RX*%
X146850000Y-101225000D03*
%TO.P,U23,45,PA12*%
%TO.N,/Platine1/CanTransceiver1/CAN_TX*%
X146350000Y-101225000D03*
%TO.P,U23,46,PA13*%
%TO.N,/Platine1/microcontroller1/SWDIO*%
X145850000Y-101225000D03*
%TO.P,U23,47,VSS*%
%TO.N,GND*%
X145350000Y-101225000D03*
%TO.P,U23,48,VDDUSB*%
%TO.N,+3.3V*%
X144850000Y-101225000D03*
D12*
%TO.P,U23,49,PA14*%
%TO.N,/Platine1/microcontroller1/SWCLK*%
X142925000Y-103150000D03*
%TO.P,U23,50,PA15*%
%TO.N,unconnected-(U23-PA15-Pad50)*%
X142925000Y-103650000D03*
%TO.P,U23,51,PC10*%
%TO.N,unconnected-(U23-PC10-Pad51)*%
X142925000Y-104150000D03*
%TO.P,U23,52,PC11*%
%TO.N,unconnected-(U23-PC11-Pad52)*%
X142925000Y-104650000D03*
%TO.P,U23,53,PC12*%
%TO.N,unconnected-(U23-PC12-Pad53)*%
X142925000Y-105150000D03*
%TO.P,U23,54,PD2*%
%TO.N,unconnected-(U23-PD2-Pad54)*%
X142925000Y-105650000D03*
%TO.P,U23,55,PB3*%
%TO.N,Net-(D3-A)*%
X142925000Y-106150000D03*
%TO.P,U23,56,PB4*%
%TO.N,Net-(D5-A)*%
X142925000Y-106650000D03*
%TO.P,U23,57,PB5*%
%TO.N,unconnected-(U23-PB5-Pad57)*%
X142925000Y-107150000D03*
%TO.P,U23,58,PB6*%
%TO.N,unconnected-(U23-PB6-Pad58)*%
X142925000Y-107650000D03*
%TO.P,U23,59,PB7*%
%TO.N,unconnected-(U23-PB7-Pad59)*%
X142925000Y-108150000D03*
%TO.P,U23,60,BOOT0*%
%TO.N,Net-(U23-BOOT0)*%
X142925000Y-108650000D03*
%TO.P,U23,61,PB8*%
%TO.N,unconnected-(U23-PB8-Pad61)*%
X142925000Y-109150000D03*
%TO.P,U23,62,PB9*%
%TO.N,unconnected-(U23-PB9-Pad62)*%
X142925000Y-109650000D03*
%TO.P,U23,63,VSS*%
%TO.N,GND*%
X142925000Y-110150000D03*
%TO.P,U23,64,VDD*%
%TO.N,+3.3V*%
X142925000Y-110650000D03*
%TD*%
D13*
%TO.P,J2,1,Pin_1*%
%TO.N,+24V*%
X200295000Y-52600000D03*
%TO.P,J2,2,Pin_2*%
%TO.N,/Platine1/Commutation1-1/OUT6*%
X200295000Y-55600000D03*
%TO.P,J2,3,Pin_3*%
%TO.N,/Platine1/Commutation1-1/OUT4*%
X195675000Y-52600000D03*
%TO.P,J2,4,Pin_4*%
%TO.N,/Platine1/Commutation1-1/OUT5*%
X195675000Y-55600000D03*
D14*
%TO.P,J2,MP1*%
%TO.N,N/C*%
X205775000Y-59495000D03*
%TO.P,J2,MP2*%
X205775000Y-48705000D03*
%TD*%
D13*
%TO.P,J9,1,Pin_1*%
%TO.N,+24V*%
X200180000Y-107900000D03*
%TO.P,J9,2,Pin_2*%
%TO.N,/Platine1/Commutation1-1/OUT8*%
X200180000Y-110900000D03*
D14*
%TO.P,J9,MP1*%
%TO.N,N/C*%
X205650000Y-114795000D03*
%TO.P,J9,MP2*%
X205650000Y-104005000D03*
%TD*%
D15*
%TO.P,R33,1*%
%TO.N,Net-(U2-RS)*%
X142812500Y-93100000D03*
%TO.P,R33,2*%
%TO.N,GND*%
X140987500Y-93100000D03*
%TD*%
D16*
%TO.P,C16,1*%
%TO.N,Net-(U3-EN)*%
X160875000Y-57100000D03*
%TO.P,C16,2*%
%TO.N,GND*%
X159325000Y-57100000D03*
%TD*%
D17*
%TO.P,Q6,1,G*%
%TO.N,/Platine1/Commutation1-1/IN8*%
X194262500Y-108650000D03*
%TO.P,Q6,2,S*%
%TO.N,GND*%
X194262500Y-110550000D03*
%TO.P,Q6,3,D*%
%TO.N,/Platine1/Commutation1-1/OUT8*%
X196137500Y-109600000D03*
%TD*%
D18*
%TO.P,C3,1*%
%TO.N,+24V*%
X190200000Y-72050000D03*
%TO.P,C3,2*%
%TO.N,GND*%
X190200000Y-70500000D03*
%TD*%
D16*
%TO.P,C19,1*%
%TO.N,Net-(C19-Pad1)*%
X151375000Y-51300000D03*
%TO.P,C19,2*%
%TO.N,GND*%
X149825000Y-51300000D03*
%TD*%
D15*
%TO.P,R58,1*%
%TO.N,Net-(U23-BOOT0)*%
X140312500Y-108700000D03*
%TO.P,R58,2*%
%TO.N,GND*%
X138487500Y-108700000D03*
%TD*%
D19*
%TO.P,L2,1*%
%TO.N,Net-(U3-SW)*%
X164400000Y-60100000D03*
%TO.P,L2,2*%
%TO.N,+3.3V*%
X170400000Y-60100000D03*
%TD*%
D20*
%TO.P,R3,1*%
%TO.N,Net-(D3-K)*%
X135000000Y-62512500D03*
%TO.P,R3,2*%
%TO.N,GND*%
X135000000Y-60687500D03*
%TD*%
D21*
%TO.P,R6,1*%
%TO.N,/Platine1/Commutation1-1/IN10*%
X192987500Y-91200000D03*
%TO.P,R6,2*%
%TO.N,GND*%
X194812500Y-91200000D03*
%TD*%
D22*
%TO.P,J10,1,Pin_1*%
%TO.N,/Platine1/microcontroller1/UART_TX*%
X165540000Y-115200000D03*
D23*
%TO.P,J10,2,Pin_2*%
%TO.N,/Platine1/microcontroller1/UART_RX*%
X168080000Y-115200000D03*
%TO.P,J10,3,Pin_3*%
%TO.N,/Platine1/microcontroller1/SWDIO*%
X170620000Y-115200000D03*
%TO.P,J10,4,Pin_4*%
%TO.N,/Platine1/microcontroller1/SWCLK*%
X173160000Y-115200000D03*
%TO.P,J10,5,Pin_5*%
%TO.N,/Platine1/microcontroller1/RST*%
X175700000Y-115200000D03*
%TO.P,J10,6,Pin_6*%
%TO.N,GND*%
X178240000Y-115200000D03*
%TO.P,J10,7,Pin_7*%
%TO.N,+3.3V*%
X180780000Y-115200000D03*
%TD*%
D24*
%TO.P,U2,1,TXD*%
%TO.N,/Platine1/CanTransceiver1/CAN_TX*%
X144695000Y-98075000D03*
%TO.P,U2,2,GND*%
%TO.N,GND*%
X145965000Y-98075000D03*
%TO.P,U2,3,VDD*%
%TO.N,+3.3V*%
X147235000Y-98075000D03*
%TO.P,U2,4,RXD*%
%TO.N,/Platine1/CanTransceiver1/CAN_RX*%
X148505000Y-98075000D03*
%TO.P,U2,5,SHDN*%
%TO.N,unconnected-(U2-SHDN-Pad5)*%
X148505000Y-93125000D03*
%TO.P,U2,6,CANL*%
%TO.N,/Platine1/CAN_L*%
X147235000Y-93125000D03*
%TO.P,U2,7,CANH*%
%TO.N,/Platine1/CAN_H*%
X145965000Y-93125000D03*
%TO.P,U2,8,RS*%
%TO.N,Net-(U2-RS)*%
X144695000Y-93125000D03*
%TD*%
D21*
%TO.P,R4,1*%
%TO.N,/Platine1/Commutation1-1/IN9*%
X190987500Y-65000000D03*
%TO.P,R4,2*%
%TO.N,GND*%
X192812500Y-65000000D03*
%TD*%
D13*
%TO.P,J11,1,Pin_1*%
%TO.N,+24V*%
X200145000Y-80205000D03*
%TO.P,J11,2,Pin_2*%
%TO.N,/Platine1/Commutation1-1/OUT7*%
X195525000Y-80205000D03*
D14*
%TO.P,J11,MP1*%
%TO.N,N/C*%
X205625000Y-84100000D03*
%TO.P,J11,MP2*%
X205625000Y-76310000D03*
%TD*%
D16*
%TO.P,C18,1*%
%TO.N,Net-(U3-EN)*%
X160875000Y-55100000D03*
%TO.P,C18,2*%
%TO.N,GND*%
X159325000Y-55100000D03*
%TD*%
D25*
%TO.P,D2,1,K*%
%TO.N,Net-(D2-K)*%
X149800000Y-44850000D03*
%TO.P,D2,2,A*%
%TO.N,GND*%
X149800000Y-42750000D03*
%TD*%
D26*
%TO.P,H2,1*%
%TO.N,N/C*%
X206125000Y-27000000D03*
X206674175Y-25674175D03*
X206674175Y-28325825D03*
X208000000Y-25125000D03*
D27*
X208000000Y-27000000D03*
D26*
X208000000Y-28875000D03*
X209325825Y-25674175D03*
X209325825Y-28325825D03*
X209875000Y-27000000D03*
%TD*%
D28*
%TO.P,J5,1*%
%TO.N,/Platine1/CAN_L*%
X119020000Y-104648000D03*
D29*
%TO.P,J5,2*%
%TO.N,/Platine1/CAN_H*%
X120800000Y-103632000D03*
%TO.P,J5,3*%
%TO.N,GND*%
X119020000Y-102616000D03*
%TO.P,J5,4*%
%TO.N,unconnected-(J5-Pad4)*%
X120800000Y-101600000D03*
%TO.P,J5,5*%
%TO.N,unconnected-(J5-Pad5)*%
X119020000Y-100584000D03*
%TO.P,J5,6*%
%TO.N,GND*%
X120800000Y-99568000D03*
%TO.P,J5,7*%
%TO.N,unconnected-(J5-Pad7)*%
X119020000Y-98552000D03*
%TO.P,J5,8*%
%TO.N,unconnected-(J5-Pad8)*%
X120800000Y-97536000D03*
D30*
%TO.P,J5,SH*%
%TO.N,N/C*%
X119910000Y-109218000D03*
X119910000Y-92958000D03*
%TD*%
D31*
%TO.P,C36,1*%
%TO.N,+3.3V*%
X156600000Y-109650000D03*
%TO.P,C36,2*%
%TO.N,GND*%
X156600000Y-111550000D03*
%TD*%
D26*
%TO.P,H1,1*%
%TO.N,N/C*%
X112125000Y-27000000D03*
X112674175Y-25674175D03*
X112674175Y-28325825D03*
X114000000Y-25125000D03*
D27*
X114000000Y-27000000D03*
D26*
X114000000Y-28875000D03*
X115325825Y-25674175D03*
X115325825Y-28325825D03*
X115875000Y-27000000D03*
%TD*%
D32*
%TO.P,R2,1*%
%TO.N,/Platine1/Commutation1-1/IN8*%
X190500000Y-108587500D03*
%TO.P,R2,2*%
%TO.N,GND*%
X190500000Y-110412500D03*
%TD*%
D33*
%TO.P,C35,1*%
%TO.N,+3.3V*%
X140450000Y-112000000D03*
%TO.P,C35,2*%
%TO.N,GND*%
X138550000Y-112000000D03*
%TD*%
%TO.P,C38,1*%
%TO.N,+3.3V*%
X156650000Y-99400000D03*
%TO.P,C38,2*%
%TO.N,GND*%
X154750000Y-99400000D03*
%TD*%
%TO.P,C34,1*%
%TO.N,+3.3V*%
X156650000Y-101600000D03*
%TO.P,C34,2*%
%TO.N,GND*%
X154750000Y-101600000D03*
%TD*%
%TO.P,C37,1*%
%TO.N,+3.3V*%
X142050000Y-100800000D03*
%TO.P,C37,2*%
%TO.N,GND*%
X140150000Y-100800000D03*
%TD*%
D26*
%TO.P,H3,1*%
%TO.N,N/C*%
X112125000Y-121000000D03*
X112674175Y-119674175D03*
X112674175Y-122325825D03*
X114000000Y-119125000D03*
D27*
X114000000Y-121000000D03*
D26*
X114000000Y-122875000D03*
X115325825Y-119674175D03*
X115325825Y-122325825D03*
X115875000Y-121000000D03*
%TD*%
D34*
%TO.P,C13,1*%
%TO.N,Net-(U3-CB)*%
X158620000Y-62300000D03*
%TO.P,C13,2*%
%TO.N,Net-(U3-SW)*%
X159580000Y-62300000D03*
%TD*%
D28*
%TO.P,J4,1*%
%TO.N,/Platine1/CAN_L*%
X119120000Y-83948000D03*
D29*
%TO.P,J4,2*%
%TO.N,/Platine1/CAN_H*%
X120900000Y-82932000D03*
%TO.P,J4,3*%
%TO.N,GND*%
X119120000Y-81916000D03*
%TO.P,J4,4*%
%TO.N,unconnected-(J4-Pad4)*%
X120900000Y-80900000D03*
%TO.P,J4,5*%
%TO.N,unconnected-(J4-Pad5)*%
X119120000Y-79884000D03*
%TO.P,J4,6*%
%TO.N,GND*%
X120900000Y-78868000D03*
%TO.P,J4,7*%
%TO.N,unconnected-(J4-Pad7)*%
X119120000Y-77852000D03*
%TO.P,J4,8*%
%TO.N,unconnected-(J4-Pad8)*%
X120900000Y-76836000D03*
D30*
%TO.P,J4,SH*%
%TO.N,N/C*%
X120010000Y-88518000D03*
X120010000Y-72258000D03*
%TD*%
D35*
%TO.P,D3,1,K*%
%TO.N,Net-(D3-K)*%
X135000000Y-64962500D03*
%TO.P,D3,2,A*%
%TO.N,Net-(D3-A)*%
X135000000Y-66837500D03*
%TD*%
D19*
%TO.P,L1,1*%
%TO.N,Net-(J20-Pin_2)*%
X139500000Y-45900000D03*
%TO.P,L1,2*%
%TO.N,Net-(D2-K)*%
X145500000Y-45900000D03*
%TD*%
D31*
%TO.P,C30,1*%
%TO.N,/Platine1/microcontroller1/RST*%
X150700000Y-114850000D03*
%TO.P,C30,2*%
%TO.N,GND*%
X150700000Y-116750000D03*
%TD*%
D15*
%TO.P,R34,1*%
%TO.N,Net-(R34-Pad1)*%
X141412500Y-72600000D03*
%TO.P,R34,2*%
%TO.N,/Platine1/CAN_H*%
X139587500Y-72600000D03*
%TD*%
D20*
%TO.P,R5,1*%
%TO.N,Net-(D5-K)*%
X131400000Y-62512500D03*
%TO.P,R5,2*%
%TO.N,GND*%
X131400000Y-60687500D03*
%TD*%
D15*
%TO.P,R13,1*%
%TO.N,Net-(U3-FB)*%
X157112500Y-65000000D03*
%TO.P,R13,2*%
%TO.N,GND*%
X155287500Y-65000000D03*
%TD*%
D36*
%TO.P,J20,1,Pin_1*%
%TO.N,GND*%
X131025000Y-38475000D03*
%TO.P,J20,2,Pin_2*%
%TO.N,Net-(J20-Pin_2)*%
X131025000Y-46075000D03*
D37*
%TO.P,J20,3,Pin_3*%
%TO.N,unconnected-(J20-Pin_3-Pad3)*%
X123725000Y-35075000D03*
%TO.N,unconnected-(J20-Pin_3-Pad3)_1*%
X123725000Y-49475000D03*
%TD*%
D38*
%TO.P,Q4,1,G*%
%TO.N,/Platine1/Commutation1-1/IN10*%
X193050000Y-87137500D03*
%TO.P,Q4,2,S*%
%TO.N,GND*%
X194950000Y-87137500D03*
%TO.P,Q4,3,D*%
%TO.N,/Platine1/Commutation1-1/OUT10*%
X194000000Y-85262500D03*
%TD*%
D15*
%TO.P,R1,1*%
%TO.N,Net-(U3-EN)*%
X155625000Y-51300000D03*
%TO.P,R1,2*%
%TO.N,Net-(C19-Pad1)*%
X153800000Y-51300000D03*
%TD*%
D39*
%TO.P,U3,1,GND*%
%TO.N,GND*%
X161175000Y-60950000D03*
%TO.P,U3,2,SW*%
%TO.N,Net-(U3-SW)*%
X161175000Y-60000000D03*
%TO.P,U3,3,VIN*%
%TO.N,Net-(U3-EN)*%
X161175000Y-59050000D03*
%TO.P,U3,4,FB*%
%TO.N,Net-(U3-FB)*%
X158900000Y-59050000D03*
%TO.P,U3,5,EN*%
%TO.N,Net-(U3-EN)*%
X158900000Y-60000000D03*
%TO.P,U3,6,CB*%
%TO.N,Net-(U3-CB)*%
X158900000Y-60950000D03*
%TD*%
D40*
%TO.P,C15,1*%
%TO.N,+3.3V*%
X170400000Y-68400000D03*
%TO.P,C15,2*%
%TO.N,GND*%
X165000000Y-68400000D03*
%TD*%
D41*
%TO.P,F4,1*%
%TO.N,+24V*%
X156000000Y-45100000D03*
%TO.P,F4,2*%
%TO.N,Net-(D2-K)*%
X153200000Y-45100000D03*
%TD*%
D15*
%TO.P,R12,1*%
%TO.N,+3.3V*%
X160712500Y-65000000D03*
%TO.P,R12,2*%
%TO.N,Net-(U3-FB)*%
X158887500Y-65000000D03*
%TD*%
D13*
%TO.P,J14,1,Pin_1*%
%TO.N,+24V*%
X200235000Y-67860000D03*
%TO.P,J14,2,Pin_2*%
%TO.N,/Platine1/Commutation1-1/OUT7*%
X195615000Y-67860000D03*
D14*
%TO.P,J14,MP1*%
%TO.N,N/C*%
X205715000Y-71755000D03*
%TO.P,J14,MP2*%
X205715000Y-63965000D03*
%TD*%
D35*
%TO.P,D5,1,K*%
%TO.N,Net-(D5-K)*%
X131400000Y-64962500D03*
%TO.P,D5,2,A*%
%TO.N,Net-(D5-A)*%
X131400000Y-66837500D03*
%TD*%
D42*
%TO.P,L3,1*%
%TO.N,+24V*%
X160900000Y-45400000D03*
%TO.P,L3,2*%
%TO.N,Net-(U3-EN)*%
X160900000Y-51400000D03*
%TD*%
D24*
%TO.P,U1,1,I1*%
%TO.N,/Platine1/Commutation1-1/IN1*%
X179755000Y-76975000D03*
%TO.P,U1,2,I2*%
%TO.N,/Platine1/Commutation1-1/IN2*%
X181025000Y-76975000D03*
%TO.P,U1,3,I3*%
%TO.N,/Platine1/Commutation1-1/IN3*%
X182295000Y-76975000D03*
%TO.P,U1,4,I4*%
%TO.N,/Platine1/Commutation1-1/IN4*%
X183565000Y-76975000D03*
%TO.P,U1,5,I5*%
%TO.N,/Platine1/Commutation1-1/IN5*%
X184835000Y-76975000D03*
%TO.P,U1,6,I6*%
%TO.N,/Platine1/Commutation1-1/IN6*%
X186105000Y-76975000D03*
%TO.P,U1,7,I7*%
%TO.N,/Platine1/Commutation1-1/IN7*%
X187375000Y-76975000D03*
%TO.P,U1,8,GND*%
%TO.N,GND*%
X188645000Y-76975000D03*
%TO.P,U1,9,COM*%
%TO.N,+24V*%
X188645000Y-72025000D03*
%TO.P,U1,10,O7*%
%TO.N,/Platine1/Commutation1-1/OUT7*%
X187375000Y-72025000D03*
%TO.P,U1,11,O6*%
%TO.N,/Platine1/Commutation1-1/OUT6*%
X186105000Y-72025000D03*
%TO.P,U1,12,O5*%
%TO.N,/Platine1/Commutation1-1/OUT5*%
X184835000Y-72025000D03*
%TO.P,U1,13,O4*%
%TO.N,/Platine1/Commutation1-1/OUT4*%
X183565000Y-72025000D03*
%TO.P,U1,14,O3*%
%TO.N,/Platine1/Commutation1-1/OUT3*%
X182295000Y-72025000D03*
%TO.P,U1,15,O2*%
%TO.N,/Platine1/Commutation1-1/OUT2*%
X181025000Y-72025000D03*
%TO.P,U1,16,O1*%
%TO.N,/Platine1/Commutation1-1/OUT1*%
X179755000Y-72025000D03*
%TD*%
D31*
%TO.P,C33,1*%
%TO.N,+3.3V*%
X153400000Y-114850000D03*
%TO.P,C33,2*%
%TO.N,GND*%
X153400000Y-116750000D03*
%TD*%
D33*
%TO.P,C32,1*%
%TO.N,Net-(U23-PH1)*%
X148350000Y-118900000D03*
%TO.P,C32,2*%
%TO.N,GND*%
X146450000Y-118900000D03*
%TD*%
D38*
%TO.P,Q5,1,G*%
%TO.N,/Platine1/Commutation1-1/IN9*%
X190950000Y-62437500D03*
%TO.P,Q5,2,S*%
%TO.N,GND*%
X192850000Y-62437500D03*
%TO.P,Q5,3,D*%
%TO.N,/Platine1/Commutation1-1/OUT9*%
X191900000Y-60562500D03*
%TD*%
D43*
%TO.P,C31,1*%
%TO.N,Net-(U23-PH0)*%
X143500000Y-116850000D03*
%TO.P,C31,2*%
%TO.N,GND*%
X143500000Y-114950000D03*
%TD*%
D18*
%TO.P,C20,1*%
%TO.N,+24V*%
X160900000Y-42100000D03*
%TO.P,C20,2*%
%TO.N,GND*%
X160900000Y-40550000D03*
%TD*%
D13*
%TO.P,J1,1,Pin_1*%
%TO.N,+24V*%
X200195000Y-36800000D03*
%TO.P,J1,2,Pin_2*%
%TO.N,/Platine1/Commutation1-1/OUT3*%
X200195000Y-39800000D03*
%TO.P,J1,3,Pin_3*%
%TO.N,/Platine1/Commutation1-1/OUT1*%
X195575000Y-36800000D03*
%TO.P,J1,4,Pin_4*%
%TO.N,/Platine1/Commutation1-1/OUT2*%
X195575000Y-39800000D03*
D14*
%TO.P,J1,MP1*%
%TO.N,N/C*%
X205675000Y-43695000D03*
%TO.P,J1,MP2*%
X205675000Y-32905000D03*
%TD*%
D31*
%TO.P,C17,1*%
%TO.N,+3.3V*%
X142900000Y-96200000D03*
%TO.P,C17,2*%
%TO.N,GND*%
X142900000Y-98100000D03*
%TD*%
D44*
%TO.P,Y1,1,1*%
%TO.N,Net-(U23-PH0)*%
X145800000Y-116750000D03*
%TO.P,Y1,2,2*%
%TO.N,GND*%
X148000000Y-116750000D03*
%TO.P,Y1,3,3*%
%TO.N,Net-(U23-PH1)*%
X148000000Y-115050000D03*
%TO.P,Y1,4,4*%
%TO.N,GND*%
X145800000Y-115050000D03*
%TD*%
D26*
%TO.P,H4,1*%
%TO.N,N/C*%
X206125000Y-121000000D03*
X206674175Y-119674175D03*
X206674175Y-122325825D03*
X208000000Y-119125000D03*
D27*
X208000000Y-121000000D03*
D26*
X208000000Y-122875000D03*
X209325825Y-119674175D03*
X209325825Y-122325825D03*
X209875000Y-121000000D03*
%TD*%
D18*
%TO.P,C2,1*%
%TO.N,Net-(D2-K)*%
X145500000Y-40875000D03*
%TO.P,C2,2*%
%TO.N,GND*%
X145500000Y-39325000D03*
%TD*%
D13*
%TO.P,J6,1,Pin_1*%
%TO.N,+24V*%
X200155000Y-92605000D03*
%TO.P,J6,2,Pin_2*%
%TO.N,/Platine1/Commutation1-1/OUT8*%
X200155000Y-95605000D03*
D14*
%TO.P,J6,MP1*%
%TO.N,N/C*%
X205625000Y-99500000D03*
%TO.P,J6,MP2*%
X205625000Y-88710000D03*
%TD*%
D18*
%TO.P,C1,1*%
%TO.N,Net-(J20-Pin_2)*%
X139500000Y-40875000D03*
%TO.P,C1,2*%
%TO.N,GND*%
X139500000Y-39325000D03*
%TD*%
D45*
%TO.N,GND*%
X189000000Y-79000000D03*
D46*
X149900000Y-42000000D03*
D45*
X142000000Y-115000000D03*
X151000000Y-118000000D03*
X135000000Y-59000000D03*
X148900000Y-51300000D03*
X196000000Y-87000000D03*
X196000000Y-91000000D03*
X150000000Y-110000000D03*
X192000000Y-70000000D03*
X165000000Y-67100000D03*
X158000000Y-110800000D03*
X191000000Y-112000000D03*
X154000000Y-100000000D03*
D46*
X145600000Y-38600000D03*
D45*
X142000000Y-98000000D03*
X162000000Y-40500000D03*
X154300000Y-65000000D03*
X194000000Y-65000000D03*
X137000000Y-112000000D03*
X140000000Y-93000000D03*
X195000000Y-112000000D03*
X137000000Y-109000000D03*
X158000000Y-103000000D03*
X152000000Y-110000000D03*
X145000000Y-110000000D03*
D46*
X139700000Y-38500000D03*
D45*
X162100000Y-61300000D03*
X132000000Y-59000000D03*
X159300000Y-54300000D03*
X158700000Y-57800000D03*
X144000000Y-100000000D03*
X154000000Y-118000000D03*
X140000000Y-99000000D03*
X194000000Y-62000000D03*
X154000000Y-101000000D03*
X146000000Y-120000000D03*
%TO.N,/Platine1/microcontroller1/RST*%
X149400000Y-111000000D03*
%TO.N,+24V*%
X193600000Y-71400000D03*
D46*
X163500000Y-45500000D03*
D45*
X165300000Y-45500000D03*
X200000000Y-91000000D03*
X200000000Y-65500000D03*
X164400000Y-45500000D03*
X199500000Y-78500000D03*
X200000000Y-50500000D03*
%TO.N,/Platine1/microcontroller1/SWCLK*%
X149600000Y-104500000D03*
%TO.N,/Platine1/microcontroller1/SWDIO*%
X146300000Y-102550000D03*
D46*
%TO.N,/Platine1/Commutation1-1/OUT9*%
X203000000Y-52000000D03*
D45*
%TO.N,/Platine1/Commutation1-1/OUT10*%
X198000000Y-83000000D03*
D46*
%TO.N,/Platine1/Commutation1-1/IN9*%
X191000000Y-66500000D03*
D45*
X191000000Y-77500000D03*
%TO.N,/Platine1/CAN_L*%
X144100000Y-84500000D03*
X124300000Y-84500000D03*
%TO.N,/Platine1/CAN_H*%
X123300000Y-82980000D03*
X139480000Y-82980000D03*
%TD*%
D47*
%TO.N,/Platine1/CAN_L*%
X144200000Y-80110000D02*
X144200000Y-84400000D01*
X144200000Y-84400000D02*
X144100000Y-84500000D01*
%TO.N,Net-(R34-Pad1)*%
X141412500Y-72600000D02*
X144090000Y-72600000D01*
X144090000Y-72600000D02*
X144200000Y-72490000D01*
%TO.N,/Platine1/CAN_H*%
X139480000Y-82980000D02*
X139587500Y-82872500D01*
X139587500Y-82872500D02*
X139587500Y-72600000D01*
%TO.N,GND*%
X157250000Y-111550000D02*
X158000000Y-110800000D01*
X193562500Y-62437500D02*
X194000000Y-62000000D01*
X146450000Y-119550000D02*
X146000000Y-120000000D01*
X144249000Y-96751000D02*
X142900000Y-98100000D01*
X150350000Y-112575000D02*
X150350000Y-110350000D01*
X192850000Y-62437500D02*
X193562500Y-62437500D01*
X154275000Y-103650000D02*
X157350000Y-103650000D01*
D48*
X190500000Y-110412500D02*
X190500000Y-111500000D01*
D47*
X159325000Y-57100000D02*
X159325000Y-57175000D01*
X146450000Y-118900000D02*
X146450000Y-119550000D01*
X139500000Y-38700000D02*
X139700000Y-38500000D01*
X145965000Y-98075000D02*
X145965000Y-96965000D01*
X194262500Y-110550000D02*
X194262500Y-111262500D01*
X142925000Y-110150000D02*
X144850000Y-110150000D01*
X149825000Y-51300000D02*
X148900000Y-51300000D01*
D48*
X190525000Y-110437500D02*
X190500000Y-110412500D01*
D47*
X144850000Y-110150000D02*
X145000000Y-110000000D01*
X153400000Y-117400000D02*
X154000000Y-118000000D01*
X138487500Y-108700000D02*
X137300000Y-108700000D01*
X145965000Y-96965000D02*
X145751000Y-96751000D01*
X154600000Y-99400000D02*
X154000000Y-100000000D01*
X145751000Y-96751000D02*
X144249000Y-96751000D01*
X150700000Y-116750000D02*
X150700000Y-117700000D01*
X149800000Y-42750000D02*
X149800000Y-42100000D01*
X159325000Y-54325000D02*
X159300000Y-54300000D01*
X140100000Y-93100000D02*
X140000000Y-93000000D01*
X140150000Y-99150000D02*
X140000000Y-99000000D01*
X135000000Y-60687500D02*
X135000000Y-59000000D01*
X195862500Y-87137500D02*
X196000000Y-87000000D01*
X143500000Y-114950000D02*
X142050000Y-114950000D01*
X137300000Y-108700000D02*
X137000000Y-109000000D01*
X188645000Y-78645000D02*
X188645000Y-76975000D01*
X138550000Y-112000000D02*
X137000000Y-112000000D01*
X154750000Y-99400000D02*
X154600000Y-99400000D01*
X142100000Y-98100000D02*
X142000000Y-98000000D01*
X157350000Y-103650000D02*
X158000000Y-103000000D01*
X159325000Y-55100000D02*
X159325000Y-54325000D01*
X145500000Y-38700000D02*
X145600000Y-38600000D01*
X161750000Y-60950000D02*
X162100000Y-61300000D01*
X159325000Y-57175000D02*
X158700000Y-57800000D01*
X194262500Y-111262500D02*
X195000000Y-112000000D01*
X154275000Y-110150000D02*
X152150000Y-110150000D01*
X195800000Y-91200000D02*
X196000000Y-91000000D01*
X190200000Y-70500000D02*
X191500000Y-70500000D01*
X154750000Y-101600000D02*
X154600000Y-101600000D01*
X152150000Y-110150000D02*
X152000000Y-110000000D01*
X194812500Y-91200000D02*
X195800000Y-91200000D01*
X131400000Y-59600000D02*
X132000000Y-59000000D01*
X161175000Y-60950000D02*
X161750000Y-60950000D01*
X139500000Y-39325000D02*
X139500000Y-38700000D01*
X155287500Y-65000000D02*
X154300000Y-65000000D01*
X144933824Y-100000000D02*
X144000000Y-100000000D01*
X191500000Y-70500000D02*
X192000000Y-70000000D01*
X149800000Y-42100000D02*
X149900000Y-42000000D01*
X156600000Y-111550000D02*
X157250000Y-111550000D01*
X150350000Y-110350000D02*
X150000000Y-110000000D01*
X154600000Y-101600000D02*
X154000000Y-101000000D01*
X153400000Y-116750000D02*
X153400000Y-117400000D01*
X131400000Y-60687500D02*
X131400000Y-59600000D01*
X140987500Y-93100000D02*
X140100000Y-93100000D01*
X145350000Y-100416176D02*
X144933824Y-100000000D01*
X145500000Y-39325000D02*
X145500000Y-38700000D01*
X160900000Y-40550000D02*
X161950000Y-40550000D01*
X145350000Y-101225000D02*
X145350000Y-100416176D01*
X194950000Y-87137500D02*
X195862500Y-87137500D01*
X161950000Y-40550000D02*
X162000000Y-40500000D01*
X142900000Y-98100000D02*
X142100000Y-98100000D01*
X140150000Y-100800000D02*
X140150000Y-99150000D01*
X142050000Y-114950000D02*
X142000000Y-115000000D01*
X150700000Y-117700000D02*
X151000000Y-118000000D01*
X189000000Y-79000000D02*
X188645000Y-78645000D01*
D48*
X190500000Y-111500000D02*
X191000000Y-112000000D01*
D47*
X192812500Y-65000000D02*
X194000000Y-65000000D01*
X165000000Y-68400000D02*
X165000000Y-67100000D01*
%TO.N,/Platine1/microcontroller1/RST*%
X147850000Y-111766176D02*
X148616176Y-111000000D01*
X148616176Y-111000000D02*
X149400000Y-111000000D01*
X148266176Y-113800000D02*
X150400000Y-113800000D01*
X150400000Y-113800000D02*
X150700000Y-114100000D01*
X147850000Y-112575000D02*
X147850000Y-113383824D01*
X147850000Y-113383824D02*
X148266176Y-113800000D01*
X150700000Y-114100000D02*
X150700000Y-114850000D01*
X147850000Y-112575000D02*
X147850000Y-111766176D01*
%TO.N,Net-(U23-PH0)*%
X143500000Y-116850000D02*
X145700000Y-116850000D01*
X145700000Y-116850000D02*
X145800000Y-116750000D01*
X145800000Y-116750000D02*
X145900000Y-116750000D01*
X146850000Y-115800000D02*
X146850000Y-112575000D01*
X145900000Y-116750000D02*
X146850000Y-115800000D01*
%TO.N,Net-(U23-PH1)*%
X149300000Y-118600000D02*
X149000000Y-118900000D01*
X148650000Y-115050000D02*
X149300000Y-115700000D01*
X149300000Y-115700000D02*
X149300000Y-118600000D01*
X149000000Y-118900000D02*
X148350000Y-118900000D01*
X148000000Y-115050000D02*
X148650000Y-115050000D01*
X147350000Y-112575000D02*
X147350000Y-114400000D01*
X147350000Y-114400000D02*
X148000000Y-115050000D01*
%TO.N,+3.3V*%
X167200000Y-65000000D02*
X170321000Y-61879000D01*
X144725000Y-101225000D02*
X144300000Y-100800000D01*
X170321000Y-61879000D02*
X170321000Y-60100000D01*
X180800000Y-111200000D02*
X180780000Y-111220000D01*
X150850000Y-105700000D02*
X150850000Y-105400000D01*
X151266176Y-113800000D02*
X153000000Y-113800000D01*
X156250000Y-103150000D02*
X154275000Y-103150000D01*
D48*
X156650000Y-84500000D02*
X156650000Y-99400000D01*
D47*
X142700000Y-111800000D02*
X142925000Y-111575000D01*
X150850000Y-113383824D02*
X151266176Y-113800000D01*
D48*
X168250000Y-70550000D02*
X156650000Y-82150000D01*
X156650000Y-84500000D02*
X156650000Y-89850000D01*
D47*
X156600000Y-109650000D02*
X179250000Y-109650000D01*
D48*
X170400000Y-68400000D02*
X168250000Y-70550000D01*
D47*
X150850000Y-104550000D02*
X152250000Y-103150000D01*
X150850000Y-105400000D02*
X150850000Y-104550000D01*
X145966176Y-103150000D02*
X144850000Y-102033824D01*
X152650000Y-109650000D02*
X154275000Y-109650000D01*
X142925000Y-111575000D02*
X142925000Y-110650000D01*
X160712500Y-65000000D02*
X167200000Y-65000000D01*
X156650000Y-101600000D02*
X156650000Y-99400000D01*
X156650000Y-102750000D02*
X156250000Y-103150000D01*
X150850000Y-112575000D02*
X150850000Y-113383824D01*
X153000000Y-113800000D02*
X153400000Y-114200000D01*
D48*
X147235000Y-97100001D02*
X147235000Y-98075000D01*
D47*
X154275000Y-109650000D02*
X156600000Y-109650000D01*
X156650000Y-101200000D02*
X156650000Y-102750000D01*
X144300000Y-100800000D02*
X142050000Y-100800000D01*
X152250000Y-103150000D02*
X154275000Y-103150000D01*
D48*
X156650000Y-89850000D02*
X150300000Y-96200000D01*
X150300000Y-96200000D02*
X148900000Y-96200000D01*
D47*
X148150000Y-110650000D02*
X142925000Y-110650000D01*
X150850000Y-105400000D02*
X150850000Y-107850000D01*
X144850000Y-102033824D02*
X144850000Y-101225000D01*
D48*
X148135001Y-96200000D02*
X147235000Y-97100001D01*
D47*
X180780000Y-111220000D02*
X180780000Y-115200000D01*
X150850000Y-105700000D02*
X150850000Y-107950000D01*
X150850000Y-112575000D02*
X150850000Y-105700000D01*
X153400000Y-114200000D02*
X153400000Y-114850000D01*
D48*
X148900000Y-96200000D02*
X142900000Y-96200000D01*
D47*
X142700000Y-111800000D02*
X142500000Y-112000000D01*
X150850000Y-107850000D02*
X152650000Y-109650000D01*
X142500000Y-112000000D02*
X140450000Y-112000000D01*
X154275000Y-103150000D02*
X145966176Y-103150000D01*
X144850000Y-101225000D02*
X144725000Y-101225000D01*
D48*
X148900000Y-96200000D02*
X148135001Y-96200000D01*
D47*
X150850000Y-107950000D02*
X148150000Y-110650000D01*
D48*
X156650000Y-82150000D02*
X156650000Y-84500000D01*
D47*
X179250000Y-109650000D02*
X180800000Y-111200000D01*
D49*
%TO.N,+24V*%
X160900000Y-45479000D02*
X163479000Y-45479000D01*
X199400000Y-107900000D02*
X197000000Y-105500000D01*
D48*
X190200000Y-72050000D02*
X192950000Y-72050000D01*
D49*
X200295000Y-52600000D02*
X200295000Y-50795000D01*
X200235000Y-65735000D02*
X200000000Y-65500000D01*
X197000000Y-95000000D02*
X199395000Y-92605000D01*
X201800000Y-36800000D02*
X200195000Y-36800000D01*
X200155000Y-91155000D02*
X200000000Y-91000000D01*
X200295000Y-50705000D02*
X203000000Y-48000000D01*
X203000000Y-48000000D02*
X203000000Y-38000000D01*
D48*
X190175000Y-72025000D02*
X190200000Y-72050000D01*
D50*
X156000000Y-45100000D02*
X160521000Y-45100000D01*
D49*
X199395000Y-92605000D02*
X200155000Y-92605000D01*
D48*
X188645000Y-72025000D02*
X190175000Y-72025000D01*
D50*
X160521000Y-45100000D02*
X160900000Y-45479000D01*
D49*
X200145000Y-80205000D02*
X200145000Y-79145000D01*
D48*
X192950000Y-72050000D02*
X193600000Y-71400000D01*
D49*
X200295000Y-50795000D02*
X200000000Y-50500000D01*
X160900000Y-42100000D02*
X160900000Y-45479000D01*
X200295000Y-52600000D02*
X200295000Y-50705000D01*
X200180000Y-107900000D02*
X199400000Y-107900000D01*
X163479000Y-45479000D02*
X163500000Y-45500000D01*
X203000000Y-38000000D02*
X201800000Y-36800000D01*
X164400000Y-45500000D02*
X165300000Y-45500000D01*
X163500000Y-45500000D02*
X164400000Y-45500000D01*
X197000000Y-105500000D02*
X197000000Y-95000000D01*
X165300000Y-45500000D02*
X165800000Y-45500000D01*
X200155000Y-92605000D02*
X200155000Y-91155000D01*
X200145000Y-79145000D02*
X199500000Y-78500000D01*
X200235000Y-67860000D02*
X200235000Y-65735000D01*
D47*
%TO.N,Net-(D3-K)*%
X135000000Y-62512500D02*
X135000000Y-64962500D01*
%TO.N,Net-(D3-A)*%
X135100000Y-103600000D02*
X135100000Y-66937500D01*
X137650000Y-106150000D02*
X135100000Y-103600000D01*
X135100000Y-66937500D02*
X135000000Y-66837500D01*
X142925000Y-106150000D02*
X137650000Y-106150000D01*
%TO.N,Net-(D5-A)*%
X142925000Y-106650000D02*
X136250000Y-106650000D01*
X131400000Y-101800000D02*
X131400000Y-66837500D01*
X136250000Y-106650000D02*
X131400000Y-101800000D01*
%TO.N,Net-(D5-K)*%
X131400000Y-62512500D02*
X131400000Y-64962500D01*
D48*
%TO.N,/Platine1/Commutation1-1/OUT1*%
X195575000Y-36800000D02*
X186900000Y-36800000D01*
X186900000Y-36800000D02*
X179755000Y-43945000D01*
X179755000Y-43945000D02*
X179755000Y-72025000D01*
%TO.N,/Platine1/Commutation1-1/OUT2*%
X181025000Y-46075000D02*
X187300000Y-39800000D01*
X181025000Y-72025000D02*
X181025000Y-46075000D01*
X187300000Y-39800000D02*
X195575000Y-39800000D01*
%TO.N,/Platine1/Commutation1-1/OUT3*%
X200195000Y-39805000D02*
X197100000Y-42900000D01*
X200195000Y-39800000D02*
X200195000Y-39805000D01*
X182295000Y-47405000D02*
X182295000Y-72025000D01*
X197100000Y-42900000D02*
X186800000Y-42900000D01*
X186800000Y-42900000D02*
X182295000Y-47405000D01*
%TO.N,/Platine1/Commutation1-1/OUT4*%
X186500000Y-52600000D02*
X183565000Y-55535000D01*
X183565000Y-55535000D02*
X183565000Y-72025000D01*
X195675000Y-52600000D02*
X186500000Y-52600000D01*
D47*
%TO.N,/Platine1/microcontroller1/SWCLK*%
X142925000Y-103150000D02*
X144250000Y-103150000D01*
X144250000Y-103150000D02*
X145600000Y-104500000D01*
X145600000Y-104500000D02*
X146100000Y-104500000D01*
X146100000Y-104500000D02*
X149600000Y-104500000D01*
%TO.N,/Platine1/microcontroller1/UART_TX*%
X153375000Y-112575000D02*
X156000000Y-115200000D01*
X156000000Y-115200000D02*
X165540000Y-115200000D01*
X152350000Y-112575000D02*
X153375000Y-112575000D01*
%TO.N,/Platine1/microcontroller1/SWDIO*%
X145850000Y-102100000D02*
X146300000Y-102550000D01*
X145850000Y-101225000D02*
X145850000Y-102100000D01*
%TO.N,/Platine1/microcontroller1/UART_RX*%
X156000000Y-113700000D02*
X166580000Y-113700000D01*
X154275000Y-110650000D02*
X154275000Y-111975000D01*
X166580000Y-113700000D02*
X168080000Y-115200000D01*
X154275000Y-111975000D02*
X156000000Y-113700000D01*
D48*
%TO.N,/Platine1/Commutation1-1/OUT5*%
X184835000Y-72025000D02*
X184835000Y-60765000D01*
X190000000Y-55600000D02*
X195675000Y-55600000D01*
X184835000Y-60765000D02*
X190000000Y-55600000D01*
%TO.N,/Platine1/Commutation1-1/OUT6*%
X200200000Y-55600000D02*
X197200000Y-58600000D01*
X200295000Y-55600000D02*
X200200000Y-55600000D01*
X186105000Y-61395000D02*
X186105000Y-72025000D01*
X188900000Y-58600000D02*
X186105000Y-61395000D01*
X197200000Y-58600000D02*
X188900000Y-58600000D01*
%TO.N,/Platine1/Commutation1-1/OUT7*%
X189440000Y-67860000D02*
X187375000Y-69925000D01*
X195615000Y-80115000D02*
X195525000Y-80205000D01*
X187375000Y-69925000D02*
X187375000Y-72025000D01*
X195615000Y-67860000D02*
X189440000Y-67860000D01*
X195615000Y-67860000D02*
X195615000Y-80115000D01*
%TO.N,/Platine1/Commutation1-1/OUT8*%
X202900000Y-110200000D02*
X202900000Y-96100000D01*
X202405000Y-95605000D02*
X200155000Y-95605000D01*
X202200000Y-110900000D02*
X202900000Y-110200000D01*
X200180000Y-110900000D02*
X202200000Y-110900000D01*
X202900000Y-96100000D02*
X202405000Y-95605000D01*
X197400000Y-109600000D02*
X198700000Y-110900000D01*
X198700000Y-110900000D02*
X200180000Y-110900000D01*
X197400000Y-109600000D02*
X196137500Y-109600000D01*
%TO.N,/Platine1/Commutation1-1/OUT9*%
X203000000Y-58500000D02*
X203000000Y-52000000D01*
X192462500Y-60000000D02*
X201500000Y-60000000D01*
X191900000Y-60562500D02*
X192462500Y-60000000D01*
X201500000Y-60000000D02*
X203000000Y-58500000D01*
%TO.N,/Platine1/Commutation1-1/OUT10*%
X194000000Y-83500000D02*
X194500000Y-83000000D01*
X194500000Y-83000000D02*
X198000000Y-83000000D01*
X194000000Y-83500000D02*
X194000000Y-85262500D01*
D51*
%TO.N,Net-(J20-Pin_2)*%
X139325000Y-46075000D02*
X139500000Y-45900000D01*
X131025000Y-46075000D02*
X139325000Y-46075000D01*
D49*
X139500000Y-45821000D02*
X139579000Y-45900000D01*
D51*
X139500000Y-40875000D02*
X139500000Y-45900000D01*
D47*
%TO.N,Net-(U3-EN)*%
X160000000Y-60000000D02*
X158900000Y-60000000D01*
X160100000Y-59300001D02*
X160100000Y-59900000D01*
D49*
X160875000Y-57100000D02*
X160875000Y-58649000D01*
X160900000Y-51321000D02*
X160900000Y-55075000D01*
X155625000Y-51300000D02*
X160879000Y-51300000D01*
D47*
X160350001Y-59050000D02*
X160100000Y-59300001D01*
D49*
X160875000Y-55100000D02*
X160875000Y-57100000D01*
D47*
X160100000Y-59900000D02*
X160000000Y-60000000D01*
D49*
X160900000Y-55075000D02*
X160875000Y-55100000D01*
D47*
X161175000Y-59050000D02*
X160350001Y-59050000D01*
D49*
X160879000Y-51300000D02*
X160900000Y-51321000D01*
%TO.N,Net-(C19-Pad1)*%
X153800000Y-51300000D02*
X151375000Y-51300000D01*
D47*
%TO.N,unconnected-(U23-PB14-Pad35)*%
X151301000Y-101176000D02*
X151350000Y-101225000D01*
%TO.N,/Platine1/Commutation1-1/IN1*%
X154275000Y-104150000D02*
X163950000Y-104150000D01*
X163950000Y-104150000D02*
X179755000Y-88345000D01*
X179755000Y-88345000D02*
X179755000Y-76975000D01*
%TO.N,/Platine1/Commutation1-1/IN2*%
X181025000Y-76975000D02*
X181025000Y-88675000D01*
X181025000Y-88675000D02*
X165050000Y-104650000D01*
X165050000Y-104650000D02*
X154275000Y-104650000D01*
%TO.N,/Platine1/Commutation1-1/IN3*%
X182295000Y-76975000D02*
X182295000Y-89305000D01*
X182295000Y-89305000D02*
X166450000Y-105150000D01*
X166450000Y-105150000D02*
X154275000Y-105150000D01*
%TO.N,/Platine1/Commutation1-1/IN4*%
X167550000Y-105650000D02*
X154275000Y-105650000D01*
X183565000Y-76975000D02*
X183565000Y-89635000D01*
X183565000Y-89635000D02*
X167550000Y-105650000D01*
%TO.N,/Platine1/Commutation1-1/IN5*%
X184835000Y-90165000D02*
X184835000Y-76975000D01*
X168850000Y-106150000D02*
X184835000Y-90165000D01*
X154275000Y-106150000D02*
X168850000Y-106150000D01*
%TO.N,/Platine1/Commutation1-1/IN6*%
X186105000Y-90595000D02*
X170050000Y-106650000D01*
X186105000Y-76975000D02*
X186105000Y-90595000D01*
X170050000Y-106650000D02*
X154275000Y-106650000D01*
%TO.N,/Platine1/Commutation1-1/IN8*%
X194200000Y-108587500D02*
X194262500Y-108650000D01*
X190437500Y-108650000D02*
X190500000Y-108587500D01*
X190500000Y-108587500D02*
X194200000Y-108587500D01*
X154275000Y-108650000D02*
X190437500Y-108650000D01*
X190525000Y-108562500D02*
X190525000Y-108225000D01*
X190500000Y-108587500D02*
X190525000Y-108562500D01*
%TO.N,/Platine1/Commutation1-1/IN7*%
X171350000Y-107150000D02*
X154275000Y-107150000D01*
X187375000Y-91125000D02*
X171350000Y-107150000D01*
X187375000Y-76975000D02*
X187375000Y-91125000D01*
%TO.N,/Platine1/Commutation1-1/IN10*%
X192987500Y-91200000D02*
X192987500Y-87200000D01*
X176250000Y-108150000D02*
X192987500Y-91412500D01*
X192987500Y-87200000D02*
X193050000Y-87137500D01*
X192987500Y-91412500D02*
X192987500Y-91200000D01*
X154275000Y-108150000D02*
X176250000Y-108150000D01*
%TO.N,/Platine1/Commutation1-1/IN9*%
X190987500Y-66487500D02*
X191000000Y-66500000D01*
X172450000Y-107650000D02*
X154275000Y-107650000D01*
X190987500Y-65000000D02*
X190987500Y-66487500D01*
X191000000Y-77500000D02*
X191000000Y-89100000D01*
X191000000Y-89100000D02*
X172450000Y-107650000D01*
X190950000Y-64500000D02*
X190987500Y-64537500D01*
X190950000Y-62437500D02*
X190950000Y-64962500D01*
%TO.N,/Platine1/CAN_L*%
X144200000Y-84500000D02*
X147235000Y-87535000D01*
X119068000Y-104696000D02*
X119272000Y-104900000D01*
X118600000Y-104696000D02*
X119068000Y-104696000D01*
X124300000Y-102300000D02*
X124300000Y-84500000D01*
X119272000Y-104900000D02*
X121700000Y-104900000D01*
X147235000Y-87535000D02*
X147235000Y-93125000D01*
X118700000Y-83996000D02*
X119168000Y-83996000D01*
X121700000Y-104900000D02*
X124300000Y-102300000D01*
X144100000Y-84500000D02*
X144200000Y-84500000D01*
X119168000Y-83996000D02*
X119204000Y-84032000D01*
X119204000Y-84032000D02*
X119204000Y-84500000D01*
%TO.N,/Platine1/CAN_H*%
X120380000Y-103680000D02*
X121020000Y-103680000D01*
X145965000Y-93125000D02*
X145965000Y-89465000D01*
X123300000Y-101400000D02*
X123300000Y-82980000D01*
X121020000Y-103680000D02*
X123300000Y-101400000D01*
X145965000Y-89465000D02*
X139480000Y-82980000D01*
%TO.N,Net-(U23-BOOT0)*%
X142925000Y-108650000D02*
X140362500Y-108650000D01*
X140362500Y-108650000D02*
X140312500Y-108700000D01*
%TO.N,/Platine1/CanTransceiver1/CAN_TX*%
X144695000Y-99049999D02*
X144695000Y-98075000D01*
X146350000Y-101225000D02*
X146350000Y-100050000D01*
X145445001Y-99800000D02*
X144695000Y-99049999D01*
X146350000Y-100050000D02*
X146100000Y-99800000D01*
X146100000Y-99800000D02*
X145445001Y-99800000D01*
%TO.N,/Platine1/CanTransceiver1/CAN_RX*%
X147700000Y-99800000D02*
X148505000Y-98995000D01*
X148505000Y-98995000D02*
X148505000Y-98075000D01*
X146850000Y-101225000D02*
X146850000Y-100050000D01*
X146850000Y-100050000D02*
X147100000Y-99800000D01*
X147100000Y-99800000D02*
X147700000Y-99800000D01*
D51*
%TO.N,Net-(D2-K)*%
X148150000Y-45900000D02*
X148950000Y-45100000D01*
X145500000Y-45821000D02*
X145421000Y-45900000D01*
X148950000Y-45100000D02*
X153200000Y-45100000D01*
X145500000Y-45900000D02*
X148150000Y-45900000D01*
X145500000Y-40875000D02*
X145500000Y-45821000D01*
D52*
%TO.N,Net-(U3-SW)*%
X164379000Y-60000000D02*
X164479000Y-60100000D01*
D47*
X164479000Y-61621000D02*
X164479000Y-60100000D01*
X159580000Y-62300000D02*
X163800000Y-62300000D01*
X163800000Y-62300000D02*
X164479000Y-61621000D01*
D52*
X161175000Y-60000000D02*
X164379000Y-60000000D01*
D47*
%TO.N,Net-(U3-CB)*%
X158620000Y-62300000D02*
X158620000Y-61230000D01*
X158620000Y-61230000D02*
X158900000Y-60950000D01*
%TO.N,Net-(U3-FB)*%
X157650000Y-59050000D02*
X158900000Y-59050000D01*
X157112500Y-59587500D02*
X157650000Y-59050000D01*
X158887500Y-65000000D02*
X157112500Y-65000000D01*
X157112500Y-65000000D02*
X157112500Y-59587500D01*
%TO.N,Net-(U2-RS)*%
X144670000Y-93100000D02*
X144695000Y-93125000D01*
X142812500Y-93100000D02*
X144670000Y-93100000D01*
%TD*%
%TA.AperFunction,Conductor*%
%TO.N,+3.3V*%
G36*
X171543039Y-58419685D02*
G01*
X171588794Y-58472489D01*
X171600000Y-58524000D01*
X171600000Y-69076000D01*
X171580315Y-69143039D01*
X171527511Y-69188794D01*
X171476000Y-69200000D01*
X169324000Y-69200000D01*
X169256961Y-69180315D01*
X169211206Y-69127511D01*
X169200000Y-69076000D01*
X169200000Y-58524000D01*
X169219685Y-58456961D01*
X169272489Y-58411206D01*
X169324000Y-58400000D01*
X171476000Y-58400000D01*
X171543039Y-58419685D01*
G37*
%TD.AperFunction*%
%TD*%
M02*
