%TF.GenerationSoftware,KiCad,Pcbnew,9.0.1*%
%TF.CreationDate,2025-09-05T17:52:38+02:00*%
%TF.ProjectId,sensorBoard,73656e73-6f72-4426-9f61-72642e6b6963,rev?*%
%TF.SameCoordinates,Original*%
%TF.FileFunction,Soldermask,Bot*%
%TF.FilePolarity,Negative*%
%FSLAX46Y46*%
G04 Gerber Fmt 4.6, Leading zero omitted, Abs format (unit mm)*
G04 Created by KiCad (PCBNEW 9.0.1) date 2025-09-05 17:52:38*
%MOMM*%
%LPD*%
G01*
G04 APERTURE LIST*
%ADD10R,1.700000X1.700000*%
%ADD11C,1.700000*%
%ADD12C,0.800000*%
%ADD13C,5.000000*%
%ADD14C,3.250000*%
%ADD15R,1.500000X1.500000*%
%ADD16C,1.500000*%
%ADD17C,2.300000*%
%ADD18C,4.000000*%
%ADD19C,2.000000*%
%ADD20R,2.920000X1.270000*%
%ADD21R,1.650000X3.430000*%
G04 APERTURE END LIST*
D10*
%TO.C,J10*%
X165540000Y-115200000D03*
D11*
X168080000Y-115200000D03*
X170620000Y-115200000D03*
X173160000Y-115200000D03*
X175700000Y-115200000D03*
X178240000Y-115200000D03*
X180780000Y-115200000D03*
%TD*%
D12*
%TO.C,H2*%
X206125000Y-27000000D03*
X206674175Y-25674175D03*
X206674175Y-28325825D03*
X208000000Y-25125000D03*
D13*
X208000000Y-27000000D03*
D12*
X208000000Y-28875000D03*
X209325825Y-25674175D03*
X209325825Y-28325825D03*
X209875000Y-27000000D03*
%TD*%
D14*
%TO.C,J5*%
X116480000Y-107438000D03*
X116480000Y-94738000D03*
D15*
X119020000Y-104648000D03*
D16*
X120800000Y-103632000D03*
X119020000Y-102616000D03*
X120800000Y-101600000D03*
X119020000Y-100584000D03*
X120800000Y-99568000D03*
X119020000Y-98552000D03*
X120800000Y-97536000D03*
D17*
X119910000Y-109218000D03*
X119910000Y-92958000D03*
%TD*%
D12*
%TO.C,H1*%
X112125000Y-27000000D03*
X112674175Y-25674175D03*
X112674175Y-28325825D03*
X114000000Y-25125000D03*
D13*
X114000000Y-27000000D03*
D12*
X114000000Y-28875000D03*
X115325825Y-25674175D03*
X115325825Y-28325825D03*
X115875000Y-27000000D03*
%TD*%
%TO.C,H3*%
X112125000Y-121000000D03*
X112674175Y-119674175D03*
X112674175Y-122325825D03*
X114000000Y-119125000D03*
D13*
X114000000Y-121000000D03*
D12*
X114000000Y-122875000D03*
X115325825Y-119674175D03*
X115325825Y-122325825D03*
X115875000Y-121000000D03*
%TD*%
D14*
%TO.C,J4*%
X116580000Y-86738000D03*
X116580000Y-74038000D03*
D15*
X119120000Y-83948000D03*
D16*
X120900000Y-82932000D03*
X119120000Y-81916000D03*
X120900000Y-80900000D03*
X119120000Y-79884000D03*
X120900000Y-78868000D03*
X119120000Y-77852000D03*
X120900000Y-76836000D03*
D17*
X120010000Y-88518000D03*
X120010000Y-72258000D03*
%TD*%
D18*
%TO.C,J20*%
X131025000Y-38475000D03*
X131025000Y-46075000D03*
D19*
X123725000Y-35075000D03*
X123725000Y-49475000D03*
%TD*%
D12*
%TO.C,H4*%
X206125000Y-121000000D03*
X206674175Y-119674175D03*
X206674175Y-122325825D03*
X208000000Y-119125000D03*
D13*
X208000000Y-121000000D03*
D12*
X208000000Y-122875000D03*
X209325825Y-119674175D03*
X209325825Y-122325825D03*
X209875000Y-121000000D03*
%TD*%
D20*
%TO.C,J7*%
X200480000Y-55400000D03*
X200480000Y-52400000D03*
D21*
X205950000Y-48505000D03*
X205950000Y-59295000D03*
%TD*%
D20*
%TO.C,J8*%
X200380000Y-39900000D03*
X200380000Y-36900000D03*
D21*
X205850000Y-33005000D03*
X205850000Y-43795000D03*
%TD*%
D20*
%TO.C,J13*%
X200480000Y-86100000D03*
X200480000Y-83100000D03*
D21*
X205950000Y-79205000D03*
X205950000Y-89995000D03*
%TD*%
D20*
%TO.C,J12*%
X200500000Y-70800000D03*
X200500000Y-67800000D03*
D21*
X205970000Y-63905000D03*
X205970000Y-74695000D03*
%TD*%
M02*
