M48
; DRILL file {KiCad 9.0.1} date 2025-09-05T17:52:37+0200
; FORMAT={-:-/ absolute / metric / decimal}
; #@! TF.CreationDate,2025-09-05T17:52:37+02:00
; #@! TF.GenerationSoftware,Kicad,Pcbnew,9.0.1
; #@! TF.FileFunction,Plated,1,4,PTH
FMAT,2
METRIC
; #@! TA.AperFunction,Plated,PTH,ViaDrill
T1C0.300
; #@! TA.AperFunction,Plated,PTH,ComponentDrill
T2C0.500
; #@! TA.AperFunction,Plated,PTH,ComponentDrill
T3C0.890
; #@! TA.AperFunction,Plated,PTH,ComponentDrill
T4C1.000
; #@! TA.AperFunction,Plated,PTH,ComponentDrill
T5C1.570
; #@! TA.AperFunction,Plated,PTH,ComponentDrill
T6C1.600
; #@! TA.AperFunction,Plated,PTH,ComponentDrill
T7C2.500
; #@! TA.AperFunction,Plated,PTH,ComponentDrill
T8C3.400
%
G90
G05
T1
X123.3Y-82.98
X124.3Y-84.5
X132.0Y-59.0
X135.0Y-59.0
X137.0Y-109.0
X137.0Y-112.0
X139.48Y-82.98
X139.7Y-38.5
X140.0Y-93.0
X140.0Y-99.0
X142.0Y-98.0
X142.0Y-115.0
X144.0Y-100.0
X144.1Y-84.5
X145.0Y-110.0
X145.6Y-38.6
X146.0Y-120.0
X146.3Y-102.55
X148.9Y-51.3
X149.4Y-111.0
X149.6Y-104.5
X149.9Y-42.0
X150.0Y-110.0
X151.0Y-118.0
X152.0Y-110.0
X154.0Y-100.0
X154.0Y-101.0
X154.0Y-118.0
X154.3Y-65.0
X158.0Y-103.0
X158.0Y-110.8
X158.7Y-57.8
X159.3Y-54.3
X162.0Y-40.5
X162.1Y-61.3
X163.5Y-45.5
X164.4Y-45.5
X165.0Y-67.1
X165.3Y-45.5
X189.0Y-79.0
X191.0Y-66.5
X191.0Y-77.5
X191.0Y-112.0
X192.0Y-70.0
X193.6Y-71.4
X194.0Y-62.0
X194.0Y-65.0
X195.0Y-112.0
X196.0Y-87.0
X196.0Y-91.0
X198.0Y-83.0
X199.5Y-78.5
X200.0Y-50.5
X200.0Y-65.5
X200.0Y-91.0
X203.0Y-52.0
T2
X112.125Y-27.0
X112.125Y-121.0
X112.674Y-25.674
X112.674Y-28.326
X112.674Y-119.674
X112.674Y-122.326
X114.0Y-25.125
X114.0Y-28.875
X114.0Y-119.125
X114.0Y-122.875
X115.326Y-25.674
X115.326Y-28.326
X115.326Y-119.674
X115.326Y-122.326
X115.875Y-27.0
X115.875Y-121.0
X206.125Y-27.0
X206.125Y-121.0
X206.674Y-25.674
X206.674Y-28.326
X206.674Y-119.674
X206.674Y-122.326
X208.0Y-25.125
X208.0Y-28.875
X208.0Y-119.125
X208.0Y-122.875
X209.326Y-25.674
X209.326Y-28.326
X209.326Y-119.674
X209.326Y-122.326
X209.875Y-27.0
X209.875Y-121.0
T3
X119.02Y-98.552
X119.02Y-100.584
X119.02Y-102.616
X119.02Y-104.648
X119.12Y-77.852
X119.12Y-79.884
X119.12Y-81.916
X119.12Y-83.948
X120.8Y-97.536
X120.8Y-99.568
X120.8Y-101.6
X120.8Y-103.632
X120.9Y-76.836
X120.9Y-78.868
X120.9Y-80.9
X120.9Y-82.932
T4
X165.54Y-115.2
X168.08Y-115.2
X170.62Y-115.2
X173.16Y-115.2
X175.7Y-115.2
X178.24Y-115.2
X180.78Y-115.2
T5
X119.91Y-92.958
X119.91Y-109.218
X120.01Y-72.258
X120.01Y-88.518
T6
X123.725Y-35.075
X123.725Y-49.475
T7
X114.0Y-27.0
X114.0Y-121.0
X208.0Y-27.0
X208.0Y-121.0
T8
X131.025Y-38.475
X131.025Y-46.075
M30
