%TF.GenerationSoftware,KiCad,Pcbnew,9.0.1*%
%TF.CreationDate,2025-09-05T17:52:38+02:00*%
%TF.ProjectId,sensorBoard,73656e73-6f72-4426-9f61-72642e6b6963,rev?*%
%TF.SameCoordinates,Original*%
%TF.FileFunction,Paste,Top*%
%TF.FilePolarity,Positive*%
%FSLAX46Y46*%
G04 Gerber Fmt 4.6, Leading zero omitted, Abs format (unit mm)*
G04 Created by KiCad (PCBNEW 9.0.1) date 2025-09-05 17:52:38*
%MOMM*%
%LPD*%
G01*
G04 APERTURE LIST*
G04 Aperture macros list*
%AMRoundRect*
0 Rectangle with rounded corners*
0 $1 Rounding radius*
0 $2 $3 $4 $5 $6 $7 $8 $9 X,Y pos of 4 corners*
0 Add a 4 corners polygon primitive as box body*
4,1,4,$2,$3,$4,$5,$6,$7,$8,$9,$2,$3,0*
0 Add four circle primitives for the rounded corners*
1,1,$1+$1,$2,$3*
1,1,$1+$1,$4,$5*
1,1,$1+$1,$6,$7*
1,1,$1+$1,$8,$9*
0 Add four rect primitives between the rounded corners*
20,1,$1+$1,$2,$3,$4,$5,0*
20,1,$1+$1,$4,$5,$6,$7,0*
20,1,$1+$1,$6,$7,$8,$9,0*
20,1,$1+$1,$8,$9,$2,$3,0*%
G04 Aperture macros list end*
%ADD10RoundRect,0.114000X-0.266000X0.521000X-0.266000X-0.521000X0.266000X-0.521000X0.266000X0.521000X0*%
%ADD11RoundRect,0.075000X0.075000X-0.700000X0.075000X0.700000X-0.075000X0.700000X-0.075000X-0.700000X0*%
%ADD12RoundRect,0.075000X0.700000X-0.075000X0.700000X0.075000X-0.700000X0.075000X-0.700000X-0.075000X0*%
%ADD13R,2.920000X1.270000*%
%ADD14R,1.650000X3.430000*%
%ADD15RoundRect,0.250000X0.262500X0.450000X-0.262500X0.450000X-0.262500X-0.450000X0.262500X-0.450000X0*%
%ADD16RoundRect,0.225000X0.225000X0.250000X-0.225000X0.250000X-0.225000X-0.250000X0.225000X-0.250000X0*%
%ADD17RoundRect,0.150000X-0.587500X-0.150000X0.587500X-0.150000X0.587500X0.150000X-0.587500X0.150000X0*%
%ADD18RoundRect,0.225000X0.250000X-0.225000X0.250000X0.225000X-0.250000X0.225000X-0.250000X-0.225000X0*%
%ADD19R,2.000000X1.700000*%
%ADD20RoundRect,0.250000X0.450000X-0.262500X0.450000X0.262500X-0.450000X0.262500X-0.450000X-0.262500X0*%
%ADD21RoundRect,0.250000X-0.262500X-0.450000X0.262500X-0.450000X0.262500X0.450000X-0.262500X0.450000X0*%
%ADD22RoundRect,0.150000X0.150000X-0.825000X0.150000X0.825000X-0.150000X0.825000X-0.150000X-0.825000X0*%
%ADD23RoundRect,0.112500X0.112500X-0.187500X0.112500X0.187500X-0.112500X0.187500X-0.112500X-0.187500X0*%
%ADD24RoundRect,0.250000X-0.475000X0.250000X-0.475000X-0.250000X0.475000X-0.250000X0.475000X0.250000X0*%
%ADD25RoundRect,0.250000X-0.450000X0.262500X-0.450000X-0.262500X0.450000X-0.262500X0.450000X0.262500X0*%
%ADD26RoundRect,0.250000X0.250000X0.475000X-0.250000X0.475000X-0.250000X-0.475000X0.250000X-0.475000X0*%
%ADD27RoundRect,0.140000X-0.140000X-0.170000X0.140000X-0.170000X0.140000X0.170000X-0.140000X0.170000X0*%
%ADD28RoundRect,0.243750X-0.456250X0.243750X-0.456250X-0.243750X0.456250X-0.243750X0.456250X0.243750X0*%
%ADD29RoundRect,0.150000X0.150000X-0.587500X0.150000X0.587500X-0.150000X0.587500X-0.150000X-0.587500X0*%
%ADD30RoundRect,0.150000X0.512500X0.150000X-0.512500X0.150000X-0.512500X-0.150000X0.512500X-0.150000X0*%
%ADD31RoundRect,0.250000X1.500000X0.550000X-1.500000X0.550000X-1.500000X-0.550000X1.500000X-0.550000X0*%
%ADD32RoundRect,0.250000X0.375000X0.625000X-0.375000X0.625000X-0.375000X-0.625000X0.375000X-0.625000X0*%
%ADD33R,1.700000X2.000000*%
%ADD34RoundRect,0.250000X0.475000X-0.250000X0.475000X0.250000X-0.475000X0.250000X-0.475000X-0.250000X0*%
%ADD35R,1.400000X1.200000*%
G04 APERTURE END LIST*
D10*
%TO.C,SW1*%
X144200000Y-72490000D03*
X144200000Y-80110000D03*
%TD*%
D11*
%TO.C,U23*%
X144850000Y-112575000D03*
X145350000Y-112575000D03*
X145850000Y-112575000D03*
X146350000Y-112575000D03*
X146850000Y-112575000D03*
X147350000Y-112575000D03*
X147850000Y-112575000D03*
X148350000Y-112575000D03*
X148850000Y-112575000D03*
X149350000Y-112575000D03*
X149850000Y-112575000D03*
X150350000Y-112575000D03*
X150850000Y-112575000D03*
X151350000Y-112575000D03*
X151850000Y-112575000D03*
X152350000Y-112575000D03*
D12*
X154275000Y-110650000D03*
X154275000Y-110150000D03*
X154275000Y-109650000D03*
X154275000Y-109150000D03*
X154275000Y-108650000D03*
X154275000Y-108150000D03*
X154275000Y-107650000D03*
X154275000Y-107150000D03*
X154275000Y-106650000D03*
X154275000Y-106150000D03*
X154275000Y-105650000D03*
X154275000Y-105150000D03*
X154275000Y-104650000D03*
X154275000Y-104150000D03*
X154275000Y-103650000D03*
X154275000Y-103150000D03*
D11*
X152350000Y-101225000D03*
X151850000Y-101225000D03*
X151350000Y-101225000D03*
X150850000Y-101225000D03*
X150350000Y-101225000D03*
X149850000Y-101225000D03*
X149350000Y-101225000D03*
X148850000Y-101225000D03*
X148350000Y-101225000D03*
X147850000Y-101225000D03*
X147350000Y-101225000D03*
X146850000Y-101225000D03*
X146350000Y-101225000D03*
X145850000Y-101225000D03*
X145350000Y-101225000D03*
X144850000Y-101225000D03*
D12*
X142925000Y-103150000D03*
X142925000Y-103650000D03*
X142925000Y-104150000D03*
X142925000Y-104650000D03*
X142925000Y-105150000D03*
X142925000Y-105650000D03*
X142925000Y-106150000D03*
X142925000Y-106650000D03*
X142925000Y-107150000D03*
X142925000Y-107650000D03*
X142925000Y-108150000D03*
X142925000Y-108650000D03*
X142925000Y-109150000D03*
X142925000Y-109650000D03*
X142925000Y-110150000D03*
X142925000Y-110650000D03*
%TD*%
D13*
%TO.C,J2*%
X200295000Y-52600000D03*
X200295000Y-55600000D03*
X195675000Y-52600000D03*
X195675000Y-55600000D03*
D14*
X205775000Y-59495000D03*
X205775000Y-48705000D03*
%TD*%
D13*
%TO.C,J9*%
X200180000Y-107900000D03*
X200180000Y-110900000D03*
D14*
X205650000Y-114795000D03*
X205650000Y-104005000D03*
%TD*%
D15*
%TO.C,R33*%
X142812500Y-93100000D03*
X140987500Y-93100000D03*
%TD*%
D16*
%TO.C,C16*%
X160875000Y-57100000D03*
X159325000Y-57100000D03*
%TD*%
D17*
%TO.C,Q6*%
X194262500Y-108650000D03*
X194262500Y-110550000D03*
X196137500Y-109600000D03*
%TD*%
D18*
%TO.C,C3*%
X190200000Y-72050000D03*
X190200000Y-70500000D03*
%TD*%
D16*
%TO.C,C19*%
X151375000Y-51300000D03*
X149825000Y-51300000D03*
%TD*%
D15*
%TO.C,R58*%
X140312500Y-108700000D03*
X138487500Y-108700000D03*
%TD*%
D19*
%TO.C,L2*%
X164400000Y-60100000D03*
X170400000Y-60100000D03*
%TD*%
D20*
%TO.C,R3*%
X135000000Y-62512500D03*
X135000000Y-60687500D03*
%TD*%
D21*
%TO.C,R6*%
X192987500Y-91200000D03*
X194812500Y-91200000D03*
%TD*%
D22*
%TO.C,U2*%
X144695000Y-98075000D03*
X145965000Y-98075000D03*
X147235000Y-98075000D03*
X148505000Y-98075000D03*
X148505000Y-93125000D03*
X147235000Y-93125000D03*
X145965000Y-93125000D03*
X144695000Y-93125000D03*
%TD*%
D21*
%TO.C,R4*%
X190987500Y-65000000D03*
X192812500Y-65000000D03*
%TD*%
D13*
%TO.C,J11*%
X200145000Y-80205000D03*
X195525000Y-80205000D03*
D14*
X205625000Y-84100000D03*
X205625000Y-76310000D03*
%TD*%
D16*
%TO.C,C18*%
X160875000Y-55100000D03*
X159325000Y-55100000D03*
%TD*%
D23*
%TO.C,D2*%
X149800000Y-44850000D03*
X149800000Y-42750000D03*
%TD*%
D24*
%TO.C,C36*%
X156600000Y-109650000D03*
X156600000Y-111550000D03*
%TD*%
D25*
%TO.C,R2*%
X190500000Y-108587500D03*
X190500000Y-110412500D03*
%TD*%
D26*
%TO.C,C35*%
X140450000Y-112000000D03*
X138550000Y-112000000D03*
%TD*%
%TO.C,C38*%
X156650000Y-99400000D03*
X154750000Y-99400000D03*
%TD*%
%TO.C,C34*%
X156650000Y-101600000D03*
X154750000Y-101600000D03*
%TD*%
%TO.C,C37*%
X142050000Y-100800000D03*
X140150000Y-100800000D03*
%TD*%
D27*
%TO.C,C13*%
X158620000Y-62300000D03*
X159580000Y-62300000D03*
%TD*%
D28*
%TO.C,D3*%
X135000000Y-64962500D03*
X135000000Y-66837500D03*
%TD*%
D19*
%TO.C,L1*%
X139500000Y-45900000D03*
X145500000Y-45900000D03*
%TD*%
D24*
%TO.C,C30*%
X150700000Y-114850000D03*
X150700000Y-116750000D03*
%TD*%
D15*
%TO.C,R34*%
X141412500Y-72600000D03*
X139587500Y-72600000D03*
%TD*%
D20*
%TO.C,R5*%
X131400000Y-62512500D03*
X131400000Y-60687500D03*
%TD*%
D15*
%TO.C,R13*%
X157112500Y-65000000D03*
X155287500Y-65000000D03*
%TD*%
D29*
%TO.C,Q4*%
X193050000Y-87137500D03*
X194950000Y-87137500D03*
X194000000Y-85262500D03*
%TD*%
D15*
%TO.C,R1*%
X155625000Y-51300000D03*
X153800000Y-51300000D03*
%TD*%
D30*
%TO.C,U3*%
X161175000Y-60950000D03*
X161175000Y-60000000D03*
X161175000Y-59050000D03*
X158900000Y-59050000D03*
X158900000Y-60000000D03*
X158900000Y-60950000D03*
%TD*%
D31*
%TO.C,C15*%
X170400000Y-68400000D03*
X165000000Y-68400000D03*
%TD*%
D32*
%TO.C,F4*%
X156000000Y-45100000D03*
X153200000Y-45100000D03*
%TD*%
D15*
%TO.C,R12*%
X160712500Y-65000000D03*
X158887500Y-65000000D03*
%TD*%
D13*
%TO.C,J14*%
X200235000Y-67860000D03*
X195615000Y-67860000D03*
D14*
X205715000Y-71755000D03*
X205715000Y-63965000D03*
%TD*%
D28*
%TO.C,D5*%
X131400000Y-64962500D03*
X131400000Y-66837500D03*
%TD*%
D33*
%TO.C,L3*%
X160900000Y-45400000D03*
X160900000Y-51400000D03*
%TD*%
D22*
%TO.C,U1*%
X179755000Y-76975000D03*
X181025000Y-76975000D03*
X182295000Y-76975000D03*
X183565000Y-76975000D03*
X184835000Y-76975000D03*
X186105000Y-76975000D03*
X187375000Y-76975000D03*
X188645000Y-76975000D03*
X188645000Y-72025000D03*
X187375000Y-72025000D03*
X186105000Y-72025000D03*
X184835000Y-72025000D03*
X183565000Y-72025000D03*
X182295000Y-72025000D03*
X181025000Y-72025000D03*
X179755000Y-72025000D03*
%TD*%
D24*
%TO.C,C33*%
X153400000Y-114850000D03*
X153400000Y-116750000D03*
%TD*%
D26*
%TO.C,C32*%
X148350000Y-118900000D03*
X146450000Y-118900000D03*
%TD*%
D29*
%TO.C,Q5*%
X190950000Y-62437500D03*
X192850000Y-62437500D03*
X191900000Y-60562500D03*
%TD*%
D34*
%TO.C,C31*%
X143500000Y-116850000D03*
X143500000Y-114950000D03*
%TD*%
D18*
%TO.C,C20*%
X160900000Y-42100000D03*
X160900000Y-40550000D03*
%TD*%
D13*
%TO.C,J1*%
X200195000Y-36800000D03*
X200195000Y-39800000D03*
X195575000Y-36800000D03*
X195575000Y-39800000D03*
D14*
X205675000Y-43695000D03*
X205675000Y-32905000D03*
%TD*%
D24*
%TO.C,C17*%
X142900000Y-96200000D03*
X142900000Y-98100000D03*
%TD*%
D35*
%TO.C,Y1*%
X145800000Y-116750000D03*
X148000000Y-116750000D03*
X148000000Y-115050000D03*
X145800000Y-115050000D03*
%TD*%
D18*
%TO.C,C2*%
X145500000Y-40875000D03*
X145500000Y-39325000D03*
%TD*%
D13*
%TO.C,J6*%
X200155000Y-92605000D03*
X200155000Y-95605000D03*
D14*
X205625000Y-99500000D03*
X205625000Y-88710000D03*
%TD*%
D18*
%TO.C,C1*%
X139500000Y-40875000D03*
X139500000Y-39325000D03*
%TD*%
M02*
