%TF.GenerationSoftware,KiCad,Pcbnew,9.0.1*%
%TF.CreationDate,2025-09-05T17:52:38+02:00*%
%TF.ProjectId,sensorBoard,73656e73-6f72-4426-9f61-72642e6b6963,rev?*%
%TF.SameCoordinates,Original*%
%TF.FileFunction,Copper,L3,Inr*%
%TF.FilePolarity,Positive*%
%FSLAX46Y46*%
G04 Gerber Fmt 4.6, Leading zero omitted, Abs format (unit mm)*
G04 Created by KiCad (PCBNEW 9.0.1) date 2025-09-05 17:52:38*
%MOMM*%
%LPD*%
G01*
G04 APERTURE LIST*
%TA.AperFunction,ComponentPad*%
%ADD10R,1.700000X1.700000*%
%TD*%
%TA.AperFunction,ComponentPad*%
%ADD11C,1.700000*%
%TD*%
%TA.AperFunction,ComponentPad*%
%ADD12C,0.800000*%
%TD*%
%TA.AperFunction,ComponentPad*%
%ADD13C,5.000000*%
%TD*%
%TA.AperFunction,ComponentPad*%
%ADD14R,1.500000X1.500000*%
%TD*%
%TA.AperFunction,ComponentPad*%
%ADD15C,1.500000*%
%TD*%
%TA.AperFunction,ComponentPad*%
%ADD16C,2.300000*%
%TD*%
%TA.AperFunction,ComponentPad*%
%ADD17C,4.000000*%
%TD*%
%TA.AperFunction,ComponentPad*%
%ADD18C,2.000000*%
%TD*%
%TA.AperFunction,ViaPad*%
%ADD19C,0.600000*%
%TD*%
%TA.AperFunction,ViaPad*%
%ADD20C,0.500000*%
%TD*%
G04 APERTURE END LIST*
D10*
%TO.N,/Platine1/microcontroller1/UART_TX*%
%TO.C,J10*%
X165540000Y-115200000D03*
D11*
%TO.N,/Platine1/microcontroller1/UART_RX*%
X168080000Y-115200000D03*
%TO.N,/Platine1/microcontroller1/SWDIO*%
X170620000Y-115200000D03*
%TO.N,/Platine1/microcontroller1/SWCLK*%
X173160000Y-115200000D03*
%TO.N,/Platine1/microcontroller1/RST*%
X175700000Y-115200000D03*
%TO.N,GND*%
X178240000Y-115200000D03*
%TO.N,+3.3V*%
X180780000Y-115200000D03*
%TD*%
D12*
%TO.N,N/C*%
%TO.C,H2*%
X206125000Y-27000000D03*
X206674175Y-25674175D03*
X206674175Y-28325825D03*
X208000000Y-25125000D03*
D13*
X208000000Y-27000000D03*
D12*
X208000000Y-28875000D03*
X209325825Y-25674175D03*
X209325825Y-28325825D03*
X209875000Y-27000000D03*
%TD*%
D14*
%TO.N,/Platine1/CAN_L*%
%TO.C,J5*%
X119020000Y-104648000D03*
D15*
%TO.N,/Platine1/CAN_H*%
X120800000Y-103632000D03*
%TO.N,GND*%
X119020000Y-102616000D03*
%TO.N,unconnected-(J5-Pad4)*%
X120800000Y-101600000D03*
%TO.N,unconnected-(J5-Pad5)*%
X119020000Y-100584000D03*
%TO.N,GND*%
X120800000Y-99568000D03*
%TO.N,unconnected-(J5-Pad7)*%
X119020000Y-98552000D03*
%TO.N,unconnected-(J5-Pad8)*%
X120800000Y-97536000D03*
D16*
%TO.N,N/C*%
X119910000Y-109218000D03*
X119910000Y-92958000D03*
%TD*%
D12*
%TO.N,N/C*%
%TO.C,H1*%
X112125000Y-27000000D03*
X112674175Y-25674175D03*
X112674175Y-28325825D03*
X114000000Y-25125000D03*
D13*
X114000000Y-27000000D03*
D12*
X114000000Y-28875000D03*
X115325825Y-25674175D03*
X115325825Y-28325825D03*
X115875000Y-27000000D03*
%TD*%
%TO.N,N/C*%
%TO.C,H3*%
X112125000Y-121000000D03*
X112674175Y-119674175D03*
X112674175Y-122325825D03*
X114000000Y-119125000D03*
D13*
X114000000Y-121000000D03*
D12*
X114000000Y-122875000D03*
X115325825Y-119674175D03*
X115325825Y-122325825D03*
X115875000Y-121000000D03*
%TD*%
D14*
%TO.N,/Platine1/CAN_L*%
%TO.C,J4*%
X119120000Y-83948000D03*
D15*
%TO.N,/Platine1/CAN_H*%
X120900000Y-82932000D03*
%TO.N,GND*%
X119120000Y-81916000D03*
%TO.N,unconnected-(J4-Pad4)*%
X120900000Y-80900000D03*
%TO.N,unconnected-(J4-Pad5)*%
X119120000Y-79884000D03*
%TO.N,GND*%
X120900000Y-78868000D03*
%TO.N,unconnected-(J4-Pad7)*%
X119120000Y-77852000D03*
%TO.N,unconnected-(J4-Pad8)*%
X120900000Y-76836000D03*
D16*
%TO.N,N/C*%
X120010000Y-88518000D03*
X120010000Y-72258000D03*
%TD*%
D17*
%TO.N,GND*%
%TO.C,J20*%
X131025000Y-38475000D03*
%TO.N,Net-(J20-Pin_2)*%
X131025000Y-46075000D03*
D18*
%TO.N,unconnected-(J20-Pin_3-Pad3)*%
X123725000Y-35075000D03*
%TO.N,unconnected-(J20-Pin_3-Pad3)_1*%
X123725000Y-49475000D03*
%TD*%
D12*
%TO.N,N/C*%
%TO.C,H4*%
X206125000Y-121000000D03*
X206674175Y-119674175D03*
X206674175Y-122325825D03*
X208000000Y-119125000D03*
D13*
X208000000Y-121000000D03*
D12*
X208000000Y-122875000D03*
X209325825Y-119674175D03*
X209325825Y-122325825D03*
X209875000Y-121000000D03*
%TD*%
D19*
%TO.N,GND*%
X189000000Y-79000000D03*
D20*
X149900000Y-42000000D03*
D19*
X142000000Y-115000000D03*
X151000000Y-118000000D03*
X135000000Y-59000000D03*
X148900000Y-51300000D03*
X196000000Y-87000000D03*
X196000000Y-91000000D03*
X150000000Y-110000000D03*
X192000000Y-70000000D03*
X165000000Y-67100000D03*
X158000000Y-110800000D03*
X191000000Y-112000000D03*
X154000000Y-100000000D03*
D20*
X145600000Y-38600000D03*
D19*
X142000000Y-98000000D03*
X162000000Y-40500000D03*
X154300000Y-65000000D03*
X194000000Y-65000000D03*
X137000000Y-112000000D03*
X140000000Y-93000000D03*
X195000000Y-112000000D03*
X137000000Y-109000000D03*
X158000000Y-103000000D03*
X152000000Y-110000000D03*
X145000000Y-110000000D03*
D20*
X139700000Y-38500000D03*
D19*
X162100000Y-61300000D03*
X132000000Y-59000000D03*
X159300000Y-54300000D03*
X158700000Y-57800000D03*
X144000000Y-100000000D03*
X154000000Y-118000000D03*
X140000000Y-99000000D03*
X194000000Y-62000000D03*
X154000000Y-101000000D03*
X146000000Y-120000000D03*
%TO.N,/Platine1/microcontroller1/RST*%
X149400000Y-111000000D03*
%TO.N,+24V*%
X193600000Y-71400000D03*
D20*
X163500000Y-45500000D03*
D19*
X165300000Y-45500000D03*
X200000000Y-91000000D03*
X200000000Y-65500000D03*
X164400000Y-45500000D03*
X199500000Y-78500000D03*
X200000000Y-50500000D03*
%TO.N,/Platine1/microcontroller1/SWCLK*%
X149600000Y-104500000D03*
%TO.N,/Platine1/microcontroller1/SWDIO*%
X146300000Y-102550000D03*
D20*
%TO.N,/Platine1/Commutation1-1/OUT9*%
X203000000Y-52000000D03*
D19*
%TO.N,/Platine1/Commutation1-1/OUT10*%
X198000000Y-83000000D03*
D20*
%TO.N,/Platine1/Commutation1-1/IN9*%
X191000000Y-66500000D03*
D19*
X191000000Y-77500000D03*
%TO.N,/Platine1/CAN_L*%
X144100000Y-84500000D03*
X124300000Y-84500000D03*
%TO.N,/Platine1/CAN_H*%
X123300000Y-82980000D03*
X139480000Y-82980000D03*
%TD*%
%TA.AperFunction,Conductor*%
%TO.N,GND*%
G36*
X206034512Y-24520185D02*
G01*
X206080267Y-24572989D01*
X206090211Y-24642147D01*
X206061186Y-24705703D01*
X206044786Y-24721447D01*
X205997477Y-24759174D01*
X205759174Y-24997477D01*
X205549053Y-25260962D01*
X205369752Y-25546316D01*
X205223532Y-25849945D01*
X205112227Y-26168034D01*
X205112223Y-26168046D01*
X205037233Y-26496602D01*
X205037231Y-26496618D01*
X204999500Y-26831491D01*
X204999500Y-27168508D01*
X205037231Y-27503381D01*
X205037233Y-27503397D01*
X205112223Y-27831953D01*
X205112227Y-27831965D01*
X205223532Y-28150054D01*
X205369752Y-28453683D01*
X205369754Y-28453686D01*
X205549054Y-28739039D01*
X205759175Y-29002523D01*
X205997477Y-29240825D01*
X206260961Y-29450946D01*
X206546314Y-29630246D01*
X206849949Y-29776469D01*
X207088848Y-29860063D01*
X207168034Y-29887772D01*
X207168046Y-29887776D01*
X207496606Y-29962767D01*
X207831492Y-30000499D01*
X207831493Y-30000500D01*
X207831496Y-30000500D01*
X208168507Y-30000500D01*
X208168507Y-30000499D01*
X208503394Y-29962767D01*
X208831954Y-29887776D01*
X209150051Y-29776469D01*
X209453686Y-29630246D01*
X209739039Y-29450946D01*
X210002523Y-29240825D01*
X210240825Y-29002523D01*
X210278553Y-28955213D01*
X210335740Y-28915073D01*
X210405552Y-28912223D01*
X210465822Y-28947568D01*
X210497416Y-29009886D01*
X210499500Y-29032526D01*
X210499500Y-95876000D01*
X210479815Y-95943039D01*
X210427011Y-95988794D01*
X210375500Y-96000000D01*
X188124000Y-96000000D01*
X188056961Y-95980315D01*
X188011206Y-95927511D01*
X188000000Y-95876000D01*
X188000000Y-90921153D01*
X199199500Y-90921153D01*
X199199500Y-91078846D01*
X199230261Y-91233489D01*
X199230264Y-91233501D01*
X199290602Y-91379172D01*
X199290609Y-91379185D01*
X199378210Y-91510288D01*
X199378213Y-91510292D01*
X199489707Y-91621786D01*
X199489711Y-91621789D01*
X199620814Y-91709390D01*
X199620827Y-91709397D01*
X199766498Y-91769735D01*
X199766503Y-91769737D01*
X199921153Y-91800499D01*
X199921156Y-91800500D01*
X199921158Y-91800500D01*
X200078844Y-91800500D01*
X200078845Y-91800499D01*
X200233497Y-91769737D01*
X200379179Y-91709394D01*
X200510289Y-91621789D01*
X200621789Y-91510289D01*
X200709394Y-91379179D01*
X200769737Y-91233497D01*
X200800500Y-91078842D01*
X200800500Y-90921158D01*
X200800500Y-90921155D01*
X200800499Y-90921153D01*
X200769738Y-90766510D01*
X200769737Y-90766503D01*
X200769735Y-90766498D01*
X200709397Y-90620827D01*
X200709390Y-90620814D01*
X200621789Y-90489711D01*
X200621786Y-90489707D01*
X200510292Y-90378213D01*
X200510288Y-90378210D01*
X200379185Y-90290609D01*
X200379172Y-90290602D01*
X200233501Y-90230264D01*
X200233489Y-90230261D01*
X200078845Y-90199500D01*
X200078842Y-90199500D01*
X199921158Y-90199500D01*
X199921155Y-90199500D01*
X199766510Y-90230261D01*
X199766498Y-90230264D01*
X199620827Y-90290602D01*
X199620814Y-90290609D01*
X199489711Y-90378210D01*
X199489707Y-90378213D01*
X199378213Y-90489707D01*
X199378210Y-90489711D01*
X199290609Y-90620814D01*
X199290602Y-90620827D01*
X199230264Y-90766498D01*
X199230261Y-90766510D01*
X199199500Y-90921153D01*
X188000000Y-90921153D01*
X188000000Y-82921153D01*
X197199500Y-82921153D01*
X197199500Y-83078846D01*
X197230261Y-83233489D01*
X197230264Y-83233501D01*
X197290602Y-83379172D01*
X197290609Y-83379185D01*
X197378210Y-83510288D01*
X197378213Y-83510292D01*
X197489707Y-83621786D01*
X197489711Y-83621789D01*
X197620814Y-83709390D01*
X197620827Y-83709397D01*
X197718218Y-83749737D01*
X197766503Y-83769737D01*
X197871418Y-83790606D01*
X197921153Y-83800499D01*
X197921156Y-83800500D01*
X197921158Y-83800500D01*
X198078844Y-83800500D01*
X198078845Y-83800499D01*
X198233497Y-83769737D01*
X198379179Y-83709394D01*
X198510289Y-83621789D01*
X198621789Y-83510289D01*
X198709394Y-83379179D01*
X198769737Y-83233497D01*
X198800500Y-83078842D01*
X198800500Y-82921158D01*
X198800500Y-82921155D01*
X198800499Y-82921153D01*
X198769738Y-82766510D01*
X198769737Y-82766503D01*
X198741156Y-82697501D01*
X198709397Y-82620827D01*
X198709390Y-82620814D01*
X198621789Y-82489711D01*
X198621786Y-82489707D01*
X198510292Y-82378213D01*
X198510288Y-82378210D01*
X198379185Y-82290609D01*
X198379172Y-82290602D01*
X198233501Y-82230264D01*
X198233489Y-82230261D01*
X198078845Y-82199500D01*
X198078842Y-82199500D01*
X197921158Y-82199500D01*
X197921155Y-82199500D01*
X197766510Y-82230261D01*
X197766498Y-82230264D01*
X197620827Y-82290602D01*
X197620814Y-82290609D01*
X197489711Y-82378210D01*
X197489707Y-82378213D01*
X197378213Y-82489707D01*
X197378210Y-82489711D01*
X197290609Y-82620814D01*
X197290602Y-82620827D01*
X197230264Y-82766498D01*
X197230261Y-82766510D01*
X197199500Y-82921153D01*
X188000000Y-82921153D01*
X188000000Y-78421153D01*
X198699500Y-78421153D01*
X198699500Y-78578846D01*
X198730261Y-78733489D01*
X198730264Y-78733501D01*
X198790602Y-78879172D01*
X198790609Y-78879185D01*
X198878210Y-79010288D01*
X198878213Y-79010292D01*
X198989707Y-79121786D01*
X198989711Y-79121789D01*
X199120814Y-79209390D01*
X199120827Y-79209397D01*
X199266498Y-79269735D01*
X199266503Y-79269737D01*
X199421153Y-79300499D01*
X199421156Y-79300500D01*
X199421158Y-79300500D01*
X199578844Y-79300500D01*
X199578845Y-79300499D01*
X199733497Y-79269737D01*
X199879179Y-79209394D01*
X200010289Y-79121789D01*
X200121789Y-79010289D01*
X200209394Y-78879179D01*
X200214025Y-78868000D01*
X200269735Y-78733501D01*
X200269737Y-78733497D01*
X200300500Y-78578842D01*
X200300500Y-78421158D01*
X200300500Y-78421155D01*
X200300499Y-78421153D01*
X200269738Y-78266510D01*
X200269737Y-78266503D01*
X200246080Y-78209390D01*
X200209397Y-78120827D01*
X200209390Y-78120814D01*
X200121789Y-77989711D01*
X200121786Y-77989707D01*
X200010292Y-77878213D01*
X200010288Y-77878210D01*
X199879185Y-77790609D01*
X199879172Y-77790602D01*
X199733501Y-77730264D01*
X199733489Y-77730261D01*
X199578845Y-77699500D01*
X199578842Y-77699500D01*
X199421158Y-77699500D01*
X199421155Y-77699500D01*
X199266510Y-77730261D01*
X199266498Y-77730264D01*
X199120827Y-77790602D01*
X199120814Y-77790609D01*
X198989711Y-77878210D01*
X198989707Y-77878213D01*
X198878213Y-77989707D01*
X198878210Y-77989711D01*
X198790609Y-78120814D01*
X198790602Y-78120827D01*
X198730264Y-78266498D01*
X198730261Y-78266510D01*
X198699500Y-78421153D01*
X188000000Y-78421153D01*
X188000000Y-77421153D01*
X190199500Y-77421153D01*
X190199500Y-77578846D01*
X190230261Y-77733489D01*
X190230264Y-77733501D01*
X190290602Y-77879172D01*
X190290609Y-77879185D01*
X190378210Y-78010288D01*
X190378213Y-78010292D01*
X190489707Y-78121786D01*
X190489711Y-78121789D01*
X190620814Y-78209390D01*
X190620827Y-78209397D01*
X190758683Y-78266498D01*
X190766503Y-78269737D01*
X190921153Y-78300499D01*
X190921156Y-78300500D01*
X190921158Y-78300500D01*
X191078844Y-78300500D01*
X191078845Y-78300499D01*
X191089179Y-78298443D01*
X191114287Y-78293450D01*
X191114292Y-78293449D01*
X191199800Y-78276439D01*
X191233497Y-78269737D01*
X191379179Y-78209394D01*
X191510289Y-78121789D01*
X191621789Y-78010289D01*
X191709394Y-77879179D01*
X191769737Y-77733497D01*
X191800500Y-77578842D01*
X191800500Y-77421158D01*
X191800500Y-77421155D01*
X191800499Y-77421153D01*
X191790717Y-77371975D01*
X191769737Y-77266503D01*
X191769735Y-77266498D01*
X191709397Y-77120827D01*
X191709390Y-77120814D01*
X191621789Y-76989711D01*
X191621786Y-76989707D01*
X191510292Y-76878213D01*
X191510288Y-76878210D01*
X191379185Y-76790609D01*
X191379172Y-76790602D01*
X191233501Y-76730264D01*
X191233489Y-76730261D01*
X191078845Y-76699500D01*
X191078842Y-76699500D01*
X190921158Y-76699500D01*
X190921155Y-76699500D01*
X190766510Y-76730261D01*
X190766498Y-76730264D01*
X190620827Y-76790602D01*
X190620814Y-76790609D01*
X190489711Y-76878210D01*
X190489707Y-76878213D01*
X190378213Y-76989707D01*
X190378210Y-76989711D01*
X190290609Y-77120814D01*
X190290602Y-77120827D01*
X190230264Y-77266498D01*
X190230261Y-77266510D01*
X190199500Y-77421153D01*
X188000000Y-77421153D01*
X188000000Y-71321153D01*
X192799500Y-71321153D01*
X192799500Y-71478846D01*
X192830261Y-71633489D01*
X192830264Y-71633501D01*
X192890602Y-71779172D01*
X192890609Y-71779185D01*
X192978210Y-71910288D01*
X192978213Y-71910292D01*
X193089707Y-72021786D01*
X193089711Y-72021789D01*
X193220814Y-72109390D01*
X193220827Y-72109397D01*
X193349031Y-72162500D01*
X193366503Y-72169737D01*
X193491452Y-72194591D01*
X193521153Y-72200499D01*
X193521156Y-72200500D01*
X193521158Y-72200500D01*
X193678844Y-72200500D01*
X193678845Y-72200499D01*
X193833497Y-72169737D01*
X193979179Y-72109394D01*
X194110289Y-72021789D01*
X194221789Y-71910289D01*
X194309394Y-71779179D01*
X194369737Y-71633497D01*
X194400500Y-71478842D01*
X194400500Y-71321158D01*
X194400500Y-71321155D01*
X194400499Y-71321153D01*
X194369738Y-71166510D01*
X194369737Y-71166503D01*
X194369735Y-71166498D01*
X194309397Y-71020827D01*
X194309390Y-71020814D01*
X194221789Y-70889711D01*
X194221786Y-70889707D01*
X194110292Y-70778213D01*
X194110288Y-70778210D01*
X193979185Y-70690609D01*
X193979172Y-70690602D01*
X193833501Y-70630264D01*
X193833489Y-70630261D01*
X193678845Y-70599500D01*
X193678842Y-70599500D01*
X193521158Y-70599500D01*
X193521155Y-70599500D01*
X193366510Y-70630261D01*
X193366498Y-70630264D01*
X193220827Y-70690602D01*
X193220814Y-70690609D01*
X193089711Y-70778210D01*
X193089707Y-70778213D01*
X192978213Y-70889707D01*
X192978210Y-70889711D01*
X192890609Y-71020814D01*
X192890602Y-71020827D01*
X192830264Y-71166498D01*
X192830261Y-71166510D01*
X192799500Y-71321153D01*
X188000000Y-71321153D01*
X188000000Y-70000000D01*
X111624500Y-70000000D01*
X111557461Y-69980315D01*
X111511706Y-69927511D01*
X111500500Y-69876000D01*
X111500500Y-66573920D01*
X190249499Y-66573920D01*
X190278340Y-66718907D01*
X190278343Y-66718917D01*
X190334912Y-66855488D01*
X190334919Y-66855501D01*
X190417048Y-66978415D01*
X190417051Y-66978419D01*
X190521580Y-67082948D01*
X190521584Y-67082951D01*
X190644498Y-67165080D01*
X190644511Y-67165087D01*
X190781082Y-67221656D01*
X190781087Y-67221658D01*
X190781091Y-67221658D01*
X190781092Y-67221659D01*
X190926079Y-67250500D01*
X190926082Y-67250500D01*
X191073920Y-67250500D01*
X191171462Y-67231096D01*
X191218913Y-67221658D01*
X191355495Y-67165084D01*
X191478416Y-67082951D01*
X191582951Y-66978416D01*
X191665084Y-66855495D01*
X191721658Y-66718913D01*
X191750500Y-66573918D01*
X191750500Y-66426082D01*
X191750500Y-66426079D01*
X191721659Y-66281092D01*
X191721658Y-66281091D01*
X191721658Y-66281087D01*
X191691960Y-66209390D01*
X191665087Y-66144511D01*
X191665080Y-66144498D01*
X191582951Y-66021584D01*
X191582948Y-66021580D01*
X191478419Y-65917051D01*
X191478415Y-65917048D01*
X191355501Y-65834919D01*
X191355488Y-65834912D01*
X191218917Y-65778343D01*
X191218907Y-65778340D01*
X191073920Y-65749500D01*
X191073918Y-65749500D01*
X190926082Y-65749500D01*
X190926080Y-65749500D01*
X190781092Y-65778340D01*
X190781082Y-65778343D01*
X190644511Y-65834912D01*
X190644498Y-65834919D01*
X190521584Y-65917048D01*
X190521580Y-65917051D01*
X190417051Y-66021580D01*
X190417048Y-66021584D01*
X190334919Y-66144498D01*
X190334912Y-66144511D01*
X190278343Y-66281082D01*
X190278340Y-66281092D01*
X190249500Y-66426079D01*
X190249500Y-66426082D01*
X190249500Y-66573918D01*
X190249500Y-66573920D01*
X190249499Y-66573920D01*
X111500500Y-66573920D01*
X111500500Y-65421153D01*
X199199500Y-65421153D01*
X199199500Y-65578846D01*
X199230261Y-65733489D01*
X199230264Y-65733501D01*
X199290602Y-65879172D01*
X199290609Y-65879185D01*
X199378210Y-66010288D01*
X199378213Y-66010292D01*
X199489707Y-66121786D01*
X199489711Y-66121789D01*
X199620814Y-66209390D01*
X199620827Y-66209397D01*
X199766498Y-66269735D01*
X199766503Y-66269737D01*
X199921153Y-66300499D01*
X199921156Y-66300500D01*
X199921158Y-66300500D01*
X200078844Y-66300500D01*
X200078845Y-66300499D01*
X200233497Y-66269737D01*
X200379179Y-66209394D01*
X200510289Y-66121789D01*
X200621789Y-66010289D01*
X200709394Y-65879179D01*
X200769737Y-65733497D01*
X200800500Y-65578842D01*
X200800500Y-65421158D01*
X200800500Y-65421155D01*
X200800499Y-65421153D01*
X200769738Y-65266510D01*
X200769737Y-65266503D01*
X200769735Y-65266498D01*
X200709397Y-65120827D01*
X200709390Y-65120814D01*
X200621789Y-64989711D01*
X200621786Y-64989707D01*
X200510292Y-64878213D01*
X200510288Y-64878210D01*
X200379185Y-64790609D01*
X200379172Y-64790602D01*
X200233501Y-64730264D01*
X200233489Y-64730261D01*
X200078845Y-64699500D01*
X200078842Y-64699500D01*
X199921158Y-64699500D01*
X199921155Y-64699500D01*
X199766510Y-64730261D01*
X199766498Y-64730264D01*
X199620827Y-64790602D01*
X199620814Y-64790609D01*
X199489711Y-64878210D01*
X199489707Y-64878213D01*
X199378213Y-64989707D01*
X199378210Y-64989711D01*
X199290609Y-65120814D01*
X199290602Y-65120827D01*
X199230264Y-65266498D01*
X199230261Y-65266510D01*
X199199500Y-65421153D01*
X111500500Y-65421153D01*
X111500500Y-52073920D01*
X202249499Y-52073920D01*
X202278340Y-52218907D01*
X202278343Y-52218917D01*
X202334912Y-52355488D01*
X202334919Y-52355501D01*
X202417048Y-52478415D01*
X202417051Y-52478419D01*
X202521580Y-52582948D01*
X202521584Y-52582951D01*
X202644498Y-52665080D01*
X202644511Y-52665087D01*
X202781082Y-52721656D01*
X202781087Y-52721658D01*
X202781091Y-52721658D01*
X202781092Y-52721659D01*
X202926079Y-52750500D01*
X202926082Y-52750500D01*
X203073920Y-52750500D01*
X203171462Y-52731096D01*
X203218913Y-52721658D01*
X203355495Y-52665084D01*
X203478416Y-52582951D01*
X203582951Y-52478416D01*
X203665084Y-52355495D01*
X203721658Y-52218913D01*
X203750500Y-52073918D01*
X203750500Y-51926082D01*
X203750500Y-51926079D01*
X203721659Y-51781092D01*
X203721658Y-51781091D01*
X203721658Y-51781087D01*
X203721656Y-51781082D01*
X203665087Y-51644511D01*
X203665080Y-51644498D01*
X203582951Y-51521584D01*
X203582948Y-51521580D01*
X203478419Y-51417051D01*
X203478415Y-51417048D01*
X203355501Y-51334919D01*
X203355488Y-51334912D01*
X203218917Y-51278343D01*
X203218907Y-51278340D01*
X203073920Y-51249500D01*
X203073918Y-51249500D01*
X202926082Y-51249500D01*
X202926080Y-51249500D01*
X202781092Y-51278340D01*
X202781082Y-51278343D01*
X202644511Y-51334912D01*
X202644498Y-51334919D01*
X202521584Y-51417048D01*
X202521580Y-51417051D01*
X202417051Y-51521580D01*
X202417048Y-51521584D01*
X202334919Y-51644498D01*
X202334912Y-51644511D01*
X202278343Y-51781082D01*
X202278340Y-51781092D01*
X202249500Y-51926079D01*
X202249500Y-51926082D01*
X202249500Y-52073918D01*
X202249500Y-52073920D01*
X202249499Y-52073920D01*
X111500500Y-52073920D01*
X111500500Y-49356902D01*
X122224500Y-49356902D01*
X122224500Y-49593097D01*
X122261446Y-49826368D01*
X122334433Y-50050996D01*
X122441657Y-50261433D01*
X122580483Y-50452510D01*
X122747490Y-50619517D01*
X122938567Y-50758343D01*
X123037991Y-50809002D01*
X123149003Y-50865566D01*
X123149005Y-50865566D01*
X123149008Y-50865568D01*
X123190917Y-50879185D01*
X123373631Y-50938553D01*
X123606903Y-50975500D01*
X123606908Y-50975500D01*
X123843097Y-50975500D01*
X124076368Y-50938553D01*
X124300992Y-50865568D01*
X124511433Y-50758343D01*
X124702510Y-50619517D01*
X124869517Y-50452510D01*
X124892299Y-50421153D01*
X199199500Y-50421153D01*
X199199500Y-50578846D01*
X199230261Y-50733489D01*
X199230264Y-50733501D01*
X199290602Y-50879172D01*
X199290609Y-50879185D01*
X199378210Y-51010288D01*
X199378213Y-51010292D01*
X199489707Y-51121786D01*
X199489711Y-51121789D01*
X199620814Y-51209390D01*
X199620827Y-51209397D01*
X199717646Y-51249500D01*
X199766503Y-51269737D01*
X199921153Y-51300499D01*
X199921156Y-51300500D01*
X199921158Y-51300500D01*
X200078844Y-51300500D01*
X200078845Y-51300499D01*
X200233497Y-51269737D01*
X200379179Y-51209394D01*
X200510289Y-51121789D01*
X200621789Y-51010289D01*
X200709394Y-50879179D01*
X200769737Y-50733497D01*
X200800500Y-50578842D01*
X200800500Y-50421158D01*
X200800500Y-50421155D01*
X200800499Y-50421153D01*
X200769738Y-50266510D01*
X200769737Y-50266503D01*
X200767637Y-50261433D01*
X200709397Y-50120827D01*
X200709390Y-50120814D01*
X200621789Y-49989711D01*
X200621786Y-49989707D01*
X200510292Y-49878213D01*
X200510288Y-49878210D01*
X200379185Y-49790609D01*
X200379172Y-49790602D01*
X200233501Y-49730264D01*
X200233489Y-49730261D01*
X200078845Y-49699500D01*
X200078842Y-49699500D01*
X199921158Y-49699500D01*
X199921155Y-49699500D01*
X199766510Y-49730261D01*
X199766498Y-49730264D01*
X199620827Y-49790602D01*
X199620814Y-49790609D01*
X199489711Y-49878210D01*
X199489707Y-49878213D01*
X199378213Y-49989707D01*
X199378210Y-49989711D01*
X199290609Y-50120814D01*
X199290602Y-50120827D01*
X199230264Y-50266498D01*
X199230261Y-50266510D01*
X199199500Y-50421153D01*
X124892299Y-50421153D01*
X125008343Y-50261433D01*
X125115568Y-50050992D01*
X125188553Y-49826368D01*
X125194218Y-49790602D01*
X125225500Y-49593097D01*
X125225500Y-49356902D01*
X125188553Y-49123631D01*
X125115566Y-48899003D01*
X125008342Y-48688566D01*
X124869517Y-48497490D01*
X124702510Y-48330483D01*
X124511433Y-48191657D01*
X124300996Y-48084433D01*
X124076368Y-48011446D01*
X123843097Y-47974500D01*
X123843092Y-47974500D01*
X123606908Y-47974500D01*
X123606903Y-47974500D01*
X123373631Y-48011446D01*
X123149003Y-48084433D01*
X122938566Y-48191657D01*
X122834942Y-48266945D01*
X122747490Y-48330483D01*
X122747488Y-48330485D01*
X122747487Y-48330485D01*
X122580485Y-48497487D01*
X122580485Y-48497488D01*
X122580483Y-48497490D01*
X122546650Y-48544057D01*
X122441657Y-48688566D01*
X122334433Y-48899003D01*
X122261446Y-49123631D01*
X122224500Y-49356902D01*
X111500500Y-49356902D01*
X111500500Y-45934568D01*
X128524500Y-45934568D01*
X128524500Y-46215431D01*
X128555942Y-46494494D01*
X128555945Y-46494512D01*
X128618439Y-46768317D01*
X128618443Y-46768329D01*
X128711200Y-47033411D01*
X128833053Y-47286442D01*
X128833055Y-47286445D01*
X128982477Y-47524248D01*
X129157584Y-47743825D01*
X129356175Y-47942416D01*
X129575752Y-48117523D01*
X129813555Y-48266945D01*
X130066592Y-48388801D01*
X130265680Y-48458465D01*
X130331670Y-48481556D01*
X130331682Y-48481560D01*
X130605491Y-48544055D01*
X130605497Y-48544055D01*
X130605505Y-48544057D01*
X130791547Y-48565018D01*
X130884569Y-48575499D01*
X130884572Y-48575500D01*
X130884575Y-48575500D01*
X131165428Y-48575500D01*
X131165429Y-48575499D01*
X131308055Y-48559429D01*
X131444494Y-48544057D01*
X131444499Y-48544056D01*
X131444509Y-48544055D01*
X131718318Y-48481560D01*
X131983408Y-48388801D01*
X132236445Y-48266945D01*
X132474248Y-48117523D01*
X132693825Y-47942416D01*
X132892416Y-47743825D01*
X133067523Y-47524248D01*
X133216945Y-47286445D01*
X133338801Y-47033408D01*
X133431560Y-46768318D01*
X133494055Y-46494509D01*
X133525500Y-46215425D01*
X133525500Y-45934575D01*
X133502843Y-45733489D01*
X133494057Y-45655505D01*
X133494056Y-45655500D01*
X133494055Y-45655491D01*
X133475437Y-45573920D01*
X162749499Y-45573920D01*
X162778340Y-45718907D01*
X162778343Y-45718917D01*
X162834912Y-45855488D01*
X162834919Y-45855501D01*
X162917048Y-45978415D01*
X162917051Y-45978419D01*
X163021580Y-46082948D01*
X163021584Y-46082951D01*
X163144498Y-46165080D01*
X163144511Y-46165087D01*
X163281082Y-46221656D01*
X163281087Y-46221658D01*
X163281091Y-46221658D01*
X163281092Y-46221659D01*
X163426079Y-46250500D01*
X163426082Y-46250500D01*
X163573920Y-46250500D01*
X163671462Y-46231096D01*
X163718913Y-46221658D01*
X163855384Y-46165129D01*
X163924851Y-46157661D01*
X163971721Y-46176586D01*
X164020821Y-46209394D01*
X164166503Y-46269737D01*
X164321153Y-46300499D01*
X164321156Y-46300500D01*
X164321158Y-46300500D01*
X164478844Y-46300500D01*
X164478845Y-46300499D01*
X164633497Y-46269737D01*
X164779179Y-46209394D01*
X164781110Y-46208103D01*
X164782276Y-46207737D01*
X164784546Y-46206525D01*
X164784776Y-46206955D01*
X164847786Y-46187226D01*
X164915166Y-46205710D01*
X164918850Y-46208077D01*
X164920821Y-46209394D01*
X164920824Y-46209395D01*
X164920827Y-46209397D01*
X165020060Y-46250500D01*
X165066503Y-46269737D01*
X165221153Y-46300499D01*
X165221156Y-46300500D01*
X165221158Y-46300500D01*
X165378844Y-46300500D01*
X165378845Y-46300499D01*
X165533497Y-46269737D01*
X165679179Y-46209394D01*
X165810289Y-46121789D01*
X165921789Y-46010289D01*
X166009394Y-45879179D01*
X166069737Y-45733497D01*
X166100500Y-45578842D01*
X166100500Y-45421158D01*
X166100500Y-45421155D01*
X166100499Y-45421153D01*
X166069738Y-45266510D01*
X166069737Y-45266503D01*
X166019207Y-45144511D01*
X166009397Y-45120827D01*
X166009390Y-45120814D01*
X165921789Y-44989711D01*
X165921786Y-44989707D01*
X165810292Y-44878213D01*
X165810288Y-44878210D01*
X165679185Y-44790609D01*
X165679172Y-44790602D01*
X165533501Y-44730264D01*
X165533489Y-44730261D01*
X165378845Y-44699500D01*
X165378842Y-44699500D01*
X165221158Y-44699500D01*
X165221155Y-44699500D01*
X165066510Y-44730261D01*
X165066498Y-44730264D01*
X164920822Y-44790604D01*
X164920820Y-44790605D01*
X164918885Y-44791899D01*
X164917717Y-44792264D01*
X164915451Y-44793476D01*
X164915221Y-44793045D01*
X164852206Y-44812773D01*
X164784827Y-44794285D01*
X164781115Y-44791899D01*
X164779179Y-44790605D01*
X164779177Y-44790604D01*
X164633501Y-44730264D01*
X164633489Y-44730261D01*
X164478845Y-44699500D01*
X164478842Y-44699500D01*
X164321158Y-44699500D01*
X164321155Y-44699500D01*
X164166510Y-44730261D01*
X164166498Y-44730264D01*
X164020828Y-44790602D01*
X164020814Y-44790610D01*
X163971722Y-44823411D01*
X163905044Y-44844287D01*
X163855382Y-44834868D01*
X163718917Y-44778343D01*
X163718907Y-44778340D01*
X163573920Y-44749500D01*
X163573918Y-44749500D01*
X163426082Y-44749500D01*
X163426080Y-44749500D01*
X163281092Y-44778340D01*
X163281082Y-44778343D01*
X163144511Y-44834912D01*
X163144498Y-44834919D01*
X163021584Y-44917048D01*
X163021580Y-44917051D01*
X162917051Y-45021580D01*
X162917048Y-45021584D01*
X162834919Y-45144498D01*
X162834912Y-45144511D01*
X162778343Y-45281082D01*
X162778340Y-45281092D01*
X162749500Y-45426079D01*
X162749500Y-45426082D01*
X162749500Y-45573918D01*
X162749500Y-45573920D01*
X162749499Y-45573920D01*
X133475437Y-45573920D01*
X133431560Y-45381682D01*
X133338801Y-45116592D01*
X133216945Y-44863555D01*
X133067523Y-44625752D01*
X132892416Y-44406175D01*
X132693825Y-44207584D01*
X132474248Y-44032477D01*
X132236445Y-43883055D01*
X132236442Y-43883053D01*
X131983411Y-43761200D01*
X131718329Y-43668443D01*
X131718317Y-43668439D01*
X131444512Y-43605945D01*
X131444494Y-43605942D01*
X131165431Y-43574500D01*
X131165425Y-43574500D01*
X130884575Y-43574500D01*
X130884568Y-43574500D01*
X130605505Y-43605942D01*
X130605487Y-43605945D01*
X130331682Y-43668439D01*
X130331670Y-43668443D01*
X130066588Y-43761200D01*
X129813557Y-43883053D01*
X129575753Y-44032476D01*
X129356175Y-44207583D01*
X129157583Y-44406175D01*
X128982476Y-44625753D01*
X128833053Y-44863557D01*
X128711200Y-45116588D01*
X128618443Y-45381670D01*
X128618439Y-45381682D01*
X128555945Y-45655487D01*
X128555942Y-45655505D01*
X128524500Y-45934568D01*
X111500500Y-45934568D01*
X111500500Y-38334598D01*
X128525000Y-38334598D01*
X128525000Y-38615401D01*
X128556437Y-38894412D01*
X128556439Y-38894424D01*
X128618921Y-39168178D01*
X128618922Y-39168180D01*
X128711662Y-39433217D01*
X128833492Y-39686200D01*
X128982884Y-39923956D01*
X129089187Y-40057257D01*
X129659041Y-39487403D01*
X129744130Y-39598293D01*
X129901707Y-39755870D01*
X130012594Y-39840957D01*
X129442741Y-40410810D01*
X129442741Y-40410811D01*
X129576043Y-40517115D01*
X129813799Y-40666507D01*
X130066782Y-40788337D01*
X130331819Y-40881077D01*
X130331821Y-40881078D01*
X130605575Y-40943560D01*
X130605587Y-40943562D01*
X130884598Y-40974999D01*
X130884600Y-40975000D01*
X131165400Y-40975000D01*
X131165401Y-40974999D01*
X131444412Y-40943562D01*
X131444424Y-40943560D01*
X131718178Y-40881078D01*
X131718180Y-40881077D01*
X131983217Y-40788337D01*
X132236200Y-40666507D01*
X132473956Y-40517116D01*
X132607257Y-40410810D01*
X132037404Y-39840958D01*
X132148293Y-39755870D01*
X132305870Y-39598293D01*
X132390957Y-39487404D01*
X132960810Y-40057257D01*
X133067116Y-39923956D01*
X133216507Y-39686200D01*
X133338337Y-39433217D01*
X133431077Y-39168180D01*
X133431078Y-39168178D01*
X133493560Y-38894424D01*
X133493562Y-38894412D01*
X133524999Y-38615401D01*
X133525000Y-38615399D01*
X133525000Y-38334600D01*
X133524999Y-38334598D01*
X133493562Y-38055587D01*
X133493560Y-38055575D01*
X133431078Y-37781821D01*
X133431077Y-37781819D01*
X133338337Y-37516782D01*
X133216507Y-37263799D01*
X133067115Y-37026043D01*
X132960810Y-36892741D01*
X132390957Y-37462594D01*
X132305870Y-37351707D01*
X132148293Y-37194130D01*
X132037403Y-37109041D01*
X132607257Y-36539187D01*
X132473956Y-36432884D01*
X132236200Y-36283492D01*
X131983217Y-36161662D01*
X131718180Y-36068922D01*
X131718178Y-36068921D01*
X131444424Y-36006439D01*
X131444412Y-36006437D01*
X131165401Y-35975000D01*
X130884598Y-35975000D01*
X130605587Y-36006437D01*
X130605575Y-36006439D01*
X130331821Y-36068921D01*
X130331819Y-36068922D01*
X130066782Y-36161662D01*
X129813799Y-36283492D01*
X129576043Y-36432884D01*
X129442741Y-36539187D01*
X130012595Y-37109041D01*
X129901707Y-37194130D01*
X129744130Y-37351707D01*
X129659041Y-37462595D01*
X129089187Y-36892741D01*
X128982884Y-37026043D01*
X128833492Y-37263799D01*
X128711662Y-37516782D01*
X128618922Y-37781819D01*
X128618921Y-37781821D01*
X128556439Y-38055575D01*
X128556437Y-38055587D01*
X128525000Y-38334598D01*
X111500500Y-38334598D01*
X111500500Y-34956902D01*
X122224500Y-34956902D01*
X122224500Y-35193097D01*
X122261446Y-35426368D01*
X122334433Y-35650996D01*
X122441657Y-35861433D01*
X122580483Y-36052510D01*
X122747490Y-36219517D01*
X122938567Y-36358343D01*
X123037991Y-36409002D01*
X123149003Y-36465566D01*
X123149005Y-36465566D01*
X123149008Y-36465568D01*
X123269412Y-36504689D01*
X123373631Y-36538553D01*
X123606903Y-36575500D01*
X123606908Y-36575500D01*
X123843097Y-36575500D01*
X124076368Y-36538553D01*
X124300992Y-36465568D01*
X124511433Y-36358343D01*
X124702510Y-36219517D01*
X124869517Y-36052510D01*
X125008343Y-35861433D01*
X125115568Y-35650992D01*
X125188553Y-35426368D01*
X125225500Y-35193097D01*
X125225500Y-34956902D01*
X125188553Y-34723631D01*
X125115566Y-34499003D01*
X125008342Y-34288566D01*
X124869517Y-34097490D01*
X124702510Y-33930483D01*
X124511433Y-33791657D01*
X124300996Y-33684433D01*
X124076368Y-33611446D01*
X123843097Y-33574500D01*
X123843092Y-33574500D01*
X123606908Y-33574500D01*
X123606903Y-33574500D01*
X123373631Y-33611446D01*
X123149003Y-33684433D01*
X122938566Y-33791657D01*
X122829550Y-33870862D01*
X122747490Y-33930483D01*
X122747488Y-33930485D01*
X122747487Y-33930485D01*
X122580485Y-34097487D01*
X122580485Y-34097488D01*
X122580483Y-34097490D01*
X122520862Y-34179550D01*
X122441657Y-34288566D01*
X122334433Y-34499003D01*
X122261446Y-34723631D01*
X122224500Y-34956902D01*
X111500500Y-34956902D01*
X111500500Y-29032526D01*
X111520185Y-28965487D01*
X111572989Y-28919732D01*
X111642147Y-28909788D01*
X111705703Y-28938813D01*
X111721444Y-28955210D01*
X111759175Y-29002523D01*
X111997477Y-29240825D01*
X112260961Y-29450946D01*
X112546314Y-29630246D01*
X112849949Y-29776469D01*
X113088848Y-29860063D01*
X113168034Y-29887772D01*
X113168046Y-29887776D01*
X113496606Y-29962767D01*
X113831492Y-30000499D01*
X113831493Y-30000500D01*
X113831496Y-30000500D01*
X114168507Y-30000500D01*
X114168507Y-30000499D01*
X114503394Y-29962767D01*
X114831954Y-29887776D01*
X115150051Y-29776469D01*
X115453686Y-29630246D01*
X115739039Y-29450946D01*
X116002523Y-29240825D01*
X116240825Y-29002523D01*
X116450946Y-28739039D01*
X116630246Y-28453686D01*
X116776469Y-28150051D01*
X116887776Y-27831954D01*
X116962767Y-27503394D01*
X117000500Y-27168504D01*
X117000500Y-26831496D01*
X116962767Y-26496606D01*
X116887776Y-26168046D01*
X116776469Y-25849949D01*
X116630246Y-25546314D01*
X116450946Y-25260961D01*
X116240825Y-24997477D01*
X116002523Y-24759175D01*
X116002522Y-24759174D01*
X115955214Y-24721447D01*
X115915074Y-24664258D01*
X115912224Y-24594447D01*
X115947570Y-24534177D01*
X116009889Y-24502584D01*
X116032527Y-24500500D01*
X205967473Y-24500500D01*
X206034512Y-24520185D01*
G37*
%TD.AperFunction*%
%TD*%
M02*
