%TF.GenerationSoftware,KiCad,Pcbnew,9.0.1*%
%TF.CreationDate,2025-09-05T17:52:38+02:00*%
%TF.ProjectId,sensorBoard,73656e73-6f72-4426-9f61-72642e6b6963,rev?*%
%TF.SameCoordinates,Original*%
%TF.FileFunction,Copper,L4,Bot*%
%TF.FilePolarity,Positive*%
%FSLAX46Y46*%
G04 Gerber Fmt 4.6, Leading zero omitted, Abs format (unit mm)*
G04 Created by KiCad (PCBNEW 9.0.1) date 2025-09-05 17:52:38*
%MOMM*%
%LPD*%
G01*
G04 APERTURE LIST*
%TA.AperFunction,ComponentPad*%
%ADD10R,1.700000X1.700000*%
%TD*%
%TA.AperFunction,ComponentPad*%
%ADD11C,1.700000*%
%TD*%
%TA.AperFunction,ComponentPad*%
%ADD12C,0.800000*%
%TD*%
%TA.AperFunction,ComponentPad*%
%ADD13C,5.000000*%
%TD*%
%TA.AperFunction,ComponentPad*%
%ADD14R,1.500000X1.500000*%
%TD*%
%TA.AperFunction,ComponentPad*%
%ADD15C,1.500000*%
%TD*%
%TA.AperFunction,ComponentPad*%
%ADD16C,2.300000*%
%TD*%
%TA.AperFunction,ComponentPad*%
%ADD17C,4.000000*%
%TD*%
%TA.AperFunction,ComponentPad*%
%ADD18C,2.000000*%
%TD*%
%TA.AperFunction,SMDPad,CuDef*%
%ADD19R,2.920000X1.270000*%
%TD*%
%TA.AperFunction,SMDPad,CuDef*%
%ADD20R,1.650000X3.430000*%
%TD*%
%TA.AperFunction,ViaPad*%
%ADD21C,0.600000*%
%TD*%
%TA.AperFunction,ViaPad*%
%ADD22C,0.500000*%
%TD*%
%TA.AperFunction,Conductor*%
%ADD23C,0.200000*%
%TD*%
%TA.AperFunction,Conductor*%
%ADD24C,1.000000*%
%TD*%
%TA.AperFunction,Conductor*%
%ADD25C,0.500000*%
%TD*%
G04 APERTURE END LIST*
D10*
%TO.P,J10,1,Pin_1*%
%TO.N,/Platine1/microcontroller1/UART_TX*%
X165540000Y-115200000D03*
D11*
%TO.P,J10,2,Pin_2*%
%TO.N,/Platine1/microcontroller1/UART_RX*%
X168080000Y-115200000D03*
%TO.P,J10,3,Pin_3*%
%TO.N,/Platine1/microcontroller1/SWDIO*%
X170620000Y-115200000D03*
%TO.P,J10,4,Pin_4*%
%TO.N,/Platine1/microcontroller1/SWCLK*%
X173160000Y-115200000D03*
%TO.P,J10,5,Pin_5*%
%TO.N,/Platine1/microcontroller1/RST*%
X175700000Y-115200000D03*
%TO.P,J10,6,Pin_6*%
%TO.N,GND*%
X178240000Y-115200000D03*
%TO.P,J10,7,Pin_7*%
%TO.N,+3.3V*%
X180780000Y-115200000D03*
%TD*%
D12*
%TO.P,H2,1*%
%TO.N,N/C*%
X206125000Y-27000000D03*
X206674175Y-25674175D03*
X206674175Y-28325825D03*
X208000000Y-25125000D03*
D13*
X208000000Y-27000000D03*
D12*
X208000000Y-28875000D03*
X209325825Y-25674175D03*
X209325825Y-28325825D03*
X209875000Y-27000000D03*
%TD*%
D14*
%TO.P,J5,1*%
%TO.N,/Platine1/CAN_L*%
X119020000Y-104648000D03*
D15*
%TO.P,J5,2*%
%TO.N,/Platine1/CAN_H*%
X120800000Y-103632000D03*
%TO.P,J5,3*%
%TO.N,GND*%
X119020000Y-102616000D03*
%TO.P,J5,4*%
%TO.N,unconnected-(J5-Pad4)*%
X120800000Y-101600000D03*
%TO.P,J5,5*%
%TO.N,unconnected-(J5-Pad5)*%
X119020000Y-100584000D03*
%TO.P,J5,6*%
%TO.N,GND*%
X120800000Y-99568000D03*
%TO.P,J5,7*%
%TO.N,unconnected-(J5-Pad7)*%
X119020000Y-98552000D03*
%TO.P,J5,8*%
%TO.N,unconnected-(J5-Pad8)*%
X120800000Y-97536000D03*
D16*
%TO.P,J5,SH*%
%TO.N,N/C*%
X119910000Y-109218000D03*
X119910000Y-92958000D03*
%TD*%
D12*
%TO.P,H1,1*%
%TO.N,N/C*%
X112125000Y-27000000D03*
X112674175Y-25674175D03*
X112674175Y-28325825D03*
X114000000Y-25125000D03*
D13*
X114000000Y-27000000D03*
D12*
X114000000Y-28875000D03*
X115325825Y-25674175D03*
X115325825Y-28325825D03*
X115875000Y-27000000D03*
%TD*%
%TO.P,H3,1*%
%TO.N,N/C*%
X112125000Y-121000000D03*
X112674175Y-119674175D03*
X112674175Y-122325825D03*
X114000000Y-119125000D03*
D13*
X114000000Y-121000000D03*
D12*
X114000000Y-122875000D03*
X115325825Y-119674175D03*
X115325825Y-122325825D03*
X115875000Y-121000000D03*
%TD*%
D14*
%TO.P,J4,1*%
%TO.N,/Platine1/CAN_L*%
X119120000Y-83948000D03*
D15*
%TO.P,J4,2*%
%TO.N,/Platine1/CAN_H*%
X120900000Y-82932000D03*
%TO.P,J4,3*%
%TO.N,GND*%
X119120000Y-81916000D03*
%TO.P,J4,4*%
%TO.N,unconnected-(J4-Pad4)*%
X120900000Y-80900000D03*
%TO.P,J4,5*%
%TO.N,unconnected-(J4-Pad5)*%
X119120000Y-79884000D03*
%TO.P,J4,6*%
%TO.N,GND*%
X120900000Y-78868000D03*
%TO.P,J4,7*%
%TO.N,unconnected-(J4-Pad7)*%
X119120000Y-77852000D03*
%TO.P,J4,8*%
%TO.N,unconnected-(J4-Pad8)*%
X120900000Y-76836000D03*
D16*
%TO.P,J4,SH*%
%TO.N,N/C*%
X120010000Y-88518000D03*
X120010000Y-72258000D03*
%TD*%
D17*
%TO.P,J20,1,Pin_1*%
%TO.N,GND*%
X131025000Y-38475000D03*
%TO.P,J20,2,Pin_2*%
%TO.N,Net-(J20-Pin_2)*%
X131025000Y-46075000D03*
D18*
%TO.P,J20,3,Pin_3*%
%TO.N,unconnected-(J20-Pin_3-Pad3)*%
X123725000Y-35075000D03*
%TO.N,unconnected-(J20-Pin_3-Pad3)_1*%
X123725000Y-49475000D03*
%TD*%
D12*
%TO.P,H4,1*%
%TO.N,N/C*%
X206125000Y-121000000D03*
X206674175Y-119674175D03*
X206674175Y-122325825D03*
X208000000Y-119125000D03*
D13*
X208000000Y-121000000D03*
D12*
X208000000Y-122875000D03*
X209325825Y-119674175D03*
X209325825Y-122325825D03*
X209875000Y-121000000D03*
%TD*%
D19*
%TO.P,J7,1,Pin_1*%
%TO.N,+24V*%
X200480000Y-55400000D03*
%TO.P,J7,2,Pin_2*%
%TO.N,/Platine1/Commutation1-1/OUT9*%
X200480000Y-52400000D03*
D20*
%TO.P,J7,MP1*%
%TO.N,N/C*%
X205950000Y-48505000D03*
%TO.P,J7,MP2*%
X205950000Y-59295000D03*
%TD*%
D19*
%TO.P,J8,1,Pin_1*%
%TO.N,+24V*%
X200380000Y-39900000D03*
%TO.P,J8,2,Pin_2*%
%TO.N,/Platine1/Commutation1-1/OUT9*%
X200380000Y-36900000D03*
D20*
%TO.P,J8,MP1*%
%TO.N,N/C*%
X205850000Y-33005000D03*
%TO.P,J8,MP2*%
X205850000Y-43795000D03*
%TD*%
D19*
%TO.P,J13,1,Pin_1*%
%TO.N,+24V*%
X200480000Y-86100000D03*
%TO.P,J13,2,Pin_2*%
%TO.N,/Platine1/Commutation1-1/OUT10*%
X200480000Y-83100000D03*
D20*
%TO.P,J13,MP1*%
%TO.N,N/C*%
X205950000Y-79205000D03*
%TO.P,J13,MP2*%
X205950000Y-89995000D03*
%TD*%
D19*
%TO.P,J12,1,Pin_1*%
%TO.N,+24V*%
X200500000Y-70800000D03*
%TO.P,J12,2,Pin_2*%
%TO.N,/Platine1/Commutation1-1/OUT10*%
X200500000Y-67800000D03*
D20*
%TO.P,J12,MP1*%
%TO.N,N/C*%
X205970000Y-63905000D03*
%TO.P,J12,MP2*%
X205970000Y-74695000D03*
%TD*%
D21*
%TO.N,GND*%
X189000000Y-79000000D03*
D22*
X149900000Y-42000000D03*
D21*
X142000000Y-115000000D03*
X151000000Y-118000000D03*
X135000000Y-59000000D03*
X148900000Y-51300000D03*
X196000000Y-87000000D03*
X196000000Y-91000000D03*
X150000000Y-110000000D03*
X192000000Y-70000000D03*
X165000000Y-67100000D03*
X158000000Y-110800000D03*
X191000000Y-112000000D03*
X154000000Y-100000000D03*
D22*
X145600000Y-38600000D03*
D21*
X142000000Y-98000000D03*
X162000000Y-40500000D03*
X154300000Y-65000000D03*
X194000000Y-65000000D03*
X137000000Y-112000000D03*
X140000000Y-93000000D03*
X195000000Y-112000000D03*
X137000000Y-109000000D03*
X158000000Y-103000000D03*
X152000000Y-110000000D03*
X145000000Y-110000000D03*
D22*
X139700000Y-38500000D03*
D21*
X162100000Y-61300000D03*
X132000000Y-59000000D03*
X159300000Y-54300000D03*
X158700000Y-57800000D03*
X144000000Y-100000000D03*
X154000000Y-118000000D03*
X140000000Y-99000000D03*
X194000000Y-62000000D03*
X154000000Y-101000000D03*
X146000000Y-120000000D03*
%TO.N,/Platine1/microcontroller1/RST*%
X149400000Y-111000000D03*
%TO.N,+24V*%
X193600000Y-71400000D03*
D22*
X163500000Y-45500000D03*
D21*
X165300000Y-45500000D03*
X200000000Y-91000000D03*
X200000000Y-65500000D03*
X164400000Y-45500000D03*
X199500000Y-78500000D03*
X200000000Y-50500000D03*
%TO.N,/Platine1/microcontroller1/SWCLK*%
X149600000Y-104500000D03*
%TO.N,/Platine1/microcontroller1/SWDIO*%
X146300000Y-102550000D03*
D22*
%TO.N,/Platine1/Commutation1-1/OUT9*%
X203000000Y-52000000D03*
D21*
%TO.N,/Platine1/Commutation1-1/OUT10*%
X198000000Y-83000000D03*
D22*
%TO.N,/Platine1/Commutation1-1/IN9*%
X191000000Y-66500000D03*
D21*
X191000000Y-77500000D03*
%TO.N,/Platine1/CAN_L*%
X144100000Y-84500000D03*
X124300000Y-84500000D03*
%TO.N,/Platine1/CAN_H*%
X123300000Y-82980000D03*
X139480000Y-82980000D03*
%TD*%
D23*
%TO.N,/Platine1/microcontroller1/RST*%
X152900000Y-111000000D02*
X159200000Y-117300000D01*
X173600000Y-117300000D02*
X175700000Y-115200000D01*
X159200000Y-117300000D02*
X173600000Y-117300000D01*
X149400000Y-111000000D02*
X152900000Y-111000000D01*
D24*
%TO.N,+24V*%
X200000000Y-65500000D02*
X197000000Y-62500000D01*
X197000000Y-83415628D02*
X197000000Y-76000000D01*
X197151500Y-67948500D02*
X197000000Y-67797000D01*
X164500000Y-45500000D02*
X166000000Y-45500000D01*
X199684372Y-86100000D02*
X197000000Y-83415628D01*
X200000000Y-86580000D02*
X200480000Y-86100000D01*
X200500000Y-70800000D02*
X200003000Y-70800000D01*
X200480000Y-55400000D02*
X198400000Y-55400000D01*
X171600000Y-39900000D02*
X196000000Y-39900000D01*
X198400000Y-55400000D02*
X197000000Y-54000000D01*
D25*
X193600000Y-71400000D02*
X197051500Y-67948500D01*
D24*
X164000000Y-45500000D02*
X163500000Y-45500000D01*
X197000000Y-40900000D02*
X196000000Y-39900000D01*
X164500000Y-45500000D02*
X164000000Y-45500000D01*
X200003000Y-70800000D02*
X197151500Y-67948500D01*
X200000000Y-91000000D02*
X200000000Y-86580000D01*
X200000000Y-50500000D02*
X197000000Y-47500000D01*
X197000000Y-67797000D02*
X197000000Y-66500000D01*
X200480000Y-86100000D02*
X199684372Y-86100000D01*
X200380000Y-39900000D02*
X196000000Y-39900000D01*
X199500000Y-78500000D02*
X197000000Y-76000000D01*
X197000000Y-76000000D02*
X197000000Y-66500000D01*
X166000000Y-45500000D02*
X171600000Y-39900000D01*
D25*
X197051500Y-67948500D02*
X197151500Y-67948500D01*
D24*
X197000000Y-47000000D02*
X197000000Y-40900000D01*
X197000000Y-47500000D02*
X197000000Y-47000000D01*
X197000000Y-62500000D02*
X197000000Y-54000000D01*
X197000000Y-66500000D02*
X197000000Y-62500000D01*
X197000000Y-54000000D02*
X197000000Y-47000000D01*
D23*
%TO.N,/Platine1/microcontroller1/SWCLK*%
X149600000Y-104500000D02*
X150000000Y-104500000D01*
X169360000Y-111400000D02*
X173160000Y-115200000D01*
X156900000Y-111400000D02*
X169360000Y-111400000D01*
X150000000Y-104500000D02*
X156900000Y-111400000D01*
%TO.N,/Platine1/microcontroller1/SWDIO*%
X146300000Y-102550000D02*
X156350000Y-112600000D01*
X168020000Y-112600000D02*
X170620000Y-115200000D01*
X156350000Y-112600000D02*
X168020000Y-112600000D01*
D25*
%TO.N,/Platine1/Commutation1-1/OUT9*%
X202600000Y-52400000D02*
X200480000Y-52400000D01*
X203000000Y-52000000D02*
X202600000Y-52400000D01*
X200380000Y-36900000D02*
X202400000Y-36900000D01*
X203000000Y-37500000D02*
X203000000Y-52000000D01*
X202400000Y-36900000D02*
X203000000Y-37500000D01*
%TO.N,/Platine1/Commutation1-1/OUT10*%
X200500000Y-67800000D02*
X202600000Y-67800000D01*
X200480000Y-83100000D02*
X198100000Y-83100000D01*
X202600000Y-83100000D02*
X200480000Y-83100000D01*
X198100000Y-83100000D02*
X198000000Y-83000000D01*
X202600000Y-67800000D02*
X202900000Y-68100000D01*
X202900000Y-82800000D02*
X202600000Y-83100000D01*
X202900000Y-68100000D02*
X202900000Y-82800000D01*
D23*
%TO.N,/Platine1/Commutation1-1/IN9*%
X191000000Y-66500000D02*
X191000000Y-77500000D01*
%TO.N,/Platine1/CAN_L*%
X123900000Y-84900000D02*
X119604000Y-84900000D01*
X144100000Y-84500000D02*
X124300000Y-84500000D01*
X118600000Y-104696000D02*
X118635000Y-104731000D01*
X124300000Y-84500000D02*
X123900000Y-84900000D01*
X119604000Y-84900000D02*
X118700000Y-83996000D01*
%TO.N,/Platine1/CAN_H*%
X120480000Y-82980000D02*
X123300000Y-82980000D01*
X123300000Y-82980000D02*
X139480000Y-82980000D01*
%TD*%
M02*
