%TF.GenerationSoftware,KiCad,Pcbnew,8.0.5*%
%TF.CreationDate,2024-10-29T10:28:22+01:00*%
%TF.ProjectId,sensorBoard,73656e73-6f72-4426-9f61-72642e6b6963,rev?*%
%TF.SameCoordinates,Original*%
%TF.FileFunction,Paste,Top*%
%TF.FilePolarity,Positive*%
%FSLAX46Y46*%
G04 Gerber Fmt 4.6, Leading zero omitted, Abs format (unit mm)*
G04 Created by KiCad (PCBNEW 8.0.5) date 2024-10-29 10:28:22*
%MOMM*%
%LPD*%
G01*
G04 APERTURE LIST*
G04 Aperture macros list*
%AMRoundRect*
0 Rectangle with rounded corners*
0 $1 Rounding radius*
0 $2 $3 $4 $5 $6 $7 $8 $9 X,Y pos of 4 corners*
0 Add a 4 corners polygon primitive as box body*
4,1,4,$2,$3,$4,$5,$6,$7,$8,$9,$2,$3,0*
0 Add four circle primitives for the rounded corners*
1,1,$1+$1,$2,$3*
1,1,$1+$1,$4,$5*
1,1,$1+$1,$6,$7*
1,1,$1+$1,$8,$9*
0 Add four rect primitives between the rounded corners*
20,1,$1+$1,$2,$3,$4,$5,0*
20,1,$1+$1,$4,$5,$6,$7,0*
20,1,$1+$1,$6,$7,$8,$9,0*
20,1,$1+$1,$8,$9,$2,$3,0*%
G04 Aperture macros list end*
%ADD10RoundRect,0.250000X-0.450000X0.262500X-0.450000X-0.262500X0.450000X-0.262500X0.450000X0.262500X0*%
%ADD11RoundRect,0.250000X0.475000X-0.250000X0.475000X0.250000X-0.475000X0.250000X-0.475000X-0.250000X0*%
%ADD12RoundRect,0.250000X0.262500X0.450000X-0.262500X0.450000X-0.262500X-0.450000X0.262500X-0.450000X0*%
%ADD13R,7.500000X2.700000*%
%ADD14RoundRect,0.250000X1.100000X-0.325000X1.100000X0.325000X-1.100000X0.325000X-1.100000X-0.325000X0*%
%ADD15RoundRect,0.150000X-0.200000X0.150000X-0.200000X-0.150000X0.200000X-0.150000X0.200000X0.150000X0*%
%ADD16RoundRect,0.250000X0.450000X-0.262500X0.450000X0.262500X-0.450000X0.262500X-0.450000X-0.262500X0*%
%ADD17RoundRect,0.150000X0.150000X-0.650000X0.150000X0.650000X-0.150000X0.650000X-0.150000X-0.650000X0*%
%ADD18RoundRect,0.250000X-0.250000X-0.475000X0.250000X-0.475000X0.250000X0.475000X-0.250000X0.475000X0*%
%ADD19R,6.000000X6.000000*%
%ADD20RoundRect,0.225000X-0.375000X0.225000X-0.375000X-0.225000X0.375000X-0.225000X0.375000X0.225000X0*%
%ADD21RoundRect,0.250000X-0.475000X0.250000X-0.475000X-0.250000X0.475000X-0.250000X0.475000X0.250000X0*%
%ADD22RoundRect,0.200000X-0.900000X-0.200000X0.900000X-0.200000X0.900000X0.200000X-0.900000X0.200000X0*%
%ADD23RoundRect,0.250000X-1.275000X-1.125000X1.275000X-1.125000X1.275000X1.125000X-1.275000X1.125000X0*%
%ADD24RoundRect,0.150000X0.587500X0.150000X-0.587500X0.150000X-0.587500X-0.150000X0.587500X-0.150000X0*%
%ADD25RoundRect,0.243750X-0.243750X-0.456250X0.243750X-0.456250X0.243750X0.456250X-0.243750X0.456250X0*%
%ADD26RoundRect,0.249999X-4.550001X4.150001X-4.550001X-4.150001X4.550001X-4.150001X4.550001X4.150001X0*%
%ADD27RoundRect,0.300000X0.325000X0.300000X-0.325000X0.300000X-0.325000X-0.300000X0.325000X-0.300000X0*%
%ADD28RoundRect,0.317500X-0.382500X-0.317500X0.382500X-0.317500X0.382500X0.317500X-0.382500X0.317500X0*%
%ADD29RoundRect,0.375000X-0.375000X-0.375000X0.375000X-0.375000X0.375000X0.375000X-0.375000X0.375000X0*%
%ADD30RoundRect,0.125000X-0.250000X-0.125000X0.250000X-0.125000X0.250000X0.125000X-0.250000X0.125000X0*%
%ADD31RoundRect,0.100000X-0.275000X-0.100000X0.275000X-0.100000X0.275000X0.100000X-0.275000X0.100000X0*%
%ADD32R,1.100000X0.400000*%
%ADD33RoundRect,0.112500X-0.112500X-0.237500X0.112500X-0.237500X0.112500X0.237500X-0.112500X0.237500X0*%
%ADD34RoundRect,0.150000X-0.150000X0.650000X-0.150000X-0.650000X0.150000X-0.650000X0.150000X0.650000X0*%
%ADD35RoundRect,0.250000X-0.262500X-0.450000X0.262500X-0.450000X0.262500X0.450000X-0.262500X0.450000X0*%
%ADD36RoundRect,0.250000X0.250000X0.475000X-0.250000X0.475000X-0.250000X-0.475000X0.250000X-0.475000X0*%
%ADD37RoundRect,0.250000X-1.100000X0.325000X-1.100000X-0.325000X1.100000X-0.325000X1.100000X0.325000X0*%
%ADD38R,1.500000X1.780000*%
%ADD39R,7.875000X2.000000*%
%ADD40RoundRect,0.375000X-0.625000X-0.375000X0.625000X-0.375000X0.625000X0.375000X-0.625000X0.375000X0*%
%ADD41RoundRect,0.500000X-0.500000X-1.400000X0.500000X-1.400000X0.500000X1.400000X-0.500000X1.400000X0*%
%ADD42RoundRect,0.250000X0.900000X-1.000000X0.900000X1.000000X-0.900000X1.000000X-0.900000X-1.000000X0*%
%ADD43R,3.100000X5.000000*%
%ADD44RoundRect,0.150000X0.150000X-0.825000X0.150000X0.825000X-0.150000X0.825000X-0.150000X-0.825000X0*%
%ADD45RoundRect,0.150000X0.825000X0.150000X-0.825000X0.150000X-0.825000X-0.150000X0.825000X-0.150000X0*%
%ADD46RoundRect,0.075000X0.075000X-0.700000X0.075000X0.700000X-0.075000X0.700000X-0.075000X-0.700000X0*%
%ADD47RoundRect,0.075000X0.700000X-0.075000X0.700000X0.075000X-0.700000X0.075000X-0.700000X-0.075000X0*%
%ADD48RoundRect,0.300000X-0.325000X-0.300000X0.325000X-0.300000X0.325000X0.300000X-0.325000X0.300000X0*%
%ADD49RoundRect,0.317500X0.382500X0.317500X-0.382500X0.317500X-0.382500X-0.317500X0.382500X-0.317500X0*%
%ADD50RoundRect,0.250000X-0.850000X-0.350000X0.850000X-0.350000X0.850000X0.350000X-0.850000X0.350000X0*%
%ADD51RoundRect,0.375000X0.375000X-0.625000X0.375000X0.625000X-0.375000X0.625000X-0.375000X-0.625000X0*%
%ADD52RoundRect,0.500000X1.400000X-0.500000X1.400000X0.500000X-1.400000X0.500000X-1.400000X-0.500000X0*%
%ADD53RoundRect,0.150000X-0.825000X-0.150000X0.825000X-0.150000X0.825000X0.150000X-0.825000X0.150000X0*%
%ADD54RoundRect,0.112500X-0.237500X0.112500X-0.237500X-0.112500X0.237500X-0.112500X0.237500X0.112500X0*%
%ADD55RoundRect,0.150000X-0.150000X0.825000X-0.150000X-0.825000X0.150000X-0.825000X0.150000X0.825000X0*%
%ADD56R,1.270000X2.920000*%
%ADD57R,3.430000X1.650000*%
%ADD58R,2.920000X1.270000*%
%ADD59R,1.650000X3.430000*%
G04 APERTURE END LIST*
D10*
%TO.C,R42*%
X221250000Y-71837500D03*
X221250000Y-73662500D03*
%TD*%
D11*
%TO.C,C52*%
X204250000Y-44450000D03*
X204250000Y-42550000D03*
%TD*%
D10*
%TO.C,R69*%
X209515000Y-119377500D03*
X209515000Y-121202500D03*
%TD*%
D12*
%TO.C,R24*%
X193912500Y-85000000D03*
X192087500Y-85000000D03*
%TD*%
D13*
%TO.C,F2*%
X93000000Y-158900000D03*
X93000000Y-153100000D03*
%TD*%
D14*
%TO.C,C26*%
X71000000Y-150475000D03*
X71000000Y-147525000D03*
%TD*%
D15*
%TO.C,D14*%
X63000000Y-165700000D03*
X63000000Y-164300000D03*
%TD*%
D16*
%TO.C,R33*%
X110100000Y-42512500D03*
X110100000Y-40687500D03*
%TD*%
D17*
%TO.C,U37*%
X112550000Y-72950000D03*
X113500000Y-72950000D03*
X114450000Y-72950000D03*
X114450000Y-70650000D03*
X113500000Y-70650000D03*
X112550000Y-70650000D03*
%TD*%
D18*
%TO.C,C20*%
X208550000Y-75250000D03*
X210450000Y-75250000D03*
%TD*%
D19*
%TO.C,L5*%
X197000000Y-145650000D03*
X197000000Y-132350000D03*
%TD*%
D20*
%TO.C,D22*%
X91000000Y-115450000D03*
X91000000Y-118750000D03*
%TD*%
D21*
%TO.C,C19*%
X105550000Y-58950000D03*
X105550000Y-60850000D03*
%TD*%
D12*
%TO.C,R21*%
X193912500Y-81000000D03*
X192087500Y-81000000D03*
%TD*%
D22*
%TO.C,U20*%
X53375000Y-84245000D03*
X53375000Y-85385000D03*
D23*
X58000000Y-85000000D03*
X58000000Y-88050000D03*
X61350000Y-85000000D03*
X61350000Y-88050000D03*
D22*
X53375000Y-87665000D03*
X53375000Y-88805000D03*
%TD*%
D24*
%TO.C,Q22*%
X100937500Y-99700000D03*
X100937500Y-97800000D03*
X99062500Y-98750000D03*
%TD*%
D10*
%TO.C,R70*%
X209515000Y-101377500D03*
X209515000Y-103202500D03*
%TD*%
D25*
%TO.C,D4*%
X168472500Y-29815000D03*
X170347500Y-29815000D03*
%TD*%
D26*
%TO.C,C44*%
X220000000Y-132250000D03*
X220000000Y-145750000D03*
%TD*%
D27*
%TO.C,D18*%
X159300000Y-101350000D03*
X159300000Y-103040000D03*
X159300000Y-104700000D03*
X161000000Y-101350000D03*
X161000000Y-103040000D03*
X161000000Y-104700000D03*
X162700000Y-101350000D03*
X162700000Y-103040000D03*
X162700000Y-104700000D03*
D28*
X159960000Y-99235000D03*
X162040000Y-99235000D03*
%TD*%
D27*
%TO.C,D12*%
X48600000Y-112040000D03*
X48600000Y-113730000D03*
X48600000Y-115390000D03*
X50300000Y-112040000D03*
X50300000Y-113730000D03*
X50300000Y-115390000D03*
X52000000Y-112040000D03*
X52000000Y-113730000D03*
X52000000Y-115390000D03*
D28*
X49260000Y-109925000D03*
X51340000Y-109925000D03*
%TD*%
D29*
%TO.C,Q23*%
X181000000Y-110700000D03*
X181000000Y-112400000D03*
X182700000Y-110700000D03*
X182700000Y-112400000D03*
D30*
X184105000Y-109645000D03*
X184105000Y-110915000D03*
X184105000Y-112185000D03*
X184105000Y-113455000D03*
D31*
X178300000Y-109645000D03*
X178300000Y-110915000D03*
X178300000Y-112185000D03*
X178300000Y-113455000D03*
%TD*%
D32*
%TO.C,U33*%
X221650000Y-82725000D03*
X221650000Y-82075000D03*
X221650000Y-81425000D03*
X221650000Y-80775000D03*
X217350000Y-80775000D03*
X217350000Y-81425000D03*
X217350000Y-82075000D03*
X217350000Y-82725000D03*
%TD*%
D33*
%TO.C,Q19*%
X224100000Y-78000000D03*
X225400000Y-78000000D03*
X224750000Y-76000000D03*
%TD*%
D10*
%TO.C,R44*%
X224750000Y-71837500D03*
X224750000Y-73662500D03*
%TD*%
D16*
%TO.C,R23*%
X165000000Y-143912500D03*
X165000000Y-142087500D03*
%TD*%
D11*
%TO.C,C50*%
X204100000Y-36700000D03*
X204100000Y-34800000D03*
%TD*%
D29*
%TO.C,Q26*%
X172300000Y-120000000D03*
X172300000Y-121700000D03*
X174000000Y-120000000D03*
X174000000Y-121700000D03*
D30*
X175405000Y-118945000D03*
X175405000Y-120215000D03*
X175405000Y-121485000D03*
X175405000Y-122755000D03*
D31*
X169600000Y-118945000D03*
X169600000Y-120215000D03*
X169600000Y-121485000D03*
X169600000Y-122755000D03*
%TD*%
D10*
%TO.C,R55*%
X118000000Y-60337500D03*
X118000000Y-62162500D03*
%TD*%
D34*
%TO.C,U34*%
X220400000Y-60850000D03*
X219450000Y-60850000D03*
X218500000Y-60850000D03*
X218500000Y-63150000D03*
X219450000Y-63150000D03*
X220400000Y-63150000D03*
%TD*%
D35*
%TO.C,R60*%
X64175000Y-42100000D03*
X66000000Y-42100000D03*
%TD*%
D36*
%TO.C,C40*%
X158950000Y-150000000D03*
X157050000Y-150000000D03*
%TD*%
D29*
%TO.C,Q24*%
X172350000Y-110850000D03*
X172350000Y-112550000D03*
X174050000Y-110850000D03*
X174050000Y-112550000D03*
D30*
X175455000Y-109795000D03*
X175455000Y-111065000D03*
X175455000Y-112335000D03*
X175455000Y-113605000D03*
D31*
X169650000Y-109795000D03*
X169650000Y-111065000D03*
X169650000Y-112335000D03*
X169650000Y-113605000D03*
%TD*%
D18*
%TO.C,C18*%
X96800000Y-64300000D03*
X98700000Y-64300000D03*
%TD*%
%TO.C,C42*%
X167100000Y-140000000D03*
X169000000Y-140000000D03*
%TD*%
D37*
%TO.C,C28*%
X57000000Y-163525000D03*
X57000000Y-166475000D03*
%TD*%
D38*
%TO.C,U42*%
X200000000Y-111750000D03*
X200000000Y-114290000D03*
X200000000Y-116830000D03*
X209530000Y-116830000D03*
X209530000Y-114290000D03*
X209530000Y-111750000D03*
%TD*%
D36*
%TO.C,C33*%
X75200000Y-46500000D03*
X73300000Y-46500000D03*
%TD*%
D39*
%TO.C,Y3*%
X188162500Y-55750000D03*
X200037500Y-55750000D03*
%TD*%
D35*
%TO.C,R17*%
X219137500Y-40730000D03*
X220962500Y-40730000D03*
%TD*%
D40*
%TO.C,U17*%
X96700000Y-56700000D03*
X96700000Y-59000000D03*
D41*
X103000000Y-59000000D03*
D40*
X96700000Y-61300000D03*
%TD*%
D11*
%TO.C,C53*%
X190500000Y-34250000D03*
X190500000Y-32350000D03*
%TD*%
D42*
%TO.C,D13*%
X73000000Y-140150000D03*
X73000000Y-135850000D03*
%TD*%
D27*
%TO.C,D11*%
X48600000Y-104040000D03*
X48600000Y-105730000D03*
X48600000Y-107390000D03*
X50300000Y-104040000D03*
X50300000Y-105730000D03*
X50300000Y-107390000D03*
X52000000Y-104040000D03*
X52000000Y-105730000D03*
X52000000Y-107390000D03*
D28*
X49260000Y-101925000D03*
X51340000Y-101925000D03*
%TD*%
D18*
%TO.C,C21*%
X210800000Y-65750000D03*
X212700000Y-65750000D03*
%TD*%
D26*
%TO.C,C27*%
X110000000Y-132250000D03*
X110000000Y-145750000D03*
%TD*%
D25*
%TO.C,D1*%
X64165000Y-33955000D03*
X66040000Y-33955000D03*
%TD*%
D43*
%TO.C,L4*%
X67550000Y-155000000D03*
X56450000Y-155000000D03*
%TD*%
D44*
%TO.C,U31*%
X159095000Y-144475000D03*
X160365000Y-144475000D03*
X161635000Y-144475000D03*
X162905000Y-144475000D03*
X162905000Y-139525000D03*
X161635000Y-139525000D03*
X160365000Y-139525000D03*
X159095000Y-139525000D03*
%TD*%
D18*
%TO.C,C30*%
X83950000Y-51600000D03*
X85850000Y-51600000D03*
%TD*%
D15*
%TO.C,D21*%
X169000000Y-164700000D03*
X169000000Y-163300000D03*
%TD*%
D36*
%TO.C,C23*%
X50950000Y-151000000D03*
X49050000Y-151000000D03*
%TD*%
D45*
%TO.C,U40*%
X223450000Y-99830000D03*
X223450000Y-98560000D03*
X223450000Y-97290000D03*
X223450000Y-96020000D03*
X223450000Y-94750000D03*
X223450000Y-93480000D03*
X223450000Y-92210000D03*
X218500000Y-92210000D03*
X218500000Y-93480000D03*
X218500000Y-94750000D03*
X218500000Y-96020000D03*
X218500000Y-97290000D03*
X218500000Y-98560000D03*
X218500000Y-99830000D03*
%TD*%
D18*
%TO.C,C37*%
X91050000Y-38200000D03*
X92950000Y-38200000D03*
%TD*%
D36*
%TO.C,C31*%
X76150000Y-51600000D03*
X74250000Y-51600000D03*
%TD*%
D21*
%TO.C,C39*%
X211000000Y-37300000D03*
X211000000Y-39200000D03*
%TD*%
D46*
%TO.C,U35*%
X192250000Y-46675000D03*
X192750000Y-46675000D03*
X193250000Y-46675000D03*
X193750000Y-46675000D03*
X194250000Y-46675000D03*
X194750000Y-46675000D03*
X195250000Y-46675000D03*
X195750000Y-46675000D03*
X196250000Y-46675000D03*
X196750000Y-46675000D03*
X197250000Y-46675000D03*
X197750000Y-46675000D03*
X198250000Y-46675000D03*
X198750000Y-46675000D03*
X199250000Y-46675000D03*
X199750000Y-46675000D03*
D47*
X201675000Y-44750000D03*
X201675000Y-44250000D03*
X201675000Y-43750000D03*
X201675000Y-43250000D03*
X201675000Y-42750000D03*
X201675000Y-42250000D03*
X201675000Y-41750000D03*
X201675000Y-41250000D03*
X201675000Y-40750000D03*
X201675000Y-40250000D03*
X201675000Y-39750000D03*
X201675000Y-39250000D03*
X201675000Y-38750000D03*
X201675000Y-38250000D03*
X201675000Y-37750000D03*
X201675000Y-37250000D03*
D46*
X199750000Y-35325000D03*
X199250000Y-35325000D03*
X198750000Y-35325000D03*
X198250000Y-35325000D03*
X197750000Y-35325000D03*
X197250000Y-35325000D03*
X196750000Y-35325000D03*
X196250000Y-35325000D03*
X195750000Y-35325000D03*
X195250000Y-35325000D03*
X194750000Y-35325000D03*
X194250000Y-35325000D03*
X193750000Y-35325000D03*
X193250000Y-35325000D03*
X192750000Y-35325000D03*
X192250000Y-35325000D03*
D47*
X190325000Y-37250000D03*
X190325000Y-37750000D03*
X190325000Y-38250000D03*
X190325000Y-38750000D03*
X190325000Y-39250000D03*
X190325000Y-39750000D03*
X190325000Y-40250000D03*
X190325000Y-40750000D03*
X190325000Y-41250000D03*
X190325000Y-41750000D03*
X190325000Y-42250000D03*
X190325000Y-42750000D03*
X190325000Y-43250000D03*
X190325000Y-43750000D03*
X190325000Y-44250000D03*
X190325000Y-44750000D03*
%TD*%
D21*
%TO.C,C35*%
X91200000Y-43850000D03*
X91200000Y-45750000D03*
%TD*%
D45*
%TO.C,U39*%
X223975000Y-119290000D03*
X223975000Y-118020000D03*
X223975000Y-116750000D03*
X223975000Y-115480000D03*
X223975000Y-114210000D03*
X223975000Y-112940000D03*
X223975000Y-111670000D03*
X219025000Y-111670000D03*
X219025000Y-112940000D03*
X219025000Y-114210000D03*
X219025000Y-115480000D03*
X219025000Y-116750000D03*
X219025000Y-118020000D03*
X219025000Y-119290000D03*
%TD*%
D27*
%TO.C,D10*%
X48600000Y-130000000D03*
X48600000Y-131690000D03*
X48600000Y-133350000D03*
X50300000Y-130000000D03*
X50300000Y-131690000D03*
X50300000Y-133350000D03*
X52000000Y-130000000D03*
X52000000Y-131690000D03*
X52000000Y-133350000D03*
D28*
X49260000Y-127885000D03*
X51340000Y-127885000D03*
%TD*%
D12*
%TO.C,R35*%
X81975000Y-77050000D03*
X80150000Y-77050000D03*
%TD*%
D48*
%TO.C,D8*%
X162400000Y-131650000D03*
X162400000Y-129960000D03*
X162400000Y-128300000D03*
X160700000Y-131650000D03*
X160700000Y-129960000D03*
X160700000Y-128300000D03*
X159000000Y-131650000D03*
X159000000Y-129960000D03*
X159000000Y-128300000D03*
D49*
X161740000Y-133765000D03*
X159660000Y-133765000D03*
%TD*%
D34*
%TO.C,U41*%
X228400000Y-60850000D03*
X227450000Y-60850000D03*
X226500000Y-60850000D03*
X226500000Y-63150000D03*
X227450000Y-63150000D03*
X228400000Y-63150000D03*
%TD*%
D24*
%TO.C,Q21*%
X100937500Y-117950000D03*
X100937500Y-116050000D03*
X99062500Y-117000000D03*
%TD*%
D12*
%TO.C,R58*%
X66162500Y-45000000D03*
X64337500Y-45000000D03*
%TD*%
D18*
%TO.C,C25*%
X57050000Y-138000000D03*
X58950000Y-138000000D03*
%TD*%
D12*
%TO.C,R3*%
X61565000Y-31135000D03*
X59740000Y-31135000D03*
%TD*%
D24*
%TO.C,Q2*%
X188937500Y-80950000D03*
X188937500Y-79050000D03*
X187062500Y-80000000D03*
%TD*%
D12*
%TO.C,R38*%
X82162500Y-73050000D03*
X80337500Y-73050000D03*
%TD*%
D50*
%TO.C,Q20*%
X172375000Y-65472500D03*
D23*
X177000000Y-66227500D03*
X177000000Y-69277500D03*
X180350000Y-66227500D03*
X180350000Y-69277500D03*
D50*
X172375000Y-70032500D03*
%TD*%
D51*
%TO.C,U7*%
X203950000Y-72150000D03*
X206250000Y-72150000D03*
D52*
X206250000Y-65850000D03*
D51*
X208550000Y-72150000D03*
%TD*%
D21*
%TO.C,C36*%
X77500000Y-33050000D03*
X77500000Y-34950000D03*
%TD*%
D18*
%TO.C,C32*%
X87950000Y-51600000D03*
X89850000Y-51600000D03*
%TD*%
D35*
%TO.C,R65*%
X168175000Y-47500000D03*
X170000000Y-47500000D03*
%TD*%
D46*
%TO.C,U23*%
X79050000Y-47075000D03*
X79550000Y-47075000D03*
X80050000Y-47075000D03*
X80550000Y-47075000D03*
X81050000Y-47075000D03*
X81550000Y-47075000D03*
X82050000Y-47075000D03*
X82550000Y-47075000D03*
X83050000Y-47075000D03*
X83550000Y-47075000D03*
X84050000Y-47075000D03*
X84550000Y-47075000D03*
X85050000Y-47075000D03*
X85550000Y-47075000D03*
X86050000Y-47075000D03*
X86550000Y-47075000D03*
D47*
X88475000Y-45150000D03*
X88475000Y-44650000D03*
X88475000Y-44150000D03*
X88475000Y-43650000D03*
X88475000Y-43150000D03*
X88475000Y-42650000D03*
X88475000Y-42150000D03*
X88475000Y-41650000D03*
X88475000Y-41150000D03*
X88475000Y-40650000D03*
X88475000Y-40150000D03*
X88475000Y-39650000D03*
X88475000Y-39150000D03*
X88475000Y-38650000D03*
X88475000Y-38150000D03*
X88475000Y-37650000D03*
D46*
X86550000Y-35725000D03*
X86050000Y-35725000D03*
X85550000Y-35725000D03*
X85050000Y-35725000D03*
X84550000Y-35725000D03*
X84050000Y-35725000D03*
X83550000Y-35725000D03*
X83050000Y-35725000D03*
X82550000Y-35725000D03*
X82050000Y-35725000D03*
X81550000Y-35725000D03*
X81050000Y-35725000D03*
X80550000Y-35725000D03*
X80050000Y-35725000D03*
X79550000Y-35725000D03*
X79050000Y-35725000D03*
D47*
X77125000Y-37650000D03*
X77125000Y-38150000D03*
X77125000Y-38650000D03*
X77125000Y-39150000D03*
X77125000Y-39650000D03*
X77125000Y-40150000D03*
X77125000Y-40650000D03*
X77125000Y-41150000D03*
X77125000Y-41650000D03*
X77125000Y-42150000D03*
X77125000Y-42650000D03*
X77125000Y-43150000D03*
X77125000Y-43650000D03*
X77125000Y-44150000D03*
X77125000Y-44650000D03*
X77125000Y-45150000D03*
%TD*%
D25*
%TO.C,D2*%
X168472500Y-32855000D03*
X170347500Y-32855000D03*
%TD*%
D11*
%TO.C,C55*%
X207250000Y-44450000D03*
X207250000Y-42550000D03*
%TD*%
D25*
%TO.C,D5*%
X64227500Y-27975000D03*
X66102500Y-27975000D03*
%TD*%
D14*
%TO.C,C43*%
X180000000Y-149950000D03*
X180000000Y-147000000D03*
%TD*%
D10*
%TO.C,R20*%
X222000000Y-46087500D03*
X222000000Y-47912500D03*
%TD*%
D12*
%TO.C,R1*%
X61605000Y-34000000D03*
X59780000Y-34000000D03*
%TD*%
D25*
%TO.C,D3*%
X64125000Y-31000000D03*
X66000000Y-31000000D03*
%TD*%
D16*
%TO.C,R56*%
X118000000Y-66212500D03*
X118000000Y-64387500D03*
%TD*%
D13*
%TO.C,F3*%
X203000000Y-158800000D03*
X203000000Y-153000000D03*
%TD*%
D10*
%TO.C,R34*%
X110800000Y-44687500D03*
X110800000Y-46512500D03*
%TD*%
D53*
%TO.C,U38*%
X110775000Y-93690000D03*
X110775000Y-94960000D03*
X110775000Y-96230000D03*
X110775000Y-97500000D03*
X110775000Y-98770000D03*
X110775000Y-100040000D03*
X110775000Y-101310000D03*
X115725000Y-101310000D03*
X115725000Y-100040000D03*
X115725000Y-98770000D03*
X115725000Y-97500000D03*
X115725000Y-96230000D03*
X115725000Y-94960000D03*
X115725000Y-93690000D03*
%TD*%
D54*
%TO.C,Q11*%
X119100000Y-79550000D03*
X119100000Y-80850000D03*
X121100000Y-80200000D03*
%TD*%
D21*
%TO.C,C46*%
X215000000Y-82800000D03*
X215000000Y-84700000D03*
%TD*%
D18*
%TO.C,C51*%
X200050000Y-49000000D03*
X201950000Y-49000000D03*
%TD*%
D55*
%TO.C,U12*%
X107905000Y-37525000D03*
X106635000Y-37525000D03*
X105365000Y-37525000D03*
X104095000Y-37525000D03*
X104095000Y-42475000D03*
X105365000Y-42475000D03*
X106635000Y-42475000D03*
X107905000Y-42475000D03*
%TD*%
D35*
%TO.C,R22*%
X187087500Y-85000000D03*
X188912500Y-85000000D03*
%TD*%
D56*
%TO.C,J9*%
X82500000Y-159530000D03*
X79500000Y-159530000D03*
X76500000Y-159530000D03*
X73500000Y-159530000D03*
D57*
X86375000Y-165000000D03*
X69605000Y-165000000D03*
%TD*%
D19*
%TO.C,L3*%
X87000000Y-145650000D03*
X87000000Y-132350000D03*
%TD*%
D35*
%TO.C,R54*%
X103087500Y-78000000D03*
X104912500Y-78000000D03*
%TD*%
D34*
%TO.C,U22*%
X114450000Y-63950000D03*
X113500000Y-63950000D03*
X112550000Y-63950000D03*
X112550000Y-66250000D03*
X113500000Y-66250000D03*
X114450000Y-66250000D03*
%TD*%
D10*
%TO.C,R43*%
X217500000Y-71837500D03*
X217500000Y-73662500D03*
%TD*%
D12*
%TO.C,R4*%
X165912500Y-29950000D03*
X164087500Y-29950000D03*
%TD*%
D18*
%TO.C,C41*%
X167100000Y-137590000D03*
X169000000Y-137590000D03*
%TD*%
D21*
%TO.C,C54*%
X189100000Y-46800000D03*
X189100000Y-48700000D03*
%TD*%
D18*
%TO.C,C34*%
X87900000Y-49300000D03*
X89800000Y-49300000D03*
%TD*%
D10*
%TO.C,R67*%
X200015000Y-107127500D03*
X200015000Y-108952500D03*
%TD*%
D58*
%TO.C,J12*%
X119530000Y-44500000D03*
X119530000Y-47500000D03*
D59*
X125000000Y-40625000D03*
X125000000Y-51395000D03*
%TD*%
D21*
%TO.C,C48*%
X182100000Y-55800000D03*
X182100000Y-57700000D03*
%TD*%
D42*
%TO.C,D20*%
X183500000Y-141150000D03*
X183500000Y-136850000D03*
%TD*%
D20*
%TO.C,D23*%
X91000000Y-98100000D03*
X91000000Y-101400000D03*
%TD*%
D35*
%TO.C,R66*%
X168175000Y-51000000D03*
X170000000Y-51000000D03*
%TD*%
%TO.C,R59*%
X64175000Y-39500000D03*
X66000000Y-39500000D03*
%TD*%
D27*
%TO.C,D9*%
X48600000Y-122000000D03*
X48600000Y-123690000D03*
X48600000Y-125350000D03*
X50300000Y-122000000D03*
X50300000Y-123690000D03*
X50300000Y-125350000D03*
X52000000Y-122000000D03*
X52000000Y-123690000D03*
X52000000Y-125350000D03*
D28*
X49260000Y-119885000D03*
X51340000Y-119885000D03*
%TD*%
D18*
%TO.C,C24*%
X57050000Y-135000000D03*
X58950000Y-135000000D03*
%TD*%
D29*
%TO.C,Q25*%
X181000000Y-120000000D03*
X181000000Y-121700000D03*
X182700000Y-120000000D03*
X182700000Y-121700000D03*
D30*
X184105000Y-118945000D03*
X184105000Y-120215000D03*
X184105000Y-121485000D03*
X184105000Y-122755000D03*
D31*
X178300000Y-118945000D03*
X178300000Y-120215000D03*
X178300000Y-121485000D03*
X178300000Y-122755000D03*
%TD*%
D21*
%TO.C,C38*%
X93900000Y-43850000D03*
X93900000Y-45750000D03*
%TD*%
D50*
%TO.C,Q12*%
X53375000Y-65722500D03*
D23*
X58000000Y-66477500D03*
X58000000Y-69527500D03*
X61350000Y-66477500D03*
X61350000Y-69527500D03*
D50*
X53375000Y-70282500D03*
%TD*%
D11*
%TO.C,C17*%
X110100000Y-38850000D03*
X110100000Y-36950000D03*
%TD*%
D16*
%TO.C,R41*%
X217500000Y-77412500D03*
X217500000Y-75587500D03*
%TD*%
D53*
%TO.C,U36*%
X111000000Y-107440000D03*
X111000000Y-108710000D03*
X111000000Y-109980000D03*
X111000000Y-111250000D03*
X111000000Y-112520000D03*
X111000000Y-113790000D03*
X111000000Y-115060000D03*
X115950000Y-115060000D03*
X115950000Y-113790000D03*
X115950000Y-112520000D03*
X115950000Y-111250000D03*
X115950000Y-109980000D03*
X115950000Y-108710000D03*
X115950000Y-107440000D03*
%TD*%
D55*
%TO.C,U9*%
X216905000Y-35525000D03*
X215635000Y-35525000D03*
X214365000Y-35525000D03*
X213095000Y-35525000D03*
X213095000Y-40475000D03*
X214365000Y-40475000D03*
X215635000Y-40475000D03*
X216905000Y-40475000D03*
%TD*%
D16*
%TO.C,R37*%
X58000000Y-142912500D03*
X58000000Y-141087500D03*
%TD*%
D32*
%TO.C,U21*%
X116150000Y-80975000D03*
X116150000Y-80325000D03*
X116150000Y-79675000D03*
X116150000Y-79025000D03*
X111850000Y-79025000D03*
X111850000Y-79675000D03*
X111850000Y-80325000D03*
X111850000Y-80975000D03*
%TD*%
D12*
%TO.C,R2*%
X165912500Y-32900000D03*
X164087500Y-32900000D03*
%TD*%
D43*
%TO.C,L6*%
X174550000Y-154000000D03*
X163450000Y-154000000D03*
%TD*%
D36*
%TO.C,C29*%
X111950000Y-83000000D03*
X110050000Y-83000000D03*
%TD*%
D35*
%TO.C,R53*%
X103087500Y-80250000D03*
X104912500Y-80250000D03*
%TD*%
D22*
%TO.C,U32*%
X172000000Y-90860000D03*
X172000000Y-92000000D03*
D23*
X176625000Y-91615000D03*
X176625000Y-94665000D03*
X179975000Y-91615000D03*
X179975000Y-94665000D03*
D22*
X172000000Y-94280000D03*
X172000000Y-95420000D03*
%TD*%
D56*
%TO.C,J17*%
X190500000Y-159530000D03*
X187500000Y-159530000D03*
X184500000Y-159530000D03*
X181500000Y-159530000D03*
D57*
X194375000Y-165000000D03*
X177605000Y-165000000D03*
%TD*%
D18*
%TO.C,C47*%
X196050000Y-49000000D03*
X197950000Y-49000000D03*
%TD*%
D27*
%TO.C,D19*%
X159300000Y-110350000D03*
X159300000Y-112040000D03*
X159300000Y-113700000D03*
X161000000Y-110350000D03*
X161000000Y-112040000D03*
X161000000Y-113700000D03*
X162700000Y-110350000D03*
X162700000Y-112040000D03*
X162700000Y-113700000D03*
D28*
X159960000Y-108235000D03*
X162040000Y-108235000D03*
%TD*%
D25*
%TO.C,D6*%
X168472500Y-26775000D03*
X170347500Y-26775000D03*
%TD*%
D12*
%TO.C,R6*%
X165912500Y-27000000D03*
X164087500Y-27000000D03*
%TD*%
D35*
%TO.C,R36*%
X73150000Y-71050000D03*
X74975000Y-71050000D03*
%TD*%
D44*
%TO.C,U19*%
X50095000Y-145475000D03*
X51365000Y-145475000D03*
X52635000Y-145475000D03*
X53905000Y-145475000D03*
X53905000Y-140525000D03*
X52635000Y-140525000D03*
X51365000Y-140525000D03*
X50095000Y-140525000D03*
%TD*%
D12*
%TO.C,R5*%
X61730000Y-28000000D03*
X59905000Y-28000000D03*
%TD*%
D21*
%TO.C,C49*%
X206100000Y-55800000D03*
X206100000Y-57700000D03*
%TD*%
D38*
%TO.C,U43*%
X200000000Y-93750000D03*
X200000000Y-96290000D03*
X200000000Y-98830000D03*
X209530000Y-98830000D03*
X209530000Y-96290000D03*
X209530000Y-93750000D03*
%TD*%
D48*
%TO.C,D17*%
X162400000Y-122455000D03*
X162400000Y-120765000D03*
X162400000Y-119105000D03*
X160700000Y-122455000D03*
X160700000Y-120765000D03*
X160700000Y-119105000D03*
X159000000Y-122455000D03*
X159000000Y-120765000D03*
X159000000Y-119105000D03*
D49*
X161740000Y-124570000D03*
X159660000Y-124570000D03*
%TD*%
D24*
%TO.C,Q10*%
X75000000Y-77000000D03*
X75000000Y-75100000D03*
X73125000Y-76050000D03*
%TD*%
D58*
%TO.C,J20*%
X229530000Y-45500000D03*
X229530000Y-48500000D03*
D59*
X235000000Y-41625000D03*
X235000000Y-52395000D03*
%TD*%
D39*
%TO.C,Y2*%
X76062500Y-55500000D03*
X87937500Y-55500000D03*
%TD*%
D37*
%TO.C,C45*%
X165000000Y-163525000D03*
X165000000Y-166475000D03*
%TD*%
D12*
%TO.C,R46*%
X169912500Y-54500000D03*
X168087500Y-54500000D03*
%TD*%
D10*
%TO.C,R68*%
X200015000Y-89377500D03*
X200015000Y-91202500D03*
%TD*%
M02*
