M48
; DRILL file {KiCad 8.0.5} date 2024-10-29T10:29:40+0100
; FORMAT={-:-/ absolute / metric / decimal}
; #@! TF.CreationDate,2024-10-29T10:29:40+01:00
; #@! TF.GenerationSoftware,Kicad,Pcbnew,8.0.5
; #@! TF.FileFunction,Plated,1,4,PTH
FMAT,2
METRIC
; #@! TA.AperFunction,Plated,PTH,ViaDrill
T1C0.300
; #@! TA.AperFunction,Plated,PTH,ComponentDrill
T2C0.600
; #@! TA.AperFunction,Plated,PTH,ComponentDrill
T3C1.000
; #@! TA.AperFunction,Plated,PTH,ComponentDrill
T4C1.300
; #@! TA.AperFunction,Plated,PTH,ComponentDrill
T5C4.300
%
G90
G05
T1
X31.0Y-150.0
X31.0Y-151.0
X31.0Y-152.0
X31.0Y-153.0
X31.0Y-154.0
X31.0Y-155.0
X31.0Y-156.0
X31.0Y-157.0
X31.0Y-158.0
X31.0Y-159.0
X31.0Y-160.0
X31.0Y-161.0
X32.0Y-150.0
X32.0Y-151.0
X32.0Y-152.0
X32.0Y-153.0
X32.0Y-154.0
X32.0Y-155.0
X32.0Y-156.0
X32.0Y-157.0
X32.0Y-158.0
X32.0Y-159.0
X32.0Y-160.0
X32.0Y-161.0
X32.0Y-162.0
X32.0Y-163.0
X32.0Y-164.0
X33.0Y-150.0
X33.0Y-151.0
X33.0Y-152.0
X33.0Y-153.0
X33.0Y-154.0
X33.0Y-155.0
X33.0Y-156.0
X33.0Y-157.0
X33.0Y-158.0
X33.0Y-159.0
X33.0Y-160.0
X33.0Y-161.0
X33.0Y-162.0
X33.0Y-163.0
X33.0Y-164.0
X33.0Y-165.0
X34.0Y-150.0
X34.0Y-151.0
X34.0Y-152.0
X34.0Y-153.0
X34.0Y-154.0
X34.0Y-155.0
X34.0Y-156.0
X34.0Y-157.0
X34.0Y-158.0
X34.0Y-159.0
X34.0Y-160.0
X34.0Y-161.0
X34.0Y-162.0
X34.0Y-163.0
X34.0Y-164.0
X34.0Y-165.0
X34.0Y-166.0
X35.0Y-150.0
X35.0Y-151.0
X35.0Y-152.0
X35.0Y-153.0
X35.0Y-154.0
X35.0Y-166.0
X35.0Y-167.0
X36.0Y-150.0
X36.0Y-151.0
X36.0Y-152.0
X36.0Y-153.0
X36.0Y-154.0
X36.0Y-166.0
X36.0Y-167.0
X36.0Y-168.0
X37.0Y-106.0
X37.0Y-107.0
X37.0Y-129.0
X37.0Y-130.0
X37.0Y-150.0
X37.0Y-151.0
X37.0Y-152.0
X37.0Y-153.0
X37.0Y-154.0
X37.0Y-166.0
X37.0Y-167.0
X37.0Y-168.0
X38.0Y-61.0
X38.0Y-62.0
X38.0Y-83.0
X38.0Y-84.0
X38.0Y-106.0
X38.0Y-107.0
X38.0Y-129.0
X38.0Y-130.0
X38.0Y-150.0
X38.0Y-151.0
X38.0Y-152.0
X38.0Y-153.0
X38.0Y-154.0
X38.0Y-166.0
X38.0Y-167.0
X38.0Y-168.0
X39.0Y-61.0
X39.0Y-62.0
X39.0Y-83.0
X39.0Y-84.0
X39.0Y-106.0
X39.0Y-107.0
X39.0Y-129.0
X39.0Y-130.0
X39.0Y-150.0
X39.0Y-151.0
X39.0Y-152.0
X39.0Y-153.0
X39.0Y-154.0
X39.0Y-166.0
X39.0Y-167.0
X39.0Y-168.0
X39.0Y-169.0
X40.0Y-61.0
X40.0Y-62.0
X40.0Y-83.0
X40.0Y-84.0
X40.0Y-106.0
X40.0Y-107.0
X40.0Y-129.0
X40.0Y-130.0
X40.0Y-150.0
X40.0Y-151.0
X40.0Y-152.0
X40.0Y-153.0
X40.0Y-154.0
X40.0Y-166.0
X40.0Y-167.0
X40.0Y-168.0
X40.0Y-169.0
X41.0Y-61.0
X41.0Y-62.0
X41.0Y-63.0
X41.0Y-64.0
X41.0Y-65.0
X41.0Y-66.0
X41.0Y-67.0
X41.0Y-68.0
X41.0Y-76.0
X41.0Y-77.0
X41.0Y-78.0
X41.0Y-79.0
X41.0Y-80.0
X41.0Y-81.0
X41.0Y-82.0
X41.0Y-83.0
X41.0Y-84.0
X41.0Y-106.0
X41.0Y-107.0
X41.0Y-108.0
X41.0Y-109.0
X41.0Y-110.0
X41.0Y-111.0
X41.0Y-112.0
X41.0Y-113.0
X41.0Y-114.0
X41.0Y-122.0
X41.0Y-123.0
X41.0Y-124.0
X41.0Y-125.0
X41.0Y-126.0
X41.0Y-127.0
X41.0Y-128.0
X41.0Y-129.0
X41.0Y-130.0
X41.0Y-131.0
X41.0Y-132.0
X41.0Y-133.0
X41.0Y-134.0
X41.0Y-135.0
X41.0Y-136.0
X41.0Y-137.0
X41.0Y-144.0
X41.0Y-145.0
X41.0Y-146.0
X41.0Y-147.0
X41.0Y-148.0
X41.0Y-149.0
X41.0Y-150.0
X41.0Y-151.0
X41.0Y-152.0
X41.0Y-153.0
X41.0Y-154.0
X41.0Y-166.0
X41.0Y-167.0
X41.0Y-168.0
X41.0Y-169.0
X42.0Y-61.0
X42.0Y-62.0
X42.0Y-63.0
X42.0Y-64.0
X42.0Y-65.0
X42.0Y-66.0
X42.0Y-67.0
X42.0Y-68.0
X42.0Y-76.0
X42.0Y-77.0
X42.0Y-78.0
X42.0Y-79.0
X42.0Y-80.0
X42.0Y-81.0
X42.0Y-82.0
X42.0Y-96.0
X42.0Y-97.0
X42.0Y-98.0
X42.0Y-99.0
X42.0Y-100.0
X42.0Y-101.0
X42.0Y-102.0
X42.0Y-103.0
X42.0Y-104.0
X42.0Y-105.0
X42.0Y-106.0
X42.0Y-107.0
X42.0Y-125.0
X42.0Y-126.0
X42.0Y-127.0
X42.0Y-128.0
X42.0Y-129.0
X42.0Y-130.0
X42.0Y-131.0
X42.0Y-132.0
X42.0Y-133.0
X42.0Y-134.0
X42.0Y-135.0
X42.0Y-136.0
X42.0Y-137.0
X42.0Y-144.0
X42.0Y-145.0
X42.0Y-146.0
X42.0Y-147.0
X42.0Y-148.0
X42.0Y-149.0
X42.0Y-150.0
X42.0Y-151.0
X42.0Y-152.0
X42.0Y-153.0
X42.0Y-154.0
X42.0Y-166.0
X42.0Y-167.0
X42.0Y-168.0
X42.0Y-169.0
X43.0Y-61.0
X43.0Y-62.0
X43.0Y-63.0
X43.0Y-64.0
X43.0Y-65.0
X43.0Y-66.0
X43.0Y-67.0
X43.0Y-68.0
X43.0Y-76.0
X43.0Y-77.0
X43.0Y-78.0
X43.0Y-79.0
X43.0Y-80.0
X43.0Y-81.0
X43.0Y-82.0
X43.0Y-96.0
X43.0Y-97.0
X43.0Y-98.0
X43.0Y-99.0
X43.0Y-100.0
X43.0Y-101.0
X43.0Y-102.0
X43.0Y-103.0
X43.0Y-104.0
X43.0Y-105.0
X43.0Y-106.0
X43.0Y-107.0
X43.0Y-125.0
X43.0Y-126.0
X43.0Y-127.0
X43.0Y-128.0
X43.0Y-129.0
X43.0Y-130.0
X43.0Y-131.0
X43.0Y-132.0
X43.0Y-133.0
X43.0Y-134.0
X43.0Y-135.0
X43.0Y-136.0
X43.0Y-137.0
X43.0Y-144.0
X43.0Y-145.0
X43.0Y-146.0
X43.0Y-147.0
X43.0Y-148.0
X43.0Y-149.0
X43.0Y-150.0
X43.0Y-151.0
X43.0Y-152.0
X43.0Y-153.0
X43.0Y-154.0
X43.0Y-166.0
X43.0Y-167.0
X43.0Y-168.0
X43.0Y-169.0
X44.0Y-61.0
X44.0Y-62.0
X44.0Y-63.0
X44.0Y-64.0
X44.0Y-65.0
X44.0Y-66.0
X44.0Y-67.0
X44.0Y-68.0
X44.0Y-76.0
X44.0Y-77.0
X44.0Y-78.0
X44.0Y-79.0
X44.0Y-80.0
X44.0Y-81.0
X44.0Y-82.0
X44.0Y-96.0
X44.0Y-97.0
X44.0Y-98.0
X44.0Y-99.0
X44.0Y-100.0
X44.0Y-101.0
X44.0Y-102.0
X44.0Y-103.0
X44.0Y-104.0
X44.0Y-105.0
X44.0Y-106.0
X44.0Y-107.0
X44.0Y-125.0
X44.0Y-126.0
X44.0Y-127.0
X44.0Y-128.0
X44.0Y-129.0
X44.0Y-130.0
X44.0Y-131.0
X44.0Y-132.0
X44.0Y-133.0
X44.0Y-134.0
X44.0Y-135.0
X44.0Y-136.0
X44.0Y-137.0
X44.0Y-144.0
X44.0Y-145.0
X44.0Y-146.0
X44.0Y-147.0
X44.0Y-148.0
X44.0Y-149.0
X44.0Y-150.0
X44.0Y-151.0
X44.0Y-152.0
X44.0Y-153.0
X44.0Y-154.0
X44.0Y-166.0
X44.0Y-167.0
X44.0Y-168.0
X44.0Y-169.0
X45.0Y-61.0
X45.0Y-62.0
X45.0Y-63.0
X45.0Y-64.0
X45.0Y-65.0
X45.0Y-66.0
X45.0Y-67.0
X45.0Y-68.0
X45.0Y-76.0
X45.0Y-77.0
X45.0Y-78.0
X45.0Y-79.0
X45.0Y-80.0
X45.0Y-81.0
X45.0Y-82.0
X45.0Y-96.0
X45.0Y-97.0
X45.0Y-98.0
X45.0Y-99.0
X45.0Y-100.0
X45.0Y-101.0
X45.0Y-102.0
X45.0Y-103.0
X45.0Y-104.0
X45.0Y-105.0
X45.0Y-106.0
X45.0Y-107.0
X45.0Y-125.0
X45.0Y-126.0
X45.0Y-127.0
X45.0Y-128.0
X45.0Y-129.0
X45.0Y-130.0
X45.0Y-131.0
X45.0Y-132.0
X45.0Y-133.0
X45.0Y-134.0
X45.0Y-135.0
X45.0Y-136.0
X45.0Y-137.0
X45.0Y-144.0
X45.0Y-145.0
X45.0Y-146.0
X45.0Y-147.0
X45.0Y-148.0
X45.0Y-149.0
X45.0Y-150.0
X45.0Y-151.0
X45.0Y-152.0
X45.0Y-153.0
X45.0Y-154.0
X45.0Y-166.0
X45.0Y-167.0
X45.0Y-168.0
X45.0Y-169.0
X46.0Y-61.0
X46.0Y-62.0
X46.0Y-63.0
X46.0Y-64.0
X46.0Y-65.0
X46.0Y-66.0
X46.0Y-67.0
X46.0Y-68.0
X46.0Y-76.0
X46.0Y-77.0
X46.0Y-78.0
X46.0Y-79.0
X46.0Y-80.0
X46.0Y-81.0
X46.0Y-82.0
X46.0Y-91.0
X46.0Y-92.0
X46.0Y-93.0
X46.0Y-94.0
X46.0Y-95.0
X46.0Y-96.0
X46.0Y-97.0
X46.0Y-98.0
X46.0Y-99.0
X46.0Y-100.0
X46.0Y-101.0
X46.0Y-102.0
X46.0Y-103.0
X46.0Y-104.0
X46.0Y-105.0
X46.0Y-106.0
X46.0Y-107.0
X46.0Y-115.0
X46.0Y-116.0
X46.0Y-117.0
X46.0Y-118.0
X46.0Y-119.0
X46.0Y-120.0
X46.0Y-125.0
X46.0Y-126.0
X46.0Y-127.0
X46.0Y-128.0
X46.0Y-129.0
X46.0Y-133.0
X46.0Y-134.0
X46.0Y-135.0
X46.0Y-136.0
X46.0Y-137.0
X46.0Y-144.0
X46.0Y-145.0
X46.0Y-146.0
X46.0Y-147.0
X46.0Y-148.0
X46.0Y-149.0
X46.0Y-150.0
X46.0Y-151.0
X46.0Y-152.0
X46.0Y-153.0
X46.0Y-154.0
X46.0Y-155.0
X46.0Y-156.0
X46.0Y-157.0
X46.0Y-158.0
X46.0Y-159.0
X46.0Y-160.0
X46.0Y-161.0
X46.0Y-162.0
X46.0Y-163.0
X46.0Y-164.0
X46.0Y-165.0
X46.0Y-166.0
X46.0Y-167.0
X46.0Y-168.0
X46.0Y-169.0
X47.0Y-61.0
X47.0Y-62.0
X47.0Y-63.0
X47.0Y-64.0
X47.0Y-65.0
X47.0Y-66.0
X47.0Y-67.0
X47.0Y-68.0
X47.0Y-76.0
X47.0Y-77.0
X47.0Y-78.0
X47.0Y-79.0
X47.0Y-80.0
X47.0Y-81.0
X47.0Y-82.0
X47.0Y-91.0
X47.0Y-92.0
X47.0Y-93.0
X47.0Y-94.0
X47.0Y-95.0
X47.0Y-96.0
X47.0Y-97.0
X47.0Y-98.0
X47.0Y-99.0
X47.0Y-100.0
X47.0Y-101.0
X47.0Y-102.0
X47.0Y-103.0
X47.0Y-104.0
X47.0Y-105.0
X47.0Y-106.0
X47.0Y-107.0
X47.0Y-112.0
X47.0Y-113.0
X47.0Y-114.0
X47.0Y-115.0
X47.0Y-116.0
X47.0Y-117.0
X47.0Y-118.0
X47.0Y-119.0
X47.0Y-120.0
X47.0Y-125.0
X47.0Y-126.0
X47.0Y-127.0
X47.0Y-128.0
X47.0Y-129.0
X47.0Y-135.0
X47.0Y-136.0
X47.0Y-137.0
X47.0Y-144.0
X47.0Y-145.0
X47.0Y-146.0
X47.0Y-147.0
X47.0Y-148.0
X47.0Y-149.0
X47.0Y-150.0
X47.0Y-151.0
X47.0Y-152.0
X47.0Y-153.0
X47.0Y-154.0
X47.0Y-155.0
X47.0Y-156.0
X47.0Y-157.0
X47.0Y-158.0
X47.0Y-159.0
X47.0Y-160.0
X47.0Y-161.0
X47.0Y-162.0
X47.0Y-163.0
X47.0Y-164.0
X47.0Y-165.0
X47.0Y-166.0
X47.0Y-167.0
X47.0Y-168.0
X47.0Y-169.0
X48.0Y-61.0
X48.0Y-62.0
X48.0Y-63.0
X48.0Y-64.0
X48.0Y-65.0
X48.0Y-66.0
X48.0Y-67.0
X48.0Y-68.0
X48.0Y-76.0
X48.0Y-77.0
X48.0Y-78.0
X48.0Y-79.0
X48.0Y-80.0
X48.0Y-81.0
X48.0Y-82.0
X48.0Y-91.0
X48.0Y-92.0
X48.0Y-93.0
X48.0Y-94.0
X48.0Y-95.0
X48.0Y-135.0
X48.0Y-136.0
X48.0Y-137.0
X48.0Y-144.0
X48.0Y-145.0
X48.0Y-146.0
X48.0Y-147.0
X48.0Y-148.0
X48.0Y-149.0
X48.0Y-153.0
X48.0Y-154.0
X48.0Y-155.0
X48.0Y-156.0
X48.0Y-157.0
X48.0Y-158.0
X48.0Y-159.0
X48.0Y-160.0
X48.0Y-161.0
X48.0Y-162.0
X48.0Y-163.0
X48.0Y-164.0
X48.0Y-165.0
X48.0Y-166.0
X48.0Y-167.0
X48.0Y-168.0
X48.0Y-169.0
X49.0Y-61.0
X49.0Y-62.0
X49.0Y-63.0
X49.0Y-64.0
X49.0Y-65.0
X49.0Y-66.0
X49.0Y-67.0
X49.0Y-68.0
X49.0Y-76.0
X49.0Y-77.0
X49.0Y-78.0
X49.0Y-79.0
X49.0Y-80.0
X49.0Y-81.0
X49.0Y-82.0
X49.0Y-91.0
X49.0Y-92.0
X49.0Y-93.0
X49.0Y-94.0
X49.0Y-95.0
X49.0Y-135.0
X49.0Y-136.0
X49.0Y-137.0
X49.0Y-144.0
X49.0Y-145.0
X49.0Y-146.0
X49.0Y-147.0
X49.0Y-148.0
X49.0Y-149.0
X49.0Y-153.0
X49.0Y-154.0
X49.0Y-155.0
X49.0Y-156.0
X49.0Y-157.0
X49.0Y-158.0
X49.0Y-159.0
X49.0Y-160.0
X49.0Y-161.0
X49.0Y-162.0
X49.0Y-163.0
X49.0Y-164.0
X49.0Y-165.0
X49.0Y-166.0
X49.0Y-167.0
X49.0Y-168.0
X49.0Y-169.0
X50.0Y-61.0
X50.0Y-62.0
X50.0Y-63.0
X50.0Y-64.0
X50.0Y-65.0
X50.0Y-66.0
X50.0Y-67.0
X50.0Y-68.0
X50.0Y-76.0
X50.0Y-77.0
X50.0Y-78.0
X50.0Y-79.0
X50.0Y-80.0
X50.0Y-81.0
X50.0Y-82.0
X50.0Y-91.0
X50.0Y-92.0
X50.0Y-93.0
X50.0Y-94.0
X50.0Y-95.0
X50.0Y-135.0
X50.0Y-136.0
X50.0Y-137.0
X50.0Y-166.0
X50.0Y-167.0
X50.0Y-168.0
X50.0Y-169.0
X51.0Y-61.0
X51.0Y-62.0
X51.0Y-63.0
X51.0Y-64.0
X51.0Y-65.0
X51.0Y-66.0
X51.0Y-67.0
X51.0Y-68.0
X51.0Y-76.0
X51.0Y-77.0
X51.0Y-78.0
X51.0Y-79.0
X51.0Y-80.0
X51.0Y-81.0
X51.0Y-82.0
X51.0Y-91.0
X51.0Y-92.0
X51.0Y-93.0
X51.0Y-94.0
X51.0Y-95.0
X51.0Y-135.0
X51.0Y-136.0
X51.0Y-137.0
X51.0Y-166.0
X51.0Y-167.0
X51.0Y-168.0
X51.0Y-169.0
X52.0Y-61.0
X52.0Y-62.0
X52.0Y-63.0
X52.0Y-64.0
X52.0Y-67.0
X52.0Y-68.0
X52.0Y-76.0
X52.0Y-77.0
X52.0Y-78.0
X52.0Y-79.0
X52.0Y-80.0
X52.0Y-81.0
X52.0Y-82.0
X52.0Y-91.0
X52.0Y-92.0
X52.0Y-93.0
X52.0Y-94.0
X52.0Y-95.0
X52.0Y-135.0
X52.0Y-136.0
X52.0Y-137.0
X52.0Y-166.0
X52.0Y-167.0
X52.0Y-168.0
X52.0Y-169.0
X53.0Y-61.0
X53.0Y-62.0
X53.0Y-63.0
X53.0Y-64.0
X53.0Y-67.0
X53.0Y-68.0
X53.0Y-76.0
X53.0Y-77.0
X53.0Y-78.0
X53.0Y-79.0
X53.0Y-80.0
X53.0Y-81.0
X53.0Y-82.0
X53.0Y-91.0
X53.0Y-92.0
X53.0Y-93.0
X53.0Y-94.0
X53.0Y-95.0
X53.0Y-127.0
X53.0Y-128.0
X53.0Y-129.0
X53.0Y-130.0
X53.0Y-131.0
X53.0Y-132.0
X53.0Y-133.0
X53.0Y-135.0
X53.0Y-136.0
X53.0Y-137.0
X53.0Y-166.0
X53.0Y-167.0
X53.0Y-168.0
X53.0Y-169.0
X54.0Y-61.0
X54.0Y-62.0
X54.0Y-63.0
X54.0Y-64.0
X54.0Y-67.0
X54.0Y-68.0
X54.0Y-76.0
X54.0Y-77.0
X54.0Y-78.0
X54.0Y-79.0
X54.0Y-80.0
X54.0Y-81.0
X54.0Y-82.0
X54.0Y-91.0
X54.0Y-92.0
X54.0Y-93.0
X54.0Y-94.0
X54.0Y-95.0
X54.0Y-107.0
X54.0Y-108.0
X54.0Y-109.0
X54.0Y-110.0
X54.0Y-111.0
X54.0Y-112.0
X54.0Y-113.0
X54.0Y-127.0
X54.0Y-128.0
X54.0Y-129.0
X54.0Y-130.0
X54.0Y-131.0
X54.0Y-132.0
X54.0Y-133.0
X54.0Y-134.0
X54.0Y-135.0
X54.0Y-136.0
X54.0Y-137.0
X54.0Y-166.0
X54.0Y-167.0
X54.0Y-168.0
X54.0Y-169.0
X54.75Y-140.5
X55.0Y-61.0
X55.0Y-62.0
X55.0Y-63.0
X55.0Y-67.0
X55.0Y-68.0
X55.0Y-76.0
X55.0Y-77.0
X55.0Y-78.0
X55.0Y-79.0
X55.0Y-80.0
X55.0Y-81.0
X55.0Y-82.0
X55.0Y-91.0
X55.0Y-92.0
X55.0Y-93.0
X55.0Y-94.0
X55.0Y-95.0
X55.0Y-107.0
X55.0Y-108.0
X55.0Y-109.0
X55.0Y-110.0
X55.0Y-111.0
X55.0Y-112.0
X55.0Y-113.0
X55.0Y-127.0
X55.0Y-128.0
X55.0Y-129.0
X55.0Y-130.0
X55.0Y-131.0
X55.0Y-132.0
X55.0Y-133.0
X55.0Y-134.0
X55.0Y-135.0
X55.0Y-136.0
X55.0Y-137.0
X55.0Y-145.5
X55.0Y-168.0
X55.0Y-169.0
X55.25Y-85.5
X55.25Y-87.5
X56.0Y-61.0
X56.0Y-62.0
X56.0Y-72.0
X56.0Y-91.0
X56.0Y-92.0
X56.0Y-93.0
X56.0Y-94.0
X56.0Y-95.0
X56.0Y-107.0
X56.0Y-108.0
X56.0Y-109.0
X56.0Y-110.0
X56.0Y-111.0
X56.0Y-112.0
X56.0Y-113.0
X56.0Y-116.0
X56.0Y-117.0
X56.0Y-118.0
X56.0Y-127.0
X56.0Y-128.0
X56.0Y-129.0
X56.0Y-130.0
X56.0Y-131.0
X56.0Y-132.0
X56.0Y-133.0
X56.0Y-168.0
X56.0Y-169.0
X57.0Y-61.0
X57.0Y-62.0
X57.0Y-72.0
X57.0Y-91.0
X57.0Y-92.0
X57.0Y-93.0
X57.0Y-94.0
X57.0Y-95.0
X57.0Y-107.0
X57.0Y-108.0
X57.0Y-109.0
X57.0Y-110.0
X57.0Y-111.0
X57.0Y-112.0
X57.0Y-113.0
X57.0Y-116.0
X57.0Y-117.0
X57.0Y-118.0
X57.0Y-127.0
X57.0Y-128.0
X57.0Y-129.0
X57.0Y-130.0
X57.0Y-131.0
X57.0Y-132.0
X57.0Y-133.0
X57.0Y-168.0
X57.0Y-169.0
X58.0Y-61.0
X58.0Y-62.0
X58.0Y-72.0
X58.0Y-91.0
X58.0Y-92.0
X58.0Y-93.0
X58.0Y-94.0
X58.0Y-95.0
X58.0Y-107.0
X58.0Y-108.0
X58.0Y-109.0
X58.0Y-110.0
X58.0Y-111.0
X58.0Y-112.0
X58.0Y-113.0
X58.0Y-116.0
X58.0Y-117.0
X58.0Y-118.0
X58.0Y-123.0
X58.0Y-124.0
X58.0Y-125.0
X58.0Y-126.0
X58.0Y-127.0
X58.0Y-128.0
X58.0Y-129.0
X58.0Y-130.0
X58.0Y-131.0
X58.0Y-132.0
X58.0Y-133.0
X58.0Y-168.0
X58.0Y-169.0
X59.0Y-61.0
X59.0Y-62.0
X59.0Y-72.0
X59.0Y-91.0
X59.0Y-92.0
X59.0Y-93.0
X59.0Y-94.0
X59.0Y-95.0
X59.0Y-107.0
X59.0Y-108.0
X59.0Y-109.0
X59.0Y-110.0
X59.0Y-111.0
X59.0Y-112.0
X59.0Y-113.0
X59.0Y-116.0
X59.0Y-117.0
X59.0Y-118.0
X59.0Y-123.0
X59.0Y-124.0
X59.0Y-125.0
X59.0Y-126.0
X59.0Y-127.0
X59.0Y-128.0
X59.0Y-129.0
X59.0Y-130.0
X59.0Y-131.0
X59.0Y-132.0
X59.0Y-133.0
X59.0Y-168.0
X59.0Y-169.0
X59.74Y-29.5
X59.78Y-32.5
X60.0Y-61.0
X60.0Y-62.0
X60.0Y-72.0
X60.0Y-116.0
X60.0Y-117.0
X60.0Y-118.0
X60.0Y-123.0
X60.0Y-124.0
X60.0Y-125.0
X60.0Y-126.0
X60.0Y-127.0
X60.0Y-128.0
X60.0Y-129.0
X60.0Y-130.0
X60.0Y-131.0
X60.0Y-132.0
X60.0Y-133.0
X60.0Y-134.0
X60.0Y-135.0
X60.0Y-136.0
X60.0Y-137.0
X60.0Y-138.0
X60.0Y-139.0
X60.0Y-140.0
X60.0Y-149.0
X60.0Y-150.0
X60.0Y-151.0
X60.0Y-152.0
X60.0Y-153.0
X60.0Y-154.0
X60.0Y-155.0
X60.0Y-156.0
X60.0Y-157.0
X60.0Y-158.0
X60.0Y-159.0
X60.0Y-160.0
X60.0Y-161.0
X60.0Y-166.0
X60.0Y-167.0
X60.0Y-168.0
X60.0Y-169.0
X60.25Y-143.0
X61.0Y-61.0
X61.0Y-62.0
X61.0Y-72.0
X61.0Y-116.0
X61.0Y-117.0
X61.0Y-118.0
X61.0Y-123.0
X61.0Y-124.0
X61.0Y-125.0
X61.0Y-126.0
X61.0Y-127.0
X61.0Y-128.0
X61.0Y-129.0
X61.0Y-130.0
X61.0Y-131.0
X61.0Y-132.0
X61.0Y-133.0
X61.0Y-134.0
X61.0Y-135.0
X61.0Y-136.0
X61.0Y-137.0
X61.0Y-138.0
X61.0Y-139.0
X61.0Y-140.0
X61.0Y-149.0
X61.0Y-150.0
X61.0Y-151.0
X61.0Y-152.0
X61.0Y-153.0
X61.0Y-154.0
X61.0Y-155.0
X61.0Y-156.0
X61.0Y-157.0
X61.0Y-158.0
X61.0Y-159.0
X61.0Y-160.0
X61.0Y-161.0
X61.0Y-166.0
X61.0Y-167.0
X61.0Y-168.0
X61.0Y-169.0
X62.0Y-61.0
X62.0Y-62.0
X62.0Y-72.0
X62.0Y-116.0
X62.0Y-117.0
X62.0Y-118.0
X62.0Y-123.0
X62.0Y-124.0
X62.0Y-125.0
X62.0Y-126.0
X62.0Y-127.0
X62.0Y-128.0
X62.0Y-129.0
X62.0Y-130.0
X62.0Y-131.0
X62.0Y-132.0
X62.0Y-133.0
X62.0Y-134.0
X62.0Y-135.0
X62.0Y-136.0
X62.0Y-137.0
X62.0Y-138.0
X62.0Y-139.0
X62.0Y-140.0
X62.0Y-149.0
X62.0Y-150.0
X62.0Y-151.0
X62.0Y-152.0
X62.0Y-153.0
X62.0Y-154.0
X62.0Y-155.0
X62.0Y-156.0
X62.0Y-157.0
X62.0Y-158.0
X62.0Y-159.0
X62.0Y-160.0
X62.0Y-161.0
X62.0Y-166.0
X62.0Y-167.0
X62.0Y-168.0
X62.0Y-169.0
X63.0Y-39.5
X63.0Y-42.25
X63.0Y-61.0
X63.0Y-62.0
X63.0Y-72.0
X63.0Y-116.0
X63.0Y-117.0
X63.0Y-118.0
X63.0Y-123.0
X63.0Y-124.0
X63.0Y-125.0
X63.0Y-126.0
X63.0Y-127.0
X63.0Y-128.0
X63.0Y-129.0
X63.0Y-130.0
X63.0Y-131.0
X63.0Y-132.0
X63.0Y-133.0
X63.0Y-134.0
X63.0Y-135.0
X63.0Y-136.0
X63.0Y-137.0
X63.0Y-138.0
X63.0Y-139.0
X63.0Y-140.0
X63.0Y-149.0
X63.0Y-150.0
X63.0Y-151.0
X63.0Y-152.0
X63.0Y-153.0
X63.0Y-154.0
X63.0Y-155.0
X63.0Y-156.0
X63.0Y-157.0
X63.0Y-158.0
X63.0Y-159.0
X63.0Y-160.0
X63.0Y-161.0
X63.0Y-167.0
X63.0Y-168.0
X63.0Y-169.0
X63.25Y-48.5
X64.0Y-61.0
X64.0Y-62.0
X64.0Y-65.0
X64.0Y-66.0
X64.0Y-67.0
X64.0Y-68.0
X64.0Y-69.0
X64.0Y-70.0
X64.0Y-71.0
X64.0Y-72.0
X64.0Y-73.0
X64.0Y-74.0
X64.0Y-75.0
X64.0Y-76.0
X64.0Y-77.0
X64.0Y-78.0
X64.0Y-79.0
X64.0Y-80.0
X64.0Y-81.0
X64.0Y-82.0
X64.0Y-83.0
X64.0Y-116.0
X64.0Y-117.0
X64.0Y-118.0
X64.0Y-123.0
X64.0Y-124.0
X64.0Y-125.0
X64.0Y-126.0
X64.0Y-127.0
X64.0Y-128.0
X64.0Y-129.0
X64.0Y-130.0
X64.0Y-131.0
X64.0Y-132.0
X64.0Y-133.0
X64.0Y-134.0
X64.0Y-135.0
X64.0Y-136.0
X64.0Y-137.0
X64.0Y-138.0
X64.0Y-139.0
X64.0Y-140.0
X64.0Y-149.0
X64.0Y-150.0
X64.0Y-151.0
X64.0Y-152.0
X64.0Y-153.0
X64.0Y-154.0
X64.0Y-155.0
X64.0Y-156.0
X64.0Y-157.0
X64.0Y-158.0
X64.0Y-159.0
X64.0Y-160.0
X64.0Y-161.0
X64.0Y-167.0
X64.0Y-168.0
X64.0Y-169.0
X64.25Y-46.25
X65.0Y-61.0
X65.0Y-62.0
X65.0Y-65.0
X65.0Y-66.0
X65.0Y-67.0
X65.0Y-68.0
X65.0Y-69.0
X65.0Y-70.0
X65.0Y-71.0
X65.0Y-72.0
X65.0Y-73.0
X65.0Y-74.0
X65.0Y-75.0
X65.0Y-76.0
X65.0Y-77.0
X65.0Y-78.0
X65.0Y-79.0
X65.0Y-80.0
X65.0Y-81.0
X65.0Y-82.0
X65.0Y-83.0
X65.0Y-116.0
X65.0Y-117.0
X65.0Y-118.0
X65.0Y-123.0
X65.0Y-124.0
X65.0Y-125.0
X65.0Y-126.0
X65.0Y-127.0
X65.0Y-128.0
X65.0Y-129.0
X65.0Y-130.0
X65.0Y-131.0
X65.0Y-132.0
X65.0Y-133.0
X65.0Y-134.0
X65.0Y-135.0
X65.0Y-136.0
X65.0Y-137.0
X65.0Y-138.0
X65.0Y-139.0
X65.0Y-140.0
X65.0Y-163.0
X65.0Y-164.0
X65.0Y-165.0
X65.0Y-166.0
X65.0Y-167.0
X65.0Y-168.0
X65.0Y-169.0
X66.0Y-81.0
X66.0Y-82.0
X66.0Y-83.0
X66.0Y-112.0
X66.0Y-113.0
X66.0Y-114.0
X66.0Y-115.0
X66.0Y-116.0
X66.0Y-117.0
X66.0Y-118.0
X66.0Y-123.0
X66.0Y-124.0
X66.0Y-125.0
X66.0Y-126.0
X66.0Y-127.0
X66.0Y-128.0
X66.0Y-129.0
X66.0Y-130.0
X66.0Y-131.0
X66.0Y-132.0
X66.0Y-133.0
X66.0Y-134.0
X66.0Y-135.0
X66.0Y-136.0
X66.0Y-137.0
X66.0Y-138.0
X66.0Y-139.0
X66.0Y-140.0
X66.0Y-163.0
X66.0Y-164.0
X66.0Y-165.0
X66.0Y-166.0
X66.0Y-167.0
X66.0Y-168.0
X66.0Y-169.0
X67.0Y-81.0
X67.0Y-82.0
X67.0Y-83.0
X67.0Y-112.0
X67.0Y-113.0
X67.0Y-114.0
X67.0Y-115.0
X67.0Y-116.0
X67.0Y-117.0
X67.0Y-118.0
X67.0Y-123.0
X67.0Y-124.0
X67.0Y-125.0
X67.0Y-126.0
X67.0Y-127.0
X67.0Y-128.0
X67.0Y-129.0
X67.0Y-130.0
X67.0Y-131.0
X67.0Y-132.0
X67.0Y-133.0
X67.0Y-134.0
X67.0Y-135.0
X67.0Y-136.0
X67.0Y-137.0
X67.0Y-138.0
X67.0Y-139.0
X67.0Y-140.0
X67.0Y-163.0
X67.0Y-164.0
X67.0Y-165.0
X67.0Y-166.0
X67.0Y-167.0
X67.0Y-168.0
X67.0Y-169.0
X68.0Y-81.0
X68.0Y-82.0
X68.0Y-83.0
X68.0Y-115.0
X68.0Y-116.0
X68.0Y-117.0
X68.0Y-118.0
X68.0Y-123.0
X68.0Y-124.0
X68.0Y-125.0
X68.0Y-126.0
X68.0Y-127.0
X68.0Y-128.0
X68.0Y-129.0
X68.0Y-130.0
X68.0Y-131.0
X68.0Y-132.0
X68.0Y-133.0
X68.0Y-134.0
X68.0Y-135.0
X68.0Y-136.0
X68.0Y-137.0
X68.0Y-138.0
X68.0Y-139.0
X68.0Y-140.0
X68.0Y-163.0
X68.0Y-167.0
X68.0Y-168.0
X68.0Y-169.0
X69.0Y-81.0
X69.0Y-82.0
X69.0Y-83.0
X69.0Y-115.0
X69.0Y-116.0
X69.0Y-117.0
X69.0Y-118.0
X69.0Y-119.0
X69.0Y-120.0
X69.0Y-121.0
X69.0Y-122.0
X69.0Y-123.0
X69.0Y-124.0
X69.0Y-125.0
X69.0Y-126.0
X69.0Y-127.0
X69.0Y-128.0
X69.0Y-129.0
X69.0Y-130.0
X69.0Y-131.0
X69.0Y-132.0
X69.0Y-133.0
X69.0Y-134.0
X69.0Y-135.0
X69.0Y-136.0
X69.0Y-137.0
X69.0Y-138.0
X69.0Y-139.0
X69.0Y-140.0
X69.0Y-163.0
X69.0Y-167.0
X69.0Y-168.0
X69.0Y-169.0
X70.0Y-28.0
X70.0Y-31.0
X70.0Y-81.0
X70.0Y-82.0
X70.0Y-83.0
X70.0Y-115.0
X70.0Y-116.0
X70.0Y-117.0
X70.0Y-118.0
X70.0Y-119.0
X70.0Y-120.0
X70.0Y-121.0
X70.0Y-122.0
X70.0Y-123.0
X70.0Y-124.0
X70.0Y-125.0
X70.0Y-126.0
X70.0Y-127.0
X70.0Y-128.0
X70.0Y-129.0
X70.0Y-130.0
X70.0Y-131.0
X70.0Y-132.0
X70.0Y-133.0
X70.0Y-134.0
X70.0Y-135.0
X70.0Y-136.0
X70.0Y-137.0
X70.0Y-138.0
X70.0Y-139.0
X70.0Y-140.0
X70.0Y-163.0
X70.0Y-167.0
X70.0Y-168.0
X70.0Y-169.0
X71.0Y-34.0
X71.0Y-81.0
X71.0Y-82.0
X71.0Y-83.0
X71.0Y-115.0
X71.0Y-116.0
X71.0Y-117.0
X71.0Y-118.0
X71.0Y-119.0
X71.0Y-120.0
X71.0Y-121.0
X71.0Y-122.0
X71.0Y-123.0
X71.0Y-124.0
X71.0Y-125.0
X71.0Y-126.0
X71.0Y-127.0
X71.0Y-128.0
X71.0Y-129.0
X71.0Y-130.0
X71.0Y-131.0
X71.0Y-132.0
X71.0Y-133.0
X71.0Y-134.0
X71.0Y-135.0
X71.0Y-136.0
X71.0Y-137.0
X71.0Y-138.0
X71.0Y-139.0
X71.0Y-140.0
X71.0Y-163.0
X71.0Y-167.0
X71.0Y-168.0
X71.0Y-169.0
X72.0Y-163.0
X72.0Y-164.0
X72.0Y-165.0
X72.0Y-166.0
X72.0Y-167.0
X72.0Y-168.0
X72.0Y-169.0
X72.75Y-77.25
X73.0Y-163.0
X73.0Y-164.0
X73.0Y-165.0
X73.0Y-166.0
X73.0Y-167.0
X73.0Y-168.0
X73.0Y-169.0
X73.5Y-45.25
X74.0Y-81.0
X74.0Y-82.0
X74.0Y-83.0
X74.0Y-163.0
X74.0Y-164.0
X74.0Y-165.0
X74.0Y-166.0
X74.0Y-167.0
X74.0Y-168.0
X74.0Y-169.0
X74.25Y-50.5
X74.5Y-74.5
X75.0Y-81.0
X75.0Y-82.0
X75.0Y-83.0
X75.0Y-163.0
X75.0Y-164.0
X75.0Y-165.0
X75.0Y-166.0
X75.0Y-167.0
X75.0Y-168.0
X75.0Y-169.0
X75.5Y-44.5
X75.75Y-73.25
X76.0Y-149.0
X76.0Y-150.0
X76.0Y-151.0
X76.0Y-152.0
X76.0Y-153.0
X76.0Y-154.0
X76.0Y-155.0
X76.0Y-156.0
X76.0Y-157.0
X76.0Y-162.0
X76.0Y-163.0
X76.0Y-164.0
X76.0Y-165.0
X76.0Y-166.0
X76.0Y-167.0
X76.0Y-168.0
X76.0Y-169.0
X77.0Y-36.0
X77.0Y-81.0
X77.0Y-82.0
X77.0Y-83.0
X77.0Y-149.0
X77.0Y-150.0
X77.0Y-151.0
X77.0Y-152.0
X77.0Y-153.0
X77.0Y-154.0
X77.0Y-155.0
X77.0Y-156.0
X77.0Y-162.0
X77.0Y-163.0
X77.0Y-164.0
X77.0Y-165.0
X77.0Y-166.0
X77.0Y-167.0
X77.0Y-168.0
X77.0Y-169.0
X78.0Y-81.0
X78.0Y-82.0
X78.0Y-83.0
X78.0Y-149.0
X78.0Y-150.0
X78.0Y-151.0
X78.0Y-152.0
X78.0Y-153.0
X78.0Y-154.0
X78.0Y-155.0
X78.0Y-156.0
X78.0Y-162.0
X78.0Y-163.0
X78.0Y-164.0
X78.0Y-165.0
X78.0Y-166.0
X78.0Y-167.0
X78.0Y-168.0
X78.0Y-169.0
X78.4Y-37.65
X79.0Y-81.0
X79.0Y-82.0
X79.0Y-83.0
X79.0Y-149.0
X79.0Y-150.0
X79.0Y-151.0
X79.0Y-152.0
X79.0Y-153.0
X79.0Y-154.0
X79.0Y-155.0
X79.0Y-156.0
X79.0Y-162.0
X79.0Y-163.0
X79.0Y-164.0
X79.0Y-165.0
X79.0Y-166.0
X79.0Y-167.0
X79.0Y-168.0
X79.0Y-169.0
X79.125Y-41.125
X79.25Y-75.5
X79.65Y-32.0
X79.75Y-37.5
X80.0Y-81.0
X80.0Y-82.0
X80.0Y-83.0
X80.0Y-149.0
X80.0Y-150.0
X80.0Y-151.0
X80.0Y-152.0
X80.0Y-153.0
X80.0Y-154.0
X80.0Y-155.0
X80.0Y-156.0
X80.0Y-157.0
X80.0Y-162.0
X80.0Y-163.0
X80.0Y-164.0
X80.0Y-165.0
X80.0Y-166.0
X80.0Y-167.0
X80.0Y-168.0
X80.0Y-169.0
X80.25Y-74.5
X80.5Y-45.75
X81.0Y-81.0
X81.0Y-82.0
X81.0Y-83.0
X81.0Y-84.0
X81.0Y-85.0
X81.0Y-86.0
X81.0Y-87.0
X81.0Y-88.0
X81.0Y-89.0
X81.0Y-90.0
X81.0Y-91.0
X81.0Y-92.0
X81.0Y-93.0
X81.0Y-98.0
X81.0Y-99.0
X81.0Y-100.0
X81.0Y-101.0
X81.0Y-102.0
X81.0Y-103.0
X81.0Y-104.0
X81.0Y-105.0
X81.0Y-106.0
X81.0Y-107.0
X81.0Y-108.0
X81.0Y-109.0
X81.0Y-110.0
X81.0Y-115.0
X81.0Y-116.0
X81.0Y-117.0
X81.0Y-118.0
X81.0Y-119.0
X81.0Y-120.0
X81.0Y-121.0
X81.0Y-122.0
X81.0Y-123.0
X81.0Y-124.0
X81.0Y-163.0
X81.0Y-164.0
X81.0Y-165.0
X81.0Y-166.0
X81.0Y-167.0
X81.0Y-168.0
X81.0Y-169.0
X81.25Y-45.25
X81.5Y-71.75
X82.0Y-42.25
X82.0Y-65.25
X82.0Y-69.25
X82.0Y-163.0
X82.0Y-164.0
X82.0Y-165.0
X82.0Y-166.0
X82.0Y-167.0
X82.0Y-168.0
X82.0Y-169.0
X82.6Y-48.35
X83.0Y-163.0
X83.0Y-164.0
X83.0Y-165.0
X83.0Y-166.0
X83.0Y-167.0
X83.0Y-168.0
X83.0Y-169.0
X83.25Y-40.0
X83.5Y-34.25
X83.75Y-44.5
X83.75Y-68.25
X84.0Y-163.0
X84.0Y-164.0
X84.0Y-165.0
X84.0Y-166.0
X84.0Y-167.0
X84.0Y-168.0
X84.0Y-169.0
X84.25Y-33.75
X84.5Y-38.0
X84.5Y-45.25
X85.0Y-163.0
X85.0Y-167.0
X85.0Y-168.0
X85.0Y-169.0
X85.1Y-51.6
X85.25Y-33.25
X85.75Y-37.25
X86.0Y-45.25
X86.0Y-124.0
X86.0Y-163.0
X86.0Y-167.0
X86.0Y-168.0
X86.0Y-169.0
X86.5Y-40.25
X87.0Y-163.0
X87.0Y-167.0
X87.0Y-168.0
X87.0Y-169.0
X88.0Y-139.0
X88.0Y-163.0
X88.0Y-167.0
X88.0Y-168.0
X88.0Y-169.0
X89.0Y-81.0
X89.0Y-82.0
X89.0Y-83.0
X89.0Y-84.0
X89.0Y-85.0
X89.0Y-86.0
X89.0Y-87.0
X89.0Y-88.0
X89.0Y-89.0
X89.0Y-90.0
X89.0Y-91.0
X89.0Y-92.0
X89.0Y-93.0
X89.0Y-105.0
X89.0Y-106.0
X89.0Y-107.0
X89.0Y-108.0
X89.0Y-109.0
X89.0Y-110.0
X89.0Y-111.0
X89.0Y-112.0
X89.0Y-122.0
X89.0Y-123.0
X89.0Y-124.0
X89.0Y-139.0
X89.0Y-163.0
X89.0Y-164.0
X89.0Y-165.0
X89.0Y-166.0
X89.0Y-167.0
X89.0Y-168.0
X89.0Y-169.0
X90.0Y-40.75
X90.0Y-72.5
X90.0Y-81.0
X90.0Y-82.0
X90.0Y-83.0
X90.0Y-84.0
X90.0Y-85.0
X90.0Y-86.0
X90.0Y-87.0
X90.0Y-88.0
X90.0Y-89.0
X90.0Y-90.0
X90.0Y-91.0
X90.0Y-92.0
X90.0Y-93.0
X90.0Y-105.0
X90.0Y-106.0
X90.0Y-107.0
X90.0Y-108.0
X90.0Y-109.0
X90.0Y-110.0
X90.0Y-111.0
X90.0Y-112.0
X90.0Y-122.0
X90.0Y-123.0
X90.0Y-124.0
X90.0Y-139.0
X90.0Y-163.0
X90.0Y-164.0
X90.0Y-165.0
X90.0Y-166.0
X90.0Y-167.0
X90.0Y-168.0
X90.0Y-169.0
X91.0Y-47.0
X91.0Y-49.0
X91.0Y-81.0
X91.0Y-82.0
X91.0Y-83.0
X91.0Y-84.0
X91.0Y-85.0
X91.0Y-86.0
X91.0Y-87.0
X91.0Y-88.0
X91.0Y-89.0
X91.0Y-90.0
X91.0Y-91.0
X91.0Y-92.0
X91.0Y-93.0
X91.0Y-103.0
X91.0Y-104.0
X91.0Y-105.0
X91.0Y-106.0
X91.0Y-107.0
X91.0Y-108.0
X91.0Y-121.0
X91.0Y-122.0
X91.0Y-123.0
X91.0Y-124.0
X91.0Y-139.0
X91.0Y-163.0
X91.0Y-164.0
X91.0Y-165.0
X91.0Y-166.0
X91.0Y-167.0
X91.0Y-168.0
X91.0Y-169.0
X92.0Y-81.0
X92.0Y-82.0
X92.0Y-83.0
X92.0Y-84.0
X92.0Y-85.0
X92.0Y-86.0
X92.0Y-87.0
X92.0Y-88.0
X92.0Y-89.0
X92.0Y-90.0
X92.0Y-91.0
X92.0Y-92.0
X92.0Y-93.0
X92.0Y-103.0
X92.0Y-104.0
X92.0Y-105.0
X92.0Y-106.0
X92.0Y-107.0
X92.0Y-111.0
X92.0Y-112.0
X92.0Y-113.0
X92.0Y-114.0
X92.0Y-121.0
X92.0Y-122.0
X92.0Y-123.0
X92.0Y-124.0
X92.0Y-139.0
X92.0Y-163.0
X92.0Y-164.0
X92.0Y-165.0
X92.0Y-166.0
X92.0Y-167.0
X92.0Y-168.0
X92.0Y-169.0
X92.5Y-40.25
X92.5Y-74.75
X93.0Y-81.0
X93.0Y-82.0
X93.0Y-83.0
X93.0Y-84.0
X93.0Y-85.0
X93.0Y-86.0
X93.0Y-87.0
X93.0Y-88.0
X93.0Y-89.0
X93.0Y-90.0
X93.0Y-91.0
X93.0Y-92.0
X93.0Y-93.0
X93.0Y-103.0
X93.0Y-104.0
X93.0Y-105.0
X93.0Y-106.0
X93.0Y-110.0
X93.0Y-111.0
X93.0Y-112.0
X93.0Y-113.0
X93.0Y-114.0
X93.0Y-115.0
X93.0Y-116.0
X93.0Y-117.0
X93.0Y-120.0
X93.0Y-121.0
X93.0Y-122.0
X93.0Y-123.0
X93.0Y-124.0
X93.0Y-139.0
X93.0Y-163.0
X93.0Y-164.0
X93.0Y-165.0
X93.0Y-166.0
X93.0Y-167.0
X93.0Y-168.0
X93.0Y-169.0
X94.0Y-47.0
X94.0Y-81.0
X94.0Y-82.0
X94.0Y-83.0
X94.0Y-84.0
X94.0Y-85.0
X94.0Y-86.0
X94.0Y-87.0
X94.0Y-88.0
X94.0Y-89.0
X94.0Y-90.0
X94.0Y-91.0
X94.0Y-92.0
X94.0Y-93.0
X94.0Y-103.0
X94.0Y-104.0
X94.0Y-105.0
X94.0Y-109.0
X94.0Y-110.0
X94.0Y-111.0
X94.0Y-112.0
X94.0Y-113.0
X94.0Y-114.0
X94.0Y-115.0
X94.0Y-116.0
X94.0Y-117.0
X94.0Y-118.0
X94.0Y-120.0
X94.0Y-121.0
X94.0Y-122.0
X94.0Y-123.0
X94.0Y-124.0
X94.0Y-139.0
X94.0Y-163.0
X94.0Y-164.0
X94.0Y-165.0
X94.0Y-166.0
X94.0Y-167.0
X94.0Y-168.0
X94.0Y-169.0
X94.25Y-36.25
X95.0Y-122.0
X95.0Y-123.0
X95.0Y-124.0
X95.0Y-139.0
X95.0Y-163.0
X95.0Y-164.0
X95.0Y-165.0
X95.0Y-166.0
X95.0Y-167.0
X95.0Y-168.0
X95.0Y-169.0
X96.0Y-122.0
X96.0Y-123.0
X96.0Y-124.0
X96.0Y-139.0
X96.0Y-163.0
X96.0Y-164.0
X96.0Y-165.0
X96.0Y-166.0
X96.0Y-167.0
X96.0Y-168.0
X96.0Y-169.0
X97.0Y-122.0
X97.0Y-123.0
X97.0Y-124.0
X97.0Y-139.0
X97.0Y-163.0
X97.0Y-164.0
X97.0Y-165.0
X97.0Y-166.0
X97.0Y-167.0
X97.0Y-168.0
X97.0Y-169.0
X98.0Y-122.0
X98.0Y-123.0
X98.0Y-124.0
X98.0Y-139.0
X98.0Y-163.0
X98.0Y-164.0
X98.0Y-165.0
X98.0Y-166.0
X98.0Y-167.0
X98.0Y-168.0
X98.0Y-169.0
X98.75Y-56.75
X99.0Y-122.0
X99.0Y-123.0
X99.0Y-124.0
X99.0Y-139.0
X99.0Y-140.0
X99.0Y-141.0
X99.0Y-142.0
X99.0Y-143.0
X99.0Y-144.0
X99.0Y-145.0
X99.0Y-146.0
X99.0Y-147.0
X99.0Y-148.0
X99.0Y-149.0
X99.0Y-150.0
X99.0Y-151.0
X99.0Y-152.0
X99.0Y-153.0
X99.0Y-154.0
X99.0Y-155.0
X99.0Y-156.0
X99.0Y-157.0
X99.0Y-158.0
X99.0Y-159.0
X99.0Y-160.0
X99.0Y-161.0
X99.0Y-162.0
X99.0Y-163.0
X99.0Y-164.0
X99.0Y-165.0
X99.0Y-166.0
X99.0Y-167.0
X99.0Y-168.0
X99.0Y-169.0
X100.0Y-64.25
X100.0Y-122.0
X100.0Y-123.0
X100.0Y-124.0
X100.0Y-139.0
X100.0Y-140.0
X100.0Y-141.0
X100.0Y-142.0
X100.0Y-143.0
X100.0Y-144.0
X100.0Y-145.0
X100.0Y-146.0
X100.0Y-147.0
X100.0Y-148.0
X100.0Y-149.0
X100.0Y-150.0
X100.0Y-151.0
X100.0Y-152.0
X100.0Y-153.0
X100.0Y-154.0
X100.0Y-155.0
X100.0Y-156.0
X100.0Y-157.0
X100.0Y-158.0
X100.0Y-159.0
X100.0Y-160.0
X100.0Y-161.0
X100.0Y-162.0
X100.0Y-163.0
X100.0Y-164.0
X100.0Y-165.0
X100.0Y-166.0
X100.0Y-167.0
X100.0Y-168.0
X100.0Y-169.0
X101.0Y-97.0
X101.0Y-122.0
X101.0Y-123.0
X101.0Y-124.0
X101.0Y-139.0
X101.0Y-140.0
X101.0Y-141.0
X101.0Y-142.0
X101.0Y-143.0
X101.0Y-144.0
X101.0Y-145.0
X101.0Y-146.0
X101.0Y-147.0
X101.0Y-148.0
X101.0Y-149.0
X101.0Y-150.0
X101.0Y-151.0
X101.0Y-152.0
X101.0Y-153.0
X101.0Y-154.0
X101.0Y-155.0
X101.0Y-156.0
X101.0Y-157.0
X101.0Y-158.0
X101.0Y-159.0
X101.0Y-160.0
X101.0Y-161.0
X101.0Y-162.0
X101.0Y-163.0
X101.0Y-164.0
X101.0Y-165.0
X101.0Y-166.0
X101.0Y-167.0
X101.0Y-168.0
X101.0Y-169.0
X102.0Y-122.0
X102.0Y-123.0
X102.0Y-124.0
X102.0Y-139.0
X102.0Y-140.0
X102.0Y-141.0
X102.0Y-142.0
X102.0Y-143.0
X102.0Y-144.0
X102.0Y-145.0
X102.0Y-146.0
X102.0Y-147.0
X102.0Y-148.0
X102.0Y-149.0
X102.0Y-150.0
X102.0Y-151.0
X102.0Y-152.0
X102.0Y-153.0
X102.0Y-154.0
X102.0Y-155.0
X102.0Y-156.0
X102.0Y-157.0
X102.0Y-158.0
X102.0Y-159.0
X102.0Y-160.0
X102.0Y-161.0
X102.0Y-162.0
X102.0Y-163.0
X102.0Y-164.0
X102.0Y-165.0
X102.0Y-166.0
X102.0Y-167.0
X102.0Y-168.0
X102.0Y-169.0
X102.5Y-116.0
X103.0Y-122.0
X103.0Y-123.0
X103.0Y-124.0
X103.0Y-139.0
X103.0Y-140.0
X103.0Y-141.0
X103.0Y-142.0
X103.0Y-143.0
X103.0Y-144.0
X103.0Y-145.0
X103.0Y-146.0
X103.0Y-147.0
X103.0Y-148.0
X103.0Y-149.0
X103.0Y-150.0
X103.0Y-151.0
X103.0Y-152.0
X103.0Y-153.0
X103.0Y-154.0
X103.0Y-155.0
X103.0Y-156.0
X103.0Y-157.0
X103.0Y-158.0
X103.0Y-159.0
X103.0Y-160.0
X103.0Y-161.0
X103.0Y-162.0
X103.0Y-163.0
X103.0Y-164.0
X103.0Y-165.0
X103.0Y-166.0
X103.0Y-167.0
X103.0Y-168.0
X103.0Y-169.0
X104.0Y-35.75
X104.0Y-122.0
X104.0Y-123.0
X104.0Y-124.0
X104.0Y-139.0
X104.0Y-140.0
X104.0Y-141.0
X104.0Y-142.0
X104.0Y-143.0
X104.0Y-144.0
X104.0Y-145.0
X104.0Y-146.0
X104.0Y-147.0
X104.0Y-148.0
X104.0Y-149.0
X104.0Y-150.0
X104.0Y-151.0
X104.0Y-152.0
X104.0Y-153.0
X104.0Y-154.0
X104.0Y-155.0
X104.0Y-156.0
X104.0Y-157.0
X104.0Y-158.0
X104.0Y-159.0
X104.0Y-160.0
X104.0Y-161.0
X104.0Y-162.0
X104.0Y-163.0
X104.0Y-164.0
X104.0Y-165.0
X104.0Y-166.0
X104.0Y-167.0
X104.0Y-168.0
X104.0Y-169.0
X105.0Y-122.0
X105.0Y-123.0
X105.0Y-124.0
X105.0Y-139.0
X105.0Y-140.0
X105.0Y-151.0
X105.0Y-152.0
X105.0Y-153.0
X105.0Y-154.0
X105.0Y-155.0
X105.0Y-156.0
X105.0Y-157.0
X105.0Y-158.0
X105.0Y-159.0
X105.0Y-160.0
X105.0Y-161.0
X105.0Y-162.0
X105.0Y-163.0
X105.0Y-164.0
X105.0Y-165.0
X105.0Y-166.0
X105.0Y-167.0
X105.0Y-168.0
X105.0Y-169.0
X106.0Y-122.0
X106.0Y-123.0
X106.0Y-124.0
X106.0Y-139.0
X106.0Y-140.0
X106.0Y-151.0
X106.0Y-152.0
X106.0Y-153.0
X106.0Y-154.0
X106.0Y-155.0
X106.0Y-156.0
X106.0Y-157.0
X106.0Y-158.0
X106.0Y-159.0
X106.0Y-160.0
X106.0Y-161.0
X106.0Y-162.0
X106.0Y-163.0
X106.0Y-164.0
X106.0Y-165.0
X106.0Y-166.0
X106.0Y-167.0
X106.0Y-168.0
X106.0Y-169.0
X106.5Y-61.5
X107.0Y-35.0
X107.0Y-122.0
X107.0Y-123.0
X107.0Y-124.0
X107.0Y-139.0
X107.0Y-140.0
X107.0Y-151.0
X107.0Y-152.0
X107.0Y-153.0
X107.0Y-154.0
X107.0Y-155.0
X107.0Y-156.0
X107.0Y-157.0
X107.0Y-158.0
X107.0Y-159.0
X107.0Y-160.0
X107.0Y-161.0
X107.0Y-162.0
X107.0Y-163.0
X107.0Y-164.0
X107.0Y-165.0
X107.0Y-166.0
X107.0Y-167.0
X107.0Y-168.0
X107.0Y-169.0
X107.875Y-35.875
X108.0Y-122.0
X108.0Y-123.0
X108.0Y-124.0
X108.0Y-139.0
X108.0Y-140.0
X108.0Y-151.0
X108.0Y-152.0
X108.0Y-153.0
X108.0Y-154.0
X108.0Y-155.0
X108.0Y-156.0
X108.0Y-157.0
X108.0Y-158.0
X108.0Y-159.0
X108.0Y-160.0
X108.0Y-161.0
X108.0Y-162.0
X108.0Y-163.0
X108.0Y-164.0
X108.0Y-165.0
X108.0Y-166.0
X108.0Y-167.0
X108.0Y-168.0
X108.0Y-169.0
X109.0Y-41.0
X109.0Y-122.0
X109.0Y-123.0
X109.0Y-124.0
X109.0Y-139.0
X109.0Y-140.0
X109.0Y-151.0
X109.0Y-152.0
X109.0Y-153.0
X109.0Y-154.0
X109.0Y-155.0
X109.0Y-156.0
X109.0Y-157.0
X109.0Y-158.0
X109.0Y-159.0
X109.0Y-160.0
X109.0Y-161.0
X109.0Y-162.0
X109.0Y-163.0
X109.0Y-164.0
X109.0Y-165.0
X109.0Y-166.0
X109.0Y-167.0
X109.0Y-168.0
X109.0Y-169.0
X109.25Y-101.25
X109.25Y-115.25
X109.75Y-59.0
X109.75Y-67.75
X109.75Y-81.25
X110.0Y-84.0
X110.0Y-122.0
X110.0Y-123.0
X110.0Y-124.0
X110.0Y-139.0
X110.0Y-140.0
X110.0Y-151.0
X110.0Y-152.0
X110.0Y-153.0
X110.0Y-154.0
X110.0Y-155.0
X110.0Y-156.0
X110.0Y-157.0
X110.0Y-158.0
X110.0Y-159.0
X110.0Y-160.0
X110.0Y-161.0
X110.0Y-162.0
X110.0Y-163.0
X110.0Y-164.0
X110.0Y-165.0
X110.0Y-166.0
X110.0Y-167.0
X110.0Y-168.0
X110.0Y-169.0
X111.0Y-36.0
X111.0Y-70.75
X111.0Y-106.0
X111.0Y-122.0
X111.0Y-123.0
X111.0Y-124.0
X111.0Y-139.0
X111.0Y-140.0
X111.0Y-151.0
X111.0Y-152.0
X111.0Y-153.0
X111.0Y-154.0
X111.0Y-155.0
X111.0Y-156.0
X111.0Y-157.0
X111.0Y-158.0
X111.0Y-159.0
X111.0Y-160.0
X111.0Y-161.0
X111.0Y-162.0
X111.0Y-163.0
X111.0Y-164.0
X111.0Y-165.0
X111.0Y-166.0
X111.0Y-167.0
X111.0Y-168.0
X111.0Y-169.0
X112.0Y-122.0
X112.0Y-123.0
X112.0Y-124.0
X112.0Y-139.0
X112.0Y-140.0
X112.0Y-151.0
X112.0Y-152.0
X112.0Y-153.0
X112.0Y-154.0
X112.0Y-155.0
X112.0Y-156.0
X112.0Y-157.0
X112.0Y-158.0
X112.0Y-159.0
X112.0Y-160.0
X112.0Y-161.0
X112.0Y-162.0
X112.0Y-163.0
X112.0Y-164.0
X112.0Y-165.0
X112.0Y-166.0
X112.0Y-167.0
X112.0Y-168.0
X112.0Y-169.0
X112.75Y-110.0
X112.75Y-114.75
X113.0Y-122.0
X113.0Y-123.0
X113.0Y-124.0
X113.0Y-139.0
X113.0Y-140.0
X113.0Y-151.0
X113.0Y-152.0
X113.0Y-153.0
X113.0Y-154.0
X113.0Y-155.0
X113.0Y-156.0
X113.0Y-157.0
X113.0Y-158.0
X113.0Y-159.0
X113.0Y-160.0
X113.0Y-161.0
X113.0Y-162.0
X113.0Y-163.0
X113.0Y-164.0
X113.0Y-165.0
X113.0Y-166.0
X113.0Y-167.0
X113.0Y-168.0
X113.0Y-169.0
X113.25Y-74.0
X113.25Y-80.25
X113.25Y-95.0
X113.35Y-111.25
X113.5Y-42.25
X113.5Y-61.0
X113.5Y-69.0
X114.0Y-122.0
X114.0Y-123.0
X114.0Y-124.0
X114.0Y-139.0
X114.0Y-140.0
X114.0Y-151.0
X114.0Y-152.0
X114.0Y-153.0
X114.0Y-154.0
X114.0Y-155.0
X114.0Y-156.0
X114.0Y-157.0
X114.0Y-158.0
X114.0Y-159.0
X114.0Y-160.0
X114.0Y-161.0
X114.0Y-162.0
X114.0Y-163.0
X114.0Y-164.0
X114.0Y-165.0
X114.0Y-166.0
X114.0Y-167.0
X114.0Y-168.0
X114.0Y-169.0
X114.5Y-69.0
X114.5Y-113.79
X115.0Y-122.0
X115.0Y-123.0
X115.0Y-124.0
X115.0Y-139.0
X115.0Y-140.0
X115.0Y-151.0
X115.0Y-152.0
X115.0Y-153.0
X115.0Y-154.0
X115.0Y-166.0
X115.0Y-167.0
X115.0Y-168.0
X115.0Y-169.0
X115.25Y-65.0
X116.0Y-122.0
X116.0Y-123.0
X116.0Y-124.0
X116.0Y-139.0
X116.0Y-140.0
X116.0Y-141.0
X116.0Y-142.0
X116.0Y-143.0
X116.0Y-144.0
X116.0Y-145.0
X116.0Y-146.0
X116.0Y-147.0
X116.0Y-148.0
X116.0Y-149.0
X116.0Y-150.0
X116.0Y-151.0
X116.0Y-152.0
X116.0Y-153.0
X116.0Y-154.0
X116.0Y-166.0
X116.0Y-167.0
X116.0Y-168.0
X116.0Y-169.0
X117.0Y-122.0
X117.0Y-123.0
X117.0Y-124.0
X117.0Y-139.0
X117.0Y-140.0
X117.0Y-141.0
X117.0Y-142.0
X117.0Y-143.0
X117.0Y-144.0
X117.0Y-145.0
X117.0Y-146.0
X117.0Y-147.0
X117.0Y-148.0
X117.0Y-149.0
X117.0Y-150.0
X117.0Y-151.0
X117.0Y-152.0
X117.0Y-153.0
X117.0Y-154.0
X117.0Y-166.0
X117.0Y-167.0
X117.0Y-168.0
X117.0Y-169.0
X117.25Y-80.25
X117.5Y-79.0
X118.0Y-80.75
X118.0Y-122.0
X118.0Y-123.0
X118.0Y-124.0
X118.0Y-139.0
X118.0Y-140.0
X118.0Y-141.0
X118.0Y-142.0
X118.0Y-143.0
X118.0Y-144.0
X118.0Y-145.0
X118.0Y-146.0
X118.0Y-147.0
X118.0Y-148.0
X118.0Y-149.0
X118.0Y-150.0
X118.0Y-151.0
X118.0Y-152.0
X118.0Y-153.0
X118.0Y-154.0
X118.0Y-166.0
X118.0Y-167.0
X118.0Y-168.0
X118.0Y-169.0
X119.0Y-122.0
X119.0Y-123.0
X119.0Y-124.0
X119.0Y-125.0
X119.0Y-126.0
X119.0Y-127.0
X119.0Y-128.0
X119.0Y-129.0
X119.0Y-130.0
X119.0Y-131.0
X119.0Y-132.0
X119.0Y-133.0
X119.0Y-134.0
X119.0Y-135.0
X119.0Y-136.0
X119.0Y-137.0
X119.0Y-138.0
X119.0Y-139.0
X119.0Y-140.0
X119.0Y-141.0
X119.0Y-142.0
X119.0Y-143.0
X119.0Y-144.0
X119.0Y-145.0
X119.0Y-146.0
X119.0Y-147.0
X119.0Y-148.0
X119.0Y-149.0
X119.0Y-150.0
X119.0Y-151.0
X119.0Y-152.0
X119.0Y-153.0
X119.0Y-154.0
X119.0Y-166.0
X119.0Y-167.0
X119.0Y-168.0
X119.0Y-169.0
X119.25Y-81.75
X120.0Y-122.0
X120.0Y-123.0
X120.0Y-124.0
X120.0Y-125.0
X120.0Y-126.0
X120.0Y-127.0
X120.0Y-128.0
X120.0Y-129.0
X120.0Y-130.0
X120.0Y-131.0
X120.0Y-132.0
X120.0Y-133.0
X120.0Y-134.0
X120.0Y-135.0
X120.0Y-136.0
X120.0Y-137.0
X120.0Y-138.0
X120.0Y-139.0
X120.0Y-140.0
X120.0Y-141.0
X120.0Y-142.0
X120.0Y-143.0
X120.0Y-144.0
X120.0Y-145.0
X120.0Y-146.0
X120.0Y-147.0
X120.0Y-148.0
X120.0Y-149.0
X120.0Y-150.0
X120.0Y-151.0
X120.0Y-152.0
X120.0Y-153.0
X120.0Y-154.0
X120.0Y-166.0
X120.0Y-167.0
X120.0Y-168.0
X120.0Y-169.0
X121.0Y-122.0
X121.0Y-123.0
X121.0Y-124.0
X121.0Y-125.0
X121.0Y-126.0
X121.0Y-127.0
X121.0Y-128.0
X121.0Y-129.0
X121.0Y-130.0
X121.0Y-131.0
X121.0Y-132.0
X121.0Y-133.0
X121.0Y-134.0
X121.0Y-135.0
X121.0Y-136.0
X121.0Y-137.0
X121.0Y-138.0
X121.0Y-139.0
X121.0Y-140.0
X121.0Y-141.0
X121.0Y-142.0
X121.0Y-143.0
X121.0Y-144.0
X121.0Y-145.0
X121.0Y-146.0
X121.0Y-147.0
X121.0Y-148.0
X121.0Y-149.0
X121.0Y-150.0
X121.0Y-151.0
X121.0Y-152.0
X121.0Y-153.0
X121.0Y-154.0
X121.0Y-166.0
X121.0Y-167.0
X121.0Y-168.0
X121.0Y-169.0
X122.0Y-122.0
X122.0Y-123.0
X122.0Y-124.0
X122.0Y-125.0
X122.0Y-126.0
X122.0Y-127.0
X122.0Y-128.0
X122.0Y-129.0
X122.0Y-130.0
X122.0Y-131.0
X122.0Y-132.0
X122.0Y-133.0
X122.0Y-134.0
X122.0Y-135.0
X122.0Y-136.0
X122.0Y-137.0
X122.0Y-138.0
X122.0Y-139.0
X122.0Y-140.0
X122.0Y-141.0
X122.0Y-142.0
X122.0Y-143.0
X122.0Y-144.0
X122.0Y-145.0
X122.0Y-146.0
X122.0Y-147.0
X122.0Y-148.0
X122.0Y-149.0
X122.0Y-150.0
X122.0Y-151.0
X122.0Y-152.0
X122.0Y-153.0
X122.0Y-154.0
X122.0Y-166.0
X122.0Y-167.0
X122.0Y-168.0
X123.0Y-122.0
X123.0Y-123.0
X123.0Y-124.0
X123.0Y-125.0
X123.0Y-126.0
X123.0Y-127.0
X123.0Y-128.0
X123.0Y-129.0
X123.0Y-130.0
X123.0Y-131.0
X123.0Y-132.0
X123.0Y-133.0
X123.0Y-134.0
X123.0Y-135.0
X123.0Y-136.0
X123.0Y-137.0
X123.0Y-138.0
X123.0Y-139.0
X123.0Y-140.0
X123.0Y-141.0
X123.0Y-142.0
X123.0Y-143.0
X123.0Y-144.0
X123.0Y-145.0
X123.0Y-146.0
X123.0Y-147.0
X123.0Y-148.0
X123.0Y-149.0
X123.0Y-150.0
X123.0Y-151.0
X123.0Y-152.0
X123.0Y-153.0
X123.0Y-154.0
X123.0Y-166.0
X123.0Y-167.0
X123.0Y-168.0
X124.0Y-122.0
X124.0Y-123.0
X124.0Y-124.0
X124.0Y-125.0
X124.0Y-126.0
X124.0Y-127.0
X124.0Y-128.0
X124.0Y-129.0
X124.0Y-130.0
X124.0Y-131.0
X124.0Y-132.0
X124.0Y-133.0
X124.0Y-134.0
X124.0Y-135.0
X124.0Y-136.0
X124.0Y-137.0
X124.0Y-138.0
X124.0Y-139.0
X124.0Y-140.0
X124.0Y-141.0
X124.0Y-142.0
X124.0Y-143.0
X124.0Y-144.0
X124.0Y-145.0
X124.0Y-146.0
X124.0Y-147.0
X124.0Y-148.0
X124.0Y-149.0
X124.0Y-150.0
X124.0Y-151.0
X124.0Y-152.0
X124.0Y-153.0
X124.0Y-154.0
X124.0Y-166.0
X124.0Y-167.0
X124.0Y-168.0
X125.0Y-122.0
X125.0Y-123.0
X125.0Y-124.0
X125.0Y-125.0
X125.0Y-126.0
X125.0Y-127.0
X125.0Y-128.0
X125.0Y-129.0
X125.0Y-130.0
X125.0Y-131.0
X125.0Y-132.0
X125.0Y-133.0
X125.0Y-134.0
X125.0Y-135.0
X125.0Y-136.0
X125.0Y-137.0
X125.0Y-138.0
X125.0Y-139.0
X125.0Y-140.0
X125.0Y-141.0
X125.0Y-142.0
X125.0Y-143.0
X125.0Y-144.0
X125.0Y-145.0
X125.0Y-146.0
X125.0Y-147.0
X125.0Y-148.0
X125.0Y-149.0
X125.0Y-150.0
X125.0Y-151.0
X125.0Y-152.0
X125.0Y-153.0
X125.0Y-154.0
X125.0Y-166.0
X125.0Y-167.0
X126.0Y-122.0
X126.0Y-123.0
X126.0Y-124.0
X126.0Y-125.0
X126.0Y-126.0
X126.0Y-127.0
X126.0Y-128.0
X126.0Y-129.0
X126.0Y-130.0
X126.0Y-131.0
X126.0Y-132.0
X126.0Y-133.0
X126.0Y-134.0
X126.0Y-135.0
X126.0Y-136.0
X126.0Y-137.0
X126.0Y-138.0
X126.0Y-139.0
X126.0Y-140.0
X126.0Y-141.0
X126.0Y-142.0
X126.0Y-143.0
X126.0Y-144.0
X126.0Y-145.0
X126.0Y-146.0
X126.0Y-147.0
X126.0Y-148.0
X126.0Y-149.0
X126.0Y-150.0
X126.0Y-151.0
X126.0Y-152.0
X126.0Y-153.0
X126.0Y-154.0
X126.0Y-155.0
X126.0Y-156.0
X126.0Y-157.0
X126.0Y-158.0
X126.0Y-159.0
X126.0Y-160.0
X126.0Y-161.0
X126.0Y-162.0
X126.0Y-163.0
X126.0Y-164.0
X126.0Y-165.0
X126.0Y-166.0
X127.0Y-122.0
X127.0Y-123.0
X127.0Y-124.0
X127.0Y-125.0
X127.0Y-126.0
X127.0Y-127.0
X127.0Y-128.0
X127.0Y-129.0
X127.0Y-130.0
X127.0Y-131.0
X127.0Y-132.0
X127.0Y-133.0
X127.0Y-134.0
X127.0Y-135.0
X127.0Y-136.0
X127.0Y-137.0
X127.0Y-138.0
X127.0Y-139.0
X127.0Y-140.0
X127.0Y-141.0
X127.0Y-142.0
X127.0Y-143.0
X127.0Y-144.0
X127.0Y-145.0
X127.0Y-146.0
X127.0Y-147.0
X127.0Y-148.0
X127.0Y-149.0
X127.0Y-150.0
X127.0Y-151.0
X127.0Y-152.0
X127.0Y-153.0
X127.0Y-154.0
X127.0Y-155.0
X127.0Y-156.0
X127.0Y-157.0
X127.0Y-158.0
X127.0Y-159.0
X127.0Y-160.0
X127.0Y-161.0
X127.0Y-162.0
X127.0Y-163.0
X127.0Y-164.0
X127.0Y-165.0
X128.0Y-122.0
X128.0Y-123.0
X128.0Y-124.0
X128.0Y-125.0
X128.0Y-126.0
X128.0Y-127.0
X128.0Y-128.0
X128.0Y-129.0
X128.0Y-130.0
X128.0Y-131.0
X128.0Y-132.0
X128.0Y-133.0
X128.0Y-134.0
X128.0Y-135.0
X128.0Y-136.0
X128.0Y-137.0
X128.0Y-138.0
X128.0Y-139.0
X128.0Y-140.0
X128.0Y-141.0
X128.0Y-142.0
X128.0Y-143.0
X128.0Y-144.0
X128.0Y-145.0
X128.0Y-146.0
X128.0Y-147.0
X128.0Y-148.0
X128.0Y-149.0
X128.0Y-150.0
X128.0Y-151.0
X128.0Y-152.0
X128.0Y-153.0
X128.0Y-154.0
X128.0Y-155.0
X128.0Y-156.0
X128.0Y-157.0
X128.0Y-158.0
X128.0Y-159.0
X128.0Y-160.0
X128.0Y-161.0
X128.0Y-162.0
X128.0Y-163.0
X128.0Y-164.0
X129.0Y-122.0
X129.0Y-123.0
X129.0Y-124.0
X129.0Y-125.0
X129.0Y-126.0
X129.0Y-127.0
X129.0Y-128.0
X129.0Y-129.0
X129.0Y-130.0
X129.0Y-131.0
X129.0Y-132.0
X129.0Y-133.0
X129.0Y-134.0
X129.0Y-135.0
X129.0Y-136.0
X129.0Y-137.0
X129.0Y-138.0
X129.0Y-139.0
X129.0Y-140.0
X129.0Y-141.0
X129.0Y-142.0
X129.0Y-143.0
X129.0Y-144.0
X129.0Y-145.0
X129.0Y-146.0
X129.0Y-147.0
X129.0Y-148.0
X129.0Y-149.0
X129.0Y-150.0
X129.0Y-151.0
X129.0Y-152.0
X129.0Y-153.0
X129.0Y-154.0
X129.0Y-155.0
X129.0Y-156.0
X129.0Y-157.0
X129.0Y-158.0
X129.0Y-159.0
X129.0Y-160.0
X129.0Y-161.0
X141.0Y-152.0
X141.0Y-153.0
X141.0Y-154.0
X141.0Y-155.0
X141.0Y-156.0
X141.0Y-157.0
X141.0Y-158.0
X141.0Y-159.0
X141.0Y-160.0
X141.0Y-161.0
X142.0Y-152.0
X142.0Y-153.0
X142.0Y-154.0
X142.0Y-155.0
X142.0Y-156.0
X142.0Y-157.0
X142.0Y-158.0
X142.0Y-159.0
X142.0Y-160.0
X142.0Y-161.0
X142.0Y-162.0
X142.0Y-163.0
X142.0Y-164.0
X143.0Y-152.0
X143.0Y-153.0
X143.0Y-154.0
X143.0Y-155.0
X143.0Y-156.0
X143.0Y-157.0
X143.0Y-158.0
X143.0Y-159.0
X143.0Y-160.0
X143.0Y-161.0
X143.0Y-162.0
X143.0Y-163.0
X143.0Y-164.0
X143.0Y-165.0
X144.0Y-152.0
X144.0Y-153.0
X144.0Y-154.0
X144.0Y-155.0
X144.0Y-156.0
X144.0Y-157.0
X144.0Y-158.0
X144.0Y-159.0
X144.0Y-160.0
X144.0Y-161.0
X144.0Y-162.0
X144.0Y-163.0
X144.0Y-164.0
X144.0Y-165.0
X144.0Y-166.0
X145.0Y-152.0
X145.0Y-153.0
X145.0Y-154.0
X145.0Y-166.0
X145.0Y-167.0
X146.0Y-83.0
X146.0Y-84.0
X146.0Y-106.0
X146.0Y-107.0
X146.0Y-129.0
X146.0Y-130.0
X146.0Y-152.0
X146.0Y-153.0
X146.0Y-154.0
X146.0Y-166.0
X146.0Y-167.0
X146.0Y-168.0
X147.0Y-83.0
X147.0Y-84.0
X147.0Y-106.0
X147.0Y-107.0
X147.0Y-129.0
X147.0Y-130.0
X147.0Y-152.0
X147.0Y-153.0
X147.0Y-154.0
X147.0Y-166.0
X147.0Y-167.0
X147.0Y-168.0
X148.0Y-83.0
X148.0Y-84.0
X148.0Y-106.0
X148.0Y-107.0
X148.0Y-129.0
X148.0Y-130.0
X148.0Y-152.0
X148.0Y-153.0
X148.0Y-154.0
X148.0Y-166.0
X148.0Y-167.0
X148.0Y-168.0
X149.0Y-83.0
X149.0Y-84.0
X149.0Y-106.0
X149.0Y-107.0
X149.0Y-129.0
X149.0Y-130.0
X149.0Y-152.0
X149.0Y-153.0
X149.0Y-154.0
X149.0Y-166.0
X149.0Y-167.0
X149.0Y-168.0
X149.0Y-169.0
X150.0Y-83.0
X150.0Y-84.0
X150.0Y-106.0
X150.0Y-107.0
X150.0Y-129.0
X150.0Y-130.0
X150.0Y-152.0
X150.0Y-153.0
X150.0Y-154.0
X150.0Y-166.0
X150.0Y-167.0
X150.0Y-168.0
X150.0Y-169.0
X151.0Y-62.0
X151.0Y-63.0
X151.0Y-64.0
X151.0Y-65.0
X151.0Y-66.0
X151.0Y-67.0
X151.0Y-68.0
X151.0Y-76.0
X151.0Y-77.0
X151.0Y-78.0
X151.0Y-79.0
X151.0Y-80.0
X151.0Y-81.0
X151.0Y-82.0
X151.0Y-83.0
X151.0Y-84.0
X151.0Y-85.0
X151.0Y-86.0
X151.0Y-87.0
X151.0Y-88.0
X151.0Y-89.0
X151.0Y-99.0
X151.0Y-100.0
X151.0Y-101.0
X151.0Y-102.0
X151.0Y-103.0
X151.0Y-104.0
X151.0Y-105.0
X151.0Y-132.0
X151.0Y-133.0
X151.0Y-134.0
X151.0Y-135.0
X151.0Y-136.0
X151.0Y-145.0
X151.0Y-146.0
X151.0Y-147.0
X151.0Y-148.0
X151.0Y-149.0
X151.0Y-150.0
X151.0Y-151.0
X151.0Y-152.0
X151.0Y-153.0
X151.0Y-154.0
X151.0Y-166.0
X151.0Y-167.0
X151.0Y-168.0
X151.0Y-169.0
X152.0Y-62.0
X152.0Y-63.0
X152.0Y-64.0
X152.0Y-65.0
X152.0Y-66.0
X152.0Y-67.0
X152.0Y-68.0
X152.0Y-76.0
X152.0Y-77.0
X152.0Y-78.0
X152.0Y-79.0
X152.0Y-80.0
X152.0Y-81.0
X152.0Y-82.0
X152.0Y-83.0
X152.0Y-84.0
X152.0Y-85.0
X152.0Y-86.0
X152.0Y-87.0
X152.0Y-88.0
X152.0Y-89.0
X152.0Y-99.0
X152.0Y-100.0
X152.0Y-101.0
X152.0Y-102.0
X152.0Y-103.0
X152.0Y-104.0
X152.0Y-105.0
X152.0Y-132.0
X152.0Y-133.0
X152.0Y-134.0
X152.0Y-135.0
X152.0Y-136.0
X152.0Y-145.0
X152.0Y-146.0
X152.0Y-147.0
X152.0Y-148.0
X152.0Y-149.0
X152.0Y-150.0
X152.0Y-151.0
X152.0Y-152.0
X152.0Y-153.0
X152.0Y-154.0
X152.0Y-166.0
X152.0Y-167.0
X152.0Y-168.0
X152.0Y-169.0
X153.0Y-62.0
X153.0Y-63.0
X153.0Y-64.0
X153.0Y-65.0
X153.0Y-66.0
X153.0Y-67.0
X153.0Y-68.0
X153.0Y-76.0
X153.0Y-77.0
X153.0Y-78.0
X153.0Y-79.0
X153.0Y-80.0
X153.0Y-81.0
X153.0Y-82.0
X153.0Y-83.0
X153.0Y-84.0
X153.0Y-85.0
X153.0Y-86.0
X153.0Y-87.0
X153.0Y-88.0
X153.0Y-89.0
X153.0Y-99.0
X153.0Y-100.0
X153.0Y-101.0
X153.0Y-102.0
X153.0Y-103.0
X153.0Y-104.0
X153.0Y-105.0
X153.0Y-132.0
X153.0Y-133.0
X153.0Y-134.0
X153.0Y-135.0
X153.0Y-136.0
X153.0Y-145.0
X153.0Y-146.0
X153.0Y-147.0
X153.0Y-148.0
X153.0Y-149.0
X153.0Y-150.0
X153.0Y-151.0
X153.0Y-152.0
X153.0Y-153.0
X153.0Y-154.0
X153.0Y-166.0
X153.0Y-167.0
X153.0Y-168.0
X153.0Y-169.0
X154.0Y-62.0
X154.0Y-63.0
X154.0Y-64.0
X154.0Y-65.0
X154.0Y-66.0
X154.0Y-67.0
X154.0Y-68.0
X154.0Y-76.0
X154.0Y-77.0
X154.0Y-78.0
X154.0Y-79.0
X154.0Y-80.0
X154.0Y-81.0
X154.0Y-82.0
X154.0Y-83.0
X154.0Y-84.0
X154.0Y-85.0
X154.0Y-86.0
X154.0Y-87.0
X154.0Y-88.0
X154.0Y-89.0
X154.0Y-98.0
X154.0Y-99.0
X154.0Y-100.0
X154.0Y-101.0
X154.0Y-102.0
X154.0Y-103.0
X154.0Y-104.0
X154.0Y-105.0
X154.0Y-132.0
X154.0Y-133.0
X154.0Y-134.0
X154.0Y-135.0
X154.0Y-136.0
X154.0Y-142.0
X154.0Y-143.0
X154.0Y-145.0
X154.0Y-146.0
X154.0Y-147.0
X154.0Y-148.0
X154.0Y-149.0
X154.0Y-150.0
X154.0Y-151.0
X154.0Y-152.0
X154.0Y-153.0
X154.0Y-154.0
X154.0Y-166.0
X154.0Y-167.0
X154.0Y-168.0
X154.0Y-169.0
X155.0Y-62.0
X155.0Y-63.0
X155.0Y-64.0
X155.0Y-65.0
X155.0Y-66.0
X155.0Y-67.0
X155.0Y-68.0
X155.0Y-76.0
X155.0Y-77.0
X155.0Y-78.0
X155.0Y-79.0
X155.0Y-80.0
X155.0Y-81.0
X155.0Y-82.0
X155.0Y-83.0
X155.0Y-84.0
X155.0Y-85.0
X155.0Y-86.0
X155.0Y-87.0
X155.0Y-88.0
X155.0Y-89.0
X155.0Y-97.0
X155.0Y-98.0
X155.0Y-99.0
X155.0Y-100.0
X155.0Y-101.0
X155.0Y-102.0
X155.0Y-103.0
X155.0Y-104.0
X155.0Y-105.0
X155.0Y-132.0
X155.0Y-133.0
X155.0Y-134.0
X155.0Y-135.0
X155.0Y-136.0
X155.0Y-142.0
X155.0Y-143.0
X155.0Y-145.0
X155.0Y-146.0
X155.0Y-147.0
X155.0Y-148.0
X155.0Y-149.0
X155.0Y-150.0
X155.0Y-151.0
X155.0Y-152.0
X155.0Y-153.0
X155.0Y-154.0
X155.0Y-166.0
X155.0Y-167.0
X155.0Y-168.0
X155.0Y-169.0
X156.0Y-62.0
X156.0Y-63.0
X156.0Y-64.0
X156.0Y-65.0
X156.0Y-66.0
X156.0Y-67.0
X156.0Y-68.0
X156.0Y-76.0
X156.0Y-77.0
X156.0Y-78.0
X156.0Y-79.0
X156.0Y-80.0
X156.0Y-81.0
X156.0Y-82.0
X156.0Y-83.0
X156.0Y-84.0
X156.0Y-85.0
X156.0Y-86.0
X156.0Y-87.0
X156.0Y-88.0
X156.0Y-89.0
X156.0Y-97.0
X156.0Y-98.0
X156.0Y-99.0
X156.0Y-100.0
X156.0Y-101.0
X156.0Y-102.0
X156.0Y-103.0
X156.0Y-104.0
X156.0Y-105.0
X156.0Y-110.0
X156.0Y-111.0
X156.0Y-112.0
X156.0Y-113.0
X156.0Y-114.0
X156.0Y-115.0
X156.0Y-116.0
X156.0Y-117.0
X156.0Y-118.0
X156.0Y-119.0
X156.0Y-120.0
X156.0Y-121.0
X156.0Y-122.0
X156.0Y-123.0
X156.0Y-124.0
X156.0Y-125.0
X156.0Y-126.0
X156.0Y-132.0
X156.0Y-133.0
X156.0Y-134.0
X156.0Y-135.0
X156.0Y-136.0
X156.0Y-142.0
X156.0Y-143.0
X156.0Y-145.0
X156.0Y-146.0
X156.0Y-147.0
X156.0Y-148.0
X156.0Y-149.0
X156.0Y-150.0
X156.0Y-151.0
X156.0Y-152.0
X156.0Y-153.0
X156.0Y-154.0
X156.0Y-155.0
X156.0Y-156.0
X156.0Y-157.0
X156.0Y-158.0
X156.0Y-159.0
X156.0Y-160.0
X156.0Y-161.0
X156.0Y-162.0
X156.0Y-163.0
X156.0Y-164.0
X156.0Y-165.0
X156.0Y-166.0
X156.0Y-167.0
X156.0Y-168.0
X156.0Y-169.0
X157.0Y-62.0
X157.0Y-63.0
X157.0Y-64.0
X157.0Y-65.0
X157.0Y-66.0
X157.0Y-67.0
X157.0Y-68.0
X157.0Y-76.0
X157.0Y-77.0
X157.0Y-78.0
X157.0Y-79.0
X157.0Y-80.0
X157.0Y-81.0
X157.0Y-82.0
X157.0Y-83.0
X157.0Y-84.0
X157.0Y-85.0
X157.0Y-86.0
X157.0Y-87.0
X157.0Y-88.0
X157.0Y-89.0
X157.0Y-97.0
X157.0Y-98.0
X157.0Y-99.0
X157.0Y-100.0
X157.0Y-101.0
X157.0Y-102.0
X157.0Y-103.0
X157.0Y-104.0
X157.0Y-105.0
X157.0Y-110.0
X157.0Y-111.0
X157.0Y-112.0
X157.0Y-113.0
X157.0Y-114.0
X157.0Y-115.0
X157.0Y-116.0
X157.0Y-117.0
X157.0Y-118.0
X157.0Y-119.0
X157.0Y-120.0
X157.0Y-121.0
X157.0Y-122.0
X157.0Y-123.0
X157.0Y-124.0
X157.0Y-125.0
X157.0Y-126.0
X157.0Y-132.0
X157.0Y-133.0
X157.0Y-134.0
X157.0Y-135.0
X157.0Y-136.0
X157.0Y-145.0
X157.0Y-146.0
X157.0Y-147.0
X157.0Y-148.0
X157.0Y-152.0
X157.0Y-153.0
X157.0Y-154.0
X157.0Y-155.0
X157.0Y-156.0
X157.0Y-157.0
X157.0Y-158.0
X157.0Y-159.0
X157.0Y-160.0
X157.0Y-161.0
X157.0Y-162.0
X157.0Y-163.0
X157.0Y-164.0
X157.0Y-165.0
X157.0Y-166.0
X157.0Y-167.0
X157.0Y-168.0
X157.0Y-169.0
X158.0Y-62.0
X158.0Y-63.0
X158.0Y-64.0
X158.0Y-65.0
X158.0Y-66.0
X158.0Y-67.0
X158.0Y-68.0
X158.0Y-76.0
X158.0Y-77.0
X158.0Y-78.0
X158.0Y-79.0
X158.0Y-80.0
X158.0Y-81.0
X158.0Y-82.0
X158.0Y-83.0
X158.0Y-84.0
X158.0Y-85.0
X158.0Y-86.0
X158.0Y-87.0
X158.0Y-88.0
X158.0Y-89.0
X158.0Y-97.0
X158.0Y-98.0
X158.0Y-99.0
X158.0Y-100.0
X158.0Y-116.0
X158.0Y-117.0
X158.0Y-124.0
X158.0Y-125.0
X158.0Y-126.0
X158.0Y-133.0
X158.0Y-134.0
X158.0Y-135.0
X158.0Y-136.0
X158.0Y-166.0
X158.0Y-167.0
X158.0Y-168.0
X158.0Y-169.0
X159.0Y-62.0
X159.0Y-63.0
X159.0Y-64.0
X159.0Y-65.0
X159.0Y-66.0
X159.0Y-67.0
X159.0Y-68.0
X159.0Y-76.0
X159.0Y-77.0
X159.0Y-78.0
X159.0Y-79.0
X159.0Y-80.0
X159.0Y-81.0
X159.0Y-82.0
X159.0Y-83.0
X159.0Y-84.0
X159.0Y-85.0
X159.0Y-86.0
X159.0Y-87.0
X159.0Y-88.0
X159.0Y-89.0
X159.0Y-116.0
X159.0Y-117.0
X159.0Y-136.0
X159.0Y-166.0
X159.0Y-167.0
X159.0Y-168.0
X159.0Y-169.0
X160.0Y-62.0
X160.0Y-63.0
X160.0Y-64.0
X160.0Y-65.0
X160.0Y-66.0
X160.0Y-67.0
X160.0Y-68.0
X160.0Y-76.0
X160.0Y-77.0
X160.0Y-78.0
X160.0Y-79.0
X160.0Y-80.0
X160.0Y-81.0
X160.0Y-82.0
X160.0Y-83.0
X160.0Y-84.0
X160.0Y-85.0
X160.0Y-86.0
X160.0Y-87.0
X160.0Y-88.0
X160.0Y-89.0
X160.0Y-116.0
X160.0Y-117.0
X160.0Y-136.0
X160.0Y-166.0
X160.0Y-167.0
X160.0Y-168.0
X160.0Y-169.0
X161.0Y-62.0
X161.0Y-63.0
X161.0Y-64.0
X161.0Y-65.0
X161.0Y-66.0
X161.0Y-67.0
X161.0Y-68.0
X161.0Y-76.0
X161.0Y-77.0
X161.0Y-78.0
X161.0Y-79.0
X161.0Y-80.0
X161.0Y-81.0
X161.0Y-82.0
X161.0Y-83.0
X161.0Y-84.0
X161.0Y-85.0
X161.0Y-86.0
X161.0Y-87.0
X161.0Y-88.0
X161.0Y-89.0
X161.0Y-116.0
X161.0Y-117.0
X161.0Y-166.0
X161.0Y-167.0
X161.0Y-168.0
X161.0Y-169.0
X162.0Y-62.0
X162.0Y-63.0
X162.0Y-64.0
X162.0Y-65.0
X162.0Y-66.0
X162.0Y-67.0
X162.0Y-68.0
X162.0Y-76.0
X162.0Y-77.0
X162.0Y-78.0
X162.0Y-79.0
X162.0Y-80.0
X162.0Y-81.0
X162.0Y-82.0
X162.0Y-83.0
X162.0Y-84.0
X162.0Y-85.0
X162.0Y-86.0
X162.0Y-87.0
X162.0Y-88.0
X162.0Y-89.0
X162.0Y-116.0
X162.0Y-117.0
X162.0Y-166.0
X162.0Y-167.0
X162.0Y-168.0
X162.0Y-169.0
X163.0Y-142.75
X163.0Y-166.0
X163.0Y-167.0
X163.0Y-168.0
X163.0Y-169.0
X164.0Y-107.0
X164.0Y-108.0
X164.0Y-109.0
X164.0Y-110.0
X164.0Y-111.0
X164.0Y-112.0
X164.0Y-113.0
X164.0Y-114.0
X164.0Y-115.0
X164.0Y-116.0
X164.0Y-117.0
X164.0Y-118.0
X164.0Y-119.0
X164.0Y-120.0
X164.0Y-121.0
X164.0Y-122.0
X164.0Y-123.0
X164.0Y-124.0
X164.0Y-125.0
X164.0Y-126.0
X164.088Y-28.5
X164.75Y-61.0
X164.75Y-139.25
X165.5Y-49.75
X166.0Y-62.0
X166.0Y-63.0
X166.0Y-64.0
X166.0Y-65.0
X166.0Y-66.0
X166.0Y-67.0
X166.0Y-68.0
X166.0Y-76.0
X166.0Y-77.0
X166.0Y-78.0
X166.0Y-79.0
X166.0Y-80.0
X166.0Y-81.0
X166.0Y-82.0
X166.0Y-83.0
X166.0Y-84.0
X166.0Y-85.0
X166.0Y-86.0
X166.0Y-87.0
X166.0Y-107.0
X166.0Y-108.0
X166.0Y-109.0
X166.0Y-110.0
X166.0Y-111.0
X166.0Y-112.0
X166.0Y-113.0
X166.0Y-114.0
X166.0Y-115.0
X166.0Y-116.0
X166.0Y-117.0
X166.0Y-118.0
X166.0Y-119.0
X166.0Y-120.0
X166.0Y-121.0
X166.0Y-122.0
X166.0Y-123.0
X166.0Y-124.0
X166.0Y-125.0
X166.0Y-126.0
X166.25Y-45.75
X166.5Y-47.5
X167.0Y-62.0
X167.0Y-63.0
X167.0Y-64.0
X167.0Y-65.0
X167.0Y-66.0
X167.0Y-67.0
X167.0Y-68.0
X167.0Y-76.0
X167.0Y-77.0
X167.0Y-78.0
X167.0Y-79.0
X167.0Y-80.0
X167.0Y-81.0
X167.0Y-82.0
X167.0Y-83.0
X167.0Y-84.0
X167.0Y-85.0
X167.0Y-86.0
X167.0Y-87.0
X167.0Y-166.0
X167.0Y-167.0
X167.0Y-168.0
X167.0Y-169.0
X168.0Y-62.0
X168.0Y-63.0
X168.0Y-64.0
X168.0Y-65.0
X168.0Y-66.0
X168.0Y-67.0
X168.0Y-68.0
X168.0Y-76.0
X168.0Y-77.0
X168.0Y-78.0
X168.0Y-79.0
X168.0Y-80.0
X168.0Y-81.0
X168.0Y-82.0
X168.0Y-83.0
X168.0Y-84.0
X168.0Y-85.0
X168.0Y-86.0
X168.0Y-87.0
X168.0Y-99.0
X168.0Y-107.0
X168.0Y-108.0
X168.0Y-109.0
X168.0Y-110.0
X168.0Y-111.0
X168.0Y-112.0
X168.0Y-115.0
X168.0Y-116.0
X168.0Y-117.0
X168.0Y-118.0
X168.0Y-119.0
X168.0Y-120.0
X168.0Y-121.0
X168.0Y-124.0
X168.0Y-125.0
X168.0Y-126.0
X168.0Y-133.0
X168.0Y-134.0
X168.0Y-144.0
X168.0Y-166.0
X168.0Y-167.0
X168.0Y-168.0
X168.0Y-169.0
X168.25Y-55.75
X168.25Y-113.5
X168.25Y-122.75
X168.75Y-49.5
X169.0Y-62.0
X169.0Y-63.0
X169.0Y-64.0
X169.0Y-65.0
X169.0Y-66.0
X169.0Y-67.0
X169.0Y-68.0
X169.0Y-76.0
X169.0Y-77.0
X169.0Y-78.0
X169.0Y-79.0
X169.0Y-80.0
X169.0Y-81.0
X169.0Y-82.0
X169.0Y-83.0
X169.0Y-84.0
X169.0Y-85.0
X169.0Y-86.0
X169.0Y-87.0
X169.0Y-99.0
X169.0Y-107.0
X169.0Y-108.0
X169.0Y-115.0
X169.0Y-116.0
X169.0Y-117.0
X169.0Y-124.0
X169.0Y-125.0
X169.0Y-126.0
X169.0Y-133.0
X169.0Y-134.0
X169.0Y-145.0
X169.0Y-146.0
X169.0Y-147.0
X169.0Y-148.0
X169.0Y-149.0
X169.0Y-150.0
X169.0Y-151.0
X169.0Y-152.0
X169.0Y-153.0
X169.0Y-154.0
X169.0Y-155.0
X169.0Y-156.0
X169.0Y-157.0
X169.0Y-158.0
X169.0Y-159.0
X169.0Y-160.0
X169.0Y-161.0
X169.0Y-166.0
X169.0Y-167.0
X169.0Y-168.0
X169.0Y-169.0
X170.0Y-62.0
X170.0Y-63.0
X170.0Y-64.0
X170.0Y-65.0
X170.0Y-66.0
X170.0Y-67.0
X170.0Y-68.0
X170.0Y-76.0
X170.0Y-77.0
X170.0Y-78.0
X170.0Y-79.0
X170.0Y-80.0
X170.0Y-81.0
X170.0Y-82.0
X170.0Y-83.0
X170.0Y-84.0
X170.0Y-85.0
X170.0Y-86.0
X170.0Y-99.0
X170.0Y-107.0
X170.0Y-108.0
X170.0Y-115.0
X170.0Y-116.0
X170.0Y-117.0
X170.0Y-124.0
X170.0Y-125.0
X170.0Y-126.0
X170.0Y-133.0
X170.0Y-134.0
X170.0Y-145.0
X170.0Y-146.0
X170.0Y-147.0
X170.0Y-148.0
X170.0Y-149.0
X170.0Y-150.0
X170.0Y-151.0
X170.0Y-152.0
X170.0Y-153.0
X170.0Y-154.0
X170.0Y-155.0
X170.0Y-156.0
X170.0Y-157.0
X170.0Y-158.0
X170.0Y-159.0
X170.0Y-160.0
X170.0Y-161.0
X170.0Y-166.0
X170.0Y-167.0
X170.0Y-168.0
X170.0Y-169.0
X171.0Y-62.0
X171.0Y-63.0
X171.0Y-64.0
X171.0Y-67.0
X171.0Y-68.0
X171.0Y-76.0
X171.0Y-77.0
X171.0Y-78.0
X171.0Y-79.0
X171.0Y-80.0
X171.0Y-81.0
X171.0Y-82.0
X171.0Y-83.0
X171.0Y-84.0
X171.0Y-85.0
X171.0Y-99.0
X171.0Y-115.0
X171.0Y-116.0
X171.0Y-117.0
X171.0Y-133.0
X171.0Y-134.0
X171.0Y-145.0
X171.0Y-146.0
X171.0Y-147.0
X171.0Y-148.0
X171.0Y-149.0
X171.0Y-150.0
X171.0Y-151.0
X171.0Y-152.0
X171.0Y-153.0
X171.0Y-154.0
X171.0Y-155.0
X171.0Y-156.0
X171.0Y-157.0
X171.0Y-158.0
X171.0Y-159.0
X171.0Y-160.0
X171.0Y-161.0
X171.0Y-162.0
X171.0Y-163.0
X171.0Y-164.0
X171.0Y-165.0
X171.0Y-166.0
X171.0Y-167.0
X171.0Y-168.0
X171.0Y-169.0
X172.0Y-62.0
X172.0Y-63.0
X172.0Y-64.0
X172.0Y-67.0
X172.0Y-68.0
X172.0Y-76.0
X172.0Y-77.0
X172.0Y-78.0
X172.0Y-79.0
X172.0Y-80.0
X172.0Y-81.0
X172.0Y-82.0
X172.0Y-83.0
X172.0Y-84.0
X172.0Y-88.0
X172.0Y-89.0
X172.0Y-99.0
X172.0Y-115.0
X172.0Y-116.0
X172.0Y-117.0
X172.0Y-133.0
X172.0Y-134.0
X172.0Y-137.0
X172.0Y-138.0
X172.0Y-139.0
X172.0Y-140.0
X172.0Y-141.0
X172.0Y-142.0
X172.0Y-143.0
X172.0Y-145.0
X172.0Y-146.0
X172.0Y-147.0
X172.0Y-148.0
X172.0Y-163.0
X172.0Y-164.0
X172.0Y-165.0
X172.0Y-166.0
X172.0Y-167.0
X172.0Y-168.0
X172.0Y-169.0
X173.0Y-62.0
X173.0Y-63.0
X173.0Y-67.0
X173.0Y-68.0
X173.0Y-76.0
X173.0Y-77.0
X173.0Y-78.0
X173.0Y-79.0
X173.0Y-80.0
X173.0Y-81.0
X173.0Y-82.0
X173.0Y-83.0
X173.0Y-87.0
X173.0Y-88.0
X173.0Y-89.0
X173.0Y-99.0
X173.0Y-115.0
X173.0Y-116.0
X173.0Y-117.0
X173.0Y-133.0
X173.0Y-134.0
X173.0Y-137.0
X173.0Y-138.0
X173.0Y-139.0
X173.0Y-140.0
X173.0Y-141.0
X173.0Y-142.0
X173.0Y-143.0
X173.0Y-145.0
X173.0Y-146.0
X173.0Y-147.0
X173.0Y-148.0
X173.0Y-163.0
X173.0Y-164.0
X173.0Y-165.0
X173.0Y-166.0
X173.0Y-167.0
X173.0Y-168.0
X173.0Y-169.0
X173.75Y-92.0
X173.75Y-94.25
X174.0Y-62.0
X174.0Y-67.0
X174.0Y-68.0
X174.0Y-87.0
X174.0Y-88.0
X174.0Y-89.0
X174.0Y-99.0
X174.0Y-115.0
X174.0Y-116.0
X174.0Y-117.0
X174.0Y-133.0
X174.0Y-134.0
X174.0Y-137.0
X174.0Y-138.0
X174.0Y-139.0
X174.0Y-140.0
X174.0Y-141.0
X174.0Y-142.0
X174.0Y-143.0
X174.0Y-145.0
X174.0Y-146.0
X174.0Y-147.0
X174.0Y-148.0
X174.0Y-163.0
X174.0Y-164.0
X174.0Y-165.0
X174.0Y-166.0
X174.0Y-167.0
X174.0Y-168.0
X174.0Y-169.0
X175.0Y-62.0
X175.0Y-99.0
X175.0Y-115.0
X175.0Y-116.0
X175.0Y-117.0
X175.0Y-133.0
X175.0Y-134.0
X175.0Y-137.0
X175.0Y-138.0
X175.0Y-139.0
X175.0Y-140.0
X175.0Y-141.0
X175.0Y-142.0
X175.0Y-143.0
X175.0Y-145.0
X175.0Y-146.0
X175.0Y-147.0
X175.0Y-148.0
X175.0Y-163.0
X175.0Y-167.0
X175.0Y-168.0
X175.0Y-169.0
X176.0Y-62.0
X176.0Y-99.0
X176.0Y-115.0
X176.0Y-116.0
X176.0Y-117.0
X176.0Y-133.0
X176.0Y-134.0
X176.0Y-137.0
X176.0Y-138.0
X176.0Y-139.0
X176.0Y-140.0
X176.0Y-141.0
X176.0Y-142.0
X176.0Y-143.0
X176.0Y-145.0
X176.0Y-146.0
X176.0Y-147.0
X176.0Y-148.0
X176.0Y-163.0
X176.0Y-167.0
X176.0Y-168.0
X176.0Y-169.0
X177.0Y-62.0
X177.0Y-97.0
X177.0Y-98.0
X177.0Y-99.0
X177.0Y-100.0
X177.0Y-101.0
X177.0Y-102.0
X177.0Y-103.0
X177.0Y-104.0
X177.0Y-105.0
X177.0Y-106.0
X177.0Y-107.0
X177.0Y-115.0
X177.0Y-116.0
X177.0Y-117.0
X177.0Y-125.0
X177.0Y-126.0
X177.0Y-127.0
X177.0Y-128.0
X177.0Y-129.0
X177.0Y-130.0
X177.0Y-131.0
X177.0Y-132.0
X177.0Y-133.0
X177.0Y-134.0
X177.0Y-137.0
X177.0Y-138.0
X177.0Y-139.0
X177.0Y-140.0
X177.0Y-141.0
X177.0Y-142.0
X177.0Y-143.0
X177.0Y-145.0
X177.0Y-146.0
X177.0Y-147.0
X177.0Y-148.0
X177.0Y-163.0
X177.0Y-167.0
X177.0Y-168.0
X177.0Y-169.0
X177.25Y-113.5
X177.5Y-122.75
X178.0Y-62.0
X178.0Y-97.0
X178.0Y-98.0
X178.0Y-99.0
X178.0Y-100.0
X178.0Y-101.0
X178.0Y-102.0
X178.0Y-103.0
X178.0Y-104.0
X178.0Y-105.0
X178.0Y-106.0
X178.0Y-107.0
X178.0Y-115.0
X178.0Y-116.0
X178.0Y-117.0
X178.0Y-125.0
X178.0Y-126.0
X178.0Y-127.0
X178.0Y-128.0
X178.0Y-129.0
X178.0Y-130.0
X178.0Y-131.0
X178.0Y-132.0
X178.0Y-133.0
X178.0Y-134.0
X178.0Y-137.0
X178.0Y-138.0
X178.0Y-139.0
X178.0Y-140.0
X178.0Y-141.0
X178.0Y-142.0
X178.0Y-143.0
X178.0Y-163.0
X178.0Y-167.0
X178.0Y-168.0
X178.0Y-169.0
X179.0Y-62.0
X179.0Y-97.0
X179.0Y-98.0
X179.0Y-99.0
X179.0Y-100.0
X179.0Y-101.0
X179.0Y-102.0
X179.0Y-103.0
X179.0Y-104.0
X179.0Y-105.0
X179.0Y-106.0
X179.0Y-107.0
X179.0Y-115.0
X179.0Y-116.0
X179.0Y-117.0
X179.0Y-125.0
X179.0Y-126.0
X179.0Y-127.0
X179.0Y-128.0
X179.0Y-129.0
X179.0Y-130.0
X179.0Y-131.0
X179.0Y-132.0
X179.0Y-133.0
X179.0Y-134.0
X179.0Y-137.0
X179.0Y-138.0
X179.0Y-139.0
X179.0Y-140.0
X179.0Y-141.0
X179.0Y-142.0
X179.0Y-143.0
X179.0Y-167.0
X179.0Y-168.0
X179.0Y-169.0
X180.0Y-62.0
X180.0Y-140.0
X180.0Y-141.0
X180.0Y-142.0
X180.0Y-143.0
X180.0Y-164.0
X180.0Y-165.0
X180.0Y-166.0
X180.0Y-167.0
X180.0Y-168.0
X180.0Y-169.0
X181.0Y-62.0
X181.0Y-140.0
X181.0Y-141.0
X181.0Y-142.0
X181.0Y-143.0
X181.0Y-164.0
X181.0Y-165.0
X181.0Y-166.0
X181.0Y-167.0
X181.0Y-168.0
X181.0Y-169.0
X182.0Y-62.0
X182.0Y-164.0
X182.0Y-165.0
X182.0Y-166.0
X182.0Y-167.0
X182.0Y-168.0
X182.0Y-169.0
X183.0Y-26.75
X183.0Y-57.75
X183.0Y-62.0
X183.0Y-65.0
X183.0Y-66.0
X183.0Y-67.0
X183.0Y-68.0
X183.0Y-69.0
X183.0Y-70.0
X183.0Y-71.0
X183.0Y-145.0
X183.0Y-146.0
X183.0Y-147.0
X183.0Y-164.0
X183.0Y-165.0
X183.0Y-166.0
X183.0Y-167.0
X183.0Y-168.0
X183.0Y-169.0
X184.0Y-62.0
X184.0Y-65.0
X184.0Y-66.0
X184.0Y-67.0
X184.0Y-68.0
X184.0Y-69.0
X184.0Y-70.0
X184.0Y-71.0
X184.0Y-72.0
X184.0Y-76.0
X184.0Y-77.0
X184.0Y-78.0
X184.0Y-79.0
X184.0Y-80.0
X184.0Y-81.0
X184.0Y-82.0
X184.0Y-83.0
X184.0Y-84.0
X184.0Y-85.0
X184.0Y-86.0
X184.0Y-87.0
X184.0Y-88.0
X184.0Y-89.0
X184.0Y-145.0
X184.0Y-146.0
X184.0Y-147.0
X184.0Y-152.0
X184.0Y-153.0
X184.0Y-154.0
X184.0Y-155.0
X184.0Y-164.0
X184.0Y-165.0
X184.0Y-166.0
X184.0Y-167.0
X184.0Y-168.0
X184.0Y-169.0
X184.5Y-29.75
X185.0Y-62.0
X185.0Y-66.0
X185.0Y-67.0
X185.0Y-68.0
X185.0Y-69.0
X185.0Y-70.0
X185.0Y-71.0
X185.0Y-75.0
X185.0Y-76.0
X185.0Y-77.0
X185.0Y-78.0
X185.0Y-79.0
X185.0Y-80.0
X185.0Y-81.0
X185.0Y-82.0
X185.0Y-83.0
X185.0Y-84.0
X185.0Y-85.0
X185.0Y-86.0
X185.0Y-87.0
X185.0Y-88.0
X185.0Y-89.0
X185.0Y-145.0
X185.0Y-146.0
X185.0Y-147.0
X185.0Y-148.0
X185.0Y-149.0
X185.0Y-150.0
X185.0Y-151.0
X185.0Y-152.0
X185.0Y-153.0
X185.0Y-154.0
X185.0Y-155.0
X185.0Y-164.0
X185.0Y-165.0
X185.0Y-166.0
X185.0Y-167.0
X185.0Y-168.0
X185.0Y-169.0
X185.969Y-141.991
X185.969Y-142.991
X186.0Y-140.0
X186.0Y-141.0
X186.0Y-145.0
X186.0Y-146.0
X186.0Y-147.0
X186.0Y-148.0
X186.0Y-149.0
X186.0Y-150.0
X186.0Y-151.0
X186.0Y-152.0
X186.0Y-153.0
X186.0Y-154.0
X186.0Y-155.0
X186.0Y-164.0
X186.0Y-165.0
X186.0Y-166.0
X186.0Y-167.0
X186.0Y-168.0
X186.0Y-169.0
X186.5Y-33.25
X186.969Y-141.991
X186.969Y-142.991
X187.0Y-86.75
X187.0Y-140.0
X187.0Y-141.0
X187.0Y-145.0
X187.0Y-146.0
X187.0Y-147.0
X187.0Y-148.0
X187.0Y-149.0
X187.0Y-150.0
X187.0Y-151.0
X187.0Y-152.0
X187.0Y-153.0
X187.0Y-154.0
X187.0Y-155.0
X187.0Y-164.0
X187.0Y-165.0
X187.0Y-166.0
X187.0Y-167.0
X187.0Y-168.0
X187.0Y-169.0
X187.969Y-140.991
X187.969Y-141.991
X187.969Y-142.991
X188.0Y-140.0
X188.0Y-145.0
X188.0Y-146.0
X188.0Y-147.0
X188.0Y-148.0
X188.0Y-149.0
X188.0Y-150.0
X188.0Y-151.0
X188.0Y-152.0
X188.0Y-153.0
X188.0Y-154.0
X188.0Y-155.0
X188.0Y-164.0
X188.0Y-165.0
X188.0Y-166.0
X188.0Y-167.0
X188.0Y-168.0
X188.0Y-169.0
X188.25Y-43.75
X189.0Y-164.0
X189.0Y-165.0
X189.0Y-166.0
X189.0Y-167.0
X189.0Y-168.0
X189.0Y-169.0
X189.25Y-50.0
X190.0Y-164.0
X190.0Y-165.0
X190.0Y-166.0
X190.0Y-167.0
X190.0Y-168.0
X190.0Y-169.0
X190.25Y-36.5
X190.25Y-46.75
X190.25Y-79.0
X190.5Y-31.25
X191.0Y-96.0
X191.0Y-97.0
X191.0Y-98.0
X191.0Y-99.0
X191.0Y-100.0
X191.0Y-101.0
X191.0Y-102.0
X191.0Y-103.0
X191.0Y-104.0
X191.0Y-105.0
X191.0Y-106.0
X191.0Y-107.0
X191.0Y-108.0
X191.0Y-109.0
X191.0Y-110.0
X191.0Y-111.0
X191.0Y-115.0
X191.0Y-116.0
X191.0Y-117.0
X191.0Y-118.0
X191.0Y-119.0
X191.0Y-120.0
X191.0Y-124.0
X191.0Y-164.0
X191.0Y-165.0
X191.0Y-166.0
X191.0Y-167.0
X191.0Y-168.0
X191.0Y-169.0
X191.97Y-167.002
X191.97Y-168.002
X191.97Y-169.002
X192.0Y-42.25
X192.0Y-66.0
X192.0Y-95.0
X192.0Y-96.0
X192.0Y-97.0
X192.0Y-98.0
X192.0Y-99.0
X192.0Y-100.0
X192.0Y-101.0
X192.0Y-102.0
X192.0Y-103.0
X192.0Y-104.0
X192.0Y-105.0
X192.0Y-106.0
X192.0Y-107.0
X192.0Y-108.0
X192.0Y-109.0
X192.0Y-110.0
X192.0Y-111.0
X192.0Y-115.0
X192.0Y-116.0
X192.0Y-117.0
X192.0Y-118.0
X192.0Y-119.0
X192.0Y-120.0
X192.0Y-124.0
X192.0Y-164.0
X192.0Y-165.0
X192.0Y-166.0
X192.25Y-86.5
X192.253Y-41.491
X192.527Y-45.435
X193.0Y-33.75
X193.0Y-94.0
X193.0Y-95.0
X193.0Y-96.0
X193.0Y-97.0
X193.0Y-98.0
X193.0Y-99.0
X193.0Y-100.0
X193.0Y-101.0
X193.0Y-102.0
X193.0Y-103.0
X193.0Y-104.0
X193.0Y-105.0
X193.0Y-106.0
X193.0Y-107.0
X193.0Y-108.0
X193.0Y-109.0
X193.0Y-110.0
X193.0Y-111.0
X193.0Y-115.0
X193.0Y-116.0
X193.0Y-117.0
X193.0Y-118.0
X193.0Y-119.0
X193.0Y-120.0
X193.0Y-124.0
X193.0Y-167.0
X193.0Y-168.0
X193.0Y-169.0
X193.25Y-36.75
X193.75Y-45.5
X193.75Y-77.25
X194.0Y-38.25
X194.0Y-124.0
X194.0Y-167.0
X194.0Y-168.0
X194.0Y-169.0
X194.85Y-33.799
X195.0Y-39.25
X195.0Y-85.0
X195.0Y-124.0
X195.0Y-167.0
X195.0Y-168.0
X195.0Y-169.0
X195.25Y-40.25
X195.25Y-43.75
X195.75Y-45.5
X196.0Y-33.75
X196.0Y-124.0
X196.0Y-167.0
X196.0Y-168.0
X196.0Y-169.0
X197.0Y-164.0
X197.0Y-165.0
X197.0Y-166.0
X197.0Y-167.0
X197.0Y-168.0
X197.0Y-169.0
X197.25Y-44.5
X197.75Y-66.0
X197.75Y-124.5
X198.0Y-164.0
X198.0Y-165.0
X198.0Y-166.0
X198.0Y-167.0
X198.0Y-168.0
X198.0Y-169.0
X198.5Y-50.0
X199.0Y-124.0
X199.0Y-164.0
X199.0Y-165.0
X199.0Y-166.0
X199.0Y-167.0
X199.0Y-168.0
X199.0Y-169.0
X199.5Y-74.0
X199.75Y-44.65
X200.0Y-124.0
X200.0Y-164.0
X200.0Y-165.0
X200.0Y-166.0
X200.0Y-167.0
X200.0Y-168.0
X200.0Y-169.0
X201.0Y-47.5
X201.0Y-124.0
X201.0Y-164.0
X201.0Y-165.0
X201.0Y-166.0
X201.0Y-167.0
X201.0Y-168.0
X201.0Y-169.0
X202.0Y-124.0
X202.0Y-164.0
X202.0Y-165.0
X202.0Y-166.0
X202.0Y-167.0
X202.0Y-168.0
X202.0Y-169.0
X202.25Y-114.5
X202.75Y-49.0
X203.0Y-39.75
X203.0Y-124.0
X203.0Y-164.0
X203.0Y-165.0
X203.0Y-166.0
X203.0Y-167.0
X203.0Y-168.0
X203.0Y-169.0
X203.25Y-38.25
X203.253Y-40.509
X204.0Y-70.75
X204.0Y-124.0
X204.0Y-164.0
X204.0Y-165.0
X204.0Y-166.0
X204.0Y-167.0
X204.0Y-168.0
X204.0Y-169.0
X204.75Y-57.75
X205.0Y-124.0
X205.0Y-164.0
X205.0Y-165.0
X205.0Y-166.0
X205.0Y-167.0
X205.0Y-168.0
X205.0Y-169.0
X205.5Y-34.75
X206.0Y-124.0
X206.0Y-164.0
X206.0Y-165.0
X206.0Y-166.0
X206.0Y-167.0
X206.0Y-168.0
X206.0Y-169.0
X207.0Y-124.0
X207.0Y-164.0
X207.0Y-165.0
X207.0Y-166.0
X207.0Y-167.0
X207.0Y-168.0
X207.0Y-169.0
X208.0Y-124.0
X208.0Y-141.0
X208.0Y-142.0
X208.0Y-143.0
X208.0Y-144.0
X208.0Y-145.0
X208.0Y-146.0
X208.0Y-147.0
X208.0Y-148.0
X208.0Y-149.0
X208.0Y-150.0
X208.0Y-151.0
X208.0Y-152.0
X208.0Y-153.0
X208.0Y-154.0
X208.0Y-155.0
X208.0Y-156.0
X208.0Y-157.0
X208.0Y-158.0
X208.0Y-159.0
X208.0Y-160.0
X208.0Y-161.0
X208.0Y-162.0
X208.0Y-163.0
X208.0Y-164.0
X208.0Y-165.0
X208.0Y-166.0
X208.0Y-167.0
X208.0Y-168.0
X208.0Y-169.0
X208.5Y-43.25
X209.0Y-124.0
X209.0Y-141.0
X209.0Y-142.0
X209.0Y-143.0
X209.0Y-144.0
X209.0Y-145.0
X209.0Y-146.0
X209.0Y-147.0
X209.0Y-148.0
X209.0Y-149.0
X209.0Y-150.0
X209.0Y-151.0
X209.0Y-152.0
X209.0Y-153.0
X209.0Y-154.0
X209.0Y-155.0
X209.0Y-156.0
X209.0Y-157.0
X209.0Y-158.0
X209.0Y-159.0
X209.0Y-160.0
X209.0Y-161.0
X209.0Y-162.0
X209.0Y-163.0
X209.0Y-164.0
X209.0Y-165.0
X209.0Y-166.0
X209.0Y-167.0
X209.0Y-168.0
X209.0Y-169.0
X209.5Y-109.5
X209.5Y-122.75
X210.0Y-124.0
X210.0Y-141.0
X210.0Y-142.0
X210.0Y-143.0
X210.0Y-144.0
X210.0Y-145.0
X210.0Y-146.0
X210.0Y-147.0
X210.0Y-148.0
X210.0Y-149.0
X210.0Y-150.0
X210.0Y-151.0
X210.0Y-152.0
X210.0Y-153.0
X210.0Y-154.0
X210.0Y-155.0
X210.0Y-156.0
X210.0Y-157.0
X210.0Y-158.0
X210.0Y-159.0
X210.0Y-160.0
X210.0Y-161.0
X210.0Y-162.0
X210.0Y-163.0
X210.0Y-164.0
X210.0Y-165.0
X210.0Y-166.0
X210.0Y-167.0
X210.0Y-168.0
X210.0Y-169.0
X211.0Y-123.0
X211.0Y-124.0
X211.0Y-141.0
X211.0Y-142.0
X211.0Y-143.0
X211.0Y-144.0
X211.0Y-145.0
X211.0Y-146.0
X211.0Y-147.0
X211.0Y-148.0
X211.0Y-149.0
X211.0Y-150.0
X211.0Y-151.0
X211.0Y-152.0
X211.0Y-153.0
X211.0Y-154.0
X211.0Y-155.0
X211.0Y-156.0
X211.0Y-157.0
X211.0Y-158.0
X211.0Y-159.0
X211.0Y-160.0
X211.0Y-161.0
X211.0Y-162.0
X211.0Y-163.0
X211.0Y-164.0
X211.0Y-165.0
X211.0Y-166.0
X211.0Y-167.0
X211.0Y-168.0
X211.0Y-169.0
X211.5Y-75.25
X212.0Y-123.0
X212.0Y-124.0
X212.0Y-141.0
X212.0Y-142.0
X212.0Y-143.0
X212.0Y-144.0
X212.0Y-145.0
X212.0Y-146.0
X212.0Y-147.0
X212.0Y-148.0
X212.0Y-149.0
X212.0Y-150.0
X212.0Y-151.0
X212.0Y-152.0
X212.0Y-153.0
X212.0Y-154.0
X212.0Y-155.0
X212.0Y-156.0
X212.0Y-157.0
X212.0Y-158.0
X212.0Y-159.0
X212.0Y-160.0
X212.0Y-161.0
X212.0Y-162.0
X212.0Y-163.0
X212.0Y-164.0
X212.0Y-165.0
X212.0Y-166.0
X212.0Y-167.0
X212.0Y-168.0
X212.0Y-169.0
X212.5Y-38.5
X213.0Y-123.0
X213.0Y-124.0
X213.0Y-141.0
X213.0Y-142.0
X213.0Y-143.0
X213.0Y-144.0
X213.0Y-145.0
X213.0Y-146.0
X213.0Y-147.0
X213.0Y-148.0
X213.0Y-149.0
X213.0Y-150.0
X213.0Y-151.0
X213.0Y-152.0
X213.0Y-153.0
X213.0Y-154.0
X213.0Y-155.0
X213.0Y-156.0
X213.0Y-157.0
X213.0Y-158.0
X213.0Y-159.0
X213.0Y-160.0
X213.0Y-161.0
X213.0Y-162.0
X213.0Y-163.0
X213.0Y-164.0
X213.0Y-165.0
X213.0Y-166.0
X213.0Y-167.0
X213.0Y-168.0
X213.0Y-169.0
X213.75Y-65.75
X214.0Y-123.0
X214.0Y-124.0
X214.0Y-141.0
X214.0Y-142.0
X214.0Y-143.0
X214.0Y-144.0
X214.0Y-145.0
X214.0Y-146.0
X214.0Y-147.0
X214.0Y-148.0
X214.0Y-149.0
X214.0Y-150.0
X214.0Y-151.0
X214.0Y-152.0
X214.0Y-153.0
X214.0Y-154.0
X214.0Y-155.0
X214.0Y-156.0
X214.0Y-157.0
X214.0Y-158.0
X214.0Y-159.0
X214.0Y-160.0
X214.0Y-161.0
X214.0Y-162.0
X214.0Y-163.0
X214.0Y-164.0
X214.0Y-165.0
X214.0Y-166.0
X214.0Y-167.0
X214.0Y-168.0
X214.0Y-169.0
X215.0Y-151.0
X215.0Y-152.0
X215.0Y-153.0
X215.0Y-154.0
X215.0Y-155.0
X215.0Y-156.0
X215.0Y-157.0
X215.0Y-158.0
X215.0Y-159.0
X215.0Y-160.0
X215.0Y-161.0
X215.0Y-162.0
X215.0Y-163.0
X215.0Y-164.0
X215.0Y-165.0
X215.0Y-166.0
X215.0Y-167.0
X215.0Y-168.0
X215.0Y-169.0
X215.75Y-33.75
X216.0Y-73.5
X216.0Y-84.75
X216.0Y-151.0
X216.0Y-152.0
X216.0Y-153.0
X216.0Y-154.0
X216.0Y-155.0
X216.0Y-156.0
X216.0Y-157.0
X216.0Y-158.0
X216.0Y-159.0
X216.0Y-160.0
X216.0Y-161.0
X216.0Y-162.0
X216.0Y-163.0
X216.0Y-164.0
X216.0Y-165.0
X216.0Y-166.0
X216.0Y-167.0
X216.0Y-168.0
X216.0Y-169.0
X216.5Y-96.25
X217.0Y-123.0
X217.0Y-124.0
X217.0Y-151.0
X217.0Y-152.0
X217.0Y-153.0
X217.0Y-154.0
X217.0Y-155.0
X217.0Y-156.0
X217.0Y-157.0
X217.0Y-158.0
X217.0Y-159.0
X217.0Y-160.0
X217.0Y-161.0
X217.0Y-162.0
X217.0Y-163.0
X217.0Y-164.0
X217.0Y-165.0
X217.0Y-166.0
X217.0Y-167.0
X217.0Y-168.0
X217.0Y-169.0
X217.5Y-115.48
X218.0Y-123.0
X218.0Y-124.0
X218.0Y-151.0
X218.0Y-152.0
X218.0Y-153.0
X218.0Y-154.0
X218.0Y-155.0
X218.0Y-156.0
X218.0Y-157.0
X218.0Y-158.0
X218.0Y-159.0
X218.0Y-160.0
X218.0Y-161.0
X218.0Y-162.0
X218.0Y-163.0
X218.0Y-164.0
X218.0Y-165.0
X218.0Y-166.0
X218.0Y-167.0
X218.0Y-168.0
X218.0Y-169.0
X218.25Y-80.75
X219.0Y-123.0
X219.0Y-124.0
X219.0Y-151.0
X219.0Y-152.0
X219.0Y-153.0
X219.0Y-154.0
X219.0Y-155.0
X219.0Y-156.0
X219.0Y-157.0
X219.0Y-158.0
X219.0Y-159.0
X219.0Y-160.0
X219.0Y-161.0
X219.0Y-162.0
X219.0Y-163.0
X219.0Y-164.0
X219.0Y-165.0
X219.0Y-166.0
X219.0Y-167.0
X219.0Y-168.0
X219.0Y-169.0
X219.5Y-59.25
X220.0Y-92.25
X220.0Y-98.0
X220.0Y-123.0
X220.0Y-124.0
X220.0Y-151.0
X220.0Y-152.0
X220.0Y-153.0
X220.0Y-154.0
X220.0Y-155.0
X220.0Y-156.0
X220.0Y-157.0
X220.0Y-158.0
X220.0Y-159.0
X220.0Y-160.0
X220.0Y-161.0
X220.0Y-162.0
X220.0Y-163.0
X220.0Y-164.0
X220.0Y-165.0
X220.0Y-166.0
X220.0Y-167.0
X220.0Y-168.0
X220.0Y-169.0
X220.5Y-49.0
X220.99Y-153.98
X220.99Y-154.98
X220.99Y-155.98
X220.99Y-156.98
X221.0Y-123.0
X221.0Y-124.0
X221.0Y-151.0
X221.0Y-152.0
X221.0Y-153.0
X221.0Y-158.0
X221.0Y-159.0
X221.0Y-160.0
X221.0Y-161.0
X221.0Y-162.0
X221.0Y-163.0
X221.0Y-164.0
X221.0Y-165.0
X221.0Y-166.0
X221.0Y-167.0
X221.0Y-168.0
X221.0Y-169.0
X221.4Y-80.0
X221.5Y-116.75
X221.99Y-153.98
X221.99Y-154.98
X221.99Y-155.98
X221.99Y-156.98
X222.0Y-94.5
X222.0Y-123.0
X222.0Y-124.0
X222.0Y-151.0
X222.0Y-152.0
X222.0Y-153.0
X222.0Y-158.0
X222.0Y-159.0
X222.0Y-160.0
X222.0Y-161.0
X222.0Y-162.0
X222.0Y-163.0
X222.0Y-164.0
X222.0Y-165.0
X222.0Y-166.0
X222.0Y-167.0
X222.0Y-168.0
X222.0Y-169.0
X222.25Y-111.75
X222.375Y-117.895
X222.75Y-82.75
X222.99Y-153.98
X222.99Y-154.98
X222.99Y-155.98
X222.99Y-156.98
X223.0Y-40.0
X223.0Y-81.5
X223.0Y-123.0
X223.0Y-124.0
X223.0Y-151.0
X223.0Y-152.0
X223.0Y-153.0
X223.0Y-158.0
X223.0Y-159.0
X223.0Y-160.0
X223.0Y-161.0
X223.0Y-162.0
X223.0Y-163.0
X223.0Y-164.0
X223.0Y-165.0
X223.0Y-166.0
X223.0Y-167.0
X223.0Y-168.0
X223.0Y-169.0
X223.5Y-91.25
X223.99Y-153.98
X223.99Y-154.98
X223.99Y-155.98
X223.99Y-156.98
X224.0Y-123.0
X224.0Y-124.0
X224.0Y-151.0
X224.0Y-152.0
X224.0Y-153.0
X224.0Y-158.0
X224.0Y-159.0
X224.0Y-160.0
X224.0Y-161.0
X224.0Y-162.0
X224.0Y-163.0
X224.0Y-164.0
X224.0Y-165.0
X224.0Y-166.0
X224.0Y-167.0
X224.0Y-168.0
X224.0Y-169.0
X224.25Y-111.0
X225.0Y-57.5
X225.0Y-123.0
X225.0Y-124.0
X225.0Y-151.0
X225.0Y-152.0
X225.0Y-153.0
X225.0Y-166.0
X225.0Y-167.0
X225.0Y-168.0
X225.0Y-169.0
X225.25Y-77.25
X225.5Y-81.25
X226.0Y-123.0
X226.0Y-124.0
X226.0Y-141.0
X226.0Y-142.0
X226.0Y-143.0
X226.0Y-144.0
X226.0Y-145.0
X226.0Y-146.0
X226.0Y-147.0
X226.0Y-148.0
X226.0Y-149.0
X226.0Y-150.0
X226.0Y-151.0
X226.0Y-152.0
X226.0Y-153.0
X226.0Y-166.0
X226.0Y-167.0
X226.0Y-168.0
X226.0Y-169.0
X226.5Y-59.0
X227.0Y-123.0
X227.0Y-124.0
X227.0Y-125.0
X227.0Y-126.0
X227.0Y-127.0
X227.0Y-128.0
X227.0Y-129.0
X227.0Y-130.0
X227.0Y-131.0
X227.0Y-132.0
X227.0Y-133.0
X227.0Y-134.0
X227.0Y-135.0
X227.0Y-136.0
X227.0Y-137.0
X227.0Y-138.0
X227.0Y-139.0
X227.0Y-140.0
X227.0Y-141.0
X227.0Y-142.0
X227.0Y-143.0
X227.0Y-144.0
X227.0Y-145.0
X227.0Y-146.0
X227.0Y-147.0
X227.0Y-148.0
X227.0Y-149.0
X227.0Y-150.0
X227.0Y-151.0
X227.0Y-152.0
X227.0Y-153.0
X227.0Y-166.0
X227.0Y-167.0
X227.0Y-168.0
X227.0Y-169.0
X227.5Y-37.5
X227.5Y-64.5
X228.0Y-123.0
X228.0Y-124.0
X228.0Y-125.0
X228.0Y-126.0
X228.0Y-127.0
X228.0Y-128.0
X228.0Y-129.0
X228.0Y-130.0
X228.0Y-131.0
X228.0Y-132.0
X228.0Y-133.0
X228.0Y-134.0
X228.0Y-135.0
X228.0Y-136.0
X228.0Y-137.0
X228.0Y-138.0
X228.0Y-139.0
X228.0Y-140.0
X228.0Y-141.0
X228.0Y-142.0
X228.0Y-143.0
X228.0Y-144.0
X228.0Y-145.0
X228.0Y-146.0
X228.0Y-147.0
X228.0Y-148.0
X228.0Y-149.0
X228.0Y-150.0
X228.0Y-151.0
X228.0Y-152.0
X228.0Y-153.0
X228.0Y-166.0
X228.0Y-167.0
X228.0Y-168.0
X228.0Y-169.0
X229.0Y-123.0
X229.0Y-124.0
X229.0Y-125.0
X229.0Y-126.0
X229.0Y-127.0
X229.0Y-128.0
X229.0Y-129.0
X229.0Y-130.0
X229.0Y-131.0
X229.0Y-132.0
X229.0Y-133.0
X229.0Y-134.0
X229.0Y-135.0
X229.0Y-136.0
X229.0Y-137.0
X229.0Y-138.0
X229.0Y-139.0
X229.0Y-140.0
X229.0Y-141.0
X229.0Y-142.0
X229.0Y-143.0
X229.0Y-144.0
X229.0Y-145.0
X229.0Y-146.0
X229.0Y-147.0
X229.0Y-148.0
X229.0Y-149.0
X229.0Y-150.0
X229.0Y-151.0
X229.0Y-152.0
X229.0Y-153.0
X229.0Y-166.0
X229.0Y-167.0
X229.0Y-168.0
X229.0Y-169.0
X229.25Y-62.0
X230.0Y-123.0
X230.0Y-124.0
X230.0Y-125.0
X230.0Y-126.0
X230.0Y-127.0
X230.0Y-128.0
X230.0Y-129.0
X230.0Y-130.0
X230.0Y-131.0
X230.0Y-132.0
X230.0Y-133.0
X230.0Y-134.0
X230.0Y-135.0
X230.0Y-136.0
X230.0Y-137.0
X230.0Y-138.0
X230.0Y-139.0
X230.0Y-140.0
X230.0Y-141.0
X230.0Y-142.0
X230.0Y-143.0
X230.0Y-144.0
X230.0Y-145.0
X230.0Y-146.0
X230.0Y-147.0
X230.0Y-148.0
X230.0Y-149.0
X230.0Y-150.0
X230.0Y-151.0
X230.0Y-152.0
X230.0Y-153.0
X230.0Y-166.0
X230.0Y-167.0
X230.0Y-168.0
X230.0Y-169.0
X231.0Y-123.0
X231.0Y-124.0
X231.0Y-125.0
X231.0Y-126.0
X231.0Y-127.0
X231.0Y-128.0
X231.0Y-129.0
X231.0Y-130.0
X231.0Y-131.0
X231.0Y-132.0
X231.0Y-133.0
X231.0Y-134.0
X231.0Y-135.0
X231.0Y-136.0
X231.0Y-137.0
X231.0Y-138.0
X231.0Y-139.0
X231.0Y-140.0
X231.0Y-141.0
X231.0Y-142.0
X231.0Y-143.0
X231.0Y-144.0
X231.0Y-145.0
X231.0Y-146.0
X231.0Y-147.0
X231.0Y-148.0
X231.0Y-149.0
X231.0Y-150.0
X231.0Y-151.0
X231.0Y-152.0
X231.0Y-153.0
X231.0Y-166.0
X231.0Y-167.0
X231.0Y-168.0
X232.0Y-123.0
X232.0Y-124.0
X232.0Y-125.0
X232.0Y-126.0
X232.0Y-127.0
X232.0Y-128.0
X232.0Y-129.0
X232.0Y-130.0
X232.0Y-131.0
X232.0Y-132.0
X232.0Y-133.0
X232.0Y-134.0
X232.0Y-135.0
X232.0Y-136.0
X232.0Y-137.0
X232.0Y-138.0
X232.0Y-139.0
X232.0Y-140.0
X232.0Y-141.0
X232.0Y-142.0
X232.0Y-143.0
X232.0Y-144.0
X232.0Y-145.0
X232.0Y-146.0
X232.0Y-147.0
X232.0Y-148.0
X232.0Y-149.0
X232.0Y-150.0
X232.0Y-151.0
X232.0Y-152.0
X232.0Y-153.0
X232.0Y-166.0
X232.0Y-167.0
X232.0Y-168.0
X233.0Y-123.0
X233.0Y-124.0
X233.0Y-125.0
X233.0Y-126.0
X233.0Y-127.0
X233.0Y-128.0
X233.0Y-129.0
X233.0Y-130.0
X233.0Y-131.0
X233.0Y-132.0
X233.0Y-133.0
X233.0Y-134.0
X233.0Y-135.0
X233.0Y-136.0
X233.0Y-137.0
X233.0Y-138.0
X233.0Y-139.0
X233.0Y-140.0
X233.0Y-141.0
X233.0Y-142.0
X233.0Y-143.0
X233.0Y-144.0
X233.0Y-145.0
X233.0Y-146.0
X233.0Y-147.0
X233.0Y-148.0
X233.0Y-149.0
X233.0Y-150.0
X233.0Y-151.0
X233.0Y-152.0
X233.0Y-153.0
X233.0Y-166.0
X233.0Y-167.0
X233.0Y-168.0
X234.0Y-123.0
X234.0Y-124.0
X234.0Y-125.0
X234.0Y-126.0
X234.0Y-127.0
X234.0Y-128.0
X234.0Y-129.0
X234.0Y-130.0
X234.0Y-131.0
X234.0Y-132.0
X234.0Y-133.0
X234.0Y-134.0
X234.0Y-135.0
X234.0Y-136.0
X234.0Y-137.0
X234.0Y-138.0
X234.0Y-139.0
X234.0Y-140.0
X234.0Y-141.0
X234.0Y-142.0
X234.0Y-143.0
X234.0Y-144.0
X234.0Y-145.0
X234.0Y-146.0
X234.0Y-147.0
X234.0Y-148.0
X234.0Y-149.0
X234.0Y-150.0
X234.0Y-151.0
X234.0Y-152.0
X234.0Y-153.0
X234.0Y-166.0
X234.0Y-167.0
X235.0Y-123.0
X235.0Y-124.0
X235.0Y-125.0
X235.0Y-126.0
X235.0Y-127.0
X235.0Y-128.0
X235.0Y-129.0
X235.0Y-130.0
X235.0Y-131.0
X235.0Y-132.0
X235.0Y-133.0
X235.0Y-134.0
X235.0Y-135.0
X235.0Y-136.0
X235.0Y-137.0
X235.0Y-138.0
X235.0Y-139.0
X235.0Y-140.0
X235.0Y-141.0
X235.0Y-142.0
X235.0Y-143.0
X235.0Y-144.0
X235.0Y-145.0
X235.0Y-146.0
X235.0Y-147.0
X235.0Y-148.0
X235.0Y-149.0
X235.0Y-150.0
X235.0Y-151.0
X235.0Y-152.0
X235.0Y-153.0
X235.0Y-166.0
X235.0Y-167.0
X236.0Y-123.0
X236.0Y-124.0
X236.0Y-125.0
X236.0Y-126.0
X236.0Y-127.0
X236.0Y-128.0
X236.0Y-129.0
X236.0Y-130.0
X236.0Y-131.0
X236.0Y-132.0
X236.0Y-133.0
X236.0Y-134.0
X236.0Y-135.0
X236.0Y-136.0
X236.0Y-137.0
X236.0Y-138.0
X236.0Y-139.0
X236.0Y-140.0
X236.0Y-141.0
X236.0Y-142.0
X236.0Y-143.0
X236.0Y-144.0
X236.0Y-145.0
X236.0Y-146.0
X236.0Y-147.0
X236.0Y-148.0
X236.0Y-149.0
X236.0Y-150.0
X236.0Y-151.0
X236.0Y-152.0
X236.0Y-153.0
X236.0Y-154.0
X236.0Y-155.0
X236.0Y-156.0
X236.0Y-157.0
X236.0Y-158.0
X236.0Y-159.0
X236.0Y-160.0
X236.0Y-161.0
X236.0Y-162.0
X236.0Y-163.0
X236.0Y-164.0
X236.0Y-165.0
X237.0Y-123.0
X237.0Y-124.0
X237.0Y-125.0
X237.0Y-126.0
X237.0Y-127.0
X237.0Y-128.0
X237.0Y-129.0
X237.0Y-130.0
X237.0Y-131.0
X237.0Y-132.0
X237.0Y-133.0
X237.0Y-134.0
X237.0Y-135.0
X237.0Y-136.0
X237.0Y-137.0
X237.0Y-138.0
X237.0Y-139.0
X237.0Y-140.0
X237.0Y-141.0
X237.0Y-142.0
X237.0Y-143.0
X237.0Y-144.0
X237.0Y-145.0
X237.0Y-146.0
X237.0Y-147.0
X237.0Y-148.0
X237.0Y-149.0
X237.0Y-150.0
X237.0Y-151.0
X237.0Y-152.0
X237.0Y-153.0
X237.0Y-154.0
X237.0Y-155.0
X237.0Y-156.0
X237.0Y-157.0
X237.0Y-158.0
X237.0Y-159.0
X237.0Y-160.0
X237.0Y-161.0
X237.0Y-162.0
X237.0Y-163.0
X237.0Y-164.0
X237.0Y-165.0
X238.0Y-123.0
X238.0Y-124.0
X238.0Y-125.0
X238.0Y-126.0
X238.0Y-127.0
X238.0Y-128.0
X238.0Y-129.0
X238.0Y-130.0
X238.0Y-131.0
X238.0Y-132.0
X238.0Y-133.0
X238.0Y-134.0
X238.0Y-135.0
X238.0Y-136.0
X238.0Y-137.0
X238.0Y-138.0
X238.0Y-139.0
X238.0Y-140.0
X238.0Y-141.0
X238.0Y-142.0
X238.0Y-143.0
X238.0Y-144.0
X238.0Y-145.0
X238.0Y-146.0
X238.0Y-147.0
X238.0Y-148.0
X238.0Y-149.0
X238.0Y-150.0
X238.0Y-151.0
X238.0Y-152.0
X238.0Y-153.0
X238.0Y-154.0
X238.0Y-155.0
X238.0Y-156.0
X238.0Y-157.0
X238.0Y-158.0
X238.0Y-159.0
X238.0Y-160.0
X238.0Y-161.0
X238.0Y-162.0
X238.0Y-163.0
X238.0Y-164.0
X239.0Y-123.0
X239.0Y-124.0
X239.0Y-125.0
X239.0Y-126.0
X239.0Y-127.0
X239.0Y-128.0
X239.0Y-129.0
X239.0Y-130.0
X239.0Y-131.0
X239.0Y-132.0
X239.0Y-133.0
X239.0Y-134.0
X239.0Y-135.0
X239.0Y-136.0
X239.0Y-137.0
X239.0Y-138.0
X239.0Y-139.0
X239.0Y-140.0
X239.0Y-141.0
X239.0Y-142.0
X239.0Y-143.0
X239.0Y-144.0
X239.0Y-145.0
X239.0Y-146.0
X239.0Y-147.0
X239.0Y-148.0
X239.0Y-149.0
X239.0Y-150.0
X239.0Y-151.0
X239.0Y-152.0
X239.0Y-153.0
X239.0Y-154.0
X239.0Y-155.0
X239.0Y-156.0
X239.0Y-157.0
X239.0Y-158.0
X239.0Y-159.0
X239.0Y-160.0
X239.0Y-161.0
T2
X36.775Y-30.0
X36.775Y-160.0
X37.72Y-27.72
X37.72Y-32.28
X37.72Y-157.72
X37.72Y-162.28
X40.0Y-26.775
X40.0Y-33.225
X40.0Y-156.775
X40.0Y-163.225
X42.28Y-27.72
X42.28Y-32.28
X42.28Y-157.72
X42.28Y-162.28
X43.225Y-30.0
X43.225Y-160.0
X116.704Y-30.225
X116.704Y-160.0
X117.649Y-27.945
X117.649Y-32.505
X117.649Y-157.72
X117.649Y-162.28
X119.929Y-27.0
X119.929Y-33.45
X119.929Y-156.775
X119.929Y-163.225
X122.209Y-27.945
X122.209Y-32.505
X122.209Y-157.72
X122.209Y-162.28
X123.154Y-30.225
X123.154Y-160.0
X146.775Y-30.28
X146.775Y-160.0
X147.72Y-28.0
X147.72Y-32.561
X147.72Y-157.72
X147.72Y-162.28
X150.0Y-27.055
X150.0Y-33.505
X150.0Y-156.775
X150.0Y-163.225
X152.28Y-28.0
X152.28Y-32.561
X152.28Y-157.72
X152.28Y-162.28
X153.225Y-30.28
X153.225Y-160.0
X226.775Y-30.0
X226.775Y-160.0
X227.72Y-27.72
X227.72Y-32.28
X227.72Y-157.72
X227.72Y-162.28
X230.0Y-26.775
X230.0Y-33.225
X230.0Y-156.775
X230.0Y-163.225
X232.28Y-27.72
X232.28Y-32.28
X232.28Y-157.72
X232.28Y-162.28
X233.225Y-30.0
X233.225Y-160.0
T3
X34.232Y-47.232
X34.232Y-50.768
X34.232Y-70.232
X34.232Y-73.768
X34.232Y-93.232
X34.232Y-96.768
X34.232Y-116.232
X34.232Y-119.768
X34.232Y-139.232
X34.232Y-142.768
X37.768Y-47.232
X37.768Y-50.768
X37.768Y-70.232
X37.768Y-73.768
X37.768Y-93.232
X37.768Y-96.768
X37.768Y-116.232
X37.768Y-119.768
X37.768Y-139.232
X37.768Y-142.768
X83.385Y-24.0
X85.925Y-24.0
X88.465Y-24.0
X91.005Y-24.0
X93.545Y-24.0
X96.085Y-24.0
X98.625Y-24.0
X144.232Y-47.232
X144.232Y-50.768
X144.232Y-70.232
X144.232Y-73.768
X144.232Y-93.232
X144.232Y-96.768
X144.232Y-116.232
X144.232Y-119.768
X144.232Y-139.232
X144.232Y-142.768
X147.768Y-47.232
X147.768Y-50.768
X147.768Y-70.232
X147.768Y-73.768
X147.768Y-93.232
X147.768Y-96.768
X147.768Y-116.232
X147.768Y-119.768
X147.768Y-139.232
X147.768Y-142.768
X190.8Y-23.25
X193.34Y-23.25
X195.88Y-23.25
X198.42Y-23.25
X200.96Y-23.25
X203.5Y-23.25
X206.04Y-23.25
T4
X62.537Y-96.0
X62.537Y-113.0
X66.037Y-103.5
X66.037Y-120.5
X69.537Y-96.0
X69.537Y-113.0
X86.037Y-96.0
X86.037Y-103.5
X86.037Y-113.0
X86.037Y-120.5
T5
X40.0Y-30.0
X40.0Y-160.0
X119.929Y-30.225
X119.929Y-160.0
X150.0Y-30.28
X150.0Y-160.0
X230.0Y-30.0
X230.0Y-160.0
M30
