%TF.GenerationSoftware,KiCad,Pcbnew,8.0.5*%
%TF.CreationDate,2024-10-29T10:28:22+01:00*%
%TF.ProjectId,sensorBoard,73656e73-6f72-4426-9f61-72642e6b6963,rev?*%
%TF.SameCoordinates,Original*%
%TF.FileFunction,Soldermask,Bot*%
%TF.FilePolarity,Negative*%
%FSLAX46Y46*%
G04 Gerber Fmt 4.6, Leading zero omitted, Abs format (unit mm)*
G04 Created by KiCad (PCBNEW 8.0.5) date 2024-10-29 10:28:22*
%MOMM*%
%LPD*%
G01*
G04 APERTURE LIST*
%ADD10C,0.900000*%
%ADD11C,8.600000*%
%ADD12C,1.711200*%
%ADD13C,2.000000*%
%ADD14R,2.000000X2.000000*%
%ADD15R,1.700000X1.700000*%
%ADD16O,1.700000X1.700000*%
G04 APERTURE END LIST*
D10*
%TO.C,H10*%
X36775000Y-30000000D03*
X37719581Y-27719581D03*
X37719581Y-32280419D03*
X40000000Y-26775000D03*
D11*
X40000000Y-30000000D03*
D10*
X40000000Y-33225000D03*
X42280419Y-27719581D03*
X42280419Y-32280419D03*
X43225000Y-30000000D03*
%TD*%
%TO.C,H7*%
X146775000Y-160000000D03*
X147719581Y-157719581D03*
X147719581Y-162280419D03*
X150000000Y-156775000D03*
D11*
X150000000Y-160000000D03*
D10*
X150000000Y-163225000D03*
X152280419Y-157719581D03*
X152280419Y-162280419D03*
X153225000Y-160000000D03*
%TD*%
%TO.C,H12*%
X36775000Y-160000000D03*
X37719581Y-157719581D03*
X37719581Y-162280419D03*
X40000000Y-156775000D03*
D11*
X40000000Y-160000000D03*
D10*
X40000000Y-163225000D03*
X42280419Y-157719581D03*
X42280419Y-162280419D03*
X43225000Y-160000000D03*
%TD*%
D12*
%TO.C,J13*%
X37767765Y-96767765D03*
X37767765Y-93232235D03*
X34232235Y-93232235D03*
X34232235Y-96767765D03*
%TD*%
%TO.C,J3*%
X37767765Y-119767765D03*
X37767765Y-116232235D03*
X34232235Y-116232235D03*
X34232235Y-119767765D03*
%TD*%
D13*
%TO.C,K5*%
X66037500Y-120500000D03*
X69537500Y-113000000D03*
X62537500Y-113000000D03*
D14*
X86037500Y-113000000D03*
D13*
X86037500Y-120500000D03*
%TD*%
D10*
%TO.C,H11*%
X116703932Y-160000000D03*
X117648513Y-157719581D03*
X117648513Y-162280419D03*
X119928932Y-156775000D03*
D11*
X119928932Y-160000000D03*
D10*
X119928932Y-163225000D03*
X122209351Y-157719581D03*
X122209351Y-162280419D03*
X123153932Y-160000000D03*
%TD*%
D12*
%TO.C,J2*%
X37767765Y-142767765D03*
X37767765Y-139232235D03*
X34232235Y-139232235D03*
X34232235Y-142767765D03*
%TD*%
D10*
%TO.C,H9*%
X116703932Y-30225000D03*
X117648513Y-27944581D03*
X117648513Y-32505419D03*
X119928932Y-27000000D03*
D11*
X119928932Y-30225000D03*
D10*
X119928932Y-33450000D03*
X122209351Y-27944581D03*
X122209351Y-32505419D03*
X123153932Y-30225000D03*
%TD*%
%TO.C,H6*%
X226775000Y-30000000D03*
X227719581Y-27719581D03*
X227719581Y-32280419D03*
X230000000Y-26775000D03*
D11*
X230000000Y-30000000D03*
D10*
X230000000Y-33225000D03*
X232280419Y-27719581D03*
X232280419Y-32280419D03*
X233225000Y-30000000D03*
%TD*%
D15*
%TO.C,J10*%
X98625000Y-24000000D03*
D16*
X96085000Y-24000000D03*
X93545000Y-24000000D03*
X91005000Y-24000000D03*
X88465000Y-24000000D03*
X85925000Y-24000000D03*
X83385000Y-24000000D03*
%TD*%
D15*
%TO.C,J18*%
X206040000Y-23250000D03*
D16*
X203500000Y-23250000D03*
X200960000Y-23250000D03*
X198420000Y-23250000D03*
X195880000Y-23250000D03*
X193340000Y-23250000D03*
X190800000Y-23250000D03*
%TD*%
D13*
%TO.C,K6*%
X66037500Y-103500000D03*
X69537500Y-96000000D03*
X62537500Y-96000000D03*
D14*
X86037500Y-96000000D03*
D13*
X86037500Y-103500000D03*
%TD*%
D12*
%TO.C,J1*%
X34232235Y-50767765D03*
X34232235Y-47232235D03*
X37767765Y-47232235D03*
X37767765Y-50767765D03*
%TD*%
%TO.C,J5*%
X147767765Y-73767765D03*
X147767765Y-70232235D03*
X144232235Y-70232235D03*
X144232235Y-73767765D03*
%TD*%
%TO.C,J7*%
X147767765Y-142767765D03*
X147767765Y-139232235D03*
X144232235Y-139232235D03*
X144232235Y-142767765D03*
%TD*%
D10*
%TO.C,H5*%
X146775000Y-30280419D03*
X147719581Y-28000000D03*
X147719581Y-32560838D03*
X150000000Y-27055419D03*
D11*
X150000000Y-30280419D03*
D10*
X150000000Y-33505419D03*
X152280419Y-28000000D03*
X152280419Y-32560838D03*
X153225000Y-30280419D03*
%TD*%
D12*
%TO.C,J4*%
X37767765Y-73767765D03*
X37767765Y-70232235D03*
X34232235Y-70232235D03*
X34232235Y-73767765D03*
%TD*%
%TO.C,J8*%
X147767765Y-50767765D03*
X147767765Y-47232235D03*
X144232235Y-47232235D03*
X144232235Y-50767765D03*
%TD*%
%TO.C,J6*%
X147767765Y-119767765D03*
X147767765Y-116232235D03*
X144232235Y-116232235D03*
X144232235Y-119767765D03*
%TD*%
D10*
%TO.C,H8*%
X226775000Y-160000000D03*
X227719581Y-157719581D03*
X227719581Y-162280419D03*
X230000000Y-156775000D03*
D11*
X230000000Y-160000000D03*
D10*
X230000000Y-163225000D03*
X232280419Y-157719581D03*
X232280419Y-162280419D03*
X233225000Y-160000000D03*
%TD*%
D12*
%TO.C,J21*%
X147767765Y-96767765D03*
X147767765Y-93232235D03*
X144232235Y-93232235D03*
X144232235Y-96767765D03*
%TD*%
M02*
