M48
; DRILL file {KiCad 9.0.1} date 2025-06-02T22:26:14+0200
; FORMAT={-:-/ absolute / metric / decimal}
; #@! TF.CreationDate,2025-06-02T22:26:14+02:00
; #@! TF.GenerationSoftware,Kicad,Pcbnew,9.0.1
; #@! TF.FileFunction,Plated,1,4,PTH
FMAT,2
METRIC
; #@! TA.AperFunction,Plated,PTH,ViaDrill
T1C0.300
; #@! TA.AperFunction,Plated,PTH,ComponentDrill
T2C0.800
; #@! TA.AperFunction,Plated,PTH,ComponentDrill
T3C0.890
; #@! TA.AperFunction,Plated,PTH,ComponentDrill
T4C1.000
; #@! TA.AperFunction,Plated,PTH,ComponentDrill
T5C1.300
; #@! TA.AperFunction,Plated,PTH,ComponentDrill
T6C1.570
; #@! TA.AperFunction,Plated,PTH,ComponentDrill
T7C1.600
; #@! TA.AperFunction,Plated,PTH,ComponentDrill
T8C6.400
%
G90
G05
T1
X123.35Y-82.75
X124.25Y-83.35
X126.7Y-120.3
X127.8Y-102.5
X127.85Y-100.188
X127.9Y-98.5
X129.0Y-109.0
X130.2Y-100.037
X130.7Y-79.1
X133.0Y-104.3
X133.125Y-93.525
X133.25Y-99.6
X133.8Y-79.3
X133.8Y-92.6
X133.887Y-96.431
X133.941Y-99.197
X134.3Y-110.0
X134.4Y-91.999
X134.636Y-91.234
X134.65Y-98.6
X134.9Y-86.2
X135.4Y-120.2
X135.5Y-98.3
X136.75Y-92.4
X137.35Y-92.931
X138.014Y-94.016
X138.2Y-105.0
X138.55Y-96.252
X138.7Y-92.1
X141.0Y-92.3
X141.5Y-93.6
X142.2Y-95.6
X143.4Y-92.7
X143.7Y-88.1
X144.6Y-109.0
X145.2Y-79.1
X145.3Y-95.4
X146.1Y-105.2
X146.4Y-91.4
X146.5Y-99.0
X146.6Y-83.1
X149.1Y-87.8
X151.45Y-88.65
X152.1Y-102.2
X152.55Y-103.6
X153.6Y-98.5
X154.5Y-55.2
X155.6Y-26.7
X155.9Y-68.3
X155.9Y-69.0
X156.0Y-111.8
X156.05Y-101.85
X156.55Y-91.7
X156.7Y-68.3
X156.7Y-69.0
X157.4Y-94.6
X157.4Y-104.8
X157.5Y-68.3
X157.5Y-69.0
X157.8Y-113.0
X157.88Y-28.977
X158.0Y-48.6
X158.0Y-78.25
X158.3Y-35.9
X158.3Y-68.3
X158.3Y-69.0
X158.4Y-38.0
X159.0Y-33.4
X159.1Y-68.3
X159.1Y-69.0
X159.3Y-38.2
X159.3Y-72.0
X159.6Y-34.1
X161.0Y-28.6
X161.0Y-45.0
X161.082Y-37.1
X161.965Y-33.0
X162.2Y-26.5
X162.3Y-37.1
X162.9Y-28.9
X163.0Y-33.0
X163.2Y-37.1
X164.4Y-33.7
X164.5Y-26.8
X164.7Y-37.4
X164.8Y-31.5
X169.5Y-50.8
X171.4Y-28.9
X177.05Y-111.85
X177.5Y-103.6
X177.85Y-113.2
X178.2Y-53.3
X178.3Y-84.5
X178.35Y-92.4
X178.45Y-102.5
X179.1Y-93.7
X179.65Y-82.1
X182.1Y-50.8
X203.982Y-116.983
X204.0Y-37.0
X204.0Y-52.0
X204.0Y-68.0
X204.0Y-84.0
X204.0Y-100.0
T2
X147.6Y-107.92
X147.6Y-113.0
X147.6Y-115.54
X147.6Y-118.08
X152.68Y-107.92
X152.68Y-113.0
X152.68Y-115.54
X152.68Y-118.08
X161.713Y-112.442
X161.713Y-117.522
X161.8Y-92.32
X161.8Y-97.4
X161.8Y-102.52
X161.8Y-107.6
X161.9Y-82.4
X161.9Y-87.48
X161.92Y-72.72
X161.92Y-77.8
X166.792Y-112.442
X166.792Y-117.522
X166.88Y-92.32
X166.88Y-97.4
X166.88Y-102.52
X166.88Y-107.6
X166.98Y-82.4
X166.98Y-87.48
X167.0Y-72.72
X167.0Y-77.8
X169.332Y-112.442
X169.332Y-117.522
X169.42Y-92.32
X169.42Y-97.4
X169.42Y-102.52
X169.42Y-107.6
X169.52Y-82.4
X169.52Y-87.48
X169.54Y-72.72
X169.54Y-77.8
X171.873Y-112.442
X171.873Y-117.522
X171.96Y-92.32
X171.96Y-97.4
X171.96Y-102.52
X171.96Y-107.6
X172.06Y-82.4
X172.06Y-87.48
X172.08Y-72.72
X172.08Y-77.8
X182.582Y-112.3
X182.582Y-117.38
X182.683Y-102.38
X182.683Y-107.46
X182.782Y-92.3
X182.782Y-97.38
X187.662Y-112.3
X187.662Y-117.38
X187.762Y-102.38
X187.762Y-107.46
X187.862Y-92.3
X187.862Y-97.38
X190.202Y-112.3
X190.202Y-117.38
X190.302Y-102.38
X190.302Y-107.46
X190.403Y-92.3
X190.403Y-97.38
X192.742Y-112.3
X192.742Y-117.38
X192.843Y-102.38
X192.843Y-107.46
X192.942Y-92.3
X192.942Y-97.38
T3
X118.62Y-77.352
X118.62Y-79.384
X118.62Y-81.416
X118.62Y-83.448
X118.72Y-98.32
X118.72Y-100.352
X118.72Y-102.384
X118.72Y-104.416
X120.4Y-76.336
X120.4Y-78.368
X120.4Y-80.4
X120.4Y-82.432
X120.5Y-97.304
X120.5Y-99.336
X120.5Y-101.368
X120.5Y-103.4
T4
X116.3Y-32.3
X118.84Y-32.3
X131.0Y-32.3
X133.54Y-32.3
X136.08Y-32.3
X138.62Y-32.3
X141.16Y-32.3
X143.7Y-32.3
X146.24Y-32.3
X154.3Y-65.7
X156.84Y-65.7
T5
X184.0Y-62.5
X184.0Y-82.5
X184.287Y-31.737
X184.287Y-51.737
X191.5Y-59.0
X191.5Y-66.0
X191.5Y-82.5
X191.787Y-28.237
X191.787Y-35.237
X191.787Y-51.737
T6
X119.51Y-71.758
X119.51Y-88.018
X119.61Y-92.726
X119.61Y-108.986
T7
X131.45Y-40.648
X131.45Y-65.248
T8
X142.75Y-46.798
X142.75Y-59.098
M30
