%TF.GenerationSoftware,KiCad,Pcbnew,9.0.1*%
%TF.CreationDate,2025-06-02T22:26:34+02:00*%
%TF.ProjectId,sensorBoard,73656e73-6f72-4426-9f61-72642e6b6963,rev?*%
%TF.SameCoordinates,Original*%
%TF.FileFunction,Paste,Top*%
%TF.FilePolarity,Positive*%
%FSLAX46Y46*%
G04 Gerber Fmt 4.6, Leading zero omitted, Abs format (unit mm)*
G04 Created by KiCad (PCBNEW 9.0.1) date 2025-06-02 22:26:34*
%MOMM*%
%LPD*%
G01*
G04 APERTURE LIST*
G04 Aperture macros list*
%AMRoundRect*
0 Rectangle with rounded corners*
0 $1 Rounding radius*
0 $2 $3 $4 $5 $6 $7 $8 $9 X,Y pos of 4 corners*
0 Add a 4 corners polygon primitive as box body*
4,1,4,$2,$3,$4,$5,$6,$7,$8,$9,$2,$3,0*
0 Add four circle primitives for the rounded corners*
1,1,$1+$1,$2,$3*
1,1,$1+$1,$4,$5*
1,1,$1+$1,$6,$7*
1,1,$1+$1,$8,$9*
0 Add four rect primitives between the rounded corners*
20,1,$1+$1,$2,$3,$4,$5,0*
20,1,$1+$1,$4,$5,$6,$7,0*
20,1,$1+$1,$6,$7,$8,$9,0*
20,1,$1+$1,$8,$9,$2,$3,0*%
G04 Aperture macros list end*
%ADD10RoundRect,0.250000X0.375000X0.625000X-0.375000X0.625000X-0.375000X-0.625000X0.375000X-0.625000X0*%
%ADD11RoundRect,0.250000X0.325000X1.100000X-0.325000X1.100000X-0.325000X-1.100000X0.325000X-1.100000X0*%
%ADD12RoundRect,0.150000X0.512500X0.150000X-0.512500X0.150000X-0.512500X-0.150000X0.512500X-0.150000X0*%
%ADD13RoundRect,0.250000X-0.450000X0.262500X-0.450000X-0.262500X0.450000X-0.262500X0.450000X0.262500X0*%
%ADD14RoundRect,0.250000X0.450000X-0.262500X0.450000X0.262500X-0.450000X0.262500X-0.450000X-0.262500X0*%
%ADD15R,3.429000X2.413000*%
%ADD16RoundRect,0.250000X0.650000X2.450000X-0.650000X2.450000X-0.650000X-2.450000X0.650000X-2.450000X0*%
%ADD17RoundRect,0.225000X0.225000X0.250000X-0.225000X0.250000X-0.225000X-0.250000X0.225000X-0.250000X0*%
%ADD18RoundRect,0.250000X-0.550000X1.500000X-0.550000X-1.500000X0.550000X-1.500000X0.550000X1.500000X0*%
%ADD19RoundRect,0.140000X-0.140000X-0.170000X0.140000X-0.170000X0.140000X0.170000X-0.140000X0.170000X0*%
%ADD20RoundRect,0.150000X-0.587500X-0.150000X0.587500X-0.150000X0.587500X0.150000X-0.587500X0.150000X0*%
%ADD21RoundRect,0.150000X-0.150000X0.587500X-0.150000X-0.587500X0.150000X-0.587500X0.150000X0.587500X0*%
%ADD22RoundRect,0.243750X-0.456250X0.243750X-0.456250X-0.243750X0.456250X-0.243750X0.456250X0.243750X0*%
%ADD23RoundRect,0.190500X-1.269500X-0.444500X1.269500X-0.444500X1.269500X0.444500X-1.269500X0.444500X0*%
%ADD24RoundRect,0.247500X0.577500X-1.467500X0.577500X1.467500X-0.577500X1.467500X-0.577500X-1.467500X0*%
%ADD25RoundRect,0.250000X-0.325000X-1.100000X0.325000X-1.100000X0.325000X1.100000X-0.325000X1.100000X0*%
%ADD26R,1.570000X1.235000*%
%ADD27R,1.570000X1.585000*%
%ADD28RoundRect,0.122500X-0.122500X0.122500X-0.122500X-0.122500X0.122500X-0.122500X0.122500X0.122500X0*%
%ADD29R,0.490000X0.490000*%
%ADD30RoundRect,0.250000X0.262500X0.450000X-0.262500X0.450000X-0.262500X-0.450000X0.262500X-0.450000X0*%
%ADD31RoundRect,0.135000X-0.135000X-0.185000X0.135000X-0.185000X0.135000X0.185000X-0.135000X0.185000X0*%
%ADD32RoundRect,0.250000X-0.625000X0.400000X-0.625000X-0.400000X0.625000X-0.400000X0.625000X0.400000X0*%
%ADD33RoundRect,0.135000X0.185000X-0.135000X0.185000X0.135000X-0.185000X0.135000X-0.185000X-0.135000X0*%
%ADD34RoundRect,0.250000X-0.262500X-0.450000X0.262500X-0.450000X0.262500X0.450000X-0.262500X0.450000X0*%
%ADD35RoundRect,0.122500X0.122500X-0.122500X0.122500X0.122500X-0.122500X0.122500X-0.122500X-0.122500X0*%
%ADD36R,3.300000X3.175000*%
%ADD37RoundRect,0.250000X1.100000X-0.325000X1.100000X0.325000X-1.100000X0.325000X-1.100000X-0.325000X0*%
%ADD38RoundRect,0.250000X1.500000X0.550000X-1.500000X0.550000X-1.500000X-0.550000X1.500000X-0.550000X0*%
%ADD39RoundRect,0.250000X-0.250000X-0.475000X0.250000X-0.475000X0.250000X0.475000X-0.250000X0.475000X0*%
%ADD40RoundRect,0.140000X0.140000X0.170000X-0.140000X0.170000X-0.140000X-0.170000X0.140000X-0.170000X0*%
%ADD41RoundRect,0.140000X0.170000X-0.140000X0.170000X0.140000X-0.170000X0.140000X-0.170000X-0.140000X0*%
%ADD42RoundRect,0.249999X-0.530001X0.855001X-0.530001X-0.855001X0.530001X-0.855001X0.530001X0.855001X0*%
%ADD43RoundRect,0.100000X-0.100000X0.637500X-0.100000X-0.637500X0.100000X-0.637500X0.100000X0.637500X0*%
G04 APERTURE END LIST*
D10*
%TO.C,F4*%
X151400000Y-54800000D03*
X148600000Y-54800000D03*
%TD*%
D11*
%TO.C,C14*%
X142200000Y-89700000D03*
X145150000Y-89700000D03*
%TD*%
D12*
%TO.C,U3*%
X149037500Y-86850000D03*
X149037500Y-85900000D03*
X149037500Y-84950000D03*
X146762500Y-84950000D03*
X146762500Y-85900000D03*
X146762500Y-86850000D03*
%TD*%
D13*
%TO.C,R13*%
X142500000Y-84987500D03*
X142500000Y-86812500D03*
%TD*%
D14*
%TO.C,R12*%
X144600000Y-86837500D03*
X144600000Y-85012500D03*
%TD*%
D15*
%TO.C,L2*%
X154000000Y-82779000D03*
X154000000Y-88621000D03*
%TD*%
D16*
%TO.C,C18*%
X148750000Y-79100000D03*
X143650000Y-79100000D03*
%TD*%
D17*
%TO.C,C16*%
X149075000Y-83100000D03*
X147525000Y-83100000D03*
%TD*%
D18*
%TO.C,C15*%
X152000000Y-93800000D03*
X152000000Y-99200000D03*
%TD*%
D19*
%TO.C,C13*%
X146940000Y-88300000D03*
X147900000Y-88300000D03*
%TD*%
D20*
%TO.C,Q10*%
X178425000Y-91550000D03*
X178425000Y-93450000D03*
X180300000Y-92500000D03*
%TD*%
D21*
%TO.C,Q9*%
X152400000Y-105437500D03*
X151450000Y-103562500D03*
X153350000Y-103562500D03*
%TD*%
D20*
%TO.C,Q14*%
X159347500Y-102802500D03*
X157472500Y-103752500D03*
X157472500Y-101852500D03*
%TD*%
D22*
%TO.C,D5*%
X130600000Y-86362500D03*
X130600000Y-88237500D03*
%TD*%
%TO.C,D3*%
X133600000Y-86362500D03*
X133600000Y-88237500D03*
%TD*%
D14*
%TO.C,R5*%
X130600000Y-80387500D03*
X130600000Y-82212500D03*
%TD*%
%TO.C,R3*%
X133600000Y-80387500D03*
X133600000Y-82212500D03*
%TD*%
D23*
%TO.C,J17*%
X203882500Y-31600000D03*
X203882500Y-34600000D03*
D24*
X209352500Y-38485000D03*
X209352500Y-27715000D03*
%TD*%
D23*
%TO.C,J8*%
X203882500Y-47500000D03*
X203882500Y-50500000D03*
D24*
X209352500Y-54385000D03*
X209352500Y-43615000D03*
%TD*%
D23*
%TO.C,J7*%
X203982500Y-79500000D03*
X203982500Y-82500000D03*
D24*
X209452500Y-86385000D03*
X209452500Y-75615000D03*
%TD*%
D23*
%TO.C,J15*%
X204082500Y-95500000D03*
X204082500Y-98500000D03*
D24*
X209552500Y-102385000D03*
X209552500Y-91615000D03*
%TD*%
D23*
%TO.C,J12*%
X203882500Y-63500000D03*
X203882500Y-66500000D03*
D24*
X209352500Y-70385000D03*
X209352500Y-59615000D03*
%TD*%
D23*
%TO.C,J14*%
X203982500Y-112500000D03*
X203982500Y-115500000D03*
D24*
X209452500Y-119385000D03*
X209452500Y-108615000D03*
%TD*%
D20*
%TO.C,Q8*%
X178262500Y-50750000D03*
X178262500Y-52650000D03*
X180137500Y-51700000D03*
%TD*%
%TO.C,Q13*%
X157635000Y-91707500D03*
X157635000Y-93607500D03*
X159510000Y-92657500D03*
%TD*%
%TO.C,Q16*%
X157625000Y-111850000D03*
X157625000Y-113750000D03*
X159500000Y-112800000D03*
%TD*%
%TO.C,Q7*%
X178300000Y-82000000D03*
X178300000Y-83900000D03*
X180175000Y-82950000D03*
%TD*%
%TO.C,Q12*%
X157437500Y-79200000D03*
X155562500Y-80150000D03*
X155562500Y-78250000D03*
%TD*%
D25*
%TO.C,C12*%
X172050000Y-66000000D03*
X175000000Y-66000000D03*
%TD*%
%TO.C,C11*%
X172050000Y-61750000D03*
X175000000Y-61750000D03*
%TD*%
%TO.C,C10*%
X172050000Y-57500000D03*
X175000000Y-57500000D03*
%TD*%
D26*
%TO.C,Q1*%
X153570000Y-47202500D03*
X151380000Y-47202500D03*
D27*
X153570000Y-49112500D03*
X151380000Y-49112500D03*
D28*
X154380000Y-45200000D03*
X153110000Y-45200000D03*
X151840000Y-45200000D03*
X150570000Y-45200000D03*
D29*
X154380000Y-50800000D03*
X153110000Y-50800000D03*
X151840000Y-50800000D03*
X150570000Y-50800000D03*
%TD*%
D30*
%TO.C,R1*%
X142512500Y-38100000D03*
X140687500Y-38100000D03*
%TD*%
%TO.C,R11*%
X158512500Y-26700000D03*
X156687500Y-26700000D03*
%TD*%
D31*
%TO.C,R10*%
X157880000Y-28300000D03*
X158900000Y-28300000D03*
%TD*%
D32*
%TO.C,R9*%
X158000000Y-47450000D03*
X158000000Y-50550000D03*
%TD*%
D33*
%TO.C,R8*%
X156300000Y-32210000D03*
X156300000Y-31190000D03*
%TD*%
%TO.C,R7*%
X163600000Y-27810000D03*
X163600000Y-26790000D03*
%TD*%
D34*
%TO.C,R6*%
X168487500Y-29000000D03*
X170312500Y-29000000D03*
%TD*%
D31*
%TO.C,R4*%
X165990000Y-29000000D03*
X167010000Y-29000000D03*
%TD*%
D20*
%TO.C,Q18*%
X178497500Y-101730000D03*
X178497500Y-103630000D03*
X180372500Y-102680000D03*
%TD*%
%TO.C,Q15*%
X178395000Y-111762500D03*
X178395000Y-113662500D03*
X180270000Y-112712500D03*
%TD*%
%TO.C,Q11*%
X157582500Y-71970000D03*
X157582500Y-73870000D03*
X159457500Y-72920000D03*
%TD*%
D26*
%TO.C,Q2*%
X157540000Y-42997500D03*
X159730000Y-42997500D03*
D27*
X157540000Y-41087500D03*
X159730000Y-41087500D03*
D35*
X156730000Y-45000000D03*
X158000000Y-45000000D03*
X159270000Y-45000000D03*
X160540000Y-45000000D03*
D29*
X156730000Y-39400000D03*
X158000000Y-39400000D03*
X159270000Y-39400000D03*
X160540000Y-39400000D03*
%TD*%
D36*
%TO.C,L1*%
X169000000Y-41285000D03*
X169000000Y-52715000D03*
%TD*%
D37*
%TO.C,C42*%
X137600000Y-72575000D03*
X137600000Y-69625000D03*
%TD*%
%TO.C,C41*%
X153300000Y-72250000D03*
X153300000Y-69300000D03*
%TD*%
%TO.C,C40*%
X142800000Y-72600000D03*
X142800000Y-69650000D03*
%TD*%
D38*
%TO.C,C9*%
X167700000Y-59000000D03*
X162300000Y-59000000D03*
%TD*%
D39*
%TO.C,C8*%
X166050000Y-37900000D03*
X167950000Y-37900000D03*
%TD*%
D40*
%TO.C,C6*%
X157480000Y-33300000D03*
X156520000Y-33300000D03*
%TD*%
D41*
%TO.C,C5*%
X157600000Y-32180000D03*
X157600000Y-31220000D03*
%TD*%
%TO.C,C3*%
X161600000Y-27770000D03*
X161600000Y-26810000D03*
%TD*%
D25*
%TO.C,C2*%
X155000000Y-58000000D03*
X157950000Y-58000000D03*
%TD*%
D39*
%TO.C,C1*%
X154525000Y-54000000D03*
X156425000Y-54000000D03*
%TD*%
D42*
%TO.C,U1*%
X162930000Y-33000000D03*
X161000000Y-33000000D03*
D43*
X164890000Y-30137500D03*
X164240000Y-30137500D03*
X163590000Y-30137500D03*
X162940000Y-30137500D03*
X162290000Y-30137500D03*
X161640000Y-30137500D03*
X160990000Y-30137500D03*
X160340000Y-30137500D03*
X159690000Y-30137500D03*
X159040000Y-30137500D03*
X159040000Y-35862500D03*
X159690000Y-35862500D03*
X160340000Y-35862500D03*
X160990000Y-35862500D03*
X161640000Y-35862500D03*
X162290000Y-35862500D03*
X162940000Y-35862500D03*
X163590000Y-35862500D03*
X164240000Y-35862500D03*
X164890000Y-35862500D03*
%TD*%
M02*
