%TF.GenerationSoftware,KiCad,Pcbnew,8.0.5*%
%TF.CreationDate,2024-10-29T10:28:22+01:00*%
%TF.ProjectId,sensorBoard,73656e73-6f72-4426-9f61-72642e6b6963,rev?*%
%TF.SameCoordinates,Original*%
%TF.FileFunction,Profile,NP*%
%FSLAX46Y46*%
G04 Gerber Fmt 4.6, Leading zero omitted, Abs format (unit mm)*
G04 Created by KiCad (PCBNEW 8.0.5) date 2024-10-29 10:28:22*
%MOMM*%
%LPD*%
G01*
G04 APERTURE LIST*
%TA.AperFunction,Profile*%
%ADD10C,0.050000*%
%TD*%
G04 APERTURE END LIST*
D10*
X240000000Y-30000000D02*
X240000000Y-160000000D01*
X140000000Y-30000000D02*
G75*
G02*
X150000000Y-20000000I10000000J0D01*
G01*
X120000000Y-20000000D02*
G75*
G02*
X130000000Y-30000000I0J-10000000D01*
G01*
X140000000Y-30000000D02*
X140000000Y-60000000D01*
X130000000Y-160000000D02*
G75*
G02*
X120000000Y-170000000I-10000000J0D01*
G01*
X40035408Y-169999937D02*
G75*
G02*
X30000000Y-160000000I-35408J9999937D01*
G01*
X140000000Y-160000000D02*
X140000000Y-120000000D01*
X30000000Y-160000000D02*
X30000000Y-30000000D01*
X230000000Y-170000000D02*
X150000000Y-170000000D01*
X230000000Y-20000000D02*
X150000000Y-20000000D01*
X240000000Y-160000000D02*
G75*
G02*
X230000000Y-170000000I-10000000J0D01*
G01*
X130000000Y-74000000D02*
X130000000Y-106000000D01*
X130000000Y-60000000D02*
X130000000Y-30000000D01*
X40035408Y-169999937D02*
X120000000Y-170000000D01*
X130000000Y-74000000D02*
G75*
G02*
X140000000Y-74000000I5000000J0D01*
G01*
X140000000Y-60000000D02*
G75*
G02*
X130000000Y-60000000I-5000000J0D01*
G01*
X130000000Y-120000000D02*
X130000000Y-160000000D01*
X120000000Y-20000000D02*
X40000000Y-20000000D01*
X30000000Y-30000000D02*
G75*
G02*
X40000000Y-20000000I10000000J0D01*
G01*
X150000000Y-170000000D02*
G75*
G02*
X140000000Y-160000000I0J10000000D01*
G01*
X130000000Y-120000000D02*
G75*
G02*
X140000000Y-120000000I5000000J0D01*
G01*
X140000000Y-74000000D02*
X140000000Y-106000000D01*
X140000000Y-106000000D02*
G75*
G02*
X130000000Y-106000000I-5000000J0D01*
G01*
X230000000Y-20000000D02*
G75*
G02*
X240000000Y-30000000I0J-10000000D01*
G01*
%TO.C,J13*%
X33050000Y-91250000D02*
G75*
G02*
X30950000Y-91250000I-1050000J0D01*
G01*
X30950000Y-91250000D02*
G75*
G02*
X33050000Y-91250000I1050000J0D01*
G01*
X33050000Y-98750000D02*
G75*
G02*
X30950000Y-98750000I-1050000J0D01*
G01*
X30950000Y-98750000D02*
G75*
G02*
X33050000Y-98750000I1050000J0D01*
G01*
X39600000Y-88700000D02*
G75*
G02*
X36000000Y-88700000I-1800000J0D01*
G01*
X36000000Y-88700000D02*
G75*
G02*
X39600000Y-88700000I1800000J0D01*
G01*
X39600000Y-101300000D02*
G75*
G02*
X36000000Y-101300000I-1800000J0D01*
G01*
X36000000Y-101300000D02*
G75*
G02*
X39600000Y-101300000I1800000J0D01*
G01*
%TO.C,J3*%
X33050000Y-114250000D02*
G75*
G02*
X30950000Y-114250000I-1050000J0D01*
G01*
X30950000Y-114250000D02*
G75*
G02*
X33050000Y-114250000I1050000J0D01*
G01*
X33050000Y-121750000D02*
G75*
G02*
X30950000Y-121750000I-1050000J0D01*
G01*
X30950000Y-121750000D02*
G75*
G02*
X33050000Y-121750000I1050000J0D01*
G01*
X39600000Y-111700000D02*
G75*
G02*
X36000000Y-111700000I-1800000J0D01*
G01*
X36000000Y-111700000D02*
G75*
G02*
X39600000Y-111700000I1800000J0D01*
G01*
X39600000Y-124300000D02*
G75*
G02*
X36000000Y-124300000I-1800000J0D01*
G01*
X36000000Y-124300000D02*
G75*
G02*
X39600000Y-124300000I1800000J0D01*
G01*
%TO.C,J2*%
X33050000Y-137250000D02*
G75*
G02*
X30950000Y-137250000I-1050000J0D01*
G01*
X30950000Y-137250000D02*
G75*
G02*
X33050000Y-137250000I1050000J0D01*
G01*
X33050000Y-144750000D02*
G75*
G02*
X30950000Y-144750000I-1050000J0D01*
G01*
X30950000Y-144750000D02*
G75*
G02*
X33050000Y-144750000I1050000J0D01*
G01*
X39600000Y-134700000D02*
G75*
G02*
X36000000Y-134700000I-1800000J0D01*
G01*
X36000000Y-134700000D02*
G75*
G02*
X39600000Y-134700000I1800000J0D01*
G01*
X39600000Y-147300000D02*
G75*
G02*
X36000000Y-147300000I-1800000J0D01*
G01*
X36000000Y-147300000D02*
G75*
G02*
X39600000Y-147300000I1800000J0D01*
G01*
%TO.C,J1*%
X39600000Y-55300000D02*
G75*
G02*
X36000000Y-55300000I-1800000J0D01*
G01*
X36000000Y-55300000D02*
G75*
G02*
X39600000Y-55300000I1800000J0D01*
G01*
X39600000Y-42700000D02*
G75*
G02*
X36000000Y-42700000I-1800000J0D01*
G01*
X36000000Y-42700000D02*
G75*
G02*
X39600000Y-42700000I1800000J0D01*
G01*
X33050000Y-52750000D02*
G75*
G02*
X30950000Y-52750000I-1050000J0D01*
G01*
X30950000Y-52750000D02*
G75*
G02*
X33050000Y-52750000I1050000J0D01*
G01*
X33050000Y-45250000D02*
G75*
G02*
X30950000Y-45250000I-1050000J0D01*
G01*
X30950000Y-45250000D02*
G75*
G02*
X33050000Y-45250000I1050000J0D01*
G01*
%TO.C,J5*%
X143050000Y-68250000D02*
G75*
G02*
X140950000Y-68250000I-1050000J0D01*
G01*
X140950000Y-68250000D02*
G75*
G02*
X143050000Y-68250000I1050000J0D01*
G01*
X143050000Y-75750000D02*
G75*
G02*
X140950000Y-75750000I-1050000J0D01*
G01*
X140950000Y-75750000D02*
G75*
G02*
X143050000Y-75750000I1050000J0D01*
G01*
X149600000Y-65700000D02*
G75*
G02*
X146000000Y-65700000I-1800000J0D01*
G01*
X146000000Y-65700000D02*
G75*
G02*
X149600000Y-65700000I1800000J0D01*
G01*
X149600000Y-78300000D02*
G75*
G02*
X146000000Y-78300000I-1800000J0D01*
G01*
X146000000Y-78300000D02*
G75*
G02*
X149600000Y-78300000I1800000J0D01*
G01*
%TO.C,J7*%
X143050000Y-137250000D02*
G75*
G02*
X140950000Y-137250000I-1050000J0D01*
G01*
X140950000Y-137250000D02*
G75*
G02*
X143050000Y-137250000I1050000J0D01*
G01*
X143050000Y-144750000D02*
G75*
G02*
X140950000Y-144750000I-1050000J0D01*
G01*
X140950000Y-144750000D02*
G75*
G02*
X143050000Y-144750000I1050000J0D01*
G01*
X149600000Y-134700000D02*
G75*
G02*
X146000000Y-134700000I-1800000J0D01*
G01*
X146000000Y-134700000D02*
G75*
G02*
X149600000Y-134700000I1800000J0D01*
G01*
X149600000Y-147300000D02*
G75*
G02*
X146000000Y-147300000I-1800000J0D01*
G01*
X146000000Y-147300000D02*
G75*
G02*
X149600000Y-147300000I1800000J0D01*
G01*
%TO.C,J4*%
X33050000Y-68250000D02*
G75*
G02*
X30950000Y-68250000I-1050000J0D01*
G01*
X30950000Y-68250000D02*
G75*
G02*
X33050000Y-68250000I1050000J0D01*
G01*
X33050000Y-75750000D02*
G75*
G02*
X30950000Y-75750000I-1050000J0D01*
G01*
X30950000Y-75750000D02*
G75*
G02*
X33050000Y-75750000I1050000J0D01*
G01*
X39600000Y-65700000D02*
G75*
G02*
X36000000Y-65700000I-1800000J0D01*
G01*
X36000000Y-65700000D02*
G75*
G02*
X39600000Y-65700000I1800000J0D01*
G01*
X39600000Y-78300000D02*
G75*
G02*
X36000000Y-78300000I-1800000J0D01*
G01*
X36000000Y-78300000D02*
G75*
G02*
X39600000Y-78300000I1800000J0D01*
G01*
%TO.C,J8*%
X143050000Y-45250000D02*
G75*
G02*
X140950000Y-45250000I-1050000J0D01*
G01*
X140950000Y-45250000D02*
G75*
G02*
X143050000Y-45250000I1050000J0D01*
G01*
X143050000Y-52750000D02*
G75*
G02*
X140950000Y-52750000I-1050000J0D01*
G01*
X140950000Y-52750000D02*
G75*
G02*
X143050000Y-52750000I1050000J0D01*
G01*
X149600000Y-42700000D02*
G75*
G02*
X146000000Y-42700000I-1800000J0D01*
G01*
X146000000Y-42700000D02*
G75*
G02*
X149600000Y-42700000I1800000J0D01*
G01*
X149600000Y-55300000D02*
G75*
G02*
X146000000Y-55300000I-1800000J0D01*
G01*
X146000000Y-55300000D02*
G75*
G02*
X149600000Y-55300000I1800000J0D01*
G01*
%TO.C,J6*%
X143050000Y-114250000D02*
G75*
G02*
X140950000Y-114250000I-1050000J0D01*
G01*
X140950000Y-114250000D02*
G75*
G02*
X143050000Y-114250000I1050000J0D01*
G01*
X143050000Y-121750000D02*
G75*
G02*
X140950000Y-121750000I-1050000J0D01*
G01*
X140950000Y-121750000D02*
G75*
G02*
X143050000Y-121750000I1050000J0D01*
G01*
X149600000Y-111700000D02*
G75*
G02*
X146000000Y-111700000I-1800000J0D01*
G01*
X146000000Y-111700000D02*
G75*
G02*
X149600000Y-111700000I1800000J0D01*
G01*
X149600000Y-124300000D02*
G75*
G02*
X146000000Y-124300000I-1800000J0D01*
G01*
X146000000Y-124300000D02*
G75*
G02*
X149600000Y-124300000I1800000J0D01*
G01*
%TO.C,J21*%
X143050000Y-91250000D02*
G75*
G02*
X140950000Y-91250000I-1050000J0D01*
G01*
X140950000Y-91250000D02*
G75*
G02*
X143050000Y-91250000I1050000J0D01*
G01*
X143050000Y-98750000D02*
G75*
G02*
X140950000Y-98750000I-1050000J0D01*
G01*
X140950000Y-98750000D02*
G75*
G02*
X143050000Y-98750000I1050000J0D01*
G01*
X149600000Y-88700000D02*
G75*
G02*
X146000000Y-88700000I-1800000J0D01*
G01*
X146000000Y-88700000D02*
G75*
G02*
X149600000Y-88700000I1800000J0D01*
G01*
X149600000Y-101300000D02*
G75*
G02*
X146000000Y-101300000I-1800000J0D01*
G01*
X146000000Y-101300000D02*
G75*
G02*
X149600000Y-101300000I1800000J0D01*
G01*
%TD*%
M02*
