%TF.GenerationSoftware,KiCad,Pcbnew,9.0.1*%
%TF.CreationDate,2025-06-02T22:26:34+02:00*%
%TF.ProjectId,sensorBoard,73656e73-6f72-4426-9f61-72642e6b6963,rev?*%
%TF.SameCoordinates,Original*%
%TF.FileFunction,Soldermask,Top*%
%TF.FilePolarity,Negative*%
%FSLAX46Y46*%
G04 Gerber Fmt 4.6, Leading zero omitted, Abs format (unit mm)*
G04 Created by KiCad (PCBNEW 9.0.1) date 2025-06-02 22:26:34*
%MOMM*%
%LPD*%
G01*
G04 APERTURE LIST*
G04 Aperture macros list*
%AMRoundRect*
0 Rectangle with rounded corners*
0 $1 Rounding radius*
0 $2 $3 $4 $5 $6 $7 $8 $9 X,Y pos of 4 corners*
0 Add a 4 corners polygon primitive as box body*
4,1,4,$2,$3,$4,$5,$6,$7,$8,$9,$2,$3,0*
0 Add four circle primitives for the rounded corners*
1,1,$1+$1,$2,$3*
1,1,$1+$1,$4,$5*
1,1,$1+$1,$6,$7*
1,1,$1+$1,$8,$9*
0 Add four rect primitives between the rounded corners*
20,1,$1+$1,$2,$3,$4,$5,0*
20,1,$1+$1,$4,$5,$6,$7,0*
20,1,$1+$1,$6,$7,$8,$9,0*
20,1,$1+$1,$8,$9,$2,$3,0*%
G04 Aperture macros list end*
%ADD10RoundRect,0.250000X0.375000X0.625000X-0.375000X0.625000X-0.375000X-0.625000X0.375000X-0.625000X0*%
%ADD11RoundRect,0.250000X0.325000X1.100000X-0.325000X1.100000X-0.325000X-1.100000X0.325000X-1.100000X0*%
%ADD12RoundRect,0.150000X0.512500X0.150000X-0.512500X0.150000X-0.512500X-0.150000X0.512500X-0.150000X0*%
%ADD13RoundRect,0.250000X-0.450000X0.262500X-0.450000X-0.262500X0.450000X-0.262500X0.450000X0.262500X0*%
%ADD14RoundRect,0.250000X0.450000X-0.262500X0.450000X0.262500X-0.450000X0.262500X-0.450000X-0.262500X0*%
%ADD15R,3.429000X2.413000*%
%ADD16RoundRect,0.250000X0.650000X2.450000X-0.650000X2.450000X-0.650000X-2.450000X0.650000X-2.450000X0*%
%ADD17RoundRect,0.225000X0.225000X0.250000X-0.225000X0.250000X-0.225000X-0.250000X0.225000X-0.250000X0*%
%ADD18RoundRect,0.250000X-0.550000X1.500000X-0.550000X-1.500000X0.550000X-1.500000X0.550000X1.500000X0*%
%ADD19RoundRect,0.140000X-0.140000X-0.170000X0.140000X-0.170000X0.140000X0.170000X-0.140000X0.170000X0*%
%ADD20RoundRect,0.250500X-0.499500X-0.499500X0.499500X-0.499500X0.499500X0.499500X-0.499500X0.499500X0*%
%ADD21C,1.500000*%
%ADD22RoundRect,0.250500X0.499500X-0.499500X0.499500X0.499500X-0.499500X0.499500X-0.499500X-0.499500X0*%
%ADD23RoundRect,0.150000X-0.587500X-0.150000X0.587500X-0.150000X0.587500X0.150000X-0.587500X0.150000X0*%
%ADD24RoundRect,0.150000X-0.150000X0.587500X-0.150000X-0.587500X0.150000X-0.587500X0.150000X0.587500X0*%
%ADD25RoundRect,0.243750X-0.456250X0.243750X-0.456250X-0.243750X0.456250X-0.243750X0.456250X0.243750X0*%
%ADD26C,2.000000*%
%ADD27R,2.000000X2.000000*%
%ADD28RoundRect,0.190500X-1.269500X-0.444500X1.269500X-0.444500X1.269500X0.444500X-1.269500X0.444500X0*%
%ADD29RoundRect,0.247500X0.577500X-1.467500X0.577500X1.467500X-0.577500X1.467500X-0.577500X-1.467500X0*%
%ADD30RoundRect,0.250000X-0.325000X-1.100000X0.325000X-1.100000X0.325000X1.100000X-0.325000X1.100000X0*%
%ADD31RoundRect,0.175000X-0.175000X0.175000X-0.175000X-0.175000X0.175000X-0.175000X0.175000X0.175000X0*%
%ADD32R,4.510000X4.350000*%
%ADD33R,0.700000X0.700000*%
%ADD34RoundRect,0.250000X0.262500X0.450000X-0.262500X0.450000X-0.262500X-0.450000X0.262500X-0.450000X0*%
%ADD35RoundRect,0.135000X-0.135000X-0.185000X0.135000X-0.185000X0.135000X0.185000X-0.135000X0.185000X0*%
%ADD36RoundRect,0.250000X-0.625000X0.400000X-0.625000X-0.400000X0.625000X-0.400000X0.625000X0.400000X0*%
%ADD37RoundRect,0.135000X0.185000X-0.135000X0.185000X0.135000X-0.185000X0.135000X-0.185000X-0.135000X0*%
%ADD38RoundRect,0.250000X-0.262500X-0.450000X0.262500X-0.450000X0.262500X0.450000X-0.262500X0.450000X0*%
%ADD39RoundRect,0.175000X0.175000X-0.175000X0.175000X0.175000X-0.175000X0.175000X-0.175000X-0.175000X0*%
%ADD40R,3.300000X3.175000*%
%ADD41C,10.000000*%
%ADD42C,2.500000*%
%ADD43R,1.700000X1.700000*%
%ADD44C,1.700000*%
%ADD45C,3.250000*%
%ADD46R,1.500000X1.500000*%
%ADD47C,2.300000*%
%ADD48RoundRect,0.250000X1.100000X-0.325000X1.100000X0.325000X-1.100000X0.325000X-1.100000X-0.325000X0*%
%ADD49RoundRect,0.250000X1.500000X0.550000X-1.500000X0.550000X-1.500000X-0.550000X1.500000X-0.550000X0*%
%ADD50RoundRect,0.250000X-0.250000X-0.475000X0.250000X-0.475000X0.250000X0.475000X-0.250000X0.475000X0*%
%ADD51RoundRect,0.140000X0.140000X0.170000X-0.140000X0.170000X-0.140000X-0.170000X0.140000X-0.170000X0*%
%ADD52RoundRect,0.140000X0.170000X-0.140000X0.170000X0.140000X-0.170000X0.140000X-0.170000X-0.140000X0*%
%ADD53RoundRect,0.100000X-0.100000X0.637500X-0.100000X-0.637500X0.100000X-0.637500X0.100000X0.637500X0*%
%ADD54R,3.860000X2.740000*%
G04 APERTURE END LIST*
D10*
%TO.C,F4*%
X151400000Y-54800000D03*
X148600000Y-54800000D03*
%TD*%
D11*
%TO.C,C14*%
X142200000Y-89700000D03*
X145150000Y-89700000D03*
%TD*%
D12*
%TO.C,U3*%
X149037500Y-86850000D03*
X149037500Y-85900000D03*
X149037500Y-84950000D03*
X146762500Y-84950000D03*
X146762500Y-85900000D03*
X146762500Y-86850000D03*
%TD*%
D13*
%TO.C,R13*%
X142500000Y-84987500D03*
X142500000Y-86812500D03*
%TD*%
D14*
%TO.C,R12*%
X144600000Y-86837500D03*
X144600000Y-85012500D03*
%TD*%
D15*
%TO.C,L2*%
X154000000Y-82779000D03*
X154000000Y-88621000D03*
%TD*%
D16*
%TO.C,C18*%
X148750000Y-79100000D03*
X143650000Y-79100000D03*
%TD*%
D17*
%TO.C,C16*%
X149075000Y-83100000D03*
X147525000Y-83100000D03*
%TD*%
D18*
%TO.C,C15*%
X152000000Y-93800000D03*
X152000000Y-99200000D03*
%TD*%
D19*
%TO.C,C13*%
X146940000Y-88300000D03*
X147900000Y-88300000D03*
%TD*%
D20*
%TO.C,K1*%
X147600000Y-107920000D03*
D21*
X147600000Y-113000000D03*
X147600000Y-115540000D03*
X147600000Y-118080000D03*
X152680000Y-118080000D03*
X152680000Y-115540000D03*
X152680000Y-113000000D03*
X152680000Y-107920000D03*
%TD*%
D22*
%TO.C,K2*%
X182782500Y-97380000D03*
D21*
X187862500Y-97380000D03*
X190402500Y-97380000D03*
X192942500Y-97380000D03*
X192942500Y-92300000D03*
X190402500Y-92300000D03*
X187862500Y-92300000D03*
X182782500Y-92300000D03*
%TD*%
D23*
%TO.C,Q10*%
X178425000Y-91550000D03*
X178425000Y-93450000D03*
X180300000Y-92500000D03*
%TD*%
D24*
%TO.C,Q9*%
X152400000Y-105437500D03*
X151450000Y-103562500D03*
X153350000Y-103562500D03*
%TD*%
D23*
%TO.C,Q14*%
X159347500Y-102802500D03*
X157472500Y-103752500D03*
X157472500Y-101852500D03*
%TD*%
D25*
%TO.C,D5*%
X130600000Y-86362500D03*
X130600000Y-88237500D03*
%TD*%
%TO.C,D3*%
X133600000Y-86362500D03*
X133600000Y-88237500D03*
%TD*%
D26*
%TO.C,K13*%
X184000000Y-82500000D03*
D27*
X191500000Y-82500000D03*
D26*
X191500000Y-59000000D03*
X191500000Y-66000000D03*
X184000000Y-62500000D03*
%TD*%
D14*
%TO.C,R5*%
X130600000Y-80387500D03*
X130600000Y-82212500D03*
%TD*%
%TO.C,R3*%
X133600000Y-80387500D03*
X133600000Y-82212500D03*
%TD*%
D28*
%TO.C,J17*%
X203882500Y-31600000D03*
X203882500Y-34600000D03*
D29*
X209352500Y-38485000D03*
X209352500Y-27715000D03*
%TD*%
D28*
%TO.C,J8*%
X203882500Y-47500000D03*
X203882500Y-50500000D03*
D29*
X209352500Y-54385000D03*
X209352500Y-43615000D03*
%TD*%
D28*
%TO.C,J7*%
X203982500Y-79500000D03*
X203982500Y-82500000D03*
D29*
X209452500Y-86385000D03*
X209452500Y-75615000D03*
%TD*%
D28*
%TO.C,J15*%
X204082500Y-95500000D03*
X204082500Y-98500000D03*
D29*
X209552500Y-102385000D03*
X209552500Y-91615000D03*
%TD*%
D28*
%TO.C,J12*%
X203882500Y-63500000D03*
X203882500Y-66500000D03*
D29*
X209352500Y-70385000D03*
X209352500Y-59615000D03*
%TD*%
D28*
%TO.C,J14*%
X203982500Y-112500000D03*
X203982500Y-115500000D03*
D29*
X209452500Y-119385000D03*
X209452500Y-108615000D03*
%TD*%
D22*
%TO.C,K3*%
X161920000Y-77800000D03*
D21*
X167000000Y-77800000D03*
X169540000Y-77800000D03*
X172080000Y-77800000D03*
X172080000Y-72720000D03*
X169540000Y-72720000D03*
X167000000Y-72720000D03*
X161920000Y-72720000D03*
%TD*%
%TO.C,K7*%
X182582500Y-112300000D03*
X187662500Y-112300000D03*
X190202500Y-112300000D03*
X192742500Y-112300000D03*
X192742500Y-117380000D03*
X190202500Y-117380000D03*
X187662500Y-117380000D03*
D22*
X182582500Y-117380000D03*
%TD*%
D23*
%TO.C,Q8*%
X178262500Y-50750000D03*
X178262500Y-52650000D03*
X180137500Y-51700000D03*
%TD*%
%TO.C,Q13*%
X157635000Y-91707500D03*
X157635000Y-93607500D03*
X159510000Y-92657500D03*
%TD*%
D26*
%TO.C,K14*%
X184287500Y-31737500D03*
X191787500Y-35237500D03*
X191787500Y-28237500D03*
D27*
X191787500Y-51737500D03*
D26*
X184287500Y-51737500D03*
%TD*%
D21*
%TO.C,K5*%
X161800000Y-92320000D03*
X166880000Y-92320000D03*
X169420000Y-92320000D03*
X171960000Y-92320000D03*
X171960000Y-97400000D03*
X169420000Y-97400000D03*
X166880000Y-97400000D03*
D22*
X161800000Y-97400000D03*
%TD*%
D21*
%TO.C,K6*%
X161800000Y-102520000D03*
X166880000Y-102520000D03*
X169420000Y-102520000D03*
X171960000Y-102520000D03*
X171960000Y-107600000D03*
X169420000Y-107600000D03*
X166880000Y-107600000D03*
D22*
X161800000Y-107600000D03*
%TD*%
D23*
%TO.C,Q16*%
X157625000Y-111850000D03*
X157625000Y-113750000D03*
X159500000Y-112800000D03*
%TD*%
D22*
%TO.C,K10*%
X182682500Y-107460000D03*
D21*
X187762500Y-107460000D03*
X190302500Y-107460000D03*
X192842500Y-107460000D03*
X192842500Y-102380000D03*
X190302500Y-102380000D03*
X187762500Y-102380000D03*
X182682500Y-102380000D03*
%TD*%
%TO.C,K4*%
X161900000Y-82400000D03*
X166980000Y-82400000D03*
X169520000Y-82400000D03*
X172060000Y-82400000D03*
X172060000Y-87480000D03*
X169520000Y-87480000D03*
X166980000Y-87480000D03*
D22*
X161900000Y-87480000D03*
%TD*%
%TO.C,K8*%
X161712500Y-117522500D03*
D21*
X166792500Y-117522500D03*
X169332500Y-117522500D03*
X171872500Y-117522500D03*
X171872500Y-112442500D03*
X169332500Y-112442500D03*
X166792500Y-112442500D03*
X161712500Y-112442500D03*
%TD*%
D23*
%TO.C,Q7*%
X178300000Y-82000000D03*
X178300000Y-83900000D03*
X180175000Y-82950000D03*
%TD*%
%TO.C,Q12*%
X157437500Y-79200000D03*
X155562500Y-80150000D03*
X155562500Y-78250000D03*
%TD*%
D30*
%TO.C,C12*%
X172050000Y-66000000D03*
X175000000Y-66000000D03*
%TD*%
%TO.C,C11*%
X172050000Y-61750000D03*
X175000000Y-61750000D03*
%TD*%
%TO.C,C10*%
X172050000Y-57500000D03*
X175000000Y-57500000D03*
%TD*%
D31*
%TO.C,Q1*%
X154380000Y-45200000D03*
X153110000Y-45200000D03*
X151840000Y-45200000D03*
X150570000Y-45200000D03*
D32*
X152475000Y-48330000D03*
D33*
X154380000Y-50800000D03*
X153110000Y-50800000D03*
X151840000Y-50800000D03*
X150570000Y-50800000D03*
%TD*%
D34*
%TO.C,R1*%
X142512500Y-38100000D03*
X140687500Y-38100000D03*
%TD*%
%TO.C,R11*%
X158512500Y-26700000D03*
X156687500Y-26700000D03*
%TD*%
D35*
%TO.C,R10*%
X157880000Y-28300000D03*
X158900000Y-28300000D03*
%TD*%
D36*
%TO.C,R9*%
X158000000Y-47450000D03*
X158000000Y-50550000D03*
%TD*%
D37*
%TO.C,R8*%
X156300000Y-32210000D03*
X156300000Y-31190000D03*
%TD*%
%TO.C,R7*%
X163600000Y-27810000D03*
X163600000Y-26790000D03*
%TD*%
D38*
%TO.C,R6*%
X168487500Y-29000000D03*
X170312500Y-29000000D03*
%TD*%
D35*
%TO.C,R4*%
X165990000Y-29000000D03*
X167010000Y-29000000D03*
%TD*%
D23*
%TO.C,Q18*%
X178497500Y-101730000D03*
X178497500Y-103630000D03*
X180372500Y-102680000D03*
%TD*%
%TO.C,Q15*%
X178395000Y-111762500D03*
X178395000Y-113662500D03*
X180270000Y-112712500D03*
%TD*%
%TO.C,Q11*%
X157582500Y-71970000D03*
X157582500Y-73870000D03*
X159457500Y-72920000D03*
%TD*%
D39*
%TO.C,Q2*%
X156730000Y-45000000D03*
X158000000Y-45000000D03*
X159270000Y-45000000D03*
X160540000Y-45000000D03*
D32*
X158635000Y-41870000D03*
D33*
X156730000Y-39400000D03*
X158000000Y-39400000D03*
X159270000Y-39400000D03*
X160540000Y-39400000D03*
%TD*%
D40*
%TO.C,L1*%
X169000000Y-41285000D03*
X169000000Y-52715000D03*
%TD*%
D41*
%TO.C,J20*%
X142750000Y-46798000D03*
X142750000Y-59098000D03*
D42*
X131450000Y-40648000D03*
X131450000Y-65248000D03*
%TD*%
D43*
%TO.C,J10*%
X131000000Y-32300000D03*
D44*
X133540000Y-32300000D03*
X136080000Y-32300000D03*
X138620000Y-32300000D03*
X141160000Y-32300000D03*
X143700000Y-32300000D03*
X146240000Y-32300000D03*
%TD*%
D45*
%TO.C,J5*%
X116180000Y-107206000D03*
X116180000Y-94506000D03*
D46*
X118720000Y-104416000D03*
D21*
X120500000Y-103400000D03*
X118720000Y-102384000D03*
X120500000Y-101368000D03*
X118720000Y-100352000D03*
X120500000Y-99336000D03*
X118720000Y-98320000D03*
X120500000Y-97304000D03*
D47*
X119610000Y-108986000D03*
X119610000Y-92726000D03*
%TD*%
D45*
%TO.C,J4*%
X116080000Y-86238000D03*
X116080000Y-73538000D03*
D46*
X118620000Y-83448000D03*
D21*
X120400000Y-82432000D03*
X118620000Y-81416000D03*
X120400000Y-80400000D03*
X118620000Y-79384000D03*
X120400000Y-78368000D03*
X118620000Y-77352000D03*
X120400000Y-76336000D03*
D47*
X119510000Y-88018000D03*
X119510000Y-71758000D03*
%TD*%
D43*
%TO.C,J3*%
X154300000Y-65700000D03*
D44*
X156840000Y-65700000D03*
%TD*%
D43*
%TO.C,J2*%
X116300000Y-32300000D03*
D44*
X118840000Y-32300000D03*
%TD*%
D48*
%TO.C,C42*%
X137600000Y-72575000D03*
X137600000Y-69625000D03*
%TD*%
%TO.C,C41*%
X153300000Y-72250000D03*
X153300000Y-69300000D03*
%TD*%
%TO.C,C40*%
X142800000Y-72600000D03*
X142800000Y-69650000D03*
%TD*%
D49*
%TO.C,C9*%
X167700000Y-59000000D03*
X162300000Y-59000000D03*
%TD*%
D50*
%TO.C,C8*%
X166050000Y-37900000D03*
X167950000Y-37900000D03*
%TD*%
D51*
%TO.C,C6*%
X157480000Y-33300000D03*
X156520000Y-33300000D03*
%TD*%
D52*
%TO.C,C5*%
X157600000Y-32180000D03*
X157600000Y-31220000D03*
%TD*%
%TO.C,C3*%
X161600000Y-27770000D03*
X161600000Y-26810000D03*
%TD*%
D30*
%TO.C,C2*%
X155000000Y-58000000D03*
X157950000Y-58000000D03*
%TD*%
D50*
%TO.C,C1*%
X154525000Y-54000000D03*
X156425000Y-54000000D03*
%TD*%
D53*
%TO.C,U1*%
X164890000Y-30137500D03*
X164240000Y-30137500D03*
X163590000Y-30137500D03*
X162940000Y-30137500D03*
X162290000Y-30137500D03*
X161640000Y-30137500D03*
X160990000Y-30137500D03*
X160340000Y-30137500D03*
X159690000Y-30137500D03*
X159040000Y-30137500D03*
X159040000Y-35862500D03*
X159690000Y-35862500D03*
X160340000Y-35862500D03*
X160990000Y-35862500D03*
X161640000Y-35862500D03*
X162290000Y-35862500D03*
X162940000Y-35862500D03*
X163590000Y-35862500D03*
X164240000Y-35862500D03*
X164890000Y-35862500D03*
D54*
X161965000Y-33000000D03*
%TD*%
M02*
