%TF.GenerationSoftware,KiCad,Pcbnew,9.0.1*%
%TF.CreationDate,2025-06-02T22:26:34+02:00*%
%TF.ProjectId,sensorBoard,73656e73-6f72-4426-9f61-72642e6b6963,rev?*%
%TF.SameCoordinates,Original*%
%TF.FileFunction,Legend,Bot*%
%TF.FilePolarity,Positive*%
%FSLAX46Y46*%
G04 Gerber Fmt 4.6, Leading zero omitted, Abs format (unit mm)*
G04 Created by KiCad (PCBNEW 9.0.1) date 2025-06-02 22:26:34*
%MOMM*%
%LPD*%
G01*
G04 APERTURE LIST*
%ADD10C,0.150000*%
%ADD11C,0.100000*%
%ADD12C,0.120000*%
G04 APERTURE END LIST*
D10*
X139161904Y-92354819D02*
X139161904Y-93164342D01*
X139161904Y-93164342D02*
X139114285Y-93259580D01*
X139114285Y-93259580D02*
X139066666Y-93307200D01*
X139066666Y-93307200D02*
X138971428Y-93354819D01*
X138971428Y-93354819D02*
X138780952Y-93354819D01*
X138780952Y-93354819D02*
X138685714Y-93307200D01*
X138685714Y-93307200D02*
X138638095Y-93259580D01*
X138638095Y-93259580D02*
X138590476Y-93164342D01*
X138590476Y-93164342D02*
X138590476Y-92354819D01*
X138161904Y-92450057D02*
X138114285Y-92402438D01*
X138114285Y-92402438D02*
X138019047Y-92354819D01*
X138019047Y-92354819D02*
X137780952Y-92354819D01*
X137780952Y-92354819D02*
X137685714Y-92402438D01*
X137685714Y-92402438D02*
X137638095Y-92450057D01*
X137638095Y-92450057D02*
X137590476Y-92545295D01*
X137590476Y-92545295D02*
X137590476Y-92640533D01*
X137590476Y-92640533D02*
X137638095Y-92783390D01*
X137638095Y-92783390D02*
X138209523Y-93354819D01*
X138209523Y-93354819D02*
X137590476Y-93354819D01*
X126342857Y-120959580D02*
X126390476Y-121007200D01*
X126390476Y-121007200D02*
X126533333Y-121054819D01*
X126533333Y-121054819D02*
X126628571Y-121054819D01*
X126628571Y-121054819D02*
X126771428Y-121007200D01*
X126771428Y-121007200D02*
X126866666Y-120911961D01*
X126866666Y-120911961D02*
X126914285Y-120816723D01*
X126914285Y-120816723D02*
X126961904Y-120626247D01*
X126961904Y-120626247D02*
X126961904Y-120483390D01*
X126961904Y-120483390D02*
X126914285Y-120292914D01*
X126914285Y-120292914D02*
X126866666Y-120197676D01*
X126866666Y-120197676D02*
X126771428Y-120102438D01*
X126771428Y-120102438D02*
X126628571Y-120054819D01*
X126628571Y-120054819D02*
X126533333Y-120054819D01*
X126533333Y-120054819D02*
X126390476Y-120102438D01*
X126390476Y-120102438D02*
X126342857Y-120150057D01*
X126009523Y-120054819D02*
X125390476Y-120054819D01*
X125390476Y-120054819D02*
X125723809Y-120435771D01*
X125723809Y-120435771D02*
X125580952Y-120435771D01*
X125580952Y-120435771D02*
X125485714Y-120483390D01*
X125485714Y-120483390D02*
X125438095Y-120531009D01*
X125438095Y-120531009D02*
X125390476Y-120626247D01*
X125390476Y-120626247D02*
X125390476Y-120864342D01*
X125390476Y-120864342D02*
X125438095Y-120959580D01*
X125438095Y-120959580D02*
X125485714Y-121007200D01*
X125485714Y-121007200D02*
X125580952Y-121054819D01*
X125580952Y-121054819D02*
X125866666Y-121054819D01*
X125866666Y-121054819D02*
X125961904Y-121007200D01*
X125961904Y-121007200D02*
X126009523Y-120959580D01*
X125009523Y-120150057D02*
X124961904Y-120102438D01*
X124961904Y-120102438D02*
X124866666Y-120054819D01*
X124866666Y-120054819D02*
X124628571Y-120054819D01*
X124628571Y-120054819D02*
X124533333Y-120102438D01*
X124533333Y-120102438D02*
X124485714Y-120150057D01*
X124485714Y-120150057D02*
X124438095Y-120245295D01*
X124438095Y-120245295D02*
X124438095Y-120340533D01*
X124438095Y-120340533D02*
X124485714Y-120483390D01*
X124485714Y-120483390D02*
X125057142Y-121054819D01*
X125057142Y-121054819D02*
X124438095Y-121054819D01*
X137042857Y-120859580D02*
X137090476Y-120907200D01*
X137090476Y-120907200D02*
X137233333Y-120954819D01*
X137233333Y-120954819D02*
X137328571Y-120954819D01*
X137328571Y-120954819D02*
X137471428Y-120907200D01*
X137471428Y-120907200D02*
X137566666Y-120811961D01*
X137566666Y-120811961D02*
X137614285Y-120716723D01*
X137614285Y-120716723D02*
X137661904Y-120526247D01*
X137661904Y-120526247D02*
X137661904Y-120383390D01*
X137661904Y-120383390D02*
X137614285Y-120192914D01*
X137614285Y-120192914D02*
X137566666Y-120097676D01*
X137566666Y-120097676D02*
X137471428Y-120002438D01*
X137471428Y-120002438D02*
X137328571Y-119954819D01*
X137328571Y-119954819D02*
X137233333Y-119954819D01*
X137233333Y-119954819D02*
X137090476Y-120002438D01*
X137090476Y-120002438D02*
X137042857Y-120050057D01*
X136709523Y-119954819D02*
X136090476Y-119954819D01*
X136090476Y-119954819D02*
X136423809Y-120335771D01*
X136423809Y-120335771D02*
X136280952Y-120335771D01*
X136280952Y-120335771D02*
X136185714Y-120383390D01*
X136185714Y-120383390D02*
X136138095Y-120431009D01*
X136138095Y-120431009D02*
X136090476Y-120526247D01*
X136090476Y-120526247D02*
X136090476Y-120764342D01*
X136090476Y-120764342D02*
X136138095Y-120859580D01*
X136138095Y-120859580D02*
X136185714Y-120907200D01*
X136185714Y-120907200D02*
X136280952Y-120954819D01*
X136280952Y-120954819D02*
X136566666Y-120954819D01*
X136566666Y-120954819D02*
X136661904Y-120907200D01*
X136661904Y-120907200D02*
X136709523Y-120859580D01*
X135138095Y-120954819D02*
X135709523Y-120954819D01*
X135423809Y-120954819D02*
X135423809Y-119954819D01*
X135423809Y-119954819D02*
X135519047Y-120097676D01*
X135519047Y-120097676D02*
X135614285Y-120192914D01*
X135614285Y-120192914D02*
X135709523Y-120240533D01*
X131076190Y-118678628D02*
X131076190Y-119154819D01*
X131409523Y-118154819D02*
X131076190Y-118678628D01*
X131076190Y-118678628D02*
X130742857Y-118154819D01*
X130457142Y-118250057D02*
X130409523Y-118202438D01*
X130409523Y-118202438D02*
X130314285Y-118154819D01*
X130314285Y-118154819D02*
X130076190Y-118154819D01*
X130076190Y-118154819D02*
X129980952Y-118202438D01*
X129980952Y-118202438D02*
X129933333Y-118250057D01*
X129933333Y-118250057D02*
X129885714Y-118345295D01*
X129885714Y-118345295D02*
X129885714Y-118440533D01*
X129885714Y-118440533D02*
X129933333Y-118583390D01*
X129933333Y-118583390D02*
X130504761Y-119154819D01*
X130504761Y-119154819D02*
X129885714Y-119154819D01*
X128942857Y-102517080D02*
X128990476Y-102564700D01*
X128990476Y-102564700D02*
X129133333Y-102612319D01*
X129133333Y-102612319D02*
X129228571Y-102612319D01*
X129228571Y-102612319D02*
X129371428Y-102564700D01*
X129371428Y-102564700D02*
X129466666Y-102469461D01*
X129466666Y-102469461D02*
X129514285Y-102374223D01*
X129514285Y-102374223D02*
X129561904Y-102183747D01*
X129561904Y-102183747D02*
X129561904Y-102040890D01*
X129561904Y-102040890D02*
X129514285Y-101850414D01*
X129514285Y-101850414D02*
X129466666Y-101755176D01*
X129466666Y-101755176D02*
X129371428Y-101659938D01*
X129371428Y-101659938D02*
X129228571Y-101612319D01*
X129228571Y-101612319D02*
X129133333Y-101612319D01*
X129133333Y-101612319D02*
X128990476Y-101659938D01*
X128990476Y-101659938D02*
X128942857Y-101707557D01*
X128609523Y-101612319D02*
X127990476Y-101612319D01*
X127990476Y-101612319D02*
X128323809Y-101993271D01*
X128323809Y-101993271D02*
X128180952Y-101993271D01*
X128180952Y-101993271D02*
X128085714Y-102040890D01*
X128085714Y-102040890D02*
X128038095Y-102088509D01*
X128038095Y-102088509D02*
X127990476Y-102183747D01*
X127990476Y-102183747D02*
X127990476Y-102421842D01*
X127990476Y-102421842D02*
X128038095Y-102517080D01*
X128038095Y-102517080D02*
X128085714Y-102564700D01*
X128085714Y-102564700D02*
X128180952Y-102612319D01*
X128180952Y-102612319D02*
X128466666Y-102612319D01*
X128466666Y-102612319D02*
X128561904Y-102564700D01*
X128561904Y-102564700D02*
X128609523Y-102517080D01*
X127085714Y-101612319D02*
X127561904Y-101612319D01*
X127561904Y-101612319D02*
X127609523Y-102088509D01*
X127609523Y-102088509D02*
X127561904Y-102040890D01*
X127561904Y-102040890D02*
X127466666Y-101993271D01*
X127466666Y-101993271D02*
X127228571Y-101993271D01*
X127228571Y-101993271D02*
X127133333Y-102040890D01*
X127133333Y-102040890D02*
X127085714Y-102088509D01*
X127085714Y-102088509D02*
X127038095Y-102183747D01*
X127038095Y-102183747D02*
X127038095Y-102421842D01*
X127038095Y-102421842D02*
X127085714Y-102517080D01*
X127085714Y-102517080D02*
X127133333Y-102564700D01*
X127133333Y-102564700D02*
X127228571Y-102612319D01*
X127228571Y-102612319D02*
X127466666Y-102612319D01*
X127466666Y-102612319D02*
X127561904Y-102564700D01*
X127561904Y-102564700D02*
X127609523Y-102517080D01*
X131642857Y-111297080D02*
X131690476Y-111344700D01*
X131690476Y-111344700D02*
X131833333Y-111392319D01*
X131833333Y-111392319D02*
X131928571Y-111392319D01*
X131928571Y-111392319D02*
X132071428Y-111344700D01*
X132071428Y-111344700D02*
X132166666Y-111249461D01*
X132166666Y-111249461D02*
X132214285Y-111154223D01*
X132214285Y-111154223D02*
X132261904Y-110963747D01*
X132261904Y-110963747D02*
X132261904Y-110820890D01*
X132261904Y-110820890D02*
X132214285Y-110630414D01*
X132214285Y-110630414D02*
X132166666Y-110535176D01*
X132166666Y-110535176D02*
X132071428Y-110439938D01*
X132071428Y-110439938D02*
X131928571Y-110392319D01*
X131928571Y-110392319D02*
X131833333Y-110392319D01*
X131833333Y-110392319D02*
X131690476Y-110439938D01*
X131690476Y-110439938D02*
X131642857Y-110487557D01*
X131309523Y-110392319D02*
X130690476Y-110392319D01*
X130690476Y-110392319D02*
X131023809Y-110773271D01*
X131023809Y-110773271D02*
X130880952Y-110773271D01*
X130880952Y-110773271D02*
X130785714Y-110820890D01*
X130785714Y-110820890D02*
X130738095Y-110868509D01*
X130738095Y-110868509D02*
X130690476Y-110963747D01*
X130690476Y-110963747D02*
X130690476Y-111201842D01*
X130690476Y-111201842D02*
X130738095Y-111297080D01*
X130738095Y-111297080D02*
X130785714Y-111344700D01*
X130785714Y-111344700D02*
X130880952Y-111392319D01*
X130880952Y-111392319D02*
X131166666Y-111392319D01*
X131166666Y-111392319D02*
X131261904Y-111344700D01*
X131261904Y-111344700D02*
X131309523Y-111297080D01*
X130357142Y-110392319D02*
X129690476Y-110392319D01*
X129690476Y-110392319D02*
X130119047Y-111392319D01*
X144754819Y-85457142D02*
X144278628Y-85123809D01*
X144754819Y-84885714D02*
X143754819Y-84885714D01*
X143754819Y-84885714D02*
X143754819Y-85266666D01*
X143754819Y-85266666D02*
X143802438Y-85361904D01*
X143802438Y-85361904D02*
X143850057Y-85409523D01*
X143850057Y-85409523D02*
X143945295Y-85457142D01*
X143945295Y-85457142D02*
X144088152Y-85457142D01*
X144088152Y-85457142D02*
X144183390Y-85409523D01*
X144183390Y-85409523D02*
X144231009Y-85361904D01*
X144231009Y-85361904D02*
X144278628Y-85266666D01*
X144278628Y-85266666D02*
X144278628Y-84885714D01*
X143754819Y-85790476D02*
X143754819Y-86409523D01*
X143754819Y-86409523D02*
X144135771Y-86076190D01*
X144135771Y-86076190D02*
X144135771Y-86219047D01*
X144135771Y-86219047D02*
X144183390Y-86314285D01*
X144183390Y-86314285D02*
X144231009Y-86361904D01*
X144231009Y-86361904D02*
X144326247Y-86409523D01*
X144326247Y-86409523D02*
X144564342Y-86409523D01*
X144564342Y-86409523D02*
X144659580Y-86361904D01*
X144659580Y-86361904D02*
X144707200Y-86314285D01*
X144707200Y-86314285D02*
X144754819Y-86219047D01*
X144754819Y-86219047D02*
X144754819Y-85933333D01*
X144754819Y-85933333D02*
X144707200Y-85838095D01*
X144707200Y-85838095D02*
X144659580Y-85790476D01*
X143754819Y-86742857D02*
X143754819Y-87361904D01*
X143754819Y-87361904D02*
X144135771Y-87028571D01*
X144135771Y-87028571D02*
X144135771Y-87171428D01*
X144135771Y-87171428D02*
X144183390Y-87266666D01*
X144183390Y-87266666D02*
X144231009Y-87314285D01*
X144231009Y-87314285D02*
X144326247Y-87361904D01*
X144326247Y-87361904D02*
X144564342Y-87361904D01*
X144564342Y-87361904D02*
X144659580Y-87314285D01*
X144659580Y-87314285D02*
X144707200Y-87266666D01*
X144707200Y-87266666D02*
X144754819Y-87171428D01*
X144754819Y-87171428D02*
X144754819Y-86885714D01*
X144754819Y-86885714D02*
X144707200Y-86790476D01*
X144707200Y-86790476D02*
X144659580Y-86742857D01*
X138890357Y-81979819D02*
X139223690Y-81503628D01*
X139461785Y-81979819D02*
X139461785Y-80979819D01*
X139461785Y-80979819D02*
X139080833Y-80979819D01*
X139080833Y-80979819D02*
X138985595Y-81027438D01*
X138985595Y-81027438D02*
X138937976Y-81075057D01*
X138937976Y-81075057D02*
X138890357Y-81170295D01*
X138890357Y-81170295D02*
X138890357Y-81313152D01*
X138890357Y-81313152D02*
X138937976Y-81408390D01*
X138937976Y-81408390D02*
X138985595Y-81456009D01*
X138985595Y-81456009D02*
X139080833Y-81503628D01*
X139080833Y-81503628D02*
X139461785Y-81503628D01*
X138557023Y-80979819D02*
X137937976Y-80979819D01*
X137937976Y-80979819D02*
X138271309Y-81360771D01*
X138271309Y-81360771D02*
X138128452Y-81360771D01*
X138128452Y-81360771D02*
X138033214Y-81408390D01*
X138033214Y-81408390D02*
X137985595Y-81456009D01*
X137985595Y-81456009D02*
X137937976Y-81551247D01*
X137937976Y-81551247D02*
X137937976Y-81789342D01*
X137937976Y-81789342D02*
X137985595Y-81884580D01*
X137985595Y-81884580D02*
X138033214Y-81932200D01*
X138033214Y-81932200D02*
X138128452Y-81979819D01*
X138128452Y-81979819D02*
X138414166Y-81979819D01*
X138414166Y-81979819D02*
X138509404Y-81932200D01*
X138509404Y-81932200D02*
X138557023Y-81884580D01*
X137080833Y-81313152D02*
X137080833Y-81979819D01*
X137318928Y-80932200D02*
X137557023Y-81646485D01*
X137557023Y-81646485D02*
X136937976Y-81646485D01*
X145042857Y-90159580D02*
X145090476Y-90207200D01*
X145090476Y-90207200D02*
X145233333Y-90254819D01*
X145233333Y-90254819D02*
X145328571Y-90254819D01*
X145328571Y-90254819D02*
X145471428Y-90207200D01*
X145471428Y-90207200D02*
X145566666Y-90111961D01*
X145566666Y-90111961D02*
X145614285Y-90016723D01*
X145614285Y-90016723D02*
X145661904Y-89826247D01*
X145661904Y-89826247D02*
X145661904Y-89683390D01*
X145661904Y-89683390D02*
X145614285Y-89492914D01*
X145614285Y-89492914D02*
X145566666Y-89397676D01*
X145566666Y-89397676D02*
X145471428Y-89302438D01*
X145471428Y-89302438D02*
X145328571Y-89254819D01*
X145328571Y-89254819D02*
X145233333Y-89254819D01*
X145233333Y-89254819D02*
X145090476Y-89302438D01*
X145090476Y-89302438D02*
X145042857Y-89350057D01*
X144709523Y-89254819D02*
X144090476Y-89254819D01*
X144090476Y-89254819D02*
X144423809Y-89635771D01*
X144423809Y-89635771D02*
X144280952Y-89635771D01*
X144280952Y-89635771D02*
X144185714Y-89683390D01*
X144185714Y-89683390D02*
X144138095Y-89731009D01*
X144138095Y-89731009D02*
X144090476Y-89826247D01*
X144090476Y-89826247D02*
X144090476Y-90064342D01*
X144090476Y-90064342D02*
X144138095Y-90159580D01*
X144138095Y-90159580D02*
X144185714Y-90207200D01*
X144185714Y-90207200D02*
X144280952Y-90254819D01*
X144280952Y-90254819D02*
X144566666Y-90254819D01*
X144566666Y-90254819D02*
X144661904Y-90207200D01*
X144661904Y-90207200D02*
X144709523Y-90159580D01*
X143519047Y-89683390D02*
X143614285Y-89635771D01*
X143614285Y-89635771D02*
X143661904Y-89588152D01*
X143661904Y-89588152D02*
X143709523Y-89492914D01*
X143709523Y-89492914D02*
X143709523Y-89445295D01*
X143709523Y-89445295D02*
X143661904Y-89350057D01*
X143661904Y-89350057D02*
X143614285Y-89302438D01*
X143614285Y-89302438D02*
X143519047Y-89254819D01*
X143519047Y-89254819D02*
X143328571Y-89254819D01*
X143328571Y-89254819D02*
X143233333Y-89302438D01*
X143233333Y-89302438D02*
X143185714Y-89350057D01*
X143185714Y-89350057D02*
X143138095Y-89445295D01*
X143138095Y-89445295D02*
X143138095Y-89492914D01*
X143138095Y-89492914D02*
X143185714Y-89588152D01*
X143185714Y-89588152D02*
X143233333Y-89635771D01*
X143233333Y-89635771D02*
X143328571Y-89683390D01*
X143328571Y-89683390D02*
X143519047Y-89683390D01*
X143519047Y-89683390D02*
X143614285Y-89731009D01*
X143614285Y-89731009D02*
X143661904Y-89778628D01*
X143661904Y-89778628D02*
X143709523Y-89873866D01*
X143709523Y-89873866D02*
X143709523Y-90064342D01*
X143709523Y-90064342D02*
X143661904Y-90159580D01*
X143661904Y-90159580D02*
X143614285Y-90207200D01*
X143614285Y-90207200D02*
X143519047Y-90254819D01*
X143519047Y-90254819D02*
X143328571Y-90254819D01*
X143328571Y-90254819D02*
X143233333Y-90207200D01*
X143233333Y-90207200D02*
X143185714Y-90159580D01*
X143185714Y-90159580D02*
X143138095Y-90064342D01*
X143138095Y-90064342D02*
X143138095Y-89873866D01*
X143138095Y-89873866D02*
X143185714Y-89778628D01*
X143185714Y-89778628D02*
X143233333Y-89731009D01*
X143233333Y-89731009D02*
X143328571Y-89683390D01*
X148654819Y-101044642D02*
X148178628Y-100711309D01*
X148654819Y-100473214D02*
X147654819Y-100473214D01*
X147654819Y-100473214D02*
X147654819Y-100854166D01*
X147654819Y-100854166D02*
X147702438Y-100949404D01*
X147702438Y-100949404D02*
X147750057Y-100997023D01*
X147750057Y-100997023D02*
X147845295Y-101044642D01*
X147845295Y-101044642D02*
X147988152Y-101044642D01*
X147988152Y-101044642D02*
X148083390Y-100997023D01*
X148083390Y-100997023D02*
X148131009Y-100949404D01*
X148131009Y-100949404D02*
X148178628Y-100854166D01*
X148178628Y-100854166D02*
X148178628Y-100473214D01*
X147654819Y-101949404D02*
X147654819Y-101473214D01*
X147654819Y-101473214D02*
X148131009Y-101425595D01*
X148131009Y-101425595D02*
X148083390Y-101473214D01*
X148083390Y-101473214D02*
X148035771Y-101568452D01*
X148035771Y-101568452D02*
X148035771Y-101806547D01*
X148035771Y-101806547D02*
X148083390Y-101901785D01*
X148083390Y-101901785D02*
X148131009Y-101949404D01*
X148131009Y-101949404D02*
X148226247Y-101997023D01*
X148226247Y-101997023D02*
X148464342Y-101997023D01*
X148464342Y-101997023D02*
X148559580Y-101949404D01*
X148559580Y-101949404D02*
X148607200Y-101901785D01*
X148607200Y-101901785D02*
X148654819Y-101806547D01*
X148654819Y-101806547D02*
X148654819Y-101568452D01*
X148654819Y-101568452D02*
X148607200Y-101473214D01*
X148607200Y-101473214D02*
X148559580Y-101425595D01*
X148083390Y-102568452D02*
X148035771Y-102473214D01*
X148035771Y-102473214D02*
X147988152Y-102425595D01*
X147988152Y-102425595D02*
X147892914Y-102377976D01*
X147892914Y-102377976D02*
X147845295Y-102377976D01*
X147845295Y-102377976D02*
X147750057Y-102425595D01*
X147750057Y-102425595D02*
X147702438Y-102473214D01*
X147702438Y-102473214D02*
X147654819Y-102568452D01*
X147654819Y-102568452D02*
X147654819Y-102758928D01*
X147654819Y-102758928D02*
X147702438Y-102854166D01*
X147702438Y-102854166D02*
X147750057Y-102901785D01*
X147750057Y-102901785D02*
X147845295Y-102949404D01*
X147845295Y-102949404D02*
X147892914Y-102949404D01*
X147892914Y-102949404D02*
X147988152Y-102901785D01*
X147988152Y-102901785D02*
X148035771Y-102854166D01*
X148035771Y-102854166D02*
X148083390Y-102758928D01*
X148083390Y-102758928D02*
X148083390Y-102568452D01*
X148083390Y-102568452D02*
X148131009Y-102473214D01*
X148131009Y-102473214D02*
X148178628Y-102425595D01*
X148178628Y-102425595D02*
X148273866Y-102377976D01*
X148273866Y-102377976D02*
X148464342Y-102377976D01*
X148464342Y-102377976D02*
X148559580Y-102425595D01*
X148559580Y-102425595D02*
X148607200Y-102473214D01*
X148607200Y-102473214D02*
X148654819Y-102568452D01*
X148654819Y-102568452D02*
X148654819Y-102758928D01*
X148654819Y-102758928D02*
X148607200Y-102854166D01*
X148607200Y-102854166D02*
X148559580Y-102901785D01*
X148559580Y-102901785D02*
X148464342Y-102949404D01*
X148464342Y-102949404D02*
X148273866Y-102949404D01*
X148273866Y-102949404D02*
X148178628Y-102901785D01*
X148178628Y-102901785D02*
X148131009Y-102854166D01*
X148131009Y-102854166D02*
X148083390Y-102758928D01*
X127979580Y-97194642D02*
X128027200Y-97147023D01*
X128027200Y-97147023D02*
X128074819Y-97004166D01*
X128074819Y-97004166D02*
X128074819Y-96908928D01*
X128074819Y-96908928D02*
X128027200Y-96766071D01*
X128027200Y-96766071D02*
X127931961Y-96670833D01*
X127931961Y-96670833D02*
X127836723Y-96623214D01*
X127836723Y-96623214D02*
X127646247Y-96575595D01*
X127646247Y-96575595D02*
X127503390Y-96575595D01*
X127503390Y-96575595D02*
X127312914Y-96623214D01*
X127312914Y-96623214D02*
X127217676Y-96670833D01*
X127217676Y-96670833D02*
X127122438Y-96766071D01*
X127122438Y-96766071D02*
X127074819Y-96908928D01*
X127074819Y-96908928D02*
X127074819Y-97004166D01*
X127074819Y-97004166D02*
X127122438Y-97147023D01*
X127122438Y-97147023D02*
X127170057Y-97194642D01*
X127074819Y-97527976D02*
X127074819Y-98147023D01*
X127074819Y-98147023D02*
X127455771Y-97813690D01*
X127455771Y-97813690D02*
X127455771Y-97956547D01*
X127455771Y-97956547D02*
X127503390Y-98051785D01*
X127503390Y-98051785D02*
X127551009Y-98099404D01*
X127551009Y-98099404D02*
X127646247Y-98147023D01*
X127646247Y-98147023D02*
X127884342Y-98147023D01*
X127884342Y-98147023D02*
X127979580Y-98099404D01*
X127979580Y-98099404D02*
X128027200Y-98051785D01*
X128027200Y-98051785D02*
X128074819Y-97956547D01*
X128074819Y-97956547D02*
X128074819Y-97670833D01*
X128074819Y-97670833D02*
X128027200Y-97575595D01*
X128027200Y-97575595D02*
X127979580Y-97527976D01*
X127408152Y-99004166D02*
X128074819Y-99004166D01*
X127027200Y-98766071D02*
X127741485Y-98527976D01*
X127741485Y-98527976D02*
X127741485Y-99147023D01*
X133694580Y-82432142D02*
X133742200Y-82384523D01*
X133742200Y-82384523D02*
X133789819Y-82241666D01*
X133789819Y-82241666D02*
X133789819Y-82146428D01*
X133789819Y-82146428D02*
X133742200Y-82003571D01*
X133742200Y-82003571D02*
X133646961Y-81908333D01*
X133646961Y-81908333D02*
X133551723Y-81860714D01*
X133551723Y-81860714D02*
X133361247Y-81813095D01*
X133361247Y-81813095D02*
X133218390Y-81813095D01*
X133218390Y-81813095D02*
X133027914Y-81860714D01*
X133027914Y-81860714D02*
X132932676Y-81908333D01*
X132932676Y-81908333D02*
X132837438Y-82003571D01*
X132837438Y-82003571D02*
X132789819Y-82146428D01*
X132789819Y-82146428D02*
X132789819Y-82241666D01*
X132789819Y-82241666D02*
X132837438Y-82384523D01*
X132837438Y-82384523D02*
X132885057Y-82432142D01*
X133789819Y-83384523D02*
X133789819Y-82813095D01*
X133789819Y-83098809D02*
X132789819Y-83098809D01*
X132789819Y-83098809D02*
X132932676Y-83003571D01*
X132932676Y-83003571D02*
X133027914Y-82908333D01*
X133027914Y-82908333D02*
X133075533Y-82813095D01*
X132789819Y-83717857D02*
X132789819Y-84384523D01*
X132789819Y-84384523D02*
X133789819Y-83955952D01*
X136842857Y-111397080D02*
X136890476Y-111444700D01*
X136890476Y-111444700D02*
X137033333Y-111492319D01*
X137033333Y-111492319D02*
X137128571Y-111492319D01*
X137128571Y-111492319D02*
X137271428Y-111444700D01*
X137271428Y-111444700D02*
X137366666Y-111349461D01*
X137366666Y-111349461D02*
X137414285Y-111254223D01*
X137414285Y-111254223D02*
X137461904Y-111063747D01*
X137461904Y-111063747D02*
X137461904Y-110920890D01*
X137461904Y-110920890D02*
X137414285Y-110730414D01*
X137414285Y-110730414D02*
X137366666Y-110635176D01*
X137366666Y-110635176D02*
X137271428Y-110539938D01*
X137271428Y-110539938D02*
X137128571Y-110492319D01*
X137128571Y-110492319D02*
X137033333Y-110492319D01*
X137033333Y-110492319D02*
X136890476Y-110539938D01*
X136890476Y-110539938D02*
X136842857Y-110587557D01*
X136509523Y-110492319D02*
X135890476Y-110492319D01*
X135890476Y-110492319D02*
X136223809Y-110873271D01*
X136223809Y-110873271D02*
X136080952Y-110873271D01*
X136080952Y-110873271D02*
X135985714Y-110920890D01*
X135985714Y-110920890D02*
X135938095Y-110968509D01*
X135938095Y-110968509D02*
X135890476Y-111063747D01*
X135890476Y-111063747D02*
X135890476Y-111301842D01*
X135890476Y-111301842D02*
X135938095Y-111397080D01*
X135938095Y-111397080D02*
X135985714Y-111444700D01*
X135985714Y-111444700D02*
X136080952Y-111492319D01*
X136080952Y-111492319D02*
X136366666Y-111492319D01*
X136366666Y-111492319D02*
X136461904Y-111444700D01*
X136461904Y-111444700D02*
X136509523Y-111397080D01*
X135271428Y-110492319D02*
X135176190Y-110492319D01*
X135176190Y-110492319D02*
X135080952Y-110539938D01*
X135080952Y-110539938D02*
X135033333Y-110587557D01*
X135033333Y-110587557D02*
X134985714Y-110682795D01*
X134985714Y-110682795D02*
X134938095Y-110873271D01*
X134938095Y-110873271D02*
X134938095Y-111111366D01*
X134938095Y-111111366D02*
X134985714Y-111301842D01*
X134985714Y-111301842D02*
X135033333Y-111397080D01*
X135033333Y-111397080D02*
X135080952Y-111444700D01*
X135080952Y-111444700D02*
X135176190Y-111492319D01*
X135176190Y-111492319D02*
X135271428Y-111492319D01*
X135271428Y-111492319D02*
X135366666Y-111444700D01*
X135366666Y-111444700D02*
X135414285Y-111397080D01*
X135414285Y-111397080D02*
X135461904Y-111301842D01*
X135461904Y-111301842D02*
X135509523Y-111111366D01*
X135509523Y-111111366D02*
X135509523Y-110873271D01*
X135509523Y-110873271D02*
X135461904Y-110682795D01*
X135461904Y-110682795D02*
X135414285Y-110587557D01*
X135414285Y-110587557D02*
X135366666Y-110539938D01*
X135366666Y-110539938D02*
X135271428Y-110492319D01*
X143359580Y-106457142D02*
X143407200Y-106409523D01*
X143407200Y-106409523D02*
X143454819Y-106266666D01*
X143454819Y-106266666D02*
X143454819Y-106171428D01*
X143454819Y-106171428D02*
X143407200Y-106028571D01*
X143407200Y-106028571D02*
X143311961Y-105933333D01*
X143311961Y-105933333D02*
X143216723Y-105885714D01*
X143216723Y-105885714D02*
X143026247Y-105838095D01*
X143026247Y-105838095D02*
X142883390Y-105838095D01*
X142883390Y-105838095D02*
X142692914Y-105885714D01*
X142692914Y-105885714D02*
X142597676Y-105933333D01*
X142597676Y-105933333D02*
X142502438Y-106028571D01*
X142502438Y-106028571D02*
X142454819Y-106171428D01*
X142454819Y-106171428D02*
X142454819Y-106266666D01*
X142454819Y-106266666D02*
X142502438Y-106409523D01*
X142502438Y-106409523D02*
X142550057Y-106457142D01*
X142454819Y-106790476D02*
X142454819Y-107409523D01*
X142454819Y-107409523D02*
X142835771Y-107076190D01*
X142835771Y-107076190D02*
X142835771Y-107219047D01*
X142835771Y-107219047D02*
X142883390Y-107314285D01*
X142883390Y-107314285D02*
X142931009Y-107361904D01*
X142931009Y-107361904D02*
X143026247Y-107409523D01*
X143026247Y-107409523D02*
X143264342Y-107409523D01*
X143264342Y-107409523D02*
X143359580Y-107361904D01*
X143359580Y-107361904D02*
X143407200Y-107314285D01*
X143407200Y-107314285D02*
X143454819Y-107219047D01*
X143454819Y-107219047D02*
X143454819Y-106933333D01*
X143454819Y-106933333D02*
X143407200Y-106838095D01*
X143407200Y-106838095D02*
X143359580Y-106790476D01*
X142454819Y-108266666D02*
X142454819Y-108076190D01*
X142454819Y-108076190D02*
X142502438Y-107980952D01*
X142502438Y-107980952D02*
X142550057Y-107933333D01*
X142550057Y-107933333D02*
X142692914Y-107838095D01*
X142692914Y-107838095D02*
X142883390Y-107790476D01*
X142883390Y-107790476D02*
X143264342Y-107790476D01*
X143264342Y-107790476D02*
X143359580Y-107838095D01*
X143359580Y-107838095D02*
X143407200Y-107885714D01*
X143407200Y-107885714D02*
X143454819Y-107980952D01*
X143454819Y-107980952D02*
X143454819Y-108171428D01*
X143454819Y-108171428D02*
X143407200Y-108266666D01*
X143407200Y-108266666D02*
X143359580Y-108314285D01*
X143359580Y-108314285D02*
X143264342Y-108361904D01*
X143264342Y-108361904D02*
X143026247Y-108361904D01*
X143026247Y-108361904D02*
X142931009Y-108314285D01*
X142931009Y-108314285D02*
X142883390Y-108266666D01*
X142883390Y-108266666D02*
X142835771Y-108171428D01*
X142835771Y-108171428D02*
X142835771Y-107980952D01*
X142835771Y-107980952D02*
X142883390Y-107885714D01*
X142883390Y-107885714D02*
X142931009Y-107838095D01*
X142931009Y-107838095D02*
X143026247Y-107790476D01*
X144992857Y-95839580D02*
X145040476Y-95887200D01*
X145040476Y-95887200D02*
X145183333Y-95934819D01*
X145183333Y-95934819D02*
X145278571Y-95934819D01*
X145278571Y-95934819D02*
X145421428Y-95887200D01*
X145421428Y-95887200D02*
X145516666Y-95791961D01*
X145516666Y-95791961D02*
X145564285Y-95696723D01*
X145564285Y-95696723D02*
X145611904Y-95506247D01*
X145611904Y-95506247D02*
X145611904Y-95363390D01*
X145611904Y-95363390D02*
X145564285Y-95172914D01*
X145564285Y-95172914D02*
X145516666Y-95077676D01*
X145516666Y-95077676D02*
X145421428Y-94982438D01*
X145421428Y-94982438D02*
X145278571Y-94934819D01*
X145278571Y-94934819D02*
X145183333Y-94934819D01*
X145183333Y-94934819D02*
X145040476Y-94982438D01*
X145040476Y-94982438D02*
X144992857Y-95030057D01*
X144659523Y-94934819D02*
X144040476Y-94934819D01*
X144040476Y-94934819D02*
X144373809Y-95315771D01*
X144373809Y-95315771D02*
X144230952Y-95315771D01*
X144230952Y-95315771D02*
X144135714Y-95363390D01*
X144135714Y-95363390D02*
X144088095Y-95411009D01*
X144088095Y-95411009D02*
X144040476Y-95506247D01*
X144040476Y-95506247D02*
X144040476Y-95744342D01*
X144040476Y-95744342D02*
X144088095Y-95839580D01*
X144088095Y-95839580D02*
X144135714Y-95887200D01*
X144135714Y-95887200D02*
X144230952Y-95934819D01*
X144230952Y-95934819D02*
X144516666Y-95934819D01*
X144516666Y-95934819D02*
X144611904Y-95887200D01*
X144611904Y-95887200D02*
X144659523Y-95839580D01*
X143707142Y-94934819D02*
X143088095Y-94934819D01*
X143088095Y-94934819D02*
X143421428Y-95315771D01*
X143421428Y-95315771D02*
X143278571Y-95315771D01*
X143278571Y-95315771D02*
X143183333Y-95363390D01*
X143183333Y-95363390D02*
X143135714Y-95411009D01*
X143135714Y-95411009D02*
X143088095Y-95506247D01*
X143088095Y-95506247D02*
X143088095Y-95744342D01*
X143088095Y-95744342D02*
X143135714Y-95839580D01*
X143135714Y-95839580D02*
X143183333Y-95887200D01*
X143183333Y-95887200D02*
X143278571Y-95934819D01*
X143278571Y-95934819D02*
X143564285Y-95934819D01*
X143564285Y-95934819D02*
X143659523Y-95887200D01*
X143659523Y-95887200D02*
X143707142Y-95839580D01*
X132438094Y-106492319D02*
X132438094Y-107301842D01*
X132438094Y-107301842D02*
X132390475Y-107397080D01*
X132390475Y-107397080D02*
X132342856Y-107444700D01*
X132342856Y-107444700D02*
X132247618Y-107492319D01*
X132247618Y-107492319D02*
X132057142Y-107492319D01*
X132057142Y-107492319D02*
X131961904Y-107444700D01*
X131961904Y-107444700D02*
X131914285Y-107397080D01*
X131914285Y-107397080D02*
X131866666Y-107301842D01*
X131866666Y-107301842D02*
X131866666Y-106492319D01*
X131438094Y-106587557D02*
X131390475Y-106539938D01*
X131390475Y-106539938D02*
X131295237Y-106492319D01*
X131295237Y-106492319D02*
X131057142Y-106492319D01*
X131057142Y-106492319D02*
X130961904Y-106539938D01*
X130961904Y-106539938D02*
X130914285Y-106587557D01*
X130914285Y-106587557D02*
X130866666Y-106682795D01*
X130866666Y-106682795D02*
X130866666Y-106778033D01*
X130866666Y-106778033D02*
X130914285Y-106920890D01*
X130914285Y-106920890D02*
X131485713Y-107492319D01*
X131485713Y-107492319D02*
X130866666Y-107492319D01*
X130533332Y-106492319D02*
X129914285Y-106492319D01*
X129914285Y-106492319D02*
X130247618Y-106873271D01*
X130247618Y-106873271D02*
X130104761Y-106873271D01*
X130104761Y-106873271D02*
X130009523Y-106920890D01*
X130009523Y-106920890D02*
X129961904Y-106968509D01*
X129961904Y-106968509D02*
X129914285Y-107063747D01*
X129914285Y-107063747D02*
X129914285Y-107301842D01*
X129914285Y-107301842D02*
X129961904Y-107397080D01*
X129961904Y-107397080D02*
X130009523Y-107444700D01*
X130009523Y-107444700D02*
X130104761Y-107492319D01*
X130104761Y-107492319D02*
X130390475Y-107492319D01*
X130390475Y-107492319D02*
X130485713Y-107444700D01*
X130485713Y-107444700D02*
X130533332Y-107397080D01*
D11*
X203139919Y-68290476D02*
X203854204Y-68290476D01*
X203854204Y-68290476D02*
X203997061Y-68242857D01*
X203997061Y-68242857D02*
X204092300Y-68147619D01*
X204092300Y-68147619D02*
X204139919Y-68004762D01*
X204139919Y-68004762D02*
X204139919Y-67909524D01*
X204139919Y-69290476D02*
X204139919Y-68719048D01*
X204139919Y-69004762D02*
X203139919Y-69004762D01*
X203139919Y-69004762D02*
X203282776Y-68909524D01*
X203282776Y-68909524D02*
X203378014Y-68814286D01*
X203378014Y-68814286D02*
X203425633Y-68719048D01*
X204139919Y-70242857D02*
X204139919Y-69671429D01*
X204139919Y-69957143D02*
X203139919Y-69957143D01*
X203139919Y-69957143D02*
X203282776Y-69861905D01*
X203282776Y-69861905D02*
X203378014Y-69766667D01*
X203378014Y-69766667D02*
X203425633Y-69671429D01*
X203539919Y-109666666D02*
X204254204Y-109666666D01*
X204254204Y-109666666D02*
X204397061Y-109619047D01*
X204397061Y-109619047D02*
X204492300Y-109523809D01*
X204492300Y-109523809D02*
X204539919Y-109380952D01*
X204539919Y-109380952D02*
X204539919Y-109285714D01*
X203539919Y-110571428D02*
X203539919Y-110380952D01*
X203539919Y-110380952D02*
X203587538Y-110285714D01*
X203587538Y-110285714D02*
X203635157Y-110238095D01*
X203635157Y-110238095D02*
X203778014Y-110142857D01*
X203778014Y-110142857D02*
X203968490Y-110095238D01*
X203968490Y-110095238D02*
X204349442Y-110095238D01*
X204349442Y-110095238D02*
X204444680Y-110142857D01*
X204444680Y-110142857D02*
X204492300Y-110190476D01*
X204492300Y-110190476D02*
X204539919Y-110285714D01*
X204539919Y-110285714D02*
X204539919Y-110476190D01*
X204539919Y-110476190D02*
X204492300Y-110571428D01*
X204492300Y-110571428D02*
X204444680Y-110619047D01*
X204444680Y-110619047D02*
X204349442Y-110666666D01*
X204349442Y-110666666D02*
X204111347Y-110666666D01*
X204111347Y-110666666D02*
X204016109Y-110619047D01*
X204016109Y-110619047D02*
X203968490Y-110571428D01*
X203968490Y-110571428D02*
X203920871Y-110476190D01*
X203920871Y-110476190D02*
X203920871Y-110285714D01*
X203920871Y-110285714D02*
X203968490Y-110190476D01*
X203968490Y-110190476D02*
X204016109Y-110142857D01*
X204016109Y-110142857D02*
X204111347Y-110095238D01*
X204525080Y-53733333D02*
X203810795Y-53733333D01*
X203810795Y-53733333D02*
X203667938Y-53780952D01*
X203667938Y-53780952D02*
X203572700Y-53876190D01*
X203572700Y-53876190D02*
X203525080Y-54019047D01*
X203525080Y-54019047D02*
X203525080Y-54114285D01*
X203525080Y-53209523D02*
X203525080Y-53019047D01*
X203525080Y-53019047D02*
X203572700Y-52923809D01*
X203572700Y-52923809D02*
X203620319Y-52876190D01*
X203620319Y-52876190D02*
X203763176Y-52780952D01*
X203763176Y-52780952D02*
X203953652Y-52733333D01*
X203953652Y-52733333D02*
X204334604Y-52733333D01*
X204334604Y-52733333D02*
X204429842Y-52780952D01*
X204429842Y-52780952D02*
X204477461Y-52828571D01*
X204477461Y-52828571D02*
X204525080Y-52923809D01*
X204525080Y-52923809D02*
X204525080Y-53114285D01*
X204525080Y-53114285D02*
X204477461Y-53209523D01*
X204477461Y-53209523D02*
X204429842Y-53257142D01*
X204429842Y-53257142D02*
X204334604Y-53304761D01*
X204334604Y-53304761D02*
X204096509Y-53304761D01*
X204096509Y-53304761D02*
X204001271Y-53257142D01*
X204001271Y-53257142D02*
X203953652Y-53209523D01*
X203953652Y-53209523D02*
X203906033Y-53114285D01*
X203906033Y-53114285D02*
X203906033Y-52923809D01*
X203906033Y-52923809D02*
X203953652Y-52828571D01*
X203953652Y-52828571D02*
X204001271Y-52780952D01*
X204001271Y-52780952D02*
X204096509Y-52733333D01*
X203439919Y-76190476D02*
X204154204Y-76190476D01*
X204154204Y-76190476D02*
X204297061Y-76142857D01*
X204297061Y-76142857D02*
X204392300Y-76047619D01*
X204392300Y-76047619D02*
X204439919Y-75904762D01*
X204439919Y-75904762D02*
X204439919Y-75809524D01*
X204439919Y-77190476D02*
X204439919Y-76619048D01*
X204439919Y-76904762D02*
X203439919Y-76904762D01*
X203439919Y-76904762D02*
X203582776Y-76809524D01*
X203582776Y-76809524D02*
X203678014Y-76714286D01*
X203678014Y-76714286D02*
X203725633Y-76619048D01*
X203439919Y-77523810D02*
X203439919Y-78142857D01*
X203439919Y-78142857D02*
X203820871Y-77809524D01*
X203820871Y-77809524D02*
X203820871Y-77952381D01*
X203820871Y-77952381D02*
X203868490Y-78047619D01*
X203868490Y-78047619D02*
X203916109Y-78095238D01*
X203916109Y-78095238D02*
X204011347Y-78142857D01*
X204011347Y-78142857D02*
X204249442Y-78142857D01*
X204249442Y-78142857D02*
X204344680Y-78095238D01*
X204344680Y-78095238D02*
X204392300Y-78047619D01*
X204392300Y-78047619D02*
X204439919Y-77952381D01*
X204439919Y-77952381D02*
X204439919Y-77666667D01*
X204439919Y-77666667D02*
X204392300Y-77571429D01*
X204392300Y-77571429D02*
X204344680Y-77523810D01*
X204042580Y-102309523D02*
X203328295Y-102309523D01*
X203328295Y-102309523D02*
X203185438Y-102357142D01*
X203185438Y-102357142D02*
X203090200Y-102452380D01*
X203090200Y-102452380D02*
X203042580Y-102595237D01*
X203042580Y-102595237D02*
X203042580Y-102690475D01*
X203042580Y-101309523D02*
X203042580Y-101880951D01*
X203042580Y-101595237D02*
X204042580Y-101595237D01*
X204042580Y-101595237D02*
X203899723Y-101690475D01*
X203899723Y-101690475D02*
X203804485Y-101785713D01*
X203804485Y-101785713D02*
X203756866Y-101880951D01*
X204042580Y-100452380D02*
X204042580Y-100642856D01*
X204042580Y-100642856D02*
X203994961Y-100738094D01*
X203994961Y-100738094D02*
X203947342Y-100785713D01*
X203947342Y-100785713D02*
X203804485Y-100880951D01*
X203804485Y-100880951D02*
X203614009Y-100928570D01*
X203614009Y-100928570D02*
X203233057Y-100928570D01*
X203233057Y-100928570D02*
X203137819Y-100880951D01*
X203137819Y-100880951D02*
X203090200Y-100833332D01*
X203090200Y-100833332D02*
X203042580Y-100738094D01*
X203042580Y-100738094D02*
X203042580Y-100547618D01*
X203042580Y-100547618D02*
X203090200Y-100452380D01*
X203090200Y-100452380D02*
X203137819Y-100404761D01*
X203137819Y-100404761D02*
X203233057Y-100357142D01*
X203233057Y-100357142D02*
X203471152Y-100357142D01*
X203471152Y-100357142D02*
X203566390Y-100404761D01*
X203566390Y-100404761D02*
X203614009Y-100452380D01*
X203614009Y-100452380D02*
X203661628Y-100547618D01*
X203661628Y-100547618D02*
X203661628Y-100738094D01*
X203661628Y-100738094D02*
X203614009Y-100833332D01*
X203614009Y-100833332D02*
X203566390Y-100880951D01*
X203566390Y-100880951D02*
X203471152Y-100928570D01*
X203339919Y-36490476D02*
X204054204Y-36490476D01*
X204054204Y-36490476D02*
X204197061Y-36442857D01*
X204197061Y-36442857D02*
X204292300Y-36347619D01*
X204292300Y-36347619D02*
X204339919Y-36204762D01*
X204339919Y-36204762D02*
X204339919Y-36109524D01*
X204339919Y-37490476D02*
X204339919Y-36919048D01*
X204339919Y-37204762D02*
X203339919Y-37204762D01*
X203339919Y-37204762D02*
X203482776Y-37109524D01*
X203482776Y-37109524D02*
X203578014Y-37014286D01*
X203578014Y-37014286D02*
X203625633Y-36919048D01*
X203768490Y-38061905D02*
X203720871Y-37966667D01*
X203720871Y-37966667D02*
X203673252Y-37919048D01*
X203673252Y-37919048D02*
X203578014Y-37871429D01*
X203578014Y-37871429D02*
X203530395Y-37871429D01*
X203530395Y-37871429D02*
X203435157Y-37919048D01*
X203435157Y-37919048D02*
X203387538Y-37966667D01*
X203387538Y-37966667D02*
X203339919Y-38061905D01*
X203339919Y-38061905D02*
X203339919Y-38252381D01*
X203339919Y-38252381D02*
X203387538Y-38347619D01*
X203387538Y-38347619D02*
X203435157Y-38395238D01*
X203435157Y-38395238D02*
X203530395Y-38442857D01*
X203530395Y-38442857D02*
X203578014Y-38442857D01*
X203578014Y-38442857D02*
X203673252Y-38395238D01*
X203673252Y-38395238D02*
X203720871Y-38347619D01*
X203720871Y-38347619D02*
X203768490Y-38252381D01*
X203768490Y-38252381D02*
X203768490Y-38061905D01*
X203768490Y-38061905D02*
X203816109Y-37966667D01*
X203816109Y-37966667D02*
X203863728Y-37919048D01*
X203863728Y-37919048D02*
X203958966Y-37871429D01*
X203958966Y-37871429D02*
X204149442Y-37871429D01*
X204149442Y-37871429D02*
X204244680Y-37919048D01*
X204244680Y-37919048D02*
X204292300Y-37966667D01*
X204292300Y-37966667D02*
X204339919Y-38061905D01*
X204339919Y-38061905D02*
X204339919Y-38252381D01*
X204339919Y-38252381D02*
X204292300Y-38347619D01*
X204292300Y-38347619D02*
X204244680Y-38395238D01*
X204244680Y-38395238D02*
X204149442Y-38442857D01*
X204149442Y-38442857D02*
X203958966Y-38442857D01*
X203958966Y-38442857D02*
X203863728Y-38395238D01*
X203863728Y-38395238D02*
X203816109Y-38347619D01*
X203816109Y-38347619D02*
X203768490Y-38252381D01*
D10*
X166466666Y-33254819D02*
X166799999Y-32778628D01*
X167038094Y-33254819D02*
X167038094Y-32254819D01*
X167038094Y-32254819D02*
X166657142Y-32254819D01*
X166657142Y-32254819D02*
X166561904Y-32302438D01*
X166561904Y-32302438D02*
X166514285Y-32350057D01*
X166514285Y-32350057D02*
X166466666Y-32445295D01*
X166466666Y-32445295D02*
X166466666Y-32588152D01*
X166466666Y-32588152D02*
X166514285Y-32683390D01*
X166514285Y-32683390D02*
X166561904Y-32731009D01*
X166561904Y-32731009D02*
X166657142Y-32778628D01*
X166657142Y-32778628D02*
X167038094Y-32778628D01*
X166085713Y-32350057D02*
X166038094Y-32302438D01*
X166038094Y-32302438D02*
X165942856Y-32254819D01*
X165942856Y-32254819D02*
X165704761Y-32254819D01*
X165704761Y-32254819D02*
X165609523Y-32302438D01*
X165609523Y-32302438D02*
X165561904Y-32350057D01*
X165561904Y-32350057D02*
X165514285Y-32445295D01*
X165514285Y-32445295D02*
X165514285Y-32540533D01*
X165514285Y-32540533D02*
X165561904Y-32683390D01*
X165561904Y-32683390D02*
X166133332Y-33254819D01*
X166133332Y-33254819D02*
X165514285Y-33254819D01*
X164738094Y-37154819D02*
X164738094Y-36154819D01*
X164738094Y-36154819D02*
X164499999Y-36154819D01*
X164499999Y-36154819D02*
X164357142Y-36202438D01*
X164357142Y-36202438D02*
X164261904Y-36297676D01*
X164261904Y-36297676D02*
X164214285Y-36392914D01*
X164214285Y-36392914D02*
X164166666Y-36583390D01*
X164166666Y-36583390D02*
X164166666Y-36726247D01*
X164166666Y-36726247D02*
X164214285Y-36916723D01*
X164214285Y-36916723D02*
X164261904Y-37011961D01*
X164261904Y-37011961D02*
X164357142Y-37107200D01*
X164357142Y-37107200D02*
X164499999Y-37154819D01*
X164499999Y-37154819D02*
X164738094Y-37154819D01*
X163785713Y-36250057D02*
X163738094Y-36202438D01*
X163738094Y-36202438D02*
X163642856Y-36154819D01*
X163642856Y-36154819D02*
X163404761Y-36154819D01*
X163404761Y-36154819D02*
X163309523Y-36202438D01*
X163309523Y-36202438D02*
X163261904Y-36250057D01*
X163261904Y-36250057D02*
X163214285Y-36345295D01*
X163214285Y-36345295D02*
X163214285Y-36440533D01*
X163214285Y-36440533D02*
X163261904Y-36583390D01*
X163261904Y-36583390D02*
X163833332Y-37154819D01*
X163833332Y-37154819D02*
X163214285Y-37154819D01*
X161166666Y-36679580D02*
X161214285Y-36727200D01*
X161214285Y-36727200D02*
X161357142Y-36774819D01*
X161357142Y-36774819D02*
X161452380Y-36774819D01*
X161452380Y-36774819D02*
X161595237Y-36727200D01*
X161595237Y-36727200D02*
X161690475Y-36631961D01*
X161690475Y-36631961D02*
X161738094Y-36536723D01*
X161738094Y-36536723D02*
X161785713Y-36346247D01*
X161785713Y-36346247D02*
X161785713Y-36203390D01*
X161785713Y-36203390D02*
X161738094Y-36012914D01*
X161738094Y-36012914D02*
X161690475Y-35917676D01*
X161690475Y-35917676D02*
X161595237Y-35822438D01*
X161595237Y-35822438D02*
X161452380Y-35774819D01*
X161452380Y-35774819D02*
X161357142Y-35774819D01*
X161357142Y-35774819D02*
X161214285Y-35822438D01*
X161214285Y-35822438D02*
X161166666Y-35870057D01*
X160833332Y-35774819D02*
X160166666Y-35774819D01*
X160166666Y-35774819D02*
X160595237Y-36774819D01*
X160366666Y-31169580D02*
X160414285Y-31217200D01*
X160414285Y-31217200D02*
X160557142Y-31264819D01*
X160557142Y-31264819D02*
X160652380Y-31264819D01*
X160652380Y-31264819D02*
X160795237Y-31217200D01*
X160795237Y-31217200D02*
X160890475Y-31121961D01*
X160890475Y-31121961D02*
X160938094Y-31026723D01*
X160938094Y-31026723D02*
X160985713Y-30836247D01*
X160985713Y-30836247D02*
X160985713Y-30693390D01*
X160985713Y-30693390D02*
X160938094Y-30502914D01*
X160938094Y-30502914D02*
X160890475Y-30407676D01*
X160890475Y-30407676D02*
X160795237Y-30312438D01*
X160795237Y-30312438D02*
X160652380Y-30264819D01*
X160652380Y-30264819D02*
X160557142Y-30264819D01*
X160557142Y-30264819D02*
X160414285Y-30312438D01*
X160414285Y-30312438D02*
X160366666Y-30360057D01*
X159509523Y-30598152D02*
X159509523Y-31264819D01*
X159747618Y-30217200D02*
X159985713Y-30931485D01*
X159985713Y-30931485D02*
X159366666Y-30931485D01*
D12*
%TO.C,U2*%
X140895000Y-88175000D02*
X140895000Y-90125000D01*
X140895000Y-88175000D02*
X140895000Y-86225000D01*
X135775000Y-88175000D02*
X135775000Y-90125000D01*
X135775000Y-88175000D02*
X135775000Y-86225000D01*
X141130000Y-91115000D02*
X140800000Y-90875000D01*
X141130000Y-90635000D01*
X141130000Y-91115000D01*
G36*
X141130000Y-91115000D02*
G01*
X140800000Y-90875000D01*
X141130000Y-90635000D01*
X141130000Y-91115000D01*
G37*
%TO.C,C32*%
X125388748Y-119635000D02*
X125911252Y-119635000D01*
X125388748Y-118165000D02*
X125911252Y-118165000D01*
%TO.C,C31*%
X136761252Y-117965000D02*
X136238748Y-117965000D01*
X136761252Y-119435000D02*
X136238748Y-119435000D01*
%TO.C,Y2*%
X140675000Y-112250000D02*
X140675000Y-117350000D01*
X140675000Y-117350000D02*
X124700000Y-117350000D01*
X124700000Y-112250000D02*
X140675000Y-112250000D01*
%TO.C,C35*%
X128561252Y-104572500D02*
X128038748Y-104572500D01*
X128561252Y-103102500D02*
X128038748Y-103102500D01*
%TO.C,C37*%
X131261252Y-109972500D02*
X130738748Y-109972500D01*
X131261252Y-108502500D02*
X130738748Y-108502500D01*
%TO.C,R33*%
X143235000Y-85972936D02*
X143235000Y-86427064D01*
X141765000Y-85972936D02*
X141765000Y-86427064D01*
%TO.C,R34*%
X138474564Y-83910000D02*
X138020436Y-83910000D01*
X138474564Y-82440000D02*
X138020436Y-82440000D01*
%TO.C,C38*%
X144088748Y-90765000D02*
X144611252Y-90765000D01*
X144088748Y-92235000D02*
X144611252Y-92235000D01*
%TO.C,R58*%
X145665000Y-101714564D02*
X145665000Y-101260436D01*
X147135000Y-101714564D02*
X147135000Y-101260436D01*
%TO.C,C34*%
X130035000Y-97576248D02*
X130035000Y-98098752D01*
X128565000Y-97576248D02*
X128565000Y-98098752D01*
%TO.C,C17*%
X132600000Y-87336252D02*
X132600000Y-86813748D01*
X134070000Y-87336252D02*
X134070000Y-86813748D01*
%TO.C,C30*%
X136411252Y-110072500D02*
X135888748Y-110072500D01*
X136411252Y-108602500D02*
X135888748Y-108602500D01*
%TO.C,C36*%
X145335000Y-106788748D02*
X145335000Y-107311252D01*
X143865000Y-106788748D02*
X143865000Y-107311252D01*
%TO.C,C33*%
X144088748Y-93065000D02*
X144611252Y-93065000D01*
X144088748Y-94535000D02*
X144611252Y-94535000D01*
%TO.C,U23*%
X141930000Y-106902500D02*
X141460000Y-106562500D01*
X141930000Y-106222500D01*
X141930000Y-106902500D01*
G36*
X141930000Y-106902500D02*
G01*
X141460000Y-106562500D01*
X141930000Y-106222500D01*
X141930000Y-106902500D01*
G37*
X132190000Y-95727500D02*
X133140000Y-95727500D01*
X142410000Y-95727500D02*
X141460000Y-95727500D01*
X132190000Y-96677500D02*
X132190000Y-95727500D01*
X142410000Y-96677500D02*
X142410000Y-95727500D01*
X132190000Y-104997500D02*
X132190000Y-105947500D01*
X142410000Y-104997500D02*
X142410000Y-105947500D01*
X132190000Y-105947500D02*
X133140000Y-105947500D01*
X142410000Y-105947500D02*
X141460000Y-105947500D01*
%TO.C,R2*%
X164453641Y-31820000D02*
X164146359Y-31820000D01*
X164453641Y-32580000D02*
X164146359Y-32580000D01*
%TO.C,D2*%
X165260000Y-37400000D02*
X165260000Y-38600000D01*
X163300000Y-37400000D02*
X165260000Y-37400000D01*
X163300000Y-38600000D02*
X165260000Y-38600000D01*
%TO.C,C7*%
X161261252Y-37265000D02*
X160738748Y-37265000D01*
X161261252Y-38735000D02*
X160738748Y-38735000D01*
%TO.C,C4*%
X160261252Y-31465000D02*
X159738748Y-31465000D01*
X160261252Y-32935000D02*
X159738748Y-32935000D01*
%TD*%
M02*
